<svg xmlns="http://www.w3.org/2000/svg" width="358" height="225.964" fill="none"><g clip-path="url('#a')" transform="translate(-17 -17.037)"><mask id="b" width="375" height="243" x="0" y="0" maskUnits="userSpaceOnUse"><path fill="#fff" d="M375 0H0v243h375z"/></mask><g mask="url('#b')"><path fill="#fafafb" d="M459.586 45.841H25.415a7.573 7.573 0 0 0-7.573 7.573V333.47a7.572 7.572 0 0 0 7.573 7.572h434.171a7.573 7.573 0 0 0 7.573-7.572V53.414a7.573 7.573 0 0 0-7.573-7.573z"/><path fill="#282828" d="M34.706 72.011h1.272v-7.114h-1.272zm2.596 0h1.228v-3.14c0-.809.453-1.322 1.183-1.322.745 0 1.085.424 1.085 1.262v3.2h1.227v-3.485c0-1.282-.655-2.007-1.858-2.007-.78 0-1.297.35-1.553.927h-.084v-.823h-1.228zm7.99.025c.236 0 .463-.02.64-.054v-.947a3.61 3.61 0 0 1-.413.02c-.513 0-.725-.227-.725-.764v-2.717h1.139v-.951h-1.14V65.3h-1.246v1.322h-.839v.951h.839v3.008c0 1.04.507 1.454 1.745 1.454zm3.819.084c1.464 0 2.184-.843 2.356-1.538l.015-.045h-1.169l-.014.035c-.119.246-.498.581-1.164.581-.833 0-1.356-.562-1.37-1.528h3.766v-.404c0-1.627-.946-2.702-2.48-2.702-1.533 0-2.514 1.11-2.514 2.805v.005c0 1.716.971 2.79 2.574 2.79zm-.045-4.64c.685 0 1.183.44 1.267 1.322h-2.559c.094-.858.607-1.322 1.292-1.322zm3.39 4.531h1.228v-3.13c0-.77.537-1.258 1.355-1.258.212 0 .414.03.612.07v-1.1a1.961 1.961 0 0 0-.498-.06c-.71 0-1.203.341-1.386.918h-.083v-.828h-1.228zm6.067.109c1.464 0 2.184-.843 2.356-1.538l.015-.045h-1.168l-.015.035c-.118.246-.498.581-1.163.581-.834 0-1.356-.562-1.371-1.528h3.767v-.404c0-1.627-.947-2.702-2.48-2.702-1.534 0-2.515 1.11-2.515 2.805v.005c0 1.716.971 2.79 2.574 2.79zm-.045-4.64c.686 0 1.184.44 1.267 1.322h-2.558c.093-.858.606-1.322 1.291-1.322zm5.426 4.64c1.327 0 2.288-.686 2.288-1.711v-.01c0-.784-.498-1.233-1.553-1.47l-.873-.191c-.581-.133-.808-.326-.808-.641v-.005c0-.404.394-.67.942-.67.576 0 .931.275 1.02.615l.005.015h1.154v-.01c-.08-.872-.863-1.523-2.175-1.523-1.272 0-2.159.67-2.159 1.642v.005c0 .793.488 1.277 1.514 1.503l.872.198c.592.133.829.34.829.655v.01c0 .404-.424.68-1.036.68-.611 0-.971-.26-1.1-.636l-.004-.01h-1.218v.01c.104.913.932 1.544 2.302 1.544zm5.303-.084c.237 0 .464-.02.641-.054v-.947c-.148.015-.242.02-.414.02-.513 0-.725-.227-.725-.764v-2.717h1.14v-.951h-1.14V65.3h-1.247v1.322h-.838v.951h.838v3.008c0 1.04.508 1.454 1.745 1.454zm3.55-.025h1.332l.591-1.839h2.633l.596 1.84h1.332l-2.525-7.115h-1.434zm3.2-5.793h.084l.956 2.973h-1.996zm6.092 5.902c1.365 0 2.16-.735 2.337-1.84l.01-.039-1.16.005-.009.02c-.153.567-.542.858-1.178.858-.834 0-1.332-.67-1.332-1.814v-.01c0-1.13.493-1.79 1.332-1.79.67 0 1.07.375 1.183.897l.005.015h1.158v-.02c-.138-1.114-.966-1.883-2.351-1.883-1.622 0-2.574 1.04-2.574 2.78v.01c0 1.76.957 2.81 2.579 2.81zm5.524 0c1.366 0 2.16-.735 2.337-1.84l.01-.039-1.159.005-.01.02c-.152.567-.542.858-1.178.858-.833 0-1.33-.67-1.33-1.814v-.01c0-1.13.492-1.79 1.33-1.79.67 0 1.07.375 1.184.897l.004.015h1.159v-.02c-.138-1.114-.966-1.883-2.352-1.883-1.622 0-2.573 1.04-2.573 2.78v.01c0 1.76.956 2.81 2.578 2.81zm5.54 0c1.612 0 2.593-1.055 2.593-2.8v-.01c0-1.736-.986-2.791-2.593-2.791-1.603 0-2.594 1.06-2.594 2.79v.01c0 1.746.977 2.8 2.594 2.8zm0-.996c-.853 0-1.341-.666-1.341-1.8v-.01c0-1.133.488-1.804 1.34-1.804.849 0 1.337.67 1.337 1.804v.01c0 1.134-.483 1.8-1.336 1.8zm5.307.996c.78 0 1.326-.35 1.578-.927h.083v.818h1.228v-5.388h-1.228v3.14c0 .809-.423 1.321-1.217 1.321-.74 0-1.05-.424-1.05-1.257v-3.204h-1.228v3.485c0 1.282.621 2.012 1.834 2.012zm4.085-.109h1.227v-3.14c0-.809.454-1.322 1.184-1.322.744 0 1.084.424 1.084 1.262v3.2h1.228v-3.485c0-1.282-.656-2.007-1.859-2.007-.779 0-1.296.35-1.553.927h-.084v-.823h-1.227zm7.989.025c.237 0 .464-.02.641-.054v-.947c-.148.015-.241.02-.414.02-.513 0-.725-.227-.725-.764v-2.717h1.139v-.951h-1.139V65.3h-1.247v1.322h-.838v.951h.838v3.008c0 1.04.508 1.454 1.745 1.454z"/><path fill="#999" d="M35.436 93.79h.517v-3.683h1.338v-.466h-3.192v.466h1.337v3.684zm3.29.056c.883 0 1.43-.61 1.43-1.602v-.006c0-.995-.547-1.602-1.43-1.602-.883 0-1.43.607-1.43 1.602v.006c0 .992.547 1.602 1.43 1.602zm0-.443c-.587 0-.917-.429-.917-1.16v-.005c0-.734.33-1.16.917-1.16s.917.426.917 1.16v.006c0 .73-.33 1.159-.917 1.159zm3.307.41c.098 0 .193-.01.29-.028v-.425a2.073 2.073 0 0 1-.23.011c-.321 0-.448-.147-.448-.512v-1.754h.679v-.414h-.679v-.803h-.518v.803h-.489v.414h.49v1.88c0 .593.267.829.905.829zm1.89.033c.417 0 .742-.182.937-.512h.046v.457h.5v-2.123c0-.644-.422-1.032-1.178-1.032-.662 0-1.134.328-1.214.814l-.003.017h.5l.003-.008c.08-.242.325-.38.696-.38.463 0 .696.207.696.59v.281l-.888.055c-.722.043-1.13.362-1.13.915v.005c0 .564.445.92 1.035.92zm-.524-.932v-.006c0-.308.207-.475.68-.503l.827-.052v.282c0 .443-.37.776-.88.776-.36 0-.627-.184-.627-.497zm2.951.877h.5V89.46h-.5v4.33zm3.18 0h1.62c.883 0 1.406-.434 1.406-1.162v-.006c0-.546-.36-.934-.926-1.006v-.046c.4-.072.716-.463.716-.892v-.006c0-.632-.465-1.032-1.228-1.032h-1.587v4.15zm1.48-3.693c.514 0 .813.245.813.665v.005c0 .437-.32.662-.946.662h-.829v-1.332h.961zm.014 1.778c.66 0 1 .244 1 .721v.006c0 .478-.328.73-.952.73h-1.024v-1.457h.975zm3.166 1.97c.417 0 .742-.182.937-.512h.046v.457h.5v-2.123c0-.644-.422-1.032-1.178-1.032-.662 0-1.133.328-1.214.814l-.003.017h.5l.004-.008c.08-.242.325-.38.696-.38.462 0 .695.207.695.59v.281l-.888.055c-.722.043-1.13.362-1.13.915v.005c0 .564.445.92 1.035.92zm-.523-.932v-.006c0-.308.206-.475.678-.503l.828-.052v.282c0 .443-.37.776-.88.776-.36 0-.627-.184-.627-.497zm2.95.877h.5V89.46h-.5v4.33zm2.312.055c.417 0 .742-.182.938-.512h.046v.457h.5v-2.123c0-.644-.422-1.032-1.179-1.032-.661 0-1.133.328-1.213.814l-.003.017h.5l.003-.008c.08-.242.325-.38.696-.38.463 0 .696.207.696.59v.281l-.889.055c-.721.043-1.13.362-1.13.915v.005c0 .564.446.92 1.035.92zm-.523-.932v-.006c0-.308.207-.475.679-.503l.828-.052v.282c0 .443-.371.776-.88.776-.36 0-.627-.184-.627-.497zm2.922.877h.5v-1.835c0-.544.314-.877.808-.877.495 0 .725.267.725.825v1.887h.5v-2.007c0-.737-.388-1.148-1.084-1.148-.457 0-.747.193-.903.52h-.046v-.465h-.5zm4.708.055c.745 0 1.162-.4 1.288-.961l.006-.032-.495.003-.005.018c-.115.345-.38.529-.797.529-.552 0-.909-.458-.909-1.17v-.007c0-.698.351-1.147.909-1.147.446 0 .722.247.8.552l.002.009h.498l-.003-.017c-.092-.553-.543-.987-1.297-.987-.868 0-1.42.627-1.42 1.59v.006c0 .984.554 1.614 1.423 1.614zm3.293 0c.73 0 1.173-.415 1.28-.835l.005-.022h-.5l-.011.025c-.084.187-.343.386-.763.386-.552 0-.906-.374-.92-1.015h2.232v-.196c0-.926-.512-1.553-1.355-1.553s-1.389.656-1.389 1.613v.003c0 .972.535 1.594 1.42 1.594zm-.035-2.764c.458 0 .797.29.849.903h-1.714c.054-.59.405-.903.865-.903z"/><mask id="c" width="8" height="8" x="73" y="88" maskUnits="userSpaceOnUse"><path fill="#fff" d="M80.242 88.925h-6.731v6.732h6.731z"/></mask><g stroke="#999" stroke-linecap="round" stroke-linejoin="round" stroke-width=".589" mask="url('#c')"><path d="M73.96 92.091a5.524 5.524 0 0 1 1.07-1.276c.501-.428 1.12-.754 1.846-.754s1.345.326 1.845.754c.502.428.865.942 1.07 1.276a.375.375 0 0 1 0 .4 5.522 5.522 0 0 1-1.07 1.276c-.5.427-1.12.754-1.845.754-.725 0-1.345-.327-1.845-.754a5.524 5.524 0 0 1-1.07-1.276.375.375 0 0 1 0-.4z"/><path d="M76.877 93.132a.841.841 0 1 0 0-1.682.841.841 0 0 0 0 1.682z"/></g><path fill="#282828" d="M87.834 95.878h.481v-.682c1.093-.078 1.919-.661 1.919-1.672v-.008c0-.887-.592-1.331-1.689-1.586l-.23-.053v-1.594c.493.07.834.361.888.842l.004.008.953-.004v-.004c-.037-.94-.777-1.582-1.845-1.668v-.69h-.48v.69c-1.073.074-1.841.686-1.841 1.627v.008c0 .855.575 1.331 1.63 1.574l.21.049v1.66c-.616-.066-.92-.386-.99-.834l-.004-.008-.953.004-.004.004c.033.994.863 1.586 1.951 1.655zm-.85-4.86v-.008c0-.354.292-.662.85-.727v1.483c-.608-.16-.85-.403-.85-.748zm2.26 2.597v.008c0 .407-.288.698-.929.752v-1.55c.703.177.929.4.929.79zm4.293-4.4c-1.286 0-2.202.879-2.202 2.082v.009c0 1.125.797 1.955 1.935 1.955.813 0 1.331-.415 1.549-.883h.082c0 .045-.004.09-.004.136-.045 1.133-.444 2.054-1.385 2.054-.522 0-.887-.271-1.043-.686l-.013-.041h-1.043l.008.045c.19.908 1.002 1.553 2.091 1.553 1.492 0 2.391-1.183 2.391-3.18v-.008c0-2.137-1.1-3.037-2.366-3.037zm-.004 3.233c-.674 0-1.163-.493-1.163-1.18v-.008c0-.661.522-1.183 1.175-1.183.657 0 1.171.53 1.171 1.208v.008c0 .67-.513 1.155-1.183 1.155zm3.607 2.843h1.11l2.534-5.045v-.884h-4.125v.867h3.057v.066zm3.661 1.565h.698l.715-2.469h-1.056l-.357 2.47zm4.659-7.641c-1.286 0-2.203.879-2.203 2.082v.009c0 1.125.797 1.955 1.936 1.955.813 0 1.331-.415 1.548-.883h.083c0 .045-.005.09-.005.136-.045 1.133-.443 2.054-1.384 2.054-.522 0-.888-.271-1.044-.686l-.012-.041h-1.044l.009.045c.189.908 1.002 1.553 2.091 1.553 1.491 0 2.391-1.183 2.391-3.18v-.008c0-2.137-1.101-3.037-2.366-3.037zm-.005 3.233c-.673 0-1.162-.493-1.162-1.18v-.008c0-.661.522-1.183 1.175-1.183.657 0 1.171.53 1.171 1.208v.008c0 .67-.514 1.155-1.184 1.155zm6.249 2.843h1.015v-1.138h.797v-.875h-.797v-3.916h-1.499a78.157 78.157 0 0 0-2.416 3.924v.867h2.9zm-1.914-1.989v-.061a61.23 61.23 0 0 1 1.869-3.032h.062v3.093zm7.005 2.137c1.409 0 2.264-1.196 2.264-3.11v-.008c0-1.915-.855-3.106-2.264-3.106-1.409 0-2.256 1.19-2.256 3.105v.009c0 1.914.847 3.11 2.256 3.11zm0-.859c-.756 0-1.187-.846-1.187-2.251v-.008c0-1.406.431-2.244 1.187-2.244s1.195.838 1.195 2.243v.009c0 1.405-.439 2.251-1.195 2.251zm3.792.793a.636.636 0 0 0 .653-.65.636.636 0 0 0-.653-.648.638.638 0 0 0-.653.649c0 .366.279.65.653.65zm3.883.066c1.281 0 2.181-.842 2.181-2.075v-.008c0-1.134-.801-1.956-1.906-1.956-.559 0-1.019.238-1.266.637h-.069l.164-1.804h2.732v-.87h-3.558l-.288 3.471h.908c.07-.131.169-.246.276-.337.217-.197.505-.296.838-.296.678 0 1.163.485 1.163 1.175v.009c0 .698-.477 1.187-1.171 1.187-.608 0-1.056-.386-1.134-.871l-.004-.029h-.978l.004.054c.078.973.896 1.713 2.108 1.713zm6.043-.148h1.015v-1.138h.797v-.875h-.797v-3.916h-1.5a78.892 78.892 0 0 0-2.415 3.924v.867h2.9zm-1.914-1.989v-.061a61.23 61.23 0 0 1 1.869-3.032h.062v3.093zm-93.981 22.086h.742v-1.694h1.74v-.604h-1.74v-1.228h1.904v-.624h-2.646zm3.762-3.67a.423.423 0 0 0 .426-.422.427.427 0 0 0-.854 0c0 .236.192.422.428.422zm-.36 3.67h.717v-3.143h-.717Zm1.358 0h.77l.642-1.093h.049l.644 1.093h.805l-1.026-1.59 1.015-1.553h-.785l-.621 1.09h-.05l-.623-1.09h-.829l1.027 1.584zm4.725.063c.854 0 1.274-.491 1.375-.897l.008-.026h-.681l-.009.02c-.069.144-.29.34-.678.34-.487 0-.791-.328-.8-.892h2.197v-.236c0-.949-.552-1.576-1.446-1.576-.895 0-1.467.647-1.467 1.637v.003c0 1 .566 1.627 1.501 1.627zm-.026-2.706c.4 0 .69.256.74.771h-1.493c.054-.5.354-.771.753-.771zm3.287 2.695c.443 0 .783-.201.955-.544h.05v.492h.718v-4.36h-.719v1.717h-.049c-.164-.339-.523-.552-.955-.552-.796 0-1.288.621-1.288 1.622v.006c0 .995.5 1.619 1.288 1.619zm.225-.604c-.49 0-.785-.382-.785-1.015v-.006c0-.633.299-1.018.785-1.018.486 0 .79.388.79 1.018v.006c0 .63-.301 1.015-.79 1.015z"/><path fill="#2a80fb" d="M65.876 109.229h-11c-.93 0-1.683.753-1.683 1.683v5.317c0 .929.754 1.683 1.683 1.683h11c.93 0 1.683-.754 1.683-1.683v-5.317c0-.93-.753-1.683-1.683-1.683z"/><path fill="#fff" d="M55.33 115.071h.439v-2.759h.04l1.93 2.759h.43v-3.557h-.438v2.768h-.04l-1.93-2.768h-.43v3.557zm4.777.047c.627 0 1.006-.355 1.097-.715l.005-.02h-.429l-.01.022c-.071.16-.293.331-.653.331-.473 0-.776-.321-.789-.871h1.913v-.167c0-.794-.438-1.331-1.16-1.331-.723 0-1.191.562-1.191 1.383v.002c0 .833.458 1.366 1.217 1.366zm-.03-2.369c.393 0 .684.249.728.774h-1.47c.048-.506.348-.774.743-.774zm2.343 2.322h.429l.591-2.056h.04l.594 2.056h.431l.745-2.658h-.427l-.522 2.125h-.04l-.594-2.125h-.407l-.594 2.125h-.04l-.522-2.125h-.429z"/><path fill="#2a80fb" d="M33.828 119.327v.841h33.236v-.841z"/><path fill="#999" d="M78.542 115.388h.742v-1.694h1.74v-.604h-1.74v-1.228h1.904v-.624h-2.646zm3.422 0h.716v-4.36h-.716zm2.968.063c.854 0 1.274-.491 1.375-.897l.009-.026h-.682l-.009.02c-.069.144-.29.34-.678.34-.486 0-.791-.328-.8-.892h2.197v-.236c0-.949-.552-1.576-1.446-1.576-.895 0-1.467.647-1.467 1.637v.003c0 1 .567 1.627 1.501 1.627zm-.026-2.706c.4 0 .69.256.74.771h-1.493c.055-.5.354-.771.753-.771zm1.79 2.643h.77l.641-1.093h.05l.643 1.093h.806l-1.027-1.59 1.015-1.553h-.785l-.621 1.09h-.049l-.624-1.09h-.828l1.026 1.584-1.018 1.559zm3.908-3.67a.423.423 0 0 0 .425-.422.427.427 0 0 0-.854 0c0 .236.193.422.429.422zm-.36 3.67h.716v-3.143h-.716zm3.345.052c.788 0 1.291-.624 1.291-1.619v-.006c0-1.001-.495-1.622-1.291-1.622-.431 0-.791.213-.955.552h-.049v-1.717h-.716v4.36h.716v-.492h.05c.172.343.514.544.954.544zm-.224-.604c-.486 0-.788-.385-.788-1.015v-.006c0-.63.302-1.018.788-1.018.489 0 .785.385.785 1.018v.006c0 .633-.297 1.015-.785 1.015zm2.26.552h.716v-4.36h-.716zm2.968.063c.854 0 1.274-.491 1.375-.897l.008-.026h-.681l-.009.02c-.069.144-.29.34-.679.34-.486 0-.79-.328-.8-.892h2.198v-.236c0-.949-.552-1.576-1.447-1.576-.894 0-1.466.647-1.466 1.637v.003c0 1 .566 1.627 1.501 1.627zm-.026-2.706c.4 0 .69.256.74.771h-1.493c.054-.5.353-.771.753-.771z"/><path fill="#fff" d="M33.828 132.851a3.366 3.366 0 0 1 3.366-3.366h410.612a3.365 3.365 0 0 1 3.365 3.366v21.097H33.828Z"/><path fill="#282828" d="M44.13 143.216h.777l.346-1.072h1.535l.348 1.072h.777l-1.473-4.15h-.837l-1.472 4.15zm1.867-3.379h.05l.557 1.734H45.44l.558-1.734zm3.667 3.443c.774 0 1.335-.4 1.335-.998v-.006c0-.457-.29-.719-.906-.857l-.51-.112c-.339-.078-.471-.19-.471-.374v-.003c0-.236.23-.391.55-.391.336 0 .543.161.595.359l.003.009h.672v-.006c-.046-.509-.503-.888-1.268-.888-.742 0-1.26.391-1.26.957v.003c0 .463.285.745.883.877l.51.115c.345.078.483.199.483.383v.006c0 .235-.248.396-.604.396-.357 0-.567-.152-.642-.371l-.002-.005h-.71v.005c.06.532.543.901 1.342.901zm3.187 0c.773 0 1.334-.4 1.334-.998v-.006c0-.457-.29-.719-.906-.857l-.509-.112c-.34-.078-.472-.19-.472-.374v-.003c0-.236.23-.391.55-.391.336 0 .543.161.595.359l.003.009h.673v-.006c-.046-.509-.503-.888-1.268-.888-.742 0-1.26.391-1.26.957v.003c0 .463.285.745.883.877l.509.115c.345.078.483.199.483.383v.006c0 .235-.247.396-.604.396-.356 0-.566-.152-.641-.371l-.003-.005h-.71v.005c.06.532.543.901 1.343.901zm3.402 0c.854 0 1.274-.492 1.375-.898l.008-.026h-.681l-.009.021c-.069.143-.29.339-.679.339-.486 0-.79-.328-.8-.892h2.198v-.235c0-.95-.552-1.576-1.447-1.576-.894 0-1.466.647-1.466 1.636v.003c0 1.001.566 1.628 1.501 1.628zm-.026-2.707c.4 0 .69.256.74.771h-1.493c.054-.5.353-.771.753-.771zm3.39 2.658c.139 0 .271-.012.375-.032v-.552a2.02 2.02 0 0 1-.242.011c-.299 0-.423-.132-.423-.445v-1.585h.665v-.555h-.665v-.771H58.6v.771h-.49v.555h.49v1.754c0 .607.296.849 1.018.849zm52.134-.015h1.775c.885 0 1.426-.448 1.426-1.176v-.006c0-.538-.385-.94-.943-.992v-.052a.901.901 0 0 0 .739-.885v-.006c0-.636-.475-1.033-1.263-1.033h-1.734zm1.553-3.572c.449 0 .711.216.711.584v.006c0 .377-.279.581-.806.581h-.716v-1.171zm.023 1.697c.567 0 .866.222.866.642v.005c0 .423-.291.65-.837.65h-.863v-1.297zm3.215 1.927c.415 0 .748-.178.921-.483h.049v.431h.707v-2.148c0-.664-.454-1.055-1.262-1.055-.748 0-1.254.35-1.323.88l-.003.025h.676l.003-.011c.071-.207.284-.325.612-.325.385 0 .59.173.59.486v.27l-.808.049c-.765.046-1.194.374-1.194.935v.006c0 .572.434.94 1.032.94zm-.324-.975v-.006c0-.258.186-.405.586-.431l.708-.046v.253c0 .374-.32.656-.751.656-.316 0-.543-.158-.543-.426zm2.89.923h.716v-4.36h-.716zm2.479.052c.414 0 .748-.178.92-.483h.049v.431h.708v-2.148c0-.664-.455-1.055-1.263-1.055-.748 0-1.254.35-1.323.88l-.003.025h.676l.003-.011c.072-.207.285-.325.613-.325.385 0 .589.173.589.486v.27l-.808.049c-.765.046-1.194.374-1.194.935v.006c0 .572.435.94 1.033.94zm-.325-.975v-.006c0-.258.187-.405.587-.431l.707-.046v.253c0 .374-.319.656-.751.656-.316 0-.543-.158-.543-.426zm2.861.923h.717v-1.832c0-.471.264-.77.69-.77.434 0 .633.247.633.736v1.866h.716v-2.033c0-.748-.383-1.17-1.085-1.17-.454 0-.756.204-.906.54h-.048v-.48h-.717zm4.95.064c.797 0 1.26-.429 1.363-1.073l.006-.023-.676.003-.006.011c-.089.331-.316.501-.687.501-.486 0-.777-.391-.777-1.059v-.005c0-.659.288-1.044.777-1.044.391 0 .624.218.69.523l.003.009h.676v-.012c-.081-.65-.564-1.098-1.372-1.098-.946 0-1.501.606-1.501 1.622v.005c0 1.027.558 1.64 1.504 1.64zm3.396 0c.855 0 1.274-.492 1.375-.898l.009-.026h-.682l-.008.021c-.069.143-.291.339-.679.339-.486 0-.791-.328-.8-.892h2.198v-.235c0-.95-.553-1.576-1.447-1.576s-1.467.647-1.467 1.636v.003c0 1.001.567 1.628 1.501 1.628zm-.025-2.707c.399 0 .69.256.739.771h-1.493c.055-.5.354-.771.754-.771zm46.314 2.643h.776l.346-1.072h1.535l.348 1.072h.777l-1.473-4.15h-.837zm1.866-3.379h.049l.558 1.734h-1.165zm2.629 3.379h.742v-1.372h.915c.842 0 1.412-.557 1.412-1.386v-.005c0-.832-.57-1.387-1.412-1.387h-1.657zm1.475-3.543c.532 0 .843.285.843.782v.006c0 .498-.311.785-.843.785h-.733v-1.573zm2.413 3.543h.742v-1.561h.823l.814 1.561h.848l-.906-1.673c.492-.179.782-.633.782-1.183v-.005c0-.791-.534-1.289-1.426-1.289h-1.677zm.742-2.131v-1.418h.843c.472 0 .756.271.756.705v.006c0 .446-.273.707-.742.707zm58.494 2.131h2.686v-.624h-1.944v-1.188h1.838v-.589h-1.838v-1.125h1.944v-.624h-2.686zm3.293 0h.771l.641-1.093h.049l.644 1.093h.806l-1.027-1.59 1.015-1.553h-.785l-.621 1.09h-.049l-.624-1.09h-.829l1.027 1.585zm3.54 1.044h.716v-1.544h.049c.164.339.524.552.955.552.797 0 1.291-.618 1.291-1.619v-.006c0-.995-.503-1.622-1.291-1.622-.44 0-.782.201-.955.544h-.049v-.492h-.716zm1.496-1.596c-.486 0-.788-.388-.788-1.018v-.006c0-.63.302-1.015.788-1.015.489 0 .785.385.785 1.018v.006c0 .63-.296 1.015-.785 1.015zm2.605-3.117a.424.424 0 0 0 .426-.423.427.427 0 0 0-.854 0c0 .236.193.423.428.423zm-.359 3.669h.716v-3.143h-.716zm1.596 0h.716v-1.826c0-.449.314-.733.791-.733.124 0 .242.017.357.04v-.641a1.15 1.15 0 0 0-.291-.035c-.414 0-.701.199-.808.535h-.049v-.483h-.716zm3.267.052c.414 0 .748-.178.921-.483h.048v.431h.708v-2.148c0-.664-.455-1.055-1.263-1.055-.747 0-1.254.35-1.323.88l-.002.025h.675l.003-.011c.072-.207.285-.325.613-.325.385 0 .589.173.589.486v.27l-.808.049c-.765.046-1.193.374-1.193.935v.006c0 .572.434.94 1.032.94zm-.325-.975v-.006c0-.258.187-.405.587-.431l.707-.046v.253c0 .374-.319.656-.75.656-.317 0-.544-.158-.544-.426zm4.098.938c.138 0 .271-.012.374-.032v-.552a2.013 2.013 0 0 1-.241.011c-.299 0-.423-.132-.423-.445v-1.585h.664v-.555h-.664v-.771h-.728v.771h-.489v.555h.489v1.754c0 .607.297.849 1.018.849zm1.456-3.684a.424.424 0 1 0 0-.846.427.427 0 0 0-.429.423c0 .236.193.423.429.423zm-.36 3.669h.716v-3.143h-.716zm2.954.064c.94 0 1.513-.616 1.513-1.634v-.006c0-1.012-.576-1.627-1.513-1.627-.935 0-1.513.618-1.513 1.627v.006c0 1.018.569 1.634 1.513 1.634zm0-.581c-.498 0-.782-.389-.782-1.05v-.006c0-.661.284-1.052.782-1.052.494 0 .779.391.779 1.052v.006c0 .661-.282 1.05-.779 1.05zm2.231.517h.717v-1.832c0-.471.264-.77.69-.77.434 0 .633.247.633.736v1.866h.716v-2.033c0-.748-.383-1.17-1.085-1.17-.454 0-.756.204-.906.54h-.048v-.48h-.717zm5.246 0h1.556c1.242 0 1.953-.762 1.953-2.091v-.005c0-1.3-.719-2.054-1.953-2.054h-1.556zm.742-.624v-2.902h.716c.814 0 1.294.53 1.294 1.441v.006c0 .932-.468 1.455-1.294 1.455zm4.383.676c.414 0 .748-.178.92-.483h.049v.431h.708v-2.148c0-.664-.455-1.055-1.263-1.055-.747 0-1.254.35-1.323.88l-.003.025h.676l.003-.011c.072-.207.285-.325.613-.325.385 0 .589.173.589.486v.27l-.808.049c-.765.046-1.193.374-1.193.935v.006c0 .572.434.94 1.032.94zm-.325-.975v-.006c0-.258.187-.405.587-.431l.707-.046v.253c0 .374-.319.656-.75.656-.317 0-.544-.158-.544-.426zm4.098.938c.138 0 .271-.012.374-.032v-.552a2.013 2.013 0 0 1-.241.011c-.299 0-.423-.132-.423-.445v-1.585h.664v-.555h-.664v-.771h-.728v.771h-.489v.555h.489v1.754c0 .607.297.849 1.018.849zm2.405.049c.854 0 1.274-.492 1.374-.898l.009-.026h-.682l-.008.021c-.069.143-.291.339-.679.339-.486 0-.791-.328-.799-.892h2.197v-.235c0-.95-.552-1.576-1.447-1.576-.894 0-1.467.647-1.467 1.636v.003c0 1.001.567 1.628 1.502 1.628zm-.026-2.707c.4 0 .69.256.739.771h-1.493c.055-.5.354-.771.754-.771zm26.739 2.747c.996 0 1.62-.506 1.62-1.314v-.003c0-.627-.366-.978-1.24-1.162l-.446-.095c-.517-.109-.727-.293-.727-.587v-.002c0-.354.328-.57.788-.57.474-.003.782.227.834.549l.005.035h.711l-.003-.037c-.052-.668-.624-1.171-1.544-1.171-.898 0-1.536.5-1.536 1.242v.003c0 .619.368 1.016 1.216 1.194l.446.092c.535.115.751.296.751.595v.003c0 .357-.351.604-.852.604-.526 0-.897-.23-.931-.578l-.003-.029h-.719l.003.04c.051.717.664 1.191 1.627 1.191zm3.616-.089c.138 0 .27-.012.373-.032v-.552a2.002 2.002 0 0 1-.241.012c-.299 0-.423-.133-.423-.446v-1.585h.664v-.555h-.664v-.771h-.728v.771h-.488v.555h.488v1.755c0 .606.297.848 1.019.848zm1.944.037c.414 0 .747-.178.92-.483h.049v.432h.707v-2.149c0-.664-.454-1.055-1.262-1.055-.748 0-1.254.351-1.323.88l-.003.026h.676l.003-.012c.072-.207.284-.325.612-.325.386 0 .59.173.59.486v.271l-.808.048c-.765.046-1.194.374-1.194.935v.006c0 .572.434.94 1.033.94zm-.325-.975v-.005c0-.259.187-.406.586-.432l.708-.046v.253c0 .374-.319.656-.751.656-.316 0-.543-.158-.543-.426zm4.098.938c.138 0 .27-.012.374-.032v-.552a2.02 2.02 0 0 1-.242.012c-.299 0-.423-.133-.423-.446v-1.585h.665v-.555h-.665v-.771h-.727v.771h-.489v.555h.489v1.755c0 .606.296.848 1.018.848zm2.128.049c.454 0 .774-.204.92-.541h.049v.478h.716v-3.144h-.716v1.832c0 .472-.247.771-.71.771-.431 0-.613-.247-.613-.733v-1.87h-.716v2.033c0 .748.363 1.174 1.07 1.174zm3.747 0c.774 0 1.335-.4 1.335-.998v-.006c0-.457-.291-.719-.906-.857l-.509-.112c-.339-.078-.472-.19-.472-.374v-.003c0-.236.23-.391.55-.391.336 0 .543.161.595.36l.003.008h.673v-.006c-.046-.509-.504-.888-1.269-.888-.742 0-1.259.391-1.259.957v.003c0 .463.285.745.883.877l.509.116c.345.077.483.198.483.382v.006c0 .236-.247.397-.604.397s-.567-.153-.641-.371l-.003-.006h-.711v.006c.061.532.544.9 1.343.9z"/><path fill="#fff" d="M451.171 154.368H33.828v28.097h417.343z"/><path fill="url('#d')" d="M53.87 169.638a5.047 5.047 0 1 1-9.794-2.442 5.047 5.047 0 0 1 9.795 2.442z" style="fill:url(#d)"/><path fill="#fff" fill-rule="evenodd" d="M50.493 167.83c.068-.455-.279-.7-.753-.864l.154-.617-.376-.094-.15.601-.301-.071.15-.605-.375-.093-.154.617c-.082-.019-.162-.037-.24-.057v-.002l-.518-.129-.1.401s.28.064.273.068c.152.038.18.139.175.219l-.175.703.039.013-.04-.01-.245.985c-.02.046-.066.116-.173.089a5.434 5.434 0 0 1-.273-.068l-.186.43.489.122a31.924 31.924 0 0 1 .268.069l-.156.625.375.093.155-.617.299.077-.154.615.376.094.156-.623c.64.121 1.123.072 1.325-.507.164-.467-.008-.736-.345-.912.246-.057.43-.218.48-.552zm-.859 1.204c-.106.429-.777.251-1.083.17l-.073-.019.206-.827.092.021c.317.072.967.217.858.655zm-.794-1.038c.256.068.813.217.91-.172.1-.398-.443-.518-.707-.577l-.078-.018-.187.751z" clip-rule="evenodd"/><path fill="#282828" d="M59.583 169.917h1.775c.885 0 1.426-.449 1.426-1.176v-.006c0-.538-.385-.94-.943-.992v-.052a.902.902 0 0 0 .739-.886v-.006c0-.635-.475-1.032-1.263-1.032h-1.734zm1.553-3.572c.449 0 .71.216.71.584v.006c0 .376-.279.581-.805.581h-.716v-1.171zm.023 1.697c.567 0 .866.221.866.641v.006c0 .423-.29.65-.837.65h-.863v-1.297zm2.726-1.795a.424.424 0 0 0 .426-.422.427.427 0 0 0-.854 0c0 .235.193.422.428.422zm-.36 3.67h.717v-3.143h-.716v3.143zm2.834.014c.138 0 .27-.011.374-.031v-.552a2.265 2.265 0 0 1-.242.011c-.3 0-.423-.132-.423-.446v-1.584h.665v-.555h-.665v-.771h-.727v.771h-.49v.555h.49v1.754c0 .607.296.848 1.018.848zm2.407.049c.796 0 1.26-.428 1.363-1.072l.006-.023-.676.002-.006.012c-.089.331-.316.5-.687.5-.486 0-.777-.391-.777-1.058v-.006c0-.658.288-1.044.777-1.044.391 0 .624.219.69.524l.003.008h.676v-.011c-.08-.65-.564-1.099-1.372-1.099-.946 0-1.501.607-1.501 1.622v.006c0 1.027.558 1.639 1.504 1.639zm3.408 0c.94 0 1.513-.615 1.513-1.633v-.006c0-1.012-.575-1.628-1.513-1.628-.935 0-1.513.619-1.513 1.628v.006c0 1.018.57 1.633 1.513 1.633zm0-.581c-.498 0-.782-.388-.782-1.049v-.006c0-.662.284-1.053.782-1.053.495 0 .78.391.78 1.053v.006c0 .661-.283 1.049-.78 1.049zm2.6-3.152a.424.424 0 0 0 .425-.422.427.427 0 0 0-.854 0c0 .235.193.422.429.422zm-.36 3.67h.716v-3.143h-.716zm1.596 0h.716v-1.832c0-.472.265-.771.69-.771.435 0 .633.248.633.737v1.866h.717v-2.033c0-.748-.383-1.171-1.085-1.171-.454 0-.756.204-.906.541h-.049v-.48h-.716Zm36.707-3.5h.518v-4.15h-.515l-1.104.794v.546l1.055-.765h.046zm3.44 0h1.619c.883 0 1.407-.435 1.407-1.162v-.006c0-.546-.36-.935-.926-1.006v-.046c.399-.072.716-.464.716-.892v-.006c0-.632-.466-1.032-1.228-1.032h-1.588zm1.478-3.693c.515 0 .814.244.814.664v.006c0 .437-.319.662-.946.662h-.828v-1.332zm.015 1.777c.661 0 1.001.245 1.001.722v.006c0 .477-.328.73-.952.73h-1.024v-1.458zm3.457 1.916h.517v-3.684h1.338v-.466h-3.193v.466h1.338zm4.152.098c.883 0 1.539-.492 1.677-1.252v-.005h-.523l-.006.005c-.129.478-.569.774-1.148.774-.799 0-1.299-.653-1.299-1.691v-.006c0-1.038.5-1.694 1.297-1.694.572 0 1.015.337 1.153.869l.003.006h.52l.003-.006c-.124-.797-.805-1.346-1.679-1.346-1.128 0-1.83.834-1.83 2.171v.006c0 1.335.705 2.169 1.832 2.169z"/><path fill="#999" d="M112.687 175.774h.296v-.414c.582-.047 1.065-.38 1.065-.971v-.005c0-.515-.355-.777-.989-.929l-.076-.018v-1.131c.333.042.57.246.602.577v.005l.428-.003v-.002c-.019-.543-.46-.912-1.03-.964v-.417h-.296v.417c-.584.054-1.001.414-1.001.941v.005c0 .484.331.757.945.905l.056.015v1.186c-.429-.047-.618-.291-.663-.597v-.005l-.429.003v.002c.02.572.506.929 1.092.984zm-.572-2.938v-.005c0-.237.198-.473.572-.525v1.06c-.424-.104-.572-.291-.572-.53zm.883 1.023c.488.118.621.291.621.559v.005c0 .284-.177.516-.636.552v-1.119zm3.029 1.617c.713 0 1.235-.439 1.235-1.033v-.005c0-.505-.352-.828-.87-.873v-.009c.444-.094.755-.395.755-.834v-.005c0-.539-.447-.917-1.124-.917-.666 0-1.125.387-1.181.967l-.003.024h.427l.002-.024c.037-.36.335-.582.755-.582.433 0 .677.214.677.587v.005c0 .355-.295.616-.719.616h-.427v.375H116c.498 0 .811.244.811.68v.005c0 .377-.318.638-.784.638-.473 0-.796-.241-.83-.591l-.003-.025h-.426l.002.03c.047.562.523.971 1.257.971zm3.146.025c.786 0 1.26-.718 1.26-1.862v-.005c0-1.143-.474-1.858-1.26-1.858s-1.255.715-1.255 1.858v.005c0 1.144.469 1.862 1.255 1.862zm0-.387c-.51 0-.809-.567-.809-1.475v-.005c0-.907.299-1.469.809-1.469s.813.562.813 1.469v.005c0 .908-.303 1.475-.813 1.475zm1.686 1.207h.318l.387-1.402h-.49zm2.598-.82c.787 0 1.26-.718 1.26-1.862v-.005c0-1.143-.473-1.858-1.26-1.858-.786 0-1.254.715-1.254 1.858v.005c0 1.144.468 1.862 1.254 1.862zm0-.387c-.51 0-.808-.567-.808-1.475v-.005c0-.907.298-1.469.808-1.469.511 0 .814.562.814 1.469v.005c0 .908-.303 1.475-.814 1.475zm3.2.362c.712 0 1.235-.439 1.235-1.033v-.005c0-.505-.353-.828-.87-.873v-.009c.443-.094.754-.395.754-.834v-.005c0-.539-.446-.917-1.124-.917-.666 0-1.124.387-1.181.967l-.002.024h.426l.003-.024c.037-.36.335-.582.754-.582.434 0 .678.214.678.587v.005c0 .355-.296.616-.72.616h-.426v.375h.446c.498 0 .811.244.811.68v.005c0 .377-.318.638-.784.638-.473 0-.796-.241-.831-.591l-.002-.025h-.427l.003.03c.047.562.522.971 1.257.971zm3.118-3.7c-.717 0-1.245.515-1.245 1.225v.005c0 .683.498 1.191 1.166 1.191.481 0 .816-.259.947-.55h.047c0 .027 0 .057-.003.084-.027.742-.291 1.373-.936 1.373-.36 0-.609-.185-.718-.483l-.01-.028h-.446l.008.032c.12.526.564.876 1.161.876.862 0 1.368-.71 1.368-1.923v-.005c0-1.339-.688-1.797-1.339-1.797zm-.002 2.034c-.461 0-.796-.341-.796-.814v-.005c0-.461.357-.823.803-.823.451 0 .804.37.804.838v.002c0 .464-.35.802-.811.802zm2.209 1.631a.32.32 0 0 0 0-.641.322.322 0 0 0-.321.321c0 .175.146.32.321.32zm2.189.035c.754 0 1.291-.424 1.291-1.021v-.005c0-.438-.308-.803-.764-.909v-.01c.39-.121.636-.417.636-.791v-.005c0-.538-.49-.935-1.163-.935s-1.164.397-1.164.935v.005c0 .374.247.67.636.791v.01c-.456.106-.764.471-.764.909v.005c0 .597.537 1.021 1.292 1.021zm0-2.11c-.429 0-.723-.244-.723-.589v-.005c0-.345.294-.589.723-.589.428 0 .722.244.722.589v.005c0 .345-.294.589-.722.589zm0 1.723c-.491 0-.841-.276-.841-.661v-.005c0-.389.348-.668.841-.668s.84.279.84.668v.005c0 .385-.35.661-.84.661zm2.879.328h.443v-3.557h-.441l-.946.68v.468l.904-.655h.04z"/><path fill="#282828" d="M180.485 170.021c.898 0 1.528-.59 1.528-1.453v-.006c0-.793-.561-1.369-1.335-1.369-.391 0-.713.167-.886.446h-.049l.115-1.262h1.913v-.61h-2.491l-.201 2.43h.636a.852.852 0 0 1 .779-.443c.475 0 .814.34.814.823v.006c0 .488-.334.831-.82.831-.425 0-.739-.271-.793-.61l-.003-.02h-.685l.003.037c.055.682.627 1.2 1.475 1.2zm3.19-2.014c.578 0 .932-.44.932-1.147v-.003c0-.707-.354-1.148-.932-1.148-.581 0-.932.441-.932 1.148v.003c0 .707.351 1.147.932 1.147zm.517 1.91 2.805-4.15h-.593l-2.804 4.15zm-.517-2.327c-.265 0-.411-.267-.411-.73v-.003c0-.466.146-.73.411-.73.262 0 .414.264.414.73v.003c0 .463-.152.73-.414.73zm3.247 2.385c.578 0 .932-.443.932-1.151v-.003c0-.707-.354-1.144-.932-1.144-.581 0-.935.437-.935 1.144v.003c0 .708.354 1.151.935 1.151zm0-.418c-.265 0-.414-.267-.414-.733v-.003c0-.463.149-.727.414-.727.261 0 .414.264.414.727v.003c0 .466-.153.733-.414.733zm60.795.458c.918 0 1.47-.837 1.47-2.172v-.005c0-1.335-.552-2.169-1.47-2.169-.917 0-1.464.834-1.464 2.169v.005c0 1.335.547 2.172 1.464 2.172zm0-.452c-.595 0-.943-.661-.943-1.72v-.005c0-1.059.348-1.714.943-1.714.596 0 .949.655.949 1.714v.005c0 1.059-.353 1.72-.949 1.72zm3.684.452c.843 0 1.444-.584 1.444-1.421v-.006c0-.802-.561-1.386-1.34-1.386-.377 0-.702.153-.886.431h-.046l.141-1.403h1.901v-.463h-2.309l-.219 2.384h.449a.97.97 0 0 1 .19-.247c.178-.17.414-.253.69-.253.538 0 .923.394.923.946v.006c0 .56-.38.954-.932.954-.486 0-.845-.316-.894-.713l-.003-.023h-.498l.003.032c.061.664.613 1.162 1.386 1.162zm4.89 0c.767 0 1.222-.466 1.222-1.251v-2.997h-.518v2.991c0 .506-.247.779-.707.779-.412 0-.616-.261-.647-.575l-.003-.029h-.518l.003.041c.043.595.449 1.041 1.168 1.041zm3.068-.043c.417 0 .742-.182.938-.512h.046v.457h.5v-2.122c0-.645-.423-1.033-1.179-1.033-.661 0-1.133.328-1.214.814l-.003.017h.501l.003-.008c.08-.242.325-.38.696-.38.463 0 .696.207.696.59v.281l-.889.055c-.722.043-1.13.362-1.13.915v.005c0 .564.446.921 1.035.921zm-.523-.932v-.006c0-.308.207-.474.678-.503l.829-.052v.282c0 .443-.371.776-.88.776-.36 0-.627-.184-.627-.497zm2.922.877h.5v-1.835c0-.543.314-.877.808-.877.495 0 .725.267.725.825v1.887h.5v-2.007c0-.737-.388-1.148-1.084-1.148-.457 0-.748.193-.903.521h-.046v-.466h-.5zm5.093 0h2.686v-.466h-1.967v-.046l.943-.975c.751-.773.955-1.119.955-1.593v-.006c0-.67-.555-1.162-1.28-1.162-.793 0-1.363.529-1.366 1.266l.006.003.495.002.003-.005c0-.489.33-.814.828-.814.489 0 .785.328.785.765v.006c0 .362-.155.578-.685 1.15l-1.403 1.518zm4.944.098c.917 0 1.469-.837 1.469-2.172v-.005c0-1.335-.552-2.169-1.469-2.169-.918 0-1.464.834-1.464 2.169v.005c0 1.335.546 2.172 1.464 2.172zm0-.452c-.596 0-.944-.661-.944-1.72v-.005c0-1.059.348-1.714.944-1.714.595 0 .949.655.949 1.714v.005c0 1.059-.354 1.72-.949 1.72zm2.321.354h2.686v-.466h-1.967v-.046l.943-.975c.751-.773.955-1.119.955-1.593v-.006c0-.67-.555-1.162-1.28-1.162-.794 0-1.363.529-1.366 1.266l.006.003.494.002.003-.005c0-.489.331-.814.828-.814.489 0 .786.328.786.765v.006c0 .362-.156.578-.685 1.15l-1.403 1.518zm4.966.069c.831 0 1.441-.512 1.441-1.205v-.006c0-.589-.411-.966-1.015-1.018v-.011c.518-.11.88-.46.88-.972v-.006c0-.63-.521-1.07-1.311-1.07-.777 0-1.312.452-1.378 1.127l-.003.029h.498l.003-.029c.043-.42.391-.678.88-.678.506 0 .79.25.79.684v.006c0 .414-.345.719-.839.719h-.498v.437h.521c.581 0 .946.285.946.794v.005c0 .441-.371.745-.915.745-.552 0-.929-.281-.969-.69l-.003-.029h-.497l.003.035c.054.656.609 1.133 1.466 1.133z"/><path fill="#eaf7e6" d="M334.545 163.075h-19.682c-.93 0-1.683.753-1.683 1.683v7.317c0 .929.753 1.683 1.683 1.683h19.682c.93 0 1.683-.754 1.683-1.683v-7.317c0-.93-.753-1.683-1.683-1.683z"/><path fill="#30ad04" d="M315.902 169.917h.543l.417-1.188h1.651l.417 1.188h.543l-1.53-4.15h-.511zm1.763-3.48h.046l.649 1.852h-1.345zm3.569 3.534c.744 0 1.161-.399 1.288-.96l.006-.032-.495.003-.006.017c-.115.345-.379.529-.796.529-.552 0-.909-.457-.909-1.17v-.006c0-.699.351-1.147.909-1.147.445 0 .722.247.799.552l.003.009h.498l-.003-.018c-.092-.552-.544-.986-1.297-.986-.869 0-1.421.627-1.421 1.59v.006c0 .984.555 1.613 1.424 1.613zm3.186-.031c.098 0 .193-.012.291-.029v-.426a2.01 2.01 0 0 1-.231.012c-.322 0-.448-.147-.448-.512v-1.754h.679v-.415h-.679v-.802h-.518v.802h-.489v.415h.489v1.88c0 .593.268.829.906.829zm1.303-3.722a.346.346 0 0 0 0-.69.346.346 0 0 0 0 .69zm-.253 3.699h.5v-3.101h-.5zm2.321 0h.506l1.147-3.101h-.529l-.848 2.554h-.046l-.849-2.554h-.529zm3.465.054c.731 0 1.174-.414 1.28-.834l.006-.023h-.501l-.011.026c-.084.187-.342.386-.762.386-.552 0-.906-.374-.921-1.016h2.232v-.195c0-.926-.512-1.553-1.354-1.553-.843 0-1.39.656-1.39 1.613v.003c0 .972.535 1.593 1.421 1.593zm-.034-2.763c.457 0 .796.29.848.903h-1.714c.055-.59.406-.903.866-.903z"/><path fill="#fff" d="M451.171 182.886H33.828v28.097h417.343z"/><path fill="url('#e')" d="M48.972 201.983a5.049 5.049 0 1 0 0-10.098 5.049 5.049 0 0 0 0 10.098z" style="fill:url(#e)"/><path fill="#fff" d="M50.246 198.372c-.04.023-.081.043-.123.061a1.266 1.266 0 0 1-.563.114c-.427 0-.75-.12-1.045-.434a1.625 1.625 0 0 1-.276-.401h1.157v-.56h-1.312a2.055 2.055 0 0 1 .004-.432h1.307v-.56H48.25c.07-.14.16-.27.265-.384.293-.323.615-.446 1.043-.446.172 0 .343.032.505.093l.25-.553a1.664 1.664 0 0 0-.712-.163c-.684 0-1.204.229-1.635.763a2.35 2.35 0 0 0-.39.689h-.537v.56h.414a2.513 2.513 0 0 0-.004.431h-.41v.56h.52c.103.308.273.587.51.837.42.435.89.615 1.484.615.284 0 .565-.057.827-.167l-.133-.623z"/><path fill="#282828" d="M59.583 198.435h2.686v-.624h-1.944v-1.188h1.838v-.59h-1.838v-1.124h1.944v-.624h-2.686zm4.573.063c.454 0 .773-.204.92-.541h.049v.478h.716v-3.144h-.716v1.832c0 .472-.247.771-.71.771-.432 0-.613-.247-.613-.733v-1.87h-.716v2.034c0 .747.362 1.173 1.07 1.173zm2.56-.063h.716v-1.826c0-.449.313-.734.79-.734.124 0 .242.017.357.04v-.641a1.156 1.156 0 0 0-.29-.034c-.415 0-.702.198-.809.535h-.049v-.484h-.716v3.144zm3.727.063c.94 0 1.512-.615 1.512-1.633v-.006c0-1.013-.575-1.628-1.512-1.628-.935 0-1.513.618-1.513 1.628v.006c0 1.018.57 1.633 1.513 1.633zm0-.581c-.498 0-.783-.388-.783-1.05v-.005c0-.662.285-1.053.783-1.053.494 0 .779.391.779 1.053v.005c0 .662-.282 1.05-.78 1.05zm42.274-2.982h.518v-4.15h-.515l-1.104.794v.546l1.055-.765h.046zm3.107.098c.917 0 1.469-.837 1.469-2.172v-.005c0-1.335-.552-2.169-1.469-2.169-.918 0-1.464.834-1.464 2.169v.005c0 1.335.546 2.172 1.464 2.172zm0-.452c-.596 0-.944-.661-.944-1.72v-.005c0-1.059.348-1.715.944-1.715.595 0 .949.656.949 1.715v.005c0 1.059-.354 1.72-.949 1.72zm1.967 1.409h.371l.451-1.636h-.572zm3.031-.957c.917 0 1.469-.837 1.469-2.172v-.005c0-1.335-.552-2.169-1.469-2.169-.918 0-1.464.834-1.464 2.169v.005c0 1.335.546 2.172 1.464 2.172zm0-.452c-.595 0-.943-.661-.943-1.72v-.005c0-1.059.348-1.715.943-1.715s.949.656.949 1.715v.005c0 1.059-.354 1.72-.949 1.72zm3.71.452c.917 0 1.469-.837 1.469-2.172v-.005c0-1.335-.552-2.169-1.469-2.169-.918 0-1.464.834-1.464 2.169v.005c0 1.335.546 2.172 1.464 2.172zm0-.452c-.595 0-.943-.661-.943-1.72v-.005c0-1.059.348-1.715.943-1.715s.949.656.949 1.715v.005c0 1.059-.354 1.72-.949 1.72zm3.71.452c.917 0 1.469-.837 1.469-2.172v-.005c0-1.335-.552-2.169-1.469-2.169-.918 0-1.464.834-1.464 2.169v.005c0 1.335.546 2.172 1.464 2.172zm0-.452c-.596 0-.943-.661-.943-1.72v-.005c0-1.059.347-1.715.943-1.715.595 0 .949.656.949 1.715v.005c0 1.059-.354 1.72-.949 1.72zm4.043.354h2.571v-.466h-2.053v-1.427h1.947v-.46h-1.947v-1.331h2.053v-.466h-2.571zm5.154.098c1.03 0 1.645-.622 1.645-1.525v-2.723h-.518v2.689c0 .638-.408 1.081-1.127 1.081-.719 0-1.133-.443-1.133-1.081v-2.689h-.518v2.723c0 .903.621 1.525 1.651 1.525zm2.698-.098h.517v-1.642h1.021l.889 1.642h.607l-.961-1.723c.521-.164.834-.612.834-1.188v-.005c0-.745-.523-1.234-1.323-1.234h-1.584zm.517-2.102v-1.588h.998c.535 0 .857.296.857.791v.006c0 .506-.302.791-.834.791z"/><path fill="#999" d="M112.687 204.292h.296v-.414c.582-.047 1.065-.38 1.065-.971v-.005c0-.515-.355-.777-.989-.929l-.076-.018v-1.131c.333.042.57.246.602.577v.005l.428-.003v-.002c-.019-.543-.46-.912-1.03-.964v-.417h-.296v.417c-.584.054-1.001.414-1.001.942v.004c0 .484.331.757.945.905l.056.015v1.186c-.429-.047-.618-.291-.663-.597v-.005l-.429.003v.002c.02.572.506.929 1.092.984zm-.572-2.938v-.005c0-.237.198-.473.572-.525v1.06c-.424-.104-.572-.291-.572-.53zm.883 1.023c.488.118.621.291.621.559v.005c0 .284-.177.516-.636.553v-1.12zm2.983-2.083c-.718 0-1.245.515-1.245 1.225v.005c0 .683.498 1.191 1.166 1.191.48 0 .816-.259.946-.55h.047c0 .027 0 .057-.002.084-.027.742-.291 1.373-.937 1.373-.36 0-.609-.185-.717-.483l-.01-.028h-.446l.007.033c.121.525.564.875 1.161.875.863 0 1.368-.71 1.368-1.923v-.005c0-1.339-.688-1.797-1.338-1.797zm-.003 2.034c-.461 0-.796-.341-.796-.814v-.005c0-.461.357-.823.804-.823.451 0 .803.37.803.838v.002c0 .464-.35.802-.811.802zm1.75 2.512h.318l.387-1.403h-.49zm2.648-.846c.754 0 1.292-.424 1.292-1.021v-.005c0-.438-.309-.803-.765-.909v-.01c.39-.121.636-.417.636-.791v-.005c0-.538-.49-.934-1.163-.934s-1.164.396-1.164.934v.005c0 .374.247.67.636.791v.01c-.456.106-.764.471-.764.909v.005c0 .597.538 1.021 1.292 1.021zm0-2.11c-.429 0-.722-.244-.722-.589v-.005c0-.345.293-.589.722-.589s.722.244.722.589v.005c0 .345-.293.589-.722.589zm0 1.723c-.491 0-.841-.276-.841-.661v-.005c0-.389.348-.668.841-.668s.84.279.84.668v.005c0 .385-.35.661-.84.661zm3.219.387c.713 0 1.235-.439 1.235-1.033v-.005c0-.505-.352-.828-.87-.872v-.01c.444-.094.754-.395.754-.834v-.004c0-.54-.446-.917-1.124-.917-.665 0-1.124.387-1.18.966l-.003.024h.427l.002-.024c.037-.36.335-.582.754-.582.434 0 .678.215.678.587v.005c0 .355-.296.616-.72.616h-.426v.375h.446c.498 0 .811.244.811.68v.005c0 .377-.318.638-.784.638-.473 0-.796-.241-.83-.591l-.003-.025h-.426l.002.03c.047.562.523.971 1.257.971zm3.119-3.7c-.718 0-1.245.515-1.245 1.225v.005c0 .683.498 1.191 1.166 1.191.48 0 .816-.259.946-.55h.047c0 .027 0 .057-.002.084-.027.742-.291 1.373-.937 1.373-.36 0-.609-.185-.717-.483l-.01-.028h-.446l.007.033c.121.525.565.875 1.161.875.863 0 1.368-.71 1.368-1.923v-.005c0-1.339-.688-1.797-1.338-1.797zm-.003 2.034c-.461 0-.796-.341-.796-.814v-.005c0-.461.357-.823.804-.823.451 0 .803.37.803.838v.002c0 .464-.35.802-.811.802zm2.209 1.631a.32.32 0 1 0 0-.64.322.322 0 0 0-.321.32c0 .175.146.32.321.32zm2.189.035c.754 0 1.292-.424 1.292-1.021v-.005c0-.438-.309-.803-.765-.909v-.01c.39-.121.636-.417.636-.791v-.005c0-.538-.49-.934-1.163-.934s-1.164.396-1.164.934v.005c0 .374.247.67.636.791v.01c-.456.106-.764.471-.764.909v.005c0 .597.538 1.021 1.292 1.021zm0-2.11c-.429 0-.722-.244-.722-.589v-.005c0-.345.293-.589.722-.589s.722.244.722.589v.005c0 .345-.293.589-.722.589zm0 1.723c-.491 0-.841-.276-.841-.661v-.005c0-.389.348-.668.841-.668s.84.279.84.668v.005c0 .385-.35.661-.84.661zm2.879.328h.444v-3.557h-.441l-.947.68v.468l.905-.655h.039z"/><path fill="#282828" d="M180.536 198.518c.955 0 1.619-.494 1.619-1.205v-.006c0-.532-.385-.943-.94-1.055v-.017c.474-.127.791-.475.791-.921v-.005c0-.639-.61-1.108-1.47-1.108s-1.469.469-1.469 1.108v.005c0 .446.316.794.79.921v.017c-.552.112-.94.523-.94 1.055v.006c0 .711.664 1.205 1.619 1.205zm0-2.519c-.434 0-.736-.253-.736-.616v-.005c0-.363.302-.616.736-.616s.736.253.736.616v.005c0 .363-.302.616-.736.616zm0 1.953c-.497 0-.851-.288-.851-.688v-.005c0-.403.348-.694.851-.694.501 0 .851.291.851.694v.005c0 .4-.353.688-.851.688zm3.293-1.427c.578 0 .932-.44.932-1.147v-.003c0-.708-.354-1.148-.932-1.148-.581 0-.932.44-.932 1.148v.003c0 .707.351 1.147.932 1.147zm.518 1.91 2.804-4.15h-.593l-2.804 4.15zm-.518-2.327c-.264 0-.411-.267-.411-.73v-.003c0-.466.147-.731.411-.731.262 0 .414.265.414.731v.003c0 .463-.152.73-.414.73zm3.247 2.384c.578 0 .932-.443.932-1.15v-.003c0-.707-.354-1.145-.932-1.145-.581 0-.935.438-.935 1.145v.003c0 .707.354 1.15.935 1.15zm0-.417c-.265 0-.414-.267-.414-.733v-.003c0-.463.149-.728.414-.728.262 0 .414.265.414.728v.003c0 .466-.152.733-.414.733zm60.641.458c.918 0 1.47-.837 1.47-2.172v-.005c0-1.335-.552-2.169-1.47-2.169-.917 0-1.464.834-1.464 2.169v.005c0 1.335.547 2.172 1.464 2.172zm0-.452c-.595 0-.943-.661-.943-1.72v-.005c0-1.059.348-1.715.943-1.715.596 0 .949.656.949 1.715v.005c0 1.059-.353 1.72-.949 1.72zm3.684.452c.843 0 1.444-.584 1.444-1.421v-.006c0-.802-.561-1.386-1.34-1.386-.377 0-.702.152-.886.431h-.046l.141-1.403h1.901v-.463h-2.309l-.219 2.384h.449a.97.97 0 0 1 .19-.247c.178-.17.414-.253.69-.253.538 0 .923.394.923.946v.006c0 .56-.38.954-.932.954-.486 0-.845-.316-.894-.713l-.003-.023h-.498l.003.032c.061.664.613 1.162 1.386 1.162zm4.89 0c.767 0 1.222-.466 1.222-1.251v-2.997h-.518v2.991c0 .506-.247.779-.707.779-.412 0-.616-.262-.647-.575l-.003-.029h-.518l.003.041c.043.595.449 1.041 1.168 1.041zm3.068-.044c.417 0 .742-.181.938-.511h.046v.457h.5v-2.123c0-.644-.423-1.032-1.179-1.032-.661 0-1.133.328-1.214.814l-.003.017h.501l.003-.009c.08-.241.325-.379.696-.379.463 0 .696.207.696.589v.282l-.889.055c-.722.043-1.13.362-1.13.914v.006c0 .564.446.92 1.035.92zm-.523-.931v-.006c0-.308.207-.475.678-.503l.829-.052v.282c0 .443-.371.776-.88.776-.36 0-.627-.184-.627-.497zm2.922.877h.5V196.6c0-.544.314-.877.808-.877.495 0 .725.267.725.825v1.887h.5v-2.008c0-.736-.388-1.147-1.084-1.147-.457 0-.748.193-.903.52h-.046v-.465h-.5zm5.093 0h2.686v-.466h-1.967v-.046l.943-.975c.751-.774.955-1.119.955-1.593v-.006c0-.67-.555-1.162-1.28-1.162-.793 0-1.363.529-1.366 1.265l.006.003.495.003.003-.006c0-.488.33-.813.828-.813.489 0 .785.327.785.765v.005c0 .363-.155.578-.685 1.151l-1.403 1.518zm4.944.098c.917 0 1.469-.837 1.469-2.172v-.005c0-1.335-.552-2.169-1.469-2.169-.918 0-1.464.834-1.464 2.169v.005c0 1.335.546 2.172 1.464 2.172zm0-.452c-.596 0-.944-.661-.944-1.72v-.005c0-1.059.348-1.715.944-1.715.595 0 .949.656.949 1.715v.005c0 1.059-.354 1.72-.949 1.72zm2.321.354h2.686v-.466h-1.967v-.046l.943-.975c.751-.774.955-1.119.955-1.593v-.006c0-.67-.555-1.162-1.28-1.162-.794 0-1.363.529-1.366 1.265l.006.003.494.003.003-.006c0-.488.331-.813.828-.813.489 0 .786.327.786.765v.005c0 .363-.156.578-.685 1.151l-1.403 1.518zm4.966.069c.831 0 1.441-.512 1.441-1.205v-.006c0-.59-.411-.966-1.015-1.018v-.012c.518-.109.88-.46.88-.972v-.005c0-.63-.521-1.07-1.311-1.07-.777 0-1.312.451-1.378 1.127l-.003.029h.498l.003-.029c.043-.42.391-.679.88-.679.506 0 .79.251.79.685v.006c0 .414-.345.719-.839.719h-.498v.437h.521c.581 0 .946.285.946.794v.005c0 .44-.371.745-.915.745-.552 0-.929-.282-.969-.69l-.003-.029h-.497l.003.035c.054.655.609 1.133 1.466 1.133z"/><path fill="#eaf7e6" d="M334.545 191.593h-19.682c-.93 0-1.683.753-1.683 1.683v7.317c0 .929.753 1.683 1.683 1.683h19.682c.93 0 1.683-.754 1.683-1.683v-7.317c0-.93-.753-1.683-1.683-1.683z"/><path fill="#30ad04" d="M315.902 198.435h.543l.417-1.188h1.651l.417 1.188h.543l-1.53-4.15h-.511zm1.763-3.48h.046l.649 1.852h-1.345zm3.569 3.534c.744 0 1.161-.4 1.288-.96l.006-.032-.495.003-.006.017c-.115.345-.379.529-.796.529-.552 0-.909-.457-.909-1.17v-.006c0-.699.351-1.147.909-1.147.445 0 .722.247.799.552l.003.008h.498l-.003-.017c-.092-.552-.544-.986-1.297-.986-.869 0-1.421.627-1.421 1.59v.006c0 .983.555 1.613 1.424 1.613zm3.186-.031c.098 0 .193-.012.291-.029v-.426a2.01 2.01 0 0 1-.231.012c-.322 0-.448-.147-.448-.512v-1.755h.679v-.414h-.679v-.802h-.518v.802h-.489v.414h.489v1.881c0 .593.268.829.906.829zm1.303-3.722a.346.346 0 0 0 0-.69.346.346 0 0 0 0 .69zm-.253 3.699h.5v-3.101h-.5zm2.321 0h.506l1.147-3.101h-.529l-.848 2.554h-.046l-.849-2.554h-.529zm3.465.054c.731 0 1.174-.414 1.28-.834l.006-.023h-.501l-.011.026c-.084.187-.342.385-.762.385-.552 0-.906-.373-.921-1.015h2.232v-.195c0-.926-.512-1.553-1.354-1.553-.843 0-1.39.655-1.39 1.613v.003c0 .972.535 1.593 1.421 1.593zm-.034-2.764c.457 0 .796.291.848.903h-1.714c.055-.589.406-.903.866-.903z"/><path fill="#fff" d="M451.171 211.404H33.828v28.097h417.343z"/><path fill="#627eea" d="M53.87 226.674a5.048 5.048 0 1 1-9.796-2.442 5.048 5.048 0 0 1 9.797 2.442z"/><path fill="#fff" fill-opacity=".602" d="M48.972 222.424v2.239l1.892.846z"/><path fill="#fff" d="m48.972 222.424-1.893 3.085 1.893-.846z"/><path fill="#fff" fill-opacity=".602" d="M48.972 226.96v1.522l1.894-2.621z"/><path fill="#fff" d="M48.972 228.482v-1.522l-1.893-1.099z"/><path fill="#fff" fill-opacity=".2" d="m48.972 226.608 1.892-1.099-1.892-.846z"/><path fill="#fff" fill-opacity=".602" d="m47.08 225.509 1.892 1.099v-1.945l-1.893.846z"/><path fill="#282828" d="M59.583 226.953h2.686v-.624h-1.944v-1.188h1.838v-.59h-1.838v-1.124h1.944v-.624h-2.686zm4.768.014c.138 0 .27-.011.374-.032v-.552c-.086.009-.14.012-.241.012-.3 0-.423-.133-.423-.446v-1.585h.664v-.555h-.664v-.771h-.728v.771h-.489v.555h.49v1.755c0 .606.295.848 1.017.848zm1.116-.014h.716v-1.832c0-.472.265-.771.69-.771.435 0 .633.247.633.736v1.867h.716v-2.034c0-.747-.382-1.17-1.084-1.17-.454 0-.756.204-.906.541h-.049v-1.697h-.716zm4.947.063c.854 0 1.274-.492 1.374-.897l.01-.026h-.682l-.01.02c-.068.144-.29.339-.678.339-.486 0-.79-.328-.8-.891h2.198v-.236c0-.949-.552-1.576-1.447-1.576-.894 0-1.466.647-1.466 1.636v.003c0 1.001.566 1.628 1.5 1.628zm-.026-2.706c.4 0 .69.256.74.77h-1.494c.055-.5.354-.77.754-.77zm2.154 2.643h.716v-1.827c0-.448.314-.733.791-.733.124 0 .242.017.357.04v-.641a1.15 1.15 0 0 0-.29-.035c-.415 0-.703.199-.809.535h-.049v-.483h-.716zm3.716.063c.854 0 1.274-.492 1.374-.897l.01-.026h-.682l-.01.02c-.068.144-.29.339-.678.339-.486 0-.79-.328-.8-.891h2.198v-.236c0-.949-.552-1.576-1.447-1.576-.894 0-1.466.647-1.466 1.636v.003c0 1.001.566 1.628 1.5 1.628zm-.026-2.706c.4 0 .69.256.739.77h-1.493c.055-.5.354-.77.754-.77zm3.195 2.706c.454 0 .774-.204.92-.541h.05v.478h.715v-3.144h-.716v1.832c0 .472-.247.771-.71.771-.432 0-.613-.247-.613-.733v-1.87h-.716v2.034c0 .747.362 1.173 1.07 1.173zm2.56-.063h.716v-1.913c0-.391.258-.69.612-.69.351 0 .567.216.567.564v2.039h.716v-1.965c0-.359.242-.638.615-.638.383 0 .57.207.57.615v1.988h.716v-2.163c0-.653-.38-1.041-1.012-1.041-.438 0-.8.224-.952.566h-.05c-.134-.348-.445-.566-.87-.566-.412 0-.728.198-.863.549h-.05v-.489h-.715zm31.611-3.501h.506v-.86h.589v-.463h-.589v-2.827h-.751a65.039 65.039 0 0 0-1.777 2.819v.471h2.022zm-1.493-1.32v-.034c.451-.762.995-1.619 1.461-2.315h.034v2.349zm3.598 1.349a.375.375 0 1 0 .001-.75.375.375 0 0 0-.001.75zm1.308-.029h.544l1.846-3.669v-.481h-2.746v.463h2.22v.041zm4.904 0h2.571v-.466h-2.054v-1.426h1.947v-.46h-1.947v-1.332h2.054v-.466h-2.571zm4.587 0h.518v-3.684h1.337v-.466h-3.192v.466h1.337zm2.654 0h.518v-1.889h2.278v1.889h.517v-4.15h-.517v1.795h-2.278v-1.795h-.518z"/><path fill="#999" d="M112.687 232.81h.296v-.414c.582-.047 1.065-.38 1.065-.972v-.004c0-.516-.355-.777-.989-.93l-.076-.017v-1.132c.333.042.57.247.602.577v.005l.428-.002v-.003c-.019-.542-.46-.912-1.03-.964v-.416h-.296v.416c-.584.055-1.001.415-1.001.942v.005c0 .483.331.757.945.905l.056.015v1.185c-.429-.047-.618-.291-.663-.596v-.005l-.429.002v.003c.02.572.506.929 1.092.983zm-.572-2.939v-.004c0-.237.198-.474.572-.526v1.06c-.424-.103-.572-.29-.572-.53zm.883 1.023c.488.119.621.291.621.56v.005c0 .283-.177.515-.636.552v-1.119zm3.076 1.642c.718 0 1.245-.515 1.245-1.225v-.005c0-.683-.498-1.191-1.166-1.191-.481 0-.816.259-.946.55h-.047c0-.027 0-.056.002-.084.027-.742.291-1.373.937-1.373.36 0 .609.185.717.483l.01.028h.446l-.007-.032c-.121-.526-.565-.876-1.161-.876-.863 0-1.368.71-1.368 1.923v.005c0 1.339.688 1.797 1.338 1.797zm-.808-1.23v-.002c0-.464.35-.801.811-.801.461 0 .796.34.796.813v.005a.808.808 0 0 1-.804.823c-.451 0-.803-.37-.803-.838zm2.487 2.051h.318l.387-1.403h-.491zm2.598-.821c.787 0 1.26-.717 1.26-1.861v-.005c0-1.144-.473-1.859-1.26-1.859-.786 0-1.254.715-1.254 1.859v.005c0 1.144.468 1.861 1.254 1.861zm0-.387c-.51 0-.808-.567-.808-1.474v-.005c0-.907.298-1.469.808-1.469.511 0 .814.562.814 1.469v.005c0 .907-.303 1.474-.814 1.474zm3.2.363c.712 0 1.235-.439 1.235-1.033v-.005c0-.506-.353-.829-.87-.873v-.01c.443-.093.754-.394.754-.833v-.005c0-.54-.446-.917-1.124-.917-.666 0-1.124.387-1.181.966l-.002.025h.426l.003-.025c.037-.359.335-.581.754-.581.434 0 .678.214.678.586v.005c0 .355-.296.617-.72.617h-.426v.374h.446c.498 0 .811.244.811.681v.005c0 .377-.318.638-.784.638-.473 0-.796-.242-.831-.592l-.002-.024h-.427l.003.029c.047.562.522.972 1.257.972zm3.118-3.701c-.717 0-1.245.516-1.245 1.226v.005c0 .682.498 1.19 1.166 1.19.481 0 .816-.259.947-.55h.047c0 .028 0 .057-.003.084-.027.742-.291 1.373-.936 1.373-.36 0-.609-.185-.718-.483l-.01-.027h-.446l.008.032c.12.525.564.875 1.161.875.862 0 1.368-.71 1.368-1.923v-.004c0-1.339-.688-1.798-1.339-1.798zm-.002 2.034c-.461 0-.796-.34-.796-.813v-.005c0-.461.357-.824.803-.824.451 0 .804.37.804.839v.002c0 .463-.35.801-.811.801zm2.209 1.632a.32.32 0 0 0 0-.641.322.322 0 0 0-.321.321c0 .175.146.32.321.32zm2.189.035c.754 0 1.291-.424 1.291-1.021v-.005c0-.439-.308-.804-.764-.91v-.009c.39-.121.636-.417.636-.792v-.005c0-.537-.491-.934-1.163-.934-.673 0-1.164.397-1.164.934v.005c0 .375.247.671.636.792v.009c-.456.106-.764.471-.764.91v.005c0 .597.537 1.021 1.292 1.021zm0-2.111c-.429 0-.723-.244-.723-.589v-.005c0-.345.294-.589.723-.589.428 0 .722.244.722.589v.005c0 .345-.294.589-.722.589zm0 1.724c-.491 0-.841-.277-.841-.661v-.005c0-.39.348-.668.841-.668s.84.278.84.668v.005c0 .384-.35.661-.84.661zm2.879.327h.443v-3.557h-.441l-.946.681v.468l.904-.656h.04z"/><path fill="#282828" d="M180.571 227.056c.9 0 1.541-.615 1.541-1.458v-.006c0-.788-.558-1.369-1.354-1.369-.57 0-.932.291-1.085.619h-.057c0-.032.003-.064.003-.095.031-.794.31-1.438.969-1.438.365 0 .621.19.73.48l.012.029h.728l-.006-.032c-.133-.635-.702-1.087-1.464-1.087-1.044 0-1.674.828-1.674 2.226v.006c0 1.495.771 2.125 1.657 2.125zm-.826-1.449v-.006c0-.469.36-.808.829-.808.471 0 .813.345.813.825v.006a.818.818 0 0 1-.822.828c-.46 0-.82-.371-.82-.845zm4.044-.564c.578 0 .932-.44.932-1.147v-.003c0-.708-.354-1.148-.932-1.148-.581 0-.932.44-.932 1.148v.003c0 .707.351 1.147.932 1.147zm.518 1.91 2.804-4.15h-.593l-2.804 4.15zm-.518-2.327c-.265 0-.411-.267-.411-.73v-.003c0-.466.146-.731.411-.731.262 0 .414.265.414.731v.003c0 .463-.152.73-.414.73zm3.247 2.384c.578 0 .932-.443.932-1.15v-.003c0-.708-.354-1.145-.932-1.145-.581 0-.935.437-.935 1.145v.003c0 .707.354 1.15.935 1.15zm0-.417c-.265 0-.414-.267-.414-.733v-.003c0-.463.149-.728.414-.728.261 0 .414.265.414.728v.003c0 .466-.153.733-.414.733zm60.681.457c.918 0 1.47-.836 1.47-2.171v-.006c0-1.334-.552-2.168-1.47-2.168-.917 0-1.464.834-1.464 2.168v.006c0 1.335.547 2.171 1.464 2.171zm0-.451c-.595 0-.943-.662-.943-1.72v-.006c0-1.058.348-1.714.943-1.714.596 0 .949.656.949 1.714v.006c0 1.058-.353 1.72-.949 1.72zm3.684.451c.843 0 1.444-.583 1.444-1.42v-.006c0-.802-.561-1.386-1.34-1.386-.377 0-.702.152-.886.431h-.046l.141-1.403h1.901v-.463h-2.309l-.219 2.384h.449a.994.994 0 0 1 .19-.248c.178-.169.414-.253.69-.253.538 0 .923.394.923.947v.005c0 .561-.38.955-.932.955-.486 0-.845-.316-.894-.713l-.003-.023h-.498l.003.032c.061.664.613 1.161 1.386 1.161zm4.89 0c.767 0 1.222-.465 1.222-1.251v-2.996h-.518v2.991c0 .506-.247.779-.707.779-.412 0-.616-.262-.647-.575l-.003-.029h-.518l.003.04c.043.596.449 1.041 1.168 1.041zm3.068-.043c.417 0 .742-.181.938-.512h.046v.458h.5v-2.123c0-.644-.423-1.032-1.179-1.032-.661 0-1.133.328-1.214.814l-.003.017h.501l.003-.009c.08-.241.325-.379.696-.379.463 0 .696.207.696.589v.282l-.889.055c-.722.043-1.13.362-1.13.914v.006c0 .564.446.92 1.035.92zm-.523-.932v-.005c0-.308.207-.475.678-.504l.829-.051v.282c0 .442-.371.776-.88.776-.36 0-.627-.184-.627-.498zm2.922.878h.5v-1.835c0-.544.314-.877.808-.877.495 0 .725.267.725.825v1.887h.5v-2.008c0-.736-.388-1.147-1.084-1.147-.457 0-.748.192-.903.52h-.046v-.466h-.5zm5.093 0h2.686v-.466h-1.967v-.046l.943-.975c.751-.774.955-1.119.955-1.593v-.006c0-.67-.555-1.162-1.28-1.162-.793 0-1.363.529-1.366 1.265l.006.003.495.003.003-.006c0-.489.33-.814.828-.814.489 0 .785.328.785.765v.006c0 .363-.155.578-.685 1.151l-1.403 1.518zm4.944.097c.917 0 1.469-.836 1.469-2.171v-.006c0-1.334-.552-2.168-1.469-2.168-.918 0-1.464.834-1.464 2.168v.006c0 1.335.546 2.171 1.464 2.171zm0-.451c-.596 0-.944-.662-.944-1.72v-.006c0-1.058.348-1.714.944-1.714.595 0 .949.656.949 1.714v.006c0 1.058-.354 1.72-.949 1.72zm2.321.354h2.686v-.466h-1.967v-.046l.943-.975c.751-.774.955-1.119.955-1.593v-.006c0-.67-.555-1.162-1.28-1.162-.794 0-1.363.529-1.366 1.265l.006.003.494.003.003-.006c0-.489.331-.814.828-.814.489 0 .786.328.786.765v.006c0 .363-.156.578-.685 1.151l-1.403 1.518zm4.966.069c.831 0 1.441-.512 1.441-1.205v-.006c0-.59-.411-.966-1.015-1.018v-.012c.518-.109.88-.46.88-.972v-.006c0-.629-.521-1.069-1.311-1.069-.777 0-1.312.451-1.378 1.127l-.003.029h.498l.003-.029c.043-.42.391-.679.88-.679.506 0 .79.25.79.685v.006c0 .414-.345.718-.839.718h-.498v.438h.521c.581 0 .946.284.946.793v.006c0 .44-.371.745-.915.745-.552 0-.929-.282-.969-.69l-.003-.029h-.497l.003.035c.054.655.609 1.133 1.466 1.133z"/><path fill="#eaf7e6" d="M334.545 220.111h-19.682c-.93 0-1.683.754-1.683 1.683v7.317c0 .929.753 1.683 1.683 1.683h19.682c.93 0 1.683-.754 1.683-1.683v-7.317c0-.929-.753-1.683-1.683-1.683z"/><path fill="#30ad04" d="M315.902 226.952h.543l.417-1.187h1.651l.417 1.187h.543l-1.53-4.15h-.511zm1.763-3.479h.046l.649 1.852h-1.345zm3.569 3.534c.744 0 1.161-.4 1.288-.961l.006-.031-.495.003-.006.017c-.115.345-.379.529-.796.529-.552 0-.909-.457-.909-1.17v-.006c0-.699.351-1.148.909-1.148.445 0 .722.248.799.553l.003.008h.498l-.003-.017c-.092-.552-.544-.987-1.297-.987-.869 0-1.421.627-1.421 1.591v.006c0 .983.555 1.613 1.424 1.613zm3.186-.032c.098 0 .193-.011.291-.028v-.426a2.01 2.01 0 0 1-.231.012c-.322 0-.448-.147-.448-.512v-1.755h.679v-.414h-.679v-.802h-.518v.802h-.489v.414h.489v1.881c0 .593.268.828.906.828zm1.303-3.721a.346.346 0 0 0 0-.69.346.346 0 0 0 0 .69zm-.253 3.698h.5v-3.1h-.5zm2.321 0h.506l1.147-3.1h-.529l-.848 2.554h-.046l-.849-2.554h-.529zm3.465.055c.731 0 1.174-.414 1.28-.834l.006-.023h-.501l-.011.026c-.084.187-.342.385-.762.385-.552 0-.906-.374-.921-1.015h2.232v-.196c0-.926-.512-1.553-1.354-1.553-.843 0-1.39.656-1.39 1.614v.003c0 .972.535 1.593 1.421 1.593zm-.034-2.764c.457 0 .796.291.848.903h-1.714c.055-.589.406-.903.866-.903z"/><path fill="#fff" d="M451.171 239.922H33.828v28.097h417.343z"/><path stroke="#ebebeb" stroke-width=".421" d="M447.806 129.275H37.194a3.576 3.576 0 0 0-3.576 3.576v188.838a3.576 3.576 0 0 0 3.576 3.576h410.612a3.576 3.576 0 0 0 3.576-3.576V132.851a3.576 3.576 0 0 0-3.576-3.576z"/><path stroke="#000" stroke-width="1.683" d="M459.586 45.841H25.415a7.573 7.573 0 0 0-7.573 7.573V333.47a7.572 7.572 0 0 0 7.573 7.572h434.171a7.573 7.573 0 0 0 7.573-7.572V53.414a7.573 7.573 0 0 0-7.573-7.573z"/><g filter="url('#f')" opacity=".2"><path fill="#000" d="M196 81h-16v157h16z"/></g><mask id="g" width="194" height="406" x="170" y="17" maskUnits="userSpaceOnUse"><path fill="#fff" d="M363.001 17H170.64v406h192.361z"/></mask><g mask="url('#g')"><path fill="#f9f9f9" stroke="#000" stroke-width="1.737" d="M348.435 17.905H184.664c-6.477 0-11.726 5.25-11.726 11.726v379.345c0 6.476 5.249 11.726 11.726 11.726h163.771c6.477 0 11.727-5.25 11.727-11.726V29.631c0-6.476-5.25-11.726-11.727-11.726z"/><path fill="#fff" d="M353.194 60.386H180.14a2.95 2.95 0 0 0-2.95 2.95v62.834a2.95 2.95 0 0 0 2.95 2.95h173.054a2.95 2.95 0 0 0 2.949-2.95V63.336a2.95 2.95 0 0 0-2.949-2.95z"/><path fill="#000" fill-opacity=".6" d="m188.14 75.18.207-1.02h.75l-.209 1.02h.514l.204-1.02h.668l.095-.501h-.66l.167-.827h.644l.096-.499h-.639l.196-.978h-.511l-.197.978h-.75l.199-.978h-.509l-.199.978h-.636l-.098.499h.634l-.167.827h-.613l-.098.5h.61l-.204 1.021zm.284-1.497.175-.87h.79l-.175.87zm4.328 1.593c.251 0 .479-.04.686-.114l.31.416h.668l-.509-.684c.417-.345.653-.91.653-1.625v-.005c0-1.233-.695-2.004-1.808-2.004-1.111 0-1.811.771-1.811 2.004v.005c0 1.23.689 2.007 1.811 2.007zm0-.591c-.69 0-1.114-.557-1.114-1.416v-.005c0-.864.435-1.413 1.114-1.413.678 0 1.11.549 1.11 1.413v.005c0 .467-.127.843-.352 1.092l-.281-.379h-.668l.493.663c-.096.026-.196.04-.302.04zm3.164.495h.644l.774-2.738h.04l.779 2.738h.642l1.026-3.825h-.708l-.655 2.871h-.037l-.763-2.87h-.608l-.752 2.87h-.04l-.655-2.87h-.713zm4.299 0h.747l.904-1.407h.024l.904 1.407h.79l-1.259-1.908v-.008l1.28-1.909h-.769l-.885 1.44h-.029l-.888-1.44h-.809l1.238 1.89v.008zm5.248.077c.848 0 1.428-.469 1.428-1.142v-.005c0-.53-.373-.865-.935-.918v-.013c.458-.095.8-.41.8-.885v-.006c0-.599-.511-1.01-1.299-1.01-.771 0-1.293.435-1.352 1.098l-.002.029h.636l.003-.026c.034-.343.312-.557.715-.557.409 0 .644.207.644.556v.006c0 .334-.281.572-.702.572h-.437v.51h.45c.491 0 .788.222.788.625v.005c0 .355-.295.602-.737.602-.448 0-.748-.23-.785-.554l-.003-.03h-.652l.003.033c.05.654.599 1.11 1.437 1.11zm3.763.019c.883 0 1.516-.512 1.617-1.278v-.018h-.671l-.002.013c-.098.421-.459.692-.944.692-.652 0-1.058-.544-1.058-1.416v-.005c0-.87.406-1.413 1.055-1.413.483 0 .849.3.947.753l.002.01h.671v-.02c-.09-.783-.75-1.334-1.62-1.334-1.084 0-1.755.766-1.755 2.006v.006c0 1.235.674 2.004 1.758 2.004zm3.62-.019c.848 0 1.429-.469 1.429-1.142v-.005c0-.53-.374-.865-.936-.918v-.013c.459-.095.801-.41.801-.885v-.006c0-.599-.512-1.01-1.299-1.01-.772 0-1.294.435-1.352 1.098l-.003.029h.636l.003-.026c.035-.343.313-.557.716-.557.408 0 .644.207.644.556v.006c0 .334-.281.572-.702.572h-.438v.51h.451c.49 0 .787.222.787.625v.005c0 .355-.294.602-.737.602-.448 0-.747-.23-.784-.554l-.003-.03h-.652l.002.033c.051.654.6 1.11 1.437 1.11zm2.168-.077h2.476v-.575h-1.792V73.51h1.694v-.543h-1.694V71.93h1.792v-.575h-2.476zm3.251 0h.684v-1.439h.759l.75 1.44h.782l-.835-1.543c.453-.165.721-.584.721-1.09v-.005c0-.73-.493-1.188-1.315-1.188h-1.546zm.684-1.964V71.91h.777c.435 0 .697.25.697.65v.005c0 .41-.252.652-.684.652h-.79zm2.934 1.964h2.476v-.575h-1.792V73.51h1.694v-.543h-1.694V71.93h1.792v-.575h-2.476zm4.901.096c.251 0 .479-.04.686-.114l.31.416h.668l-.509-.684c.417-.345.652-.91.652-1.625v-.005c0-1.233-.694-2.004-1.807-2.004-1.111 0-1.811.771-1.811 2.004v.005c0 1.23.689 2.007 1.811 2.007zm0-.591c-.69 0-1.114-.557-1.114-1.416v-.005c0-.864.435-1.413 1.114-1.413.678 0 1.11.549 1.11 1.413v.005c0 .467-.127.843-.352 1.092l-.281-.379h-.668l.493.663c-.096.026-.196.04-.302.04zm4.169.59c1.116 0 1.807-.776 1.807-2.006v-.005c0-1.233-.694-2.004-1.807-2.004-1.111 0-1.811.771-1.811 2.004v.005c0 1.23.689 2.007 1.811 2.007zm0-.59c-.69 0-1.114-.557-1.114-1.416v-.005c0-.864.435-1.413 1.114-1.413.678 0 1.11.549 1.11 1.413v.005c0 .859-.429 1.416-1.11 1.416zm4.089.59c.973 0 1.572-.57 1.572-1.412v-2.508h-.684v2.452c0 .528-.318.878-.885.878-.57 0-.891-.35-.891-.878v-2.452h-.684v2.508c0 .843.604 1.413 1.572 1.413z"/><path fill="#fff4eb" d="M345.122 68.312h-25.737c-.959 0-1.737.778-1.737 1.737v7.263c0 .96.778 1.737 1.737 1.737h25.737c.959 0 1.737-.778 1.737-1.737v-7.263c0-.96-.778-1.737-1.737-1.737z"/><path fill="#fe9134" d="M320.801 76.18h.534v-1.528h1.081c.804 0 1.374-.567 1.374-1.38v-.006c0-.814-.57-1.369-1.374-1.369h-1.615v4.284zm1.478-3.808c.612 0 .965.336.965.9v.006c0 .564-.353.899-.965.899h-.944v-1.805zm3.539 3.865c.754 0 1.211-.427 1.32-.86l.006-.024h-.516l-.012.026c-.086.193-.353.398-.787.398-.569 0-.935-.386-.949-1.048h2.303v-.202c0-.956-.528-1.603-1.398-1.603-.87 0-1.434.677-1.434 1.666v.003c0 1.003.552 1.644 1.467 1.644zm-.036-2.852c.472 0 .822.3.876.931h-1.77c.057-.608.419-.931.894-.931zm2.202 2.796h.517v-1.894c0-.561.323-.906.834-.906.511 0 .748.276.748.852v1.948h.517v-2.072c0-.76-.401-1.185-1.12-1.185-.471 0-.771.2-.932.538h-.047v-.481h-.517zm4.732.056c.445 0 .801-.21.997-.567h.048v.51h.516v-4.47h-.516v1.775h-.048c-.175-.341-.558-.56-.997-.56-.813 0-1.342.65-1.342 1.653v.006c0 .997.532 1.653 1.342 1.653zm.119-.457c-.585 0-.932-.451-.932-1.196v-.006c0-.745.347-1.197.932-1.197.581 0 .938.458.938 1.197v.006c0 .739-.357 1.196-.938 1.196zm2.707-3.417a.357.357 0 0 0 0-.712.357.357 0 0 0 0 .712zm-.261 3.818h.516v-3.2h-.516zm1.49 0h.516v-1.894c0-.561.324-.906.834-.906.511 0 .748.276.748.852v1.948h.517v-2.072c0-.76-.401-1.185-1.119-1.185-.472 0-.772.2-.932.538h-.048v-.481h-.516zm4.868 1.128c.872 0 1.425-.457 1.425-1.173v-3.155h-.517v.528h-.036a1.09 1.09 0 0 0-.997-.585c-.837 0-1.353.65-1.353 1.547v.006c0 .896.513 1.537 1.341 1.537.44 0 .802-.198 1.004-.552h.047v.647c0 .472-.341.743-.914.743-.46 0-.745-.173-.802-.416l-.003-.003h-.534l-.006.003c.08.525.573.873 1.345.873zm-.024-1.752c-.594 0-.926-.445-.926-1.08v-.006c0-.635.332-1.09.926-1.09.591 0 .95.455.95 1.09v.006c0 .635-.356 1.08-.95 1.08z"/><path fill="#dcdcdc" d="M346.86 84.025H186.934v-.678H346.86Z" opacity=".5"/><path fill="#000" d="M189.145 101.99h1.368v-7.65h-1.363l-1.999 1.405v1.288l1.904-1.346h.09zm3.038 2.02h.901l.922-3.186h-1.362zm6.187-1.829c1.659 0 2.841-1.134 2.841-2.688v-.01c0-1.453-1.028-2.524-2.497-2.524-1.05 0-1.718.535-1.999 1.14h-.106c0-.058.006-.117.006-.175.058-1.463.572-2.65 1.786-2.65.674 0 1.146.349 1.347.885l.021.052h1.342l-.011-.058c-.244-1.172-1.294-2.004-2.699-2.004-1.924 0-3.085 1.527-3.085 4.104v.01c0 2.757 1.421 3.918 3.054 3.918zm-1.522-2.672v-.01c0-.865.663-1.49 1.527-1.49.869 0 1.5.636 1.5 1.521v.011c0 .853-.668 1.527-1.516 1.527s-1.511-.684-1.511-1.559zm8.647 2.672c1.818 0 2.921-1.543 2.921-4.013v-.01c0-2.471-1.103-4.009-2.921-4.009-1.818 0-2.911 1.538-2.911 4.008v.01c0 2.471 1.093 4.014 2.911 4.014zm0-1.108c-.975 0-1.532-1.092-1.532-2.905v-.01c0-1.814.557-2.895 1.532-2.895.976 0 1.543 1.081 1.543 2.894v.01c0 1.814-.567 2.906-1.543 2.906zm7.221 1.108c1.818 0 2.921-1.543 2.921-4.013v-.01c0-2.471-1.103-4.009-2.921-4.009-1.819 0-2.911 1.538-2.911 4.008v.01c0 2.471 1.092 4.014 2.911 4.014zm0-1.108c-.976 0-1.532-1.092-1.532-2.905v-.01c0-1.814.556-2.895 1.532-2.895.975 0 1.543 1.081 1.543 2.894v.01c0 1.814-.568 2.906-1.543 2.906zm10.593 1.108c1.945 0 3.143-1.14 3.143-2.826V94.34h-1.367v4.904c0 1.055-.637 1.755-1.771 1.755-1.14 0-1.781-.7-1.781-1.755V94.34h-1.368v5.015c0 1.686 1.208 2.826 3.144 2.826zm7.682 0c1.834 0 2.985-.933 2.985-2.423v-.005c0-1.156-.674-1.802-2.285-2.142l-.822-.175c-.955-.201-1.342-.54-1.342-1.081v-.006c0-.652.605-1.05 1.453-1.05.875-.005 1.442.42 1.538 1.013l.01.064h1.31l-.006-.069c-.095-1.23-1.15-2.158-2.847-2.158-1.654 0-2.831.923-2.831 2.29v.006c0 1.14.679 1.871 2.243 2.2l.822.17c.986.212 1.383.546 1.383 1.097v.005c0 .658-.646 1.114-1.569 1.114-.97 0-1.654-.424-1.718-1.066l-.005-.053h-1.325l.005.074c.095 1.32 1.225 2.195 3.001 2.195zm4.522-.191h2.868c2.291 0 3.6-1.405 3.6-3.854v-.01c0-2.397-1.325-3.786-3.6-3.786h-2.868zm1.368-1.15v-5.35h1.32c1.5 0 2.386.976 2.386 2.657v.01c0 1.718-.864 2.683-2.386 2.683zm8.286 1.15h1.368v-6.5h2.359v-1.15h-6.081v1.15h2.354z"/><path fill="#000" fill-opacity=".6" d="M325.958 102.676c1.611 0 2.746-1.082 2.746-2.651v-.011c0-1.468-1.029-2.54-2.465-2.54-.706 0-1.305.298-1.628.812h-.09l.233-2.439h3.515V94.84h-4.448l-.382 4.443h1.023c.091-.175.213-.324.35-.446.303-.275.7-.413 1.167-.413.922 0 1.59.668 1.59 1.612v.01c0 .96-.657 1.633-1.601 1.633-.837 0-1.447-.535-1.548-1.209l-.005-.042h-1.114l.006.069c.106 1.24 1.145 2.179 2.651 2.179zm6.915-.043c1.702 0 2.9-.912 2.9-2.21v-.011c0-.965-.695-1.734-1.697-1.951v-.026c.859-.244 1.416-.886 1.416-1.697v-.01c0-1.172-1.092-2.031-2.619-2.031-1.522 0-2.619.859-2.619 2.03v.01c0 .812.562 1.454 1.421 1.698v.026c-1.002.217-1.697.986-1.697 1.951v.011c0 1.298 1.198 2.21 2.895 2.21zm0-4.596c-.854 0-1.442-.499-1.442-1.198v-.01c0-.7.588-1.188 1.442-1.188.853 0 1.442.487 1.442 1.187v.01c0 .7-.583 1.199-1.442 1.199zm0 3.642c-.976 0-1.67-.557-1.67-1.331v-.01c0-.785.689-1.352 1.67-1.352.986 0 1.675.567 1.675 1.352v.01c0 .774-.694 1.331-1.675 1.331zm5.865-2.752c1.029 0 1.654-.81 1.654-2.099v-.005c0-1.288-.625-2.09-1.654-2.09-1.028 0-1.654.801-1.654 2.09v.005c0 1.288.626 2.1 1.654 2.1zm.79 3.563 5.185-7.65h-.991l-5.185 7.65zm-.79-4.273c-.503 0-.79-.514-.79-1.389v-.005c0-.87.287-1.379.79-1.379.504 0 .795.51.795 1.379v.005c0 .875-.291 1.39-.795 1.39zm5.768 4.379c1.029 0 1.655-.806 1.655-2.094v-.005c0-1.288-.626-2.094-1.655-2.094-1.028 0-1.654.805-1.654 2.094v.005c0 1.288.626 2.094 1.654 2.094zm0-.71c-.503 0-.79-.514-.79-1.384v-.005c0-.875.287-1.384.79-1.384.504 0 .79.509.79 1.384v.005c0 .87-.286 1.384-.79 1.384zm-32.254.033h2.322v-.429h-1.845v-3.395h-.477zm3.503 0h.477v-3.395h1.233v-.43h-2.942v.43h1.232zm3.48 0h.472l1.41-3.825h-.501l-1.124 3.208h-.042l-1.124-3.208h-.501zm-132.202 17.036h.472v-2.966h.042l2.076 2.966h.463v-3.825h-.471v2.977h-.043l-2.075-2.977h-.464zm5.065.05c.673 0 1.081-.382 1.179-.769l.006-.021h-.462l-.01.024c-.077.172-.316.355-.703.355-.509 0-.835-.344-.848-.935h2.057v-.181c0-.853-.472-1.431-1.249-1.431-.776 0-1.28.604-1.28 1.487v.003c0 .896.493 1.468 1.31 1.468zm-.032-2.547c.421 0 .734.267.782.832h-1.58c.05-.543.374-.832.798-.832zm1.56 2.497h.517l.679-1.079h.042l.676 1.079h.541l-.983-1.448.97-1.41h-.517l-.671 1.063h-.042l-.679-1.063h-.543l.988 1.429zm4.018.021c.09 0 .178-.011.268-.026v-.393c-.085.008-.13.011-.212.011-.297 0-.414-.135-.414-.472v-1.617h.626v-.382h-.626v-.739h-.477v.739h-.45v.382h.45v1.734c0 .546.247.763.835.763zm2.398-.021h.477v-1.365h.965c.718 0 1.227-.507 1.227-1.233v-.005c0-.727-.509-1.222-1.227-1.222h-1.442zm1.32-3.401c.546 0 .861.299.861.803v.005c0 .504-.315.804-.861.804h-.843v-1.612zm2.679 3.451c.384 0 .684-.167.864-.472h.042v.422h.462v-1.956c0-.594-.39-.952-1.087-.952-.61 0-1.045.302-1.119.75l-.002.016h.461l.002-.008c.075-.223.3-.35.642-.35.427 0 .641.191.641.544v.259l-.819.051c-.665.039-1.041.334-1.041.843v.005c0 .519.41.848.954.848zm-.483-.859v-.005c0-.284.191-.437.626-.464l.763-.048v.26c0 .408-.342.716-.811.716-.331 0-.578-.17-.578-.459zm2.759 1.811c.506 0 .742-.186.978-.827l1.116-3.033h-.485l-.782 2.352h-.042l-.785-2.352h-.493l1.058 2.86-.053.17c-.104.329-.263.448-.525.448-.064 0-.135-.003-.191-.013v.379c.064.011.143.016.204.016zm2.632-1.002h.461v-1.771c0-.403.283-.729.657-.729.361 0 .594.22.594.559v1.941h.461v-1.837c0-.363.263-.663.66-.663.403 0 .597.21.597.631v1.869h.461v-1.975c0-.599-.326-.933-.909-.933-.395 0-.721.199-.875.501h-.042a.825.825 0 0 0-.79-.501c-.374 0-.645.177-.772.485h-.042v-.435h-.461zm5.817.05c.674 0 1.082-.382 1.18-.769l.005-.021h-.461l-.011.024c-.077.172-.315.355-.702.355-.509 0-.835-.344-.848-.935h2.057v-.181c0-.853-.472-1.431-1.249-1.431-.777 0-1.28.604-1.28 1.487v.003c0 .896.493 1.468 1.309 1.468zm-.032-2.547c.422 0 .735.267.782.832h-1.579c.05-.543.373-.832.797-.832zm1.895 2.497h.461v-1.691c0-.501.289-.809.745-.809s.668.247.668.761v1.739h.461v-1.85c0-.679-.357-1.058-.999-1.058-.421 0-.689.177-.832.48h-.043v-.43h-.461zm4.113.021c.09 0 .178-.011.268-.026v-.393c-.085.008-.13.011-.212.011-.297 0-.414-.135-.414-.472v-1.617h.626v-.382h-.626v-.739h-.477v.739h-.45v.382h.45v1.734c0 .546.247.763.835.763zm5.167.074c.784 0 1.243-.456 1.243-1.23v-2.69h-.684v2.685c0 .414-.196.636-.564.636-.34 0-.52-.22-.539-.514l-.002-.019h-.668l.002.03c.027.654.47 1.102 1.212 1.102zm3.005-.037c.419 0 .713-.188.848-.498h.045v.44h.66v-2.898h-.66v1.689c0 .435-.228.71-.654.71-.398 0-.565-.227-.565-.675v-1.724h-.66v1.875c0 .689.334 1.081.986 1.081zm2.313-.058h.66v-4.019h-.66zm1.733 1.018c.642 0 .973-.231 1.222-.957l1.039-2.959h-.694l-.673 2.264h-.051l-.676-2.264h-.721l1.037 2.9-.035.133c-.071.262-.233.374-.503.374-.069 0-.144-.003-.197-.008v.506c.08.008.173.011.252.011zm5.894-1.018h.655v-.734h.514v-.565h-.514v-2.526h-.968c-.519.79-1.063 1.67-1.558 2.531v.56h1.871zm-1.235-1.283v-.04c.371-.649.814-1.357 1.206-1.956h.04v1.996zm2.833 2.293h.45l.462-1.593h-.682zm3.174-1.01h2.656v-.567h-1.731v-.056l.766-.742c.697-.671.907-1.016.907-1.45v-.008c0-.644-.536-1.098-1.281-1.098-.798 0-1.354.499-1.354 1.212l.002.008.637.002.002-.01c0-.395.273-.663.679-.663.397 0 .639.254.639.607v.008c0 .294-.146.488-.666 1.013l-1.256 1.283zm4.744.095c.909 0 1.461-.771 1.461-2.006v-.006c0-1.235-.552-2.004-1.461-2.004s-1.455.769-1.455 2.004v.006c0 1.235.546 2.006 1.455 2.006zm0-.554c-.488 0-.766-.546-.766-1.452v-.006c0-.906.278-1.447.766-1.447s.771.541.771 1.447v.006c0 .906-.283 1.452-.771 1.452zm2.136.459h2.656v-.567h-1.731v-.056l.766-.742c.697-.671.907-1.016.907-1.45v-.008c0-.644-.536-1.098-1.281-1.098-.798 0-1.354.499-1.354 1.212l.002.008.636.002.003-.01c0-.395.273-.663.679-.663.397 0 .639.254.639.607v.008c0 .294-.146.488-.666 1.013l-1.256 1.283zm3.342 0h2.656v-.567h-1.731v-.056l.766-.742c.697-.671.906-1.016.906-1.45v-.008c0-.644-.535-1.098-1.28-1.098-.798 0-1.355.499-1.355 1.212l.003.008.636.002.003-.01c0-.395.273-.663.679-.663.397 0 .638.254.638.607v.008c0 .294-.145.488-.665 1.013l-1.256 1.283zm61.313.09c.814 0 1.418-.453 1.545-1.153v-.005h-.482l-.006.005c-.119.44-.524.713-1.057.713-.737 0-1.198-.602-1.198-1.559v-.005c0-.957.461-1.561 1.195-1.561.528 0 .936.31 1.063.8l.003.005h.48l.002-.005c-.114-.734-.742-1.24-1.548-1.24-1.039 0-1.686.768-1.686 2.001v.005c0 1.23.65 1.999 1.689 1.999zm3.389-.04c.814 0 1.318-.562 1.318-1.476v-.006c0-.917-.504-1.476-1.318-1.476-.813 0-1.317.559-1.317 1.476v.006c0 .914.504 1.476 1.317 1.476zm0-.408c-.54 0-.845-.395-.845-1.068v-.006c0-.676.305-1.068.845-1.068.541 0 .846.392.846 1.068v.006c0 .673-.305 1.068-.846 1.068zm1.988.358h.461v-3.992h-.461zm1.3 0h.462v-3.992h-.462zm2.059.05c.385 0 .684-.167.864-.472h.043v.422h.461v-1.956c0-.594-.39-.952-1.087-.952-.609 0-1.044.302-1.118.75l-.003.016h.461l.003-.008c.074-.223.299-.35.641-.35.427 0 .642.191.642.544v.259l-.819.051c-.666.039-1.042.334-1.042.843v.005c0 .519.411.848.954.848zm-.482-.859v-.005c0-.284.191-.437.625-.464l.764-.048v.26c0 .408-.342.716-.811.716-.332 0-.578-.17-.578-.459zm3.636.83c.09 0 .178-.011.268-.026v-.393c-.085.008-.13.011-.212.011-.297 0-.414-.135-.414-.472v-1.617h.626v-.382h-.626v-.739h-.477v.739h-.451v.382h.451v1.734c0 .546.246.763.835.763zm2.008.029c.674 0 1.082-.382 1.18-.769l.005-.021h-.461l-.01.024c-.077.172-.316.355-.703.355-.509 0-.835-.344-.848-.935h2.057v-.181c0-.853-.472-1.431-1.249-1.431-.776 0-1.28.604-1.28 1.487v.003c0 .896.493 1.468 1.309 1.468zm-.031-2.547c.421 0 .734.267.782.832h-1.58c.05-.543.374-.832.798-.832zm1.894 2.497h.461v-1.771c0-.419.313-.697.753-.697.101 0 .188.011.284.026v-.448a1.554 1.554 0 0 0-.231-.018c-.387 0-.654.175-.763.474h-.043v-.424h-.461zm2.78.05c.384 0 .684-.167.864-.472h.043v.422h.461v-1.956c0-.594-.39-.952-1.087-.952-.61 0-1.044.302-1.119.75l-.002.016h.461l.003-.008c.074-.223.299-.35.641-.35.427 0 .642.191.642.544v.259l-.819.051c-.666.039-1.042.334-1.042.843v.005c0 .519.411.848.954.848zm-.482-.859v-.005c0-.284.19-.437.625-.464l.764-.048v.26c0 .408-.342.716-.811.716-.332 0-.578-.17-.578-.459zm2.647.809h.461v-3.992h-.461z"/><path fill="url('#h')" d="M343.238 121.193a3.62 3.62 0 1 0 .001-7.239 3.62 3.62 0 0 0-.001 7.239z" style="fill:url(#h)"/><path fill="#fff" d="M343.579 117.185v-.394h.902v-.601h-2.456v.601h.902v.394c-.733.033-1.284.178-1.284.352s.551.319 1.284.353v1.262h.653v-1.262c.732-.034 1.282-.179 1.282-.353 0-.173-.55-.318-1.282-.352zm.001.598a5.06 5.06 0 0 1-.324.006c-.168 0-.287-.004-.328-.007-.648-.029-1.132-.14-1.132-.275s.484-.248 1.132-.276v.44c.042.003.163.01.331.01.201 0 .302-.009.321-.01v-.44c.646.028 1.129.141 1.129.276 0 .134-.483.248-1.129.276z"/><path stroke="#ebebeb" stroke-width=".434" d="M353.194 60.386H180.14a2.95 2.95 0 0 0-2.95 2.95v62.834a2.95 2.95 0 0 0 2.95 2.95h173.054a2.95 2.95 0 0 0 2.949-2.95V63.336a2.95 2.95 0 0 0-2.949-2.95z"/><path fill="#fff" d="M354.127 133.028H180.14a2.95 2.95 0 0 0-2.95 2.95v62.834a2.95 2.95 0 0 0 2.95 2.95h173.987a2.95 2.95 0 0 0 2.949-2.95v-62.834a2.95 2.95 0 0 0-2.949-2.95z"/><path fill="#000" fill-opacity=".6" d="m188.918 147.822.207-1.02h.75l-.209 1.02h.514l.204-1.02h.668l.096-.501h-.66l.167-.827h.644l.095-.499h-.639l.197-.978h-.512l-.196.978h-.75l.198-.978h-.509l-.198.978h-.637l-.098.499h.634l-.167.827h-.612l-.099.501h.61l-.204 1.02zm.284-1.497.175-.87h.79l-.175.87zm4.068 1.593c.83 0 1.421-.568 1.421-1.344v-.006c0-.726-.514-1.261-1.249-1.261-.524 0-.858.267-.999.57h-.053c0-.03.003-.059.003-.088.029-.732.286-1.325.893-1.325.337 0 .573.175.673.442l.011.027h.671l-.006-.029c-.122-.586-.646-1.002-1.349-1.002-.962 0-1.543.763-1.543 2.051v.006c0 1.378.711 1.959 1.527 1.959zm-.761-1.336v-.006c0-.432.332-.745.764-.745.435 0 .75.319.75.761v.006a.754.754 0 0 1-.758.763.76.76 0 0 1-.756-.779zm3.016 1.24h.716l1.636-3.255v-.57h-2.662v.559h1.972v.043zm2.807 0h.747l.904-1.407h.024l.904 1.407h.79l-1.259-1.908v-.008l1.28-1.909h-.769l-.885 1.44h-.029l-.888-1.44h-.809l1.238 1.89v.008zm5.261.096c.829 0 1.421-.568 1.421-1.344v-.006c0-.726-.515-1.261-1.249-1.261-.525 0-.859.267-.999.57h-.053l.002-.088c.029-.732.287-1.325.894-1.325.336 0 .572.175.673.442l.011.027h.67l-.005-.029c-.122-.586-.647-1.002-1.349-1.002-.963 0-1.543.763-1.543 2.051v.006c0 1.378.71 1.959 1.527 1.959zm-.761-1.336v-.006c0-.432.331-.745.763-.745.435 0 .751.319.751.761v.006a.754.754 0 0 1-.759.763c-.424 0-.755-.342-.755-.779zm2.92 1.24h.618v-2.719h.045l1.06 2.719h.467l1.06-2.719h.048v2.719h.615v-3.825h-.785l-1.147 2.943h-.046l-1.15-2.943h-.785zm4.678 0h2.908v-.575h-2.054v-.048l2.004-2.746v-.456h-2.802v.575h1.956v.048l-2.012 2.746zm4.715 0h.801l1.323-3.825h-.756l-.946 3.035h-.045l-.947-3.035h-.753zm2.711 0h.66v-2.635h.043l1.879 2.635h.591v-3.825h-.657v2.635h-.043l-1.879-2.635h-.594zm3.976 0h2.656v-.567h-1.731v-.056l.766-.742c.697-.671.906-1.015.906-1.45v-.008c0-.644-.535-1.097-1.28-1.097-.798 0-1.354.498-1.354 1.211l.002.008.636.003.003-.011c0-.395.273-.663.679-.663.397 0 .639.255.639.607v.008c0 .295-.146.488-.666 1.013l-1.256 1.283zm4.802.096c.83 0 1.421-.568 1.421-1.344v-.006c0-.726-.514-1.261-1.249-1.261-.524 0-.858.267-.999.57h-.053c0-.03.003-.059.003-.088.029-.732.286-1.325.893-1.325.337 0 .573.175.673.442l.011.027h.671l-.006-.029c-.122-.586-.646-1.002-1.349-1.002-.962 0-1.543.763-1.543 2.051v.006c0 1.378.711 1.959 1.527 1.959zm-.761-1.336v-.006c0-.432.332-.745.764-.745.435 0 .75.319.75.761v.006a.754.754 0 0 1-.758.763.76.76 0 0 1-.756-.779zm3.682 1.24h.644l.774-2.738h.04l.779 2.738h.641l1.026-3.825h-.708l-.654 2.871h-.037l-.764-2.871h-.607l-.753 2.871h-.039l-.655-2.871h-.713z"/><path fill="#eaf7e6" d="M346.056 140.954h-19.737c-.959 0-1.737.778-1.737 1.737v7.263c0 .959.778 1.737 1.737 1.737h19.737c.959 0 1.737-.778 1.737-1.737v-7.263c0-.959-.778-1.737-1.737-1.737z"/><path fill="#30ad04" d="M327.393 148.823h.561l.431-1.226h1.704l.43 1.226h.561l-1.579-4.284h-.529zm1.82-3.592h.047l.671 1.911h-1.389zm3.684 3.648c.768 0 1.199-.413 1.329-.992l.006-.032-.51.003-.006.018c-.119.356-.392.546-.822.546-.57 0-.938-.472-.938-1.208v-.006c0-.722.362-1.185.938-1.185.46 0 .745.256.825.57l.003.009h.513l-.003-.018c-.095-.57-.561-1.018-1.338-1.018-.897 0-1.467.647-1.467 1.642v.006c0 1.015.573 1.665 1.47 1.665zm3.289-.033c.1 0 .198-.012.299-.029v-.44a2.126 2.126 0 0 1-.237.012c-.333 0-.463-.151-.463-.528v-1.811h.7v-.427h-.7v-.829h-.535v.829h-.504v.427h.504v1.941c0 .612.277.855.936.855zm1.344-3.841a.357.357 0 0 0 0-.712.357.357 0 0 0 0 .712zm-.261 3.818h.516v-3.2h-.516zm2.395 0h.523l1.184-3.2h-.546l-.876 2.636h-.047l-.876-2.636h-.546zm3.577.056c.754 0 1.211-.428 1.321-.861l.006-.024h-.516l-.012.027c-.086.193-.354.398-.787.398-.57 0-.935-.386-.95-1.048h2.304v-.202c0-.956-.529-1.603-1.398-1.603-.87 0-1.434.677-1.434 1.665v.003c0 1.004.552 1.645 1.466 1.645zm-.035-2.853c.472 0 .822.3.875.932h-1.769c.057-.608.419-.932.894-.932z"/><path fill="#dcdcdc" d="M347.792 156.667H187.866v-.679h159.926z" opacity=".5"/><path fill="#000" d="M187.273 174.632h5.312v-1.134h-3.462v-.112l1.533-1.484c1.394-1.342 1.813-2.031 1.813-2.9v-.016c0-1.288-1.071-2.195-2.561-2.195-1.596 0-2.709.997-2.709 2.423l.005.016 1.273.005.005-.021c0-.79.546-1.326 1.357-1.326.795 0 1.278.509 1.278 1.214v.016c0 .589-.292.976-1.331 2.026l-2.513 2.566zm9.633.191c1.819 0 2.922-1.543 2.922-4.013v-.011c0-2.471-1.103-4.008-2.922-4.008-1.818 0-2.91 1.537-2.91 4.008v.011c0 2.47 1.092 4.013 2.91 4.013zm0-1.108c-.975 0-1.532-1.092-1.532-2.905v-.011c0-1.813.557-2.895 1.532-2.895.976 0 1.543 1.082 1.543 2.895v.011c0 1.813-.567 2.905-1.543 2.905zm3.738 2.937h.901l.923-3.186h-1.363zm6.07-1.829c1.819 0 2.922-1.543 2.922-4.013v-.011c0-2.471-1.103-4.008-2.922-4.008-1.818 0-2.91 1.537-2.91 4.008v.011c0 2.47 1.092 4.013 2.91 4.013zm0-1.108c-.975 0-1.532-1.092-1.532-2.905v-.011c0-1.813.557-2.895 1.532-2.895.976 0 1.543 1.082 1.543 2.895v.011c0 1.813-.567 2.905-1.543 2.905zm7.221 1.108c1.819 0 2.921-1.543 2.921-4.013v-.011c0-2.471-1.102-4.008-2.921-4.008-1.818 0-2.91 1.537-2.91 4.008v.011c0 2.47 1.092 4.013 2.91 4.013zm0-1.108c-.975 0-1.532-1.092-1.532-2.905v-.011c0-1.813.557-2.895 1.532-2.895.976 0 1.543 1.082 1.543 2.895v.011c0 1.813-.567 2.905-1.543 2.905zm7.221 1.108c1.819 0 2.921-1.543 2.921-4.013v-.011c0-2.471-1.102-4.008-2.921-4.008-1.818 0-2.911 1.537-2.911 4.008v.011c0 2.47 1.093 4.013 2.911 4.013zm0-1.108c-.975 0-1.532-1.092-1.532-2.905v-.011c0-1.813.557-2.895 1.532-2.895.976 0 1.543 1.082 1.543 2.895v.011c0 1.813-.567 2.905-1.543 2.905zm10.593 1.108c1.946 0 3.144-1.14 3.144-2.826v-5.015h-1.368v4.904c0 1.055-.636 1.755-1.771 1.755-1.14 0-1.781-.7-1.781-1.755v-4.904h-1.368v5.015c0 1.686 1.209 2.826 3.144 2.826zm7.682 0c1.834 0 2.985-.933 2.985-2.423v-.005c0-1.156-.674-1.803-2.285-2.142l-.822-.175c-.954-.202-1.341-.541-1.341-1.082v-.005c0-.652.604-1.05 1.452-1.05.875-.005 1.442.419 1.538 1.013l.01.064h1.31l-.005-.069c-.096-1.23-1.151-2.158-2.847-2.158-1.654 0-2.831.922-2.831 2.29v.006c0 1.139.678 1.871 2.242 2.2l.822.169c.986.212 1.384.546 1.384 1.098v.005c0 .658-.647 1.113-1.57 1.113-.97 0-1.654-.424-1.717-1.065l-.006-.053h-1.325l.005.074c.096 1.32 1.225 2.195 3.001 2.195zm4.522-.191h2.868c2.291 0 3.6-1.405 3.6-3.854v-.011c0-2.396-1.325-3.785-3.6-3.785h-2.868zm1.368-1.15v-5.35h1.32c1.501 0 2.386.976 2.386 2.656v.011c0 1.718-.864 2.683-2.386 2.683zm9.861 1.341c1.766 0 3.033-1.023 3.234-2.555v-.038h-1.341l-.005.027c-.197.843-.918 1.384-1.888 1.384-1.304 0-2.115-1.087-2.115-2.831v-.011c0-1.739.811-2.826 2.11-2.826.965 0 1.696.599 1.893 1.506l.005.021h1.341v-.042c-.18-1.564-1.5-2.667-3.239-2.667-2.169 0-3.51 1.532-3.51 4.013v.011c0 2.47 1.347 4.008 3.515 4.008z"/><path fill="#000" fill-opacity=".6" d="M327.113 175.275c1.622 0 2.773-.943 2.773-2.258v-.011c0-1.071-.753-1.749-1.877-1.85v-.027c.933-.196 1.612-.832 1.612-1.781v-.011c0-1.182-.997-1.998-2.519-1.998-1.495 0-2.513.853-2.629 2.142l-.006.058h1.114l.005-.053c.074-.721.668-1.172 1.516-1.172.864 0 1.363.435 1.363 1.177v.011c0 .71-.594 1.224-1.469 1.224h-.896v.923h.933c1.018 0 1.644.482 1.644 1.347v.01c0 .753-.631 1.278-1.564 1.278-.949 0-1.591-.488-1.665-1.182l-.005-.053h-1.135l.006.063c.1 1.267 1.166 2.163 2.799 2.163zm6.862.043c1.612 0 2.746-1.082 2.746-2.651v-.011c0-1.468-1.028-2.539-2.465-2.539-.705 0-1.304.297-1.628.811h-.09l.234-2.439h3.515v-1.007h-4.449l-.381 4.443h1.023c.09-.175.212-.324.35-.446.302-.275.7-.413 1.166-.413.923 0 1.591.668 1.591 1.611v.011c0 .96-.658 1.633-1.601 1.633-.838 0-1.448-.536-1.548-1.209l-.006-.042h-1.113l.005.069c.106 1.24 1.145 2.179 2.651 2.179zm5.696-3.749c1.028 0 1.654-.811 1.654-2.099v-.005c0-1.289-.626-2.089-1.654-2.089-1.029 0-1.654.8-1.654 2.089v.005c0 1.288.625 2.099 1.654 2.099zm.79 3.563 5.185-7.65h-.992l-5.185 7.65zm-.79-4.273c-.504 0-.79-.514-.79-1.389v-.005c0-.87.286-1.379.79-1.379s.795.509.795 1.379v.005c0 .875-.291 1.389-.795 1.389zm5.768 4.379c1.029 0 1.654-.806 1.654-2.094v-.005c0-1.289-.625-2.094-1.654-2.094-1.028 0-1.654.805-1.654 2.094v.005c0 1.288.626 2.094 1.654 2.094zm0-.71c-.504 0-.79-.515-.79-1.384v-.005c0-.875.286-1.384.79-1.384s.79.509.79 1.384v.005c0 .869-.286 1.384-.79 1.384zm-32.688.033h2.322v-.429h-1.845v-3.396h-.477zm3.503 0h.477v-3.396h1.233v-.429h-2.942v.429h1.232zm3.48 0h.472l1.41-3.825h-.501l-1.124 3.207h-.042l-1.124-3.207h-.501zm-131.541 17.036h.472v-2.967h.042l2.076 2.967h.464v-3.825h-.472v2.976h-.043l-2.075-2.976h-.464zm5.065.05c.673 0 1.081-.382 1.179-.769l.006-.021h-.462l-.01.024c-.077.172-.316.355-.703.355-.509 0-.835-.344-.848-.936h2.057v-.18c0-.853-.472-1.431-1.248-1.431-.777 0-1.281.604-1.281 1.487v.002c0 .896.493 1.469 1.31 1.469zm-.032-2.547c.421 0 .734.267.782.832h-1.58c.05-.543.374-.832.798-.832zm1.56 2.497h.517l.679-1.079h.042l.676 1.079h.541l-.983-1.448.97-1.41h-.517l-.671 1.063h-.042l-.679-1.063h-.543l.989 1.429zm4.018.021c.09 0 .178-.011.268-.027v-.392c-.085.008-.13.011-.212.011-.297 0-.414-.136-.414-.472v-1.617h.626v-.382h-.626V188h-.477v.739h-.45v.382h.45v1.733c0 .547.247.764.835.764zm2.398-.021h.477v-1.365h.965c.718 0 1.227-.507 1.227-1.233v-.005c0-.727-.509-1.222-1.227-1.222h-1.442zm1.32-3.401c.546 0 .861.299.861.803v.005c0 .504-.315.803-.861.803h-.843v-1.611zm2.679 3.451c.384 0 .684-.167.864-.472h.043v.422h.461v-1.957c0-.593-.39-.951-1.087-.951-.61 0-1.044.302-1.119.75l-.002.016h.461l.003-.008c.074-.223.299-.35.641-.35.427 0 .642.191.642.543v.26l-.82.051c-.665.039-1.041.334-1.041.842v.006c0 .519.411.848.954.848zm-.482-.859v-.005c0-.284.19-.438.625-.464l.764-.048v.26c0 .408-.342.716-.812.716-.331 0-.577-.17-.577-.459zm2.758 1.811c.507 0 .742-.186.978-.827l1.116-3.033h-.485l-.782 2.351h-.042l-.785-2.351h-.493l1.058 2.86-.053.17c-.104.329-.263.448-.525.448-.064 0-.135-.003-.191-.013v.379c.064.01.143.016.204.016zm2.632-1.002h.461v-1.771c0-.403.284-.729.657-.729.361 0 .594.22.594.559v1.941h.461v-1.837c0-.364.263-.663.66-.663.403 0 .597.209.597.631v1.869H214v-1.975c0-.599-.326-.933-.909-.933-.395 0-.721.199-.875.501h-.042a.825.825 0 0 0-.79-.501c-.374 0-.644.177-.772.485h-.042v-.435h-.461zm5.817.05c.674 0 1.082-.382 1.18-.769l.005-.021h-.461l-.01.024c-.077.172-.316.355-.703.355-.509 0-.835-.344-.848-.936h2.057v-.18c0-.853-.472-1.431-1.249-1.431-.776 0-1.28.604-1.28 1.487v.002c0 .896.493 1.469 1.309 1.469zm-.031-2.547c.421 0 .734.267.782.832h-1.58c.05-.543.374-.832.798-.832zm1.894 2.497h.461v-1.692c0-.501.289-.808.745-.808s.668.246.668.761v1.739h.462v-1.851c0-.678-.358-1.057-1-1.057-.421 0-.689.177-.832.48h-.043v-.43h-.461zm4.113.021c.091 0 .178-.011.268-.027v-.392c-.085.008-.13.011-.212.011-.297 0-.413-.136-.413-.472v-1.617h.625v-.382h-.625V188h-.478v.739h-.45v.382h.45v1.733c0 .547.247.764.835.764zm5.167.074c.785 0 1.243-.456 1.243-1.23v-2.69h-.684v2.685c0 .413-.196.636-.564.636-.34 0-.52-.22-.538-.514l-.003-.019h-.668l.003.029c.026.655.469 1.103 1.211 1.103zm3.005-.037c.419 0 .713-.188.848-.498h.046v.44h.66v-2.898h-.66v1.689c0 .435-.228.71-.655.71-.398 0-.565-.228-.565-.676v-1.723h-.66v1.874c0 .69.334 1.082.986 1.082zm2.314-.058h.66v-4.019h-.66zm1.732 1.018c.642 0 .973-.231 1.222-.957l1.04-2.959h-.695l-.673 2.264h-.051l-.676-2.264h-.721l1.037 2.9-.035.133c-.071.262-.233.374-.503.374-.069 0-.143-.003-.196-.008v.506c.079.008.172.011.251.011zm5.513-.941c.848 0 1.428-.47 1.428-1.143v-.005c0-.53-.373-.864-.935-.917v-.014c.458-.095.8-.411.8-.885v-.005c0-.599-.511-1.01-1.299-1.01-.771 0-1.293.434-1.352 1.097l-.002.029h.636l.002-.026c.035-.342.313-.557.716-.557.408 0 .644.207.644.557v.005c0 .334-.281.573-.702.573h-.437v.509h.45c.491 0 .787.222.787.625v.005c0 .356-.294.602-.736.602-.448 0-.748-.23-.785-.554l-.003-.029h-.652l.003.032c.05.655.599 1.111 1.437 1.111zm1.809.933h.451l.461-1.594h-.681zm3.174-1.01h2.656v-.568h-1.731v-.055l.767-.742c.697-.671.906-1.016.906-1.451v-.007c0-.645-.535-1.098-1.28-1.098-.798 0-1.355.498-1.355 1.212l.003.007.636.003.003-.01c0-.395.273-.663.678-.663.398 0 .639.254.639.607v.008c0 .294-.146.488-.665 1.012l-1.257 1.283zm4.744.095c.91 0 1.461-.771 1.461-2.007v-.005c0-1.235-.551-2.004-1.461-2.004-.909 0-1.455.769-1.455 2.004v.005c0 1.236.546 2.007 1.455 2.007zm0-.554c-.487 0-.766-.546-.766-1.453v-.005c0-.906.279-1.447.766-1.447.488 0 .772.541.772 1.447v.005c0 .907-.284 1.453-.772 1.453zm2.136.459h2.656v-.568h-1.731v-.055l.766-.742c.698-.671.907-1.016.907-1.451v-.007c0-.645-.535-1.098-1.28-1.098-.798 0-1.355.498-1.355 1.212l.003.007.636.003.003-.01c0-.395.273-.663.678-.663.398 0 .639.254.639.607v.008c0 .294-.146.488-.665 1.012l-1.257 1.283zm3.342 0h2.656v-.568h-1.731v-.055l.766-.742c.698-.671.907-1.016.907-1.451v-.007c0-.645-.536-1.098-1.28-1.098-.798 0-1.355.498-1.355 1.212l.003.007.636.003.002-.01c0-.395.274-.663.679-.663.398 0 .639.254.639.607v.008c0 .294-.146.488-.665 1.012l-1.257 1.283zm61.255.09c.814 0 1.419-.453 1.546-1.153v-.006h-.483l-.005.006c-.119.44-.525.713-1.058.713-.737 0-1.198-.602-1.198-1.559v-.005c0-.957.461-1.562 1.196-1.562.527 0 .935.311 1.063.801l.002.005h.48l.003-.005c-.114-.734-.742-1.241-1.548-1.241-1.039 0-1.686.769-1.686 2.002v.005c0 1.23.649 1.999 1.688 1.999zm3.39-.04c.814 0 1.317-.562 1.317-1.476v-.006c0-.917-.503-1.476-1.317-1.476s-1.318.559-1.318 1.476v.006c0 .914.504 1.476 1.318 1.476zm0-.408c-.541 0-.846-.395-.846-1.068v-.006c0-.676.305-1.068.846-1.068.541 0 .846.392.846 1.068v.006c0 .673-.305 1.068-.846 1.068zm1.987.358h.461v-3.992h-.461zm1.301 0h.461v-3.992h-.461zm2.059.05c.384 0 .684-.167.864-.472h.042v.422h.462v-1.957c0-.593-.39-.951-1.087-.951-.61 0-1.045.302-1.119.75l-.002.016h.461l.002-.008c.075-.223.3-.35.642-.35.427 0 .641.191.641.543v.26l-.819.051c-.665.039-1.041.334-1.041.842v.006c0 .519.41.848.954.848zm-.483-.859v-.005c0-.284.191-.438.626-.464l.763-.048v.26c0 .408-.342.716-.811.716-.331 0-.578-.17-.578-.459zm3.637.83c.09 0 .177-.011.267-.027v-.392c-.085.008-.13.011-.212.011-.297 0-.413-.136-.413-.472v-1.617h.625v-.382h-.625V188h-.477v.739h-.451v.382h.451v1.733c0 .547.246.764.835.764zm2.008.029c.673 0 1.082-.382 1.18-.769l.005-.021h-.461l-.011.024c-.077.172-.315.355-.702.355-.509 0-.835-.344-.849-.936h2.057v-.18c0-.853-.471-1.431-1.248-1.431s-1.28.604-1.28 1.487v.002c0 .896.493 1.469 1.309 1.469zm-.032-2.547c.422 0 .735.267.782.832h-1.58c.051-.543.374-.832.798-.832zm1.895 2.497h.461v-1.771c0-.419.313-.697.753-.697.101 0 .188.01.283.026v-.448a1.55 1.55 0 0 0-.23-.018c-.387 0-.655.175-.764.474h-.042v-.424h-.461zm2.78.05c.384 0 .684-.167.864-.472h.042v.422h.461v-1.957c0-.593-.389-.951-1.086-.951-.61 0-1.045.302-1.119.75l-.003.016h.462l.002-.008c.074-.223.3-.35.642-.35.427 0 .641.191.641.543v.26l-.819.051c-.665.039-1.042.334-1.042.842v.006c0 .519.411.848.955.848zm-.483-.859v-.005c0-.284.191-.438.626-.464l.763-.048v.26c0 .408-.342.716-.811.716-.331 0-.578-.17-.578-.459zm2.648.809h.461v-3.992h-.461Z"/><path fill="url('#i')" d="M344.174 193.835a3.619 3.619 0 1 0 0-7.237 3.619 3.619 0 0 0 0 7.237z" style="fill:url(#i)"/><path fill="#fff" d="M344.912 190.542c0-.381-.362-.586-.744-.586-.381 0-.36-.25-.36-.25 0-.08.029-.262.36-.262.331 0 .345.299.345.299h.327s.041-.495-.495-.584v-.348h-.354v.348c-.543.086-.539.558-.539.558 0 .415.356.579.716.579s.37.266.37.266.041.318-.37.318c-.41 0-.401-.358-.401-.358h-.373c0 .383.26.589.597.643v.338h.354v-.336c.339-.058.567-.295.567-.625z"/><path fill="#fff" d="M342.511 190.159c0-.746.491-1.379 1.166-1.588v-.377a2.027 2.027 0 0 0 .002 3.929v-.375a1.664 1.664 0 0 1-1.168-1.589zm2.147-1.965v.375a1.661 1.661 0 0 1 1.166 1.588c0 .747-.49 1.38-1.166 1.589v.375a2.025 2.025 0 0 0 0-3.927z"/><path stroke="#ebebeb" stroke-width=".434" d="M354.127 133.028H180.14a2.95 2.95 0 0 0-2.95 2.95v62.834a2.95 2.95 0 0 0 2.95 2.95h173.987a2.95 2.95 0 0 0 2.949-2.95v-62.834a2.95 2.95 0 0 0-2.949-2.95z"/><path fill="#fff" d="M354.063 205.67H180.14a2.95 2.95 0 0 0-2.95 2.95v62.834a2.95 2.95 0 0 0 2.95 2.95h173.923a2.95 2.95 0 0 0 2.949-2.95V208.62a2.95 2.95 0 0 0-2.949-2.95z"/><path fill="#000" fill-opacity=".6" d="m189.35 220.464.207-1.02h.75l-.209 1.02h.513l.205-1.02h.668l.095-.501h-.66l.167-.828h.644l.096-.498h-.639l.196-.978h-.511l-.198.978h-.75l.2-.978h-.509l-.2.978h-.635l-.098.498h.634l-.168.828h-.612l-.098.501h.61l-.204 1.02zm.283-1.498.176-.869h.79l-.175.869zm3.467 1.498h.643l.775-2.738h.04l.779 2.738h.642l1.026-3.825h-.708l-.655 2.871h-.037l-.763-2.871h-.608l-.752 2.871h-.041l-.655-2.871h-.712zm4.537 0h1.636c.817 0 1.315-.413 1.315-1.084v-.005c0-.496-.356-.867-.871-.915v-.048a.832.832 0 0 0 .683-.816v-.005c0-.586-.438-.952-1.164-.952h-1.599zm1.431-3.292c.413 0 .656.199.656.538v.005c0 .347-.258.536-.744.536h-.659v-1.079zm.022 1.564c.522 0 .797.204.797.591v.005c0 .39-.267.599-.77.599h-.796v-1.195zm2.17 1.728h.683v-1.23l.41-.474 1.208 1.704h.835l-1.556-2.158 1.442-1.667h-.785l-1.508 1.768h-.046v-1.768h-.683zm3.681 0h.683V219.2h.843c.777 0 1.303-.515 1.303-1.278v-.005c0-.766-.526-1.278-1.303-1.278h-1.526zm1.36-3.266c.491 0 .776.263.776.721v.006c0 .458-.285.723-.776.723h-.677v-1.45zm3.464 3.343c.849 0 1.428-.469 1.428-1.143v-.005c0-.53-.373-.864-.935-.917v-.013c.459-.096.801-.411.801-.886v-.005c0-.599-.512-1.01-1.299-1.01-.771 0-1.294.435-1.352 1.098l-.003.029h.637l.002-.027c.035-.342.313-.556.716-.556.408 0 .644.206.644.556v.005c0 .334-.281.573-.702.573h-.438v.509h.451c.49 0 .787.223.787.626v.005c0 .355-.294.602-.737.602-.448 0-.748-.231-.785-.554l-.002-.03h-.652l.001.032c.051.655.601 1.111 1.438 1.111zm2.168-.077h.616v-2.72h.047l1.06 2.72h.466l1.061-2.72h.047v2.72h.614v-3.825h-.783l-1.148 2.942h-.045l-1.151-2.942h-.784zm6.114.096c.91 0 1.461-.772 1.461-2.007v-.005c0-1.236-.551-2.004-1.461-2.004-.909 0-1.455.768-1.455 2.004v.005c0 1.235.546 2.007 1.455 2.007zm0-.554c-.487 0-.766-.547-.766-1.453v-.005c0-.907.279-1.448.766-1.448.488 0 .771.541.771 1.448v.005c0 .906-.283 1.453-.771 1.453zm3.159.554c.785 0 1.244-.456 1.244-1.23v-2.691h-.684v2.685c0 .414-.197.636-.565.636-.34 0-.519-.22-.538-.514l-.003-.018h-.668l.003.029c.027.655.469 1.103 1.211 1.103zm3.246-.038c.735 0 1.161-.395 1.256-.988l.007-.022-.623.003-.006.011c-.082.305-.292.461-.634.461-.448 0-.716-.361-.716-.976v-.005c0-.607.265-.962.716-.962.36 0 .576.201.637.482l.003.008h.623v-.01c-.075-.599-.52-1.013-1.265-1.013-.872 0-1.384.559-1.384 1.495v.005c0 .947.514 1.511 1.386 1.511zm3.196.038c.827 0 1.409-.544 1.409-1.339v-.005c0-.732-.517-1.262-1.23-1.262-.361 0-.658.154-.817.411h-.045l.106-1.164h1.762v-.562h-2.295l-.185 2.24h.586a.74.74 0 0 1 .177-.217.781.781 0 0 1 .541-.191c.437 0 .75.312.75.758v.005c0 .451-.307.766-.755.766-.393 0-.682-.249-.732-.562l-.003-.018h-.631l.002.034c.05.628.578 1.106 1.36 1.106zm2.134-.096h2.476v-.575h-1.793v-1.095h1.695v-.543h-1.695v-1.037h1.793v-.575h-2.476zm4.116 0h.683v-3.825h-.681l-1 .702v.645l.953-.674h.045z"/><path fill="#f3f3f3" d="M345.991 213.596h-14.737c-.959 0-1.736.778-1.736 1.737v7.263c0 .959.777 1.737 1.736 1.737h14.737c.96 0 1.737-.778 1.737-1.737v-7.263c0-.959-.777-1.737-1.737-1.737z"/><path fill="#999" d="M332.669 221.464h.535v-1.529h1.08c.804 0 1.374-.567 1.374-1.38v-.006c0-.813-.57-1.368-1.374-1.368h-1.615zm1.478-3.808c.612 0 .965.335.965.899v.006c0 .564-.353.899-.965.899h-.943v-1.804zm3.082 3.865c.43 0 .765-.187.967-.529h.048v.472h.516v-2.191c0-.664-.436-1.065-1.217-1.065-.682 0-1.169.338-1.252.84l-.003.018h.516l.003-.009c.083-.25.336-.392.718-.392.478 0 .719.214.719.608v.291l-.917.057c-.745.044-1.167.374-1.167.944v.006c0 .581.46.95 1.069.95zm-.541-.962v-.006c0-.318.214-.49.701-.52l.855-.053v.291c0 .457-.383.801-.909.801-.371 0-.647-.19-.647-.513zm3.289-2.912a.357.357 0 0 0 0-.713.357.357 0 0 0 0 .713zm-.261 3.817h.517v-3.2h-.517zm2.672.057c.445 0 .801-.211.997-.567h.047v.51h.517v-4.47h-.517v1.775h-.047c-.175-.341-.558-.561-.997-.561-.814 0-1.342.65-1.342 1.653v.006c0 .998.531 1.654 1.342 1.654zm.118-.458c-.584 0-.932-.451-.932-1.196v-.006c0-.745.348-1.196.932-1.196.582 0 .938.457.938 1.196v.006c0 .739-.356 1.196-.938 1.196z"/><path fill="#dcdcdc" d="M347.728 229.309H187.802v-.679h159.926z" opacity=".5"/><path fill="#000" d="M190.041 247.428c1.696 0 2.857-.939 2.857-2.285v-.011c0-1.06-.747-1.728-1.871-1.834v-.027c.917-.191 1.601-.822 1.601-1.771v-.01c0-1.198-1.023-2.02-2.598-2.02-1.543 0-2.587.869-2.704 2.195l-.005.058h1.272l.006-.053c.069-.684.625-1.113 1.431-1.113.817 0 1.288.413 1.288 1.113v.011c0 .668-.562 1.145-1.405 1.145h-.874v1.018h.901c.981 0 1.575.445 1.575 1.251v.011c0 .71-.589 1.203-1.474 1.203-.896 0-1.495-.461-1.57-1.108l-.005-.058h-1.304l.005.063c.101 1.31 1.198 2.222 2.874 2.222zm7.099.037c1.654 0 2.815-1.087 2.815-2.678v-.01c0-1.463-1.034-2.524-2.46-2.524-.721 0-1.315.308-1.633.822h-.09l.212-2.327h3.525v-1.124h-4.591l-.371 4.48h1.172c.09-.17.217-.319.355-.435.281-.255.652-.382 1.081-.382.875 0 1.501.626 1.501 1.516v.011c0 .901-.615 1.532-1.511 1.532-.785 0-1.363-.498-1.463-1.124l-.006-.037h-1.261l.005.069c.101 1.256 1.156 2.211 2.72 2.211zm3.695 1.829h.901l.923-3.186h-1.363zm6.07-1.829c1.819 0 2.921-1.543 2.921-4.014v-.01c0-2.471-1.102-4.008-2.921-4.008-1.818 0-2.91 1.537-2.91 4.008v.01c0 2.471 1.092 4.014 2.91 4.014zm0-1.108c-.975 0-1.532-1.092-1.532-2.906v-.01c0-1.813.557-2.895 1.532-2.895.976 0 1.543 1.082 1.543 2.895v.01c0 1.814-.567 2.906-1.543 2.906zm7.221 1.108c1.819 0 2.921-1.543 2.921-4.014v-.01c0-2.471-1.102-4.008-2.921-4.008-1.818 0-2.911 1.537-2.911 4.008v.01c0 2.471 1.093 4.014 2.911 4.014zm0-1.108c-.975 0-1.532-1.092-1.532-2.906v-.01c0-1.813.557-2.895 1.532-2.895.976 0 1.543 1.082 1.543 2.895v.01c0 1.814-.567 2.906-1.543 2.906zm7.221 1.108c1.818 0 2.921-1.543 2.921-4.014v-.01c0-2.471-1.103-4.008-2.921-4.008-1.819 0-2.911 1.537-2.911 4.008v.01c0 2.471 1.092 4.014 2.911 4.014zm0-1.108c-.976 0-1.532-1.092-1.532-2.906v-.01c0-1.813.556-2.895 1.532-2.895.975 0 1.543 1.082 1.543 2.895v.01c0 1.814-.568 2.906-1.543 2.906zm10.725 1.108c2.041 0 3.346-1.267 3.346-3.245v-.954h-3.176v1.044h1.834l-.005.159c-.016 1.087-.811 1.814-1.978 1.814-1.362 0-2.221-1.087-2.221-2.842v-.011c0-1.728.843-2.815 2.179-2.815.981 0 1.681.488 1.93 1.325l.016.053h1.357l-.005-.053c-.26-1.495-1.533-2.507-3.298-2.507-2.179 0-3.573 1.564-3.573 4.008v.01c0 2.471 1.378 4.014 3.594 4.014zm4.936-.191h3.271c1.633 0 2.63-.827 2.63-2.168v-.011c0-.991-.711-1.734-1.739-1.829v-.096c.769-.121 1.362-.832 1.362-1.632v-.011c0-1.172-.874-1.903-2.327-1.903h-3.197zm2.863-6.585c.827 0 1.309.398 1.309 1.077v.01c0 .695-.514 1.071-1.484 1.071h-1.32v-2.158zm.042 3.128c1.045 0 1.596.408 1.596 1.183v.01c0 .779-.535 1.198-1.543 1.198h-1.59v-2.391zm4.486 3.457h1.367v-2.529h1.686c1.554 0 2.603-1.028 2.603-2.555v-.011c0-1.532-1.049-2.555-2.603-2.555h-3.053zm2.719-6.532c.981 0 1.554.525 1.554 1.442v.011c0 .917-.573 1.447-1.554 1.447h-1.352v-2.9z"/><path fill="#000" fill-opacity=".6" d="M327.684 247.774h1.145v-1.522h1.055v-1.007h-1.055v-5.121h-1.691a104.273 104.273 0 0 0-3.187 5.121v1.007h3.733zm-2.593-2.508v-.074a87.523 87.523 0 0 1 2.54-4.066h.068v4.14zm8.819 2.693c1.611 0 2.746-1.081 2.746-2.65v-.011c0-1.469-1.029-2.539-2.465-2.539-.706 0-1.305.296-1.628.811h-.09l.233-2.439h3.515v-1.007h-4.448l-.382 4.442h1.024c.09-.175.212-.323.349-.445.303-.276.7-.413 1.167-.413.922 0 1.59.668 1.59 1.611v.011c0 .959-.657 1.633-1.601 1.633-.837 0-1.447-.536-1.548-1.209l-.005-.042h-1.114l.006.069c.106 1.24 1.145 2.178 2.651 2.178zm5.695-3.748c1.029 0 1.655-.811 1.655-2.099v-.006c0-1.288-.626-2.088-1.655-2.088-1.028 0-1.654.8-1.654 2.088v.006c0 1.288.626 2.099 1.654 2.099zm.79 3.563 5.185-7.65h-.991l-5.185 7.65zm-.79-4.273c-.503 0-.79-.514-.79-1.389v-.006c0-.869.287-1.378.79-1.378.504 0 .796.509.796 1.378v.006c0 .875-.292 1.389-.796 1.389zm5.769 4.379c1.028 0 1.654-.806 1.654-2.094v-.005c0-1.289-.626-2.095-1.654-2.095-1.029 0-1.655.806-1.655 2.095v.005c0 1.288.626 2.094 1.655 2.094zm0-.71c-.504 0-.79-.515-.79-1.384v-.005c0-.875.286-1.384.79-1.384.503 0 .79.509.79 1.384v.005c0 .869-.287 1.384-.79 1.384z"/><path stroke="#ebebeb" stroke-width=".434" d="M354.063 205.67H180.14a2.95 2.95 0 0 0-2.95 2.95v62.834a2.95 2.95 0 0 0 2.95 2.95h173.923a2.95 2.95 0 0 0 2.949-2.95V208.62a2.95 2.95 0 0 0-2.949-2.95z"/><path fill="#282828" d="M184.793 44.765h-2.788v-5.27h-1.334v6.375h4.122zm2.867 1.206c1.431 0 2.346-.914 2.346-2.474 0-1.537-.928-2.465-2.346-2.465-1.418 0-2.346.932-2.346 2.465 0 1.555.914 2.474 2.346 2.474zm0-.985c-.636 0-1.038-.535-1.038-1.484 0-.942.411-1.485 1.038-1.485s1.034.543 1.034 1.485c0 .95-.402 1.484-1.034 1.484zm4.926.027c-.438 0-.729-.221-.729-.575 0-.336.274-.552.755-.587l.999-.062v.344c0 .513-.464.88-1.025.88zm-.424.932c.592 0 1.179-.296 1.444-.8h.027v.725h1.246v-3.256c0-.955-.791-1.582-2.006-1.582-1.255 0-2.037.632-2.085 1.55h1.179c.062-.348.367-.587.849-.587.486 0 .795.256.795.698v.314l-1.193.07c-1.18.071-1.842.57-1.842 1.432 0 .853.684 1.436 1.586 1.436zm3.635-.075h1.291v-2.717c0-.615.366-1.039.945-1.039s.87.354.87.972v2.784h1.29v-3.053c0-1.11-.592-1.772-1.643-1.772-.729 0-1.228.345-1.48.932h-.027v-.843h-1.246zm5.218-3.345c0 .698.459 1.166 1.356 1.37l.875.194c.424.102.583.234.583.473 0 .31-.296.504-.786.504-.513 0-.826-.23-.888-.628h-1.259c.07.924.848 1.533 2.111 1.533 1.251 0 2.108-.614 2.108-1.546 0-.707-.384-1.082-1.334-1.295l-.906-.194c-.415-.097-.619-.256-.619-.49 0-.305.292-.508.738-.508.477 0 .782.234.809.614h1.188c-.017-.92-.791-1.52-1.979-1.52-1.215 0-1.997.592-1.997 1.493z"/></g></g></g><defs><linearGradient id="d" x1="49.543" x2="42.879" y1="177.537" y2="157.449" gradientUnits="userSpaceOnUse"><stop stop-color="#FFC300"/><stop offset="1" stop-color="#FF541E"/></linearGradient><linearGradient id="e" x1="44.856" x2="54.021" y1="191.886" y2="204.656" gradientUnits="userSpaceOnUse"><stop stop-color="#2453A8"/><stop offset="1" stop-color="#2E67D1"/></linearGradient><linearGradient id="h" x1="342.204" x2="345.58" y1="113.955" y2="120.448" gradientUnits="userSpaceOnUse"><stop stop-color="#00A478"/><stop offset="1" stop-color="#00C28E"/></linearGradient><linearGradient id="i" x1="343.14" x2="345.984" y1="186.597" y2="193.835" gradientUnits="userSpaceOnUse"><stop stop-color="#2D77C7"/><stop offset="1" stop-color="#5996D9"/></linearGradient><clipPath id="a"><path fill="#fff" d="M0 0h375v243H0Z"/></clipPath><filter id="f" width="64" height="205" x="156" y="57" color-interpolation-filters="sRGB" filterUnits="userSpaceOnUse"><feFlood flood-opacity="0" result="BackgroundImageFix"/><feBlend in="SourceGraphic" in2="BackgroundImageFix" result="shape"/><feGaussianBlur result="effect1_foregroundBlur_6210_116808" stdDeviation="12"/></filter></defs></svg>