<svg xmlns="http://www.w3.org/2000/svg" width="486" height="372" fill="none"><g clip-path="url('#a')"><mask id="b" width="486" height="372" x="0" y="0" maskUnits="userSpaceOnUse" style="mask-type:luminance"><path fill="#fff" d="M486 0H0v371.164h486V0Z"/></mask><g mask="url('#b')"><path fill="#fff" fill-rule="evenodd" d="M0 16.941C0 7.585 7.585 0 16.941 0h451.765c9.356 0 16.941 7.585 16.941 16.941v124.235H276.59c-1.435-17.391-16.005-31.058-33.766-31.058-17.762 0-32.332 13.667-33.767 31.058H0V16.941Zm209.057 129.883H0v124.235C0 280.415 7.585 288 16.941 288h451.765c9.356 0 16.941-7.585 16.941-16.941V146.824H276.59c-1.435 17.391-16.005 31.058-33.766 31.058-17.762 0-32.332-13.667-33.767-31.058Z" clip-rule="evenodd"/><path fill="#999" d="M26.276 30.941h1.143V27l3.25-5.217h-1.301l-2.47 4.068h-.101l-2.47-4.069h-1.3L26.276 27v3.942Zm7.512.12c1.949 0 3.155-1.345 3.155-3.535v-.013c0-2.196-1.206-3.535-3.155-3.535-1.949 0-3.155 1.34-3.155 3.535v.013c0 2.19 1.206 3.536 3.155 3.536Zm0-.977c-1.295 0-2.025-.946-2.025-2.558v-.013c0-1.618.73-2.558 2.025-2.558s2.025.94 2.025 2.558v.013c0 1.612-.73 2.558-2.025 2.558Zm7.08.978c1.003 0 1.695-.413 2.032-1.143h.1v1.022h1.105v-6.843H43v4.05c0 1.2-.641 1.936-1.847 1.936-1.092 0-1.536-.59-1.536-1.822v-4.164h-1.105v4.431c0 1.619.8 2.533 2.355 2.533Zm8.936-.12h1.143v-3.27h2.31c1.72 0 2.94-1.212 2.94-2.951v-.013c0-1.74-1.22-2.926-2.94-2.926h-3.453v9.16Zm3.162-8.145c1.307 0 2.063.717 2.063 1.924v.012c0 1.206-.756 1.924-2.063 1.924h-2.019v-3.86h2.019Zm6.508 8.265c.92 0 1.638-.4 2.07-1.13h.101v1.01h1.105v-4.685c0-1.422-.933-2.28-2.603-2.28-1.46 0-2.5.724-2.678 1.797l-.007.038h1.105l.006-.019c.178-.533.717-.838 1.536-.838 1.022 0 1.536.457 1.536 1.302v.622l-1.961.12c-1.593.096-2.495.8-2.495 2.019v.012c0 1.245.984 2.032 2.285 2.032Zm-1.155-2.057v-.013c0-.679.457-1.047 1.498-1.11l1.828-.115v.622c0 .978-.818 1.714-1.942 1.714-.793 0-1.384-.406-1.384-1.098Zm6.7 4.336c1.212 0 1.777-.445 2.342-1.98l2.672-7.263h-1.161l-1.873 5.63h-.102l-1.879-5.63h-1.18l2.533 6.85-.127.406c-.248.787-.629 1.072-1.257 1.072a2.67 2.67 0 0 1-.457-.031v.907c.152.026.343.039.489.039Z"/><path fill="#282828" d="M29.789 83.47h3.488V63.577H29.76l-5.197 3.654v3.267l5.142-3.53h.083v16.504Zm16.367.345c4.866 0 7.817-3.957 7.817-10.285v-.027c0-6.328-2.95-10.271-7.817-10.271-4.88 0-7.817 3.943-7.817 10.27v.028c0 6.328 2.936 10.285 7.817 10.285Zm0-2.909c-2.689 0-4.233-2.785-4.233-7.376v-.027c0-4.591 1.544-7.349 4.233-7.349 2.674 0 4.232 2.758 4.232 7.349v.027c0 4.591-1.558 7.376-4.232 7.376Zm18.683 2.91c4.867 0 7.817-3.958 7.817-10.286v-.027c0-6.328-2.95-10.271-7.817-10.271-4.88 0-7.817 3.943-7.817 10.27v.028c0 6.328 2.936 10.285 7.817 10.285Zm0-2.91c-2.689 0-4.233-2.785-4.233-7.376v-.027c0-4.591 1.544-7.349 4.233-7.349 2.674 0 4.232 2.758 4.232 7.349v.027c0 4.591-1.558 7.376-4.232 7.376Zm18.683 2.91c4.867 0 7.817-3.958 7.817-10.286v-.027c0-6.328-2.95-10.271-7.817-10.271-4.88 0-7.817 3.943-7.817 10.27v.028c0 6.328 2.936 10.285 7.817 10.285Zm0-2.91c-2.688 0-4.233-2.785-4.233-7.376v-.027c0-4.591 1.545-7.349 4.233-7.349 2.675 0 4.232 2.758 4.232 7.349v.027c0 4.591-1.557 7.376-4.232 7.376Zm18.683 2.91c4.867 0 7.817-3.958 7.817-10.286v-.027c0-6.328-2.95-10.271-7.817-10.271-4.88 0-7.817 3.943-7.817 10.27v.028c0 6.328 2.937 10.285 7.817 10.285Zm0-2.91c-2.688 0-4.232-2.785-4.232-7.376v-.027c0-4.591 1.544-7.349 4.232-7.349 2.675 0 4.232 2.758 4.232 7.349v.027c0 4.591-1.557 7.376-4.232 7.376Z"/><path fill="url('#c')" d="M348.883 90.353c9.356 0 16.941-7.585 16.941-16.941 0-9.357-7.585-16.941-16.941-16.941-9.357 0-16.942 7.584-16.942 16.94 0 9.357 7.585 16.942 16.942 16.942Z"/><path fill="#fff" d="M353.154 78.236a4.478 4.478 0 0 1-.411.206c-.518.253-1.148.38-1.889.38-1.434 0-2.518-.4-3.506-1.457a5.42 5.42 0 0 1-.929-1.345h3.882v-1.88h-4.4a6.796 6.796 0 0 1 .011-1.448h4.389v-1.88h-3.846a5.55 5.55 0 0 1 .89-1.29c.982-1.082 2.062-1.494 3.497-1.494a4.81 4.81 0 0 1 1.695.312l.843-1.856c-.849-.363-1.502-.546-2.393-.546-2.296 0-4.04.767-5.486 2.558a7.95 7.95 0 0 0-1.31 2.312h-1.8v1.88h1.389a8.43 8.43 0 0 0-.013 1.448h-1.376v1.88h1.745a7.476 7.476 0 0 0 1.712 2.806c1.41 1.461 2.985 2.064 4.979 2.064.953 0 1.896-.19 2.775-.558l-.448-2.092Z"/><path fill="#000" d="M380.14 83.412h12.77v-2.967h-9.242v-5.646h8.736v-2.803h-8.736V66.65h9.242v-2.967h-12.77v19.729Zm24.829.492c5.017 0 8.107-2.94 8.107-7.287V63.683h-3.527V76.33c0 2.72-1.641 4.525-4.567 4.525-2.939 0-4.593-1.805-4.593-4.525V63.683h-3.528v12.934c0 4.347 3.117 7.287 8.108 7.287Zm12.551-.492h3.527v-7.424h3.91l3.869 7.424h4.033l-4.306-7.957c2.338-.848 3.718-3.008 3.718-5.62v-.027c0-3.76-2.542-6.125-6.781-6.125h-7.97v19.729Zm3.527-10.131v-6.74h4.006c2.242 0 3.595 1.285 3.595 3.35v.027c0 2.119-1.298 3.363-3.527 3.363h-4.074Z"/><mask id="d" width="16" height="10" x="443" y="70" maskUnits="userSpaceOnUse" style="mask-type:alpha"><path stroke="#282828" stroke-linecap="round" stroke-linejoin="round" stroke-width="2.824" d="m445.41 72 5.647 5.647L456.704 72"/></mask><g mask="url('#d')"><path fill="#B8B8B8" d="M462.352 62.118h-22.588v22.588h22.588V62.118Z"/></g><path fill="#999" d="M23.16 117.765h1.563l1.199-3.417h4.748l1.2 3.417h1.563l-4.4-11.937H27.56l-4.4 11.937Zm5.07-10.01h.132l1.87 5.328H26.36l1.87-5.328Zm8.027 10.01h1.456l3.3-8.918h-1.522l-2.44 7.346h-.132l-2.44-7.346h-1.523l3.301 8.918Zm8.325.157c1.2 0 2.134-.521 2.697-1.473h.132v1.316h1.44v-6.105c0-1.853-1.217-2.97-3.392-2.97-1.903 0-3.26.943-3.491 2.341l-.008.05h1.439l.008-.025c.232-.695.935-1.092 2.002-1.092 1.332 0 2.002.596 2.002 1.696v.811l-2.556.157c-2.076.124-3.251 1.042-3.251 2.63v.017c0 1.621 1.282 2.647 2.978 2.647Zm-1.506-2.68v-.017c0-.885.596-1.365 1.953-1.447l2.382-.149v.81c0 1.274-1.067 2.234-2.531 2.234-1.034 0-1.804-.53-1.804-1.431Zm8.714-8.115a.996.996 0 0 0 .993-.993.996.996 0 0 0-.993-.993.996.996 0 0 0-.993.993c0 .546.447.993.993.993Zm-.728 10.638h1.44v-8.918h-1.44v8.918Zm3.784 0h1.439v-12.458h-1.44v12.458Zm6.199.157c1.2 0 2.134-.521 2.696-1.473h.133v1.316h1.439v-6.105c0-1.853-1.216-2.97-3.392-2.97-1.902 0-3.259.943-3.49 2.341l-.009.05h1.44l.008-.025c.232-.695.935-1.092 2.002-1.092 1.332 0 2.002.596 2.002 1.696v.811l-2.556.157c-2.077.124-3.251 1.042-3.251 2.63v.017c0 1.621 1.282 2.647 2.978 2.647Zm-1.506-2.68v-.017c0-.885.596-1.365 1.952-1.447l2.383-.149v.81c0 1.274-1.067 2.234-2.532 2.234-1.034 0-1.803-.53-1.803-1.431Zm12.387 2.68c2.258 0 3.739-1.828 3.739-4.608v-.016c0-2.796-1.473-4.608-3.74-4.608-1.224 0-2.29.612-2.779 1.564h-.132v-4.947h-1.44v12.458h1.44v-1.423h.132c.546.993 1.539 1.58 2.78 1.58Zm-.331-1.274c-1.622 0-2.614-1.274-2.614-3.334v-.016c0-2.06.992-3.334 2.614-3.334 1.63 0 2.597 1.257 2.597 3.334v.016c0 2.077-.968 3.334-2.597 3.334Zm5.934 1.117h1.44v-12.458h-1.44v12.458Zm7.39.157c2.101 0 3.375-1.191 3.681-2.399l.017-.066h-1.44l-.033.074c-.24.538-.984 1.109-2.192 1.109-1.588 0-2.605-1.076-2.647-2.92h6.42v-.563c0-2.663-1.473-4.467-3.897-4.467-2.424 0-3.995 1.886-3.995 4.641v.008c0 2.796 1.538 4.583 4.086 4.583Zm-.1-7.95c1.316 0 2.292.836 2.441 2.598h-4.93c.157-1.696 1.166-2.598 2.49-2.598Zm6.862 1.473c.595 0 1.075-.488 1.075-1.076 0-.595-.48-1.075-1.075-1.075-.588 0-1.076.48-1.076 1.075 0 .588.488 1.076 1.076 1.076Zm0 6.402c.595 0 1.075-.488 1.075-1.075 0-.596-.48-1.075-1.075-1.075-.588 0-1.076.479-1.076 1.075 0 .587.488 1.075 1.076 1.075Z"/><path fill="#2A80FB" d="M103.449 117.963c2.391 0 4.145-1.472 4.145-3.466v-.016c0-1.696-1.183-2.78-2.92-2.929v-.033c1.489-.314 2.531-1.323 2.531-2.796v-.016c0-1.812-1.497-3.077-3.772-3.077-2.234 0-3.772 1.298-3.962 3.242l-.008.083h1.43l.009-.083c.124-1.208 1.125-1.952 2.531-1.952 1.456 0 2.275.72 2.275 1.969v.016c0 1.191-.993 2.068-2.416 2.068h-1.431v1.258h1.497c1.671 0 2.722.819 2.722 2.283v.016c0 1.266-1.067 2.143-2.631 2.143-1.588 0-2.672-.811-2.787-1.986l-.009-.082h-1.43l.008.099c.157 1.886 1.753 3.259 4.218 3.259Zm10.17 0c2.391 0 4.144-1.472 4.144-3.466v-.016c0-1.696-1.183-2.78-2.92-2.929v-.033c1.489-.314 2.531-1.323 2.531-2.796v-.016c0-1.812-1.497-3.077-3.772-3.077-2.233 0-3.772 1.298-3.962 3.242l-.008.083h1.431l.008-.083c.124-1.208 1.125-1.952 2.531-1.952 1.456 0 2.275.72 2.275 1.969v.016c0 1.191-.992 2.068-2.415 2.068h-1.431v1.258h1.497c1.671 0 2.721.819 2.721 2.283v.016c0 1.266-1.067 2.143-2.63 2.143-1.588 0-2.672-.811-2.788-1.986l-.008-.082h-1.431l.008.099c.157 1.886 1.754 3.259 4.219 3.259Zm5.752 2.837h1.067l1.299-4.706h-1.646l-.72 4.706Zm9.889-3.035h1.455v-2.474h1.696v-1.331h-1.696v-8.132h-2.159a187.003 187.003 0 0 0-5.112 8.107v1.356h5.816v2.474Zm-4.294-3.797v-.099a149.78 149.78 0 0 1 4.203-6.659h.099v6.758h-4.302Zm13.512 4.078c2.407 0 4.177-1.729 4.177-4.111v-.017c0-2.291-1.671-3.995-3.913-3.995-1.613 0-2.738.868-3.176 1.844h-.157c0-.091 0-.19.008-.281.091-2.49.976-4.607 3.144-4.607 1.207 0 2.043.62 2.407 1.621l.033.091h1.497l-.025-.108c-.405-1.762-1.894-2.936-3.896-2.936-2.895 0-4.591 2.382-4.591 6.452v.017c0 4.491 2.308 6.03 4.492 6.03Zm-2.713-4.128v-.008c0-1.555 1.174-2.689 2.721-2.689 1.547 0 2.672 1.142 2.672 2.73v.017c0 1.547-1.2 2.763-2.697 2.763-1.514 0-2.696-1.241-2.696-2.813Zm14.28 3.847h1.456v-2.474h1.696v-1.331h-1.696v-8.132h-2.159a187.003 187.003 0 0 0-5.112 8.107v1.356h5.815v2.474Zm-4.293-3.797v-.099a150.698 150.698 0 0 1 4.202-6.659h.1v6.758h-4.302Z"/><path fill="#999" d="M26.276 177.765h1.143v-3.942l3.25-5.218h-1.301l-2.47 4.069h-.101l-2.47-4.069h-1.3l3.25 5.218v3.942Zm7.512.12c1.949 0 3.155-1.345 3.155-3.535v-.013c0-2.196-1.206-3.536-3.155-3.536-1.949 0-3.155 1.34-3.155 3.536v.013c0 2.19 1.206 3.535 3.155 3.535Zm0-.977c-1.295 0-2.025-.946-2.025-2.558v-.013c0-1.619.73-2.558 2.025-2.558s2.025.939 2.025 2.558v.013c0 1.612-.73 2.558-2.025 2.558Zm7.08.977c1.003 0 1.695-.412 2.032-1.142h.1v1.022h1.105v-6.843H43v4.05c0 1.199-.641 1.936-1.847 1.936-1.092 0-1.536-.591-1.536-1.822v-4.164h-1.105v4.431c0 1.618.8 2.532 2.355 2.532Zm12.732.095c2.343 0 3.892-1.498 3.892-3.757v-1.118h-3.714v1.003h2.571v.223c0 1.548-1.104 2.596-2.742 2.596-1.841 0-2.99-1.435-2.99-3.739v-.013c0-2.272 1.168-3.732 2.983-3.732 1.365 0 2.286.647 2.66 1.828l.02.063h1.154l-.012-.063c-.362-1.739-1.79-2.882-3.822-2.882-2.507 0-4.15 1.898-4.15 4.786v.013c0 2.926 1.618 4.792 4.15 4.792Zm8.49-.095c1.612 0 2.59-.914 2.825-1.841l.012-.05h-1.104l-.026.057c-.184.412-.755.85-1.682.85-1.219 0-2-.825-2.031-2.24h4.926v-.432c0-2.044-1.13-3.428-2.99-3.428-1.86 0-3.066 1.448-3.066 3.561v.007c0 2.145 1.18 3.516 3.136 3.516Zm-.076-6.1c1.009 0 1.758.641 1.872 1.993h-3.783c.12-1.301.895-1.993 1.91-1.993Zm7.06 6.03c.216 0 .426-.025.642-.063v-.94c-.203.02-.311.026-.508.026-.71 0-.99-.324-.99-1.13v-3.872h1.498v-.914h-1.498v-1.771h-1.143v1.771h-1.079v.914h1.08v4.151c0 1.308.59 1.828 1.999 1.828Z"/><path fill="#282828" d="M32.505 230.639c4.287 0 7.43-2.882 7.43-6.894v-.027c0-3.736-2.688-6.494-6.52-6.494-2.703 0-4.688 1.379-5.474 3.199h-.069c0-.221 0-.428.014-.634.138-3.764 1.475-6.825 4.674-6.825 1.778 0 3.005.882 3.529 2.247l.055.124h3.53l-.028-.151c-.634-3.006-3.378-5.129-7.059-5.129-5.073 0-8.12 3.929-8.12 10.506v.027c0 6.976 3.64 10.051 8.038 10.051Zm-4.026-6.838v-.014c0-2.22 1.737-3.819 4.012-3.819 2.275 0 3.943 1.613 3.943 3.874v.027c0 2.151-1.765 3.861-3.985 3.861-2.22 0-3.97-1.724-3.97-3.929Zm16.629 6.714a1.972 1.972 0 0 0 1.985-1.999 1.969 1.969 0 0 0-1.985-1.986c-1.117 0-2 .883-2 1.986 0 1.116.883 1.999 2 1.999Zm12.824.124c4.397 0 7.472-2.813 7.472-6.907v-.028c0-3.778-2.73-6.521-6.521-6.521-2 0-3.64.786-4.509 2.123h-.069l.552-5.997h9.375V210.4H52.017l-.951 11.567h3.102c.234-.441.565-.827.937-1.131.759-.634 1.737-.979 2.868-.979 2.33 0 3.998 1.627 3.998 3.902v.028c0 2.33-1.64 3.957-4.012 3.957-2.096 0-3.612-1.283-3.902-2.951l-.013-.096h-3.337l.014.179c.262 3.295 3.074 5.763 7.21 5.763Zm17.91 0c4.398 0 7.473-2.813 7.473-6.907v-.028c0-3.778-2.73-6.521-6.521-6.521-2 0-3.64.786-4.508 2.123h-.07l.552-5.997h9.375V210.4H69.928l-.951 11.567h3.102c.234-.441.565-.827.937-1.131.759-.634 1.737-.979 2.868-.979 2.33 0 3.998 1.627 3.998 3.902v.028c0 2.33-1.64 3.957-4.012 3.957-2.095 0-3.612-1.283-3.901-2.951l-.014-.096h-3.337l.014.179c.262 3.295 3.075 5.763 7.21 5.763Zm17.719 0c4.398 0 7.431-2.427 7.431-5.887v-.028c0-2.757-1.944-4.494-4.88-4.77v-.069c2.384-.496 4.177-2.137 4.177-4.605v-.027c0-3.089-2.661-5.198-6.77-5.198-4.012 0-6.728 2.234-7.017 5.598l-.014.165h3.309l.014-.138c.179-1.709 1.613-2.799 3.708-2.799 2.137 0 3.35 1.048 3.35 2.84v.028c0 1.737-1.46 2.978-3.653 2.978h-2.275v2.647H93.3c2.536 0 4.08 1.158 4.08 3.254v.027c0 1.806-1.53 3.075-3.832 3.075-2.33 0-3.874-1.172-4.067-2.785l-.014-.152h-3.405l.013.166c.276 3.336 3.116 5.68 7.487 5.68Zm11.996-.345h3.723l8.506-16.93V210.4h-13.842v2.909h10.34v.069l-8.727 16.916Z"/><path fill="#627EEA" d="M365.317 224.334c-2.263 9.075-11.456 14.598-20.534 12.335-9.074-2.262-14.598-11.455-12.334-20.53 2.262-9.077 11.455-14.601 20.53-12.338 9.077 2.263 14.601 11.456 12.338 20.533Z"/><path fill="#fff" fill-opacity=".602" d="M348.881 210.071v7.515l6.351 2.838-6.351-10.353Z"/><path fill="#fff" d="m348.881 210.071-6.352 10.353 6.352-2.838v-7.515Z"/><path fill="#fff" fill-opacity=".602" d="M348.881 225.293v5.107l6.355-8.794-6.355 3.687Z"/><path fill="#fff" d="M348.881 230.4v-5.107l-6.352-3.687 6.352 8.794Z"/><path fill="#fff" fill-opacity=".2" d="m348.881 224.111 6.351-3.687-6.351-2.838v6.525Z"/><path fill="#fff" fill-opacity=".602" d="m342.529 220.424 6.352 3.687v-6.525l-6.352 2.838Z"/><path fill="#000" d="M380.496 230.235h12.769v-2.967h-9.242v-5.646h8.736v-2.803h-8.736v-5.345h9.242v-2.967h-12.769v19.728Zm21.643 0h3.527v-16.761h6.084v-2.967h-15.682v2.967h6.071v16.761Zm12.892 0h3.528v-8.558h9.597v8.558h3.514v-19.728h-3.514v8.203h-9.597v-8.203h-3.528v19.728Z"/><mask id="e" width="16" height="9" x="443" y="217" maskUnits="userSpaceOnUse" style="mask-type:alpha"><path stroke="#282828" stroke-linecap="round" stroke-linejoin="round" stroke-width="2.824" d="m445.41 218.823 5.647 5.648 5.647-5.648"/></mask><g mask="url('#e')"><path fill="#B8B8B8" d="M462.352 208.941h-22.588v22.588h22.588v-22.588Z"/></g><path fill="#999" d="M23.16 264.588h1.563l1.199-3.416h4.748l1.2 3.416h1.563l-4.4-11.936H27.56l-4.4 11.936Zm5.07-10.009h.132l1.87 5.327H26.36l1.87-5.327Zm8.027 10.009h1.456l3.3-8.917h-1.522l-2.44 7.345h-.132l-2.44-7.345h-1.523l3.301 8.917Zm8.325.157c1.2 0 2.134-.521 2.697-1.472h.132v1.315h1.44v-6.105c0-1.853-1.217-2.969-3.392-2.969-1.903 0-3.26.943-3.491 2.341l-.008.049h1.439l.008-.025c.232-.694.935-1.091 2.002-1.091 1.332 0 2.002.595 2.002 1.695v.811l-2.556.157c-2.076.124-3.251 1.042-3.251 2.631v.016c0 1.622 1.282 2.647 2.978 2.647Zm-1.506-2.68v-.016c0-.885.596-1.365 1.953-1.448l2.382-.149v.811c0 1.274-1.067 2.233-2.531 2.233-1.034 0-1.804-.529-1.804-1.431Zm8.714-8.115a.995.995 0 0 0 .993-.992.996.996 0 0 0-.993-.993.996.996 0 0 0-.993.993c0 .546.447.992.993.992Zm-.728 10.638h1.44v-8.917h-1.44v8.917Zm3.784 0h1.439V252.13h-1.44v12.458Zm6.199.157c1.2 0 2.134-.521 2.696-1.472h.133v1.315h1.439v-6.105c0-1.853-1.216-2.969-3.392-2.969-1.902 0-3.259.943-3.49 2.341l-.009.049h1.44l.008-.025c.232-.694.935-1.091 2.002-1.091 1.332 0 2.002.595 2.002 1.695v.811l-2.556.157c-2.077.124-3.251 1.042-3.251 2.631v.016c0 1.622 1.282 2.647 2.978 2.647Zm-1.506-2.68v-.016c0-.885.596-1.365 1.952-1.448l2.383-.149v.811c0 1.274-1.067 2.233-2.532 2.233-1.034 0-1.803-.529-1.803-1.431Zm12.387 2.68c2.258 0 3.739-1.828 3.739-4.607v-.017c0-2.796-1.473-4.607-3.74-4.607-1.224 0-2.29.612-2.779 1.563h-.132v-4.947h-1.44v12.458h1.44v-1.423h.132c.546.993 1.539 1.58 2.78 1.58Zm-.331-1.274c-1.622 0-2.614-1.273-2.614-3.333v-.017c0-2.06.992-3.333 2.614-3.333 1.63 0 2.597 1.257 2.597 3.333v.017c0 2.076-.968 3.333-2.597 3.333Zm5.934 1.117h1.44V252.13h-1.44v12.458Zm7.39.157c2.101 0 3.375-1.191 3.681-2.399l.017-.066h-1.44l-.033.075c-.24.537-.984 1.108-2.192 1.108-1.588 0-2.605-1.075-2.647-2.92h6.42v-.562c0-2.664-1.473-4.467-3.897-4.467-2.424 0-3.995 1.886-3.995 4.64v.009c0 2.796 1.538 4.582 4.086 4.582Zm-.1-7.949c1.316 0 2.292.835 2.441 2.597h-4.93c.157-1.695 1.166-2.597 2.49-2.597Zm6.862 1.472c.595 0 1.075-.488 1.075-1.075 0-.596-.48-1.075-1.075-1.075-.588 0-1.076.479-1.076 1.075 0 .587.488 1.075 1.076 1.075Zm0 6.403c.595 0 1.075-.488 1.075-1.076 0-.595-.48-1.075-1.075-1.075-.588 0-1.076.48-1.076 1.075 0 .588.488 1.076 1.076 1.076Zm11.702.198c2.639 0 4.227-2.407 4.227-6.245v-.017c0-3.838-1.588-6.237-4.227-6.237-2.639 0-4.21 2.399-4.21 6.237v.017c0 3.838 1.571 6.245 4.21 6.245Zm0-1.298c-1.712 0-2.713-1.903-2.713-4.947v-.017c0-3.044 1.001-4.93 2.713-4.93 1.713 0 2.73 1.886 2.73 4.93v.017c0 3.044-1.017 4.947-2.73 4.947Z"/><path fill="#fff" d="M271.058 144c0-15.594-12.641-28.235-28.235-28.235S214.588 128.406 214.588 144s12.641 28.236 28.235 28.236 28.235-12.642 28.235-28.236Z"/><path stroke="#B8B8B8" stroke-linecap="round" stroke-linejoin="round" stroke-width="2.824" d="m240.707 152.47-4.235 4.236-4.236-4.236m4.235-21.176v25.412m8.47-21.177 4.236-4.235 4.235 4.235m-4.234 21.177v-25.412"/><path fill="#DD9BFD" d="M231 321.164H8a8 8 0 0 0-8 8v34a8 8 0 0 0 8 8h223a8 8 0 0 0 8-8v-34a8 8 0 0 0-8-8Z"/><path fill="#F0F0F0" d="M113.75 338.97a7.084 7.084 0 0 1 5.51 2.628l1.161-2.491a10.182 10.182 0 0 0-7.016-2.776c-4.246 0-7.878 2.565-9.369 6.195h-2.265l-1.337 2.867h2.913a9.523 9.523 0 0 0 .014 1.778h-1.465l-1.337 2.868h3.547c1.533 3.539 5.12 6.023 9.299 6.023a10.21 10.21 0 0 0 5.679-1.71v-3.515a7.08 7.08 0 0 1-5.334 2.422 7.096 7.096 0 0 1-5.941-3.22h7.425l1.338-2.868h-9.856a7.225 7.225 0 0 1-.042-1.778h10.727l1.337-2.867h-11.137a7.104 7.104 0 0 1 6.149-3.556Z"/><path fill="#fff" d="M99.144 342.54H94.13c0-.823-.096-1.375-.289-1.656-.298-.416-1.122-.624-2.47-.624-1.308 0-2.176.12-2.599.36-.423.24-.635.763-.635 1.568 0 .729.188 1.21.564 1.439.269.164.625.26 1.068.288l1.011.072c2.167.143 3.52.245 4.06.302 1.714.173 2.956.629 3.727 1.367.606.576.968 1.33 1.083 2.259.068.556.101 1.186.101 1.885 0 1.612-.154 2.793-.461 3.54-.558 1.373-1.813 2.24-3.764 2.604-.817.154-2.067.231-3.75.231-2.807 0-4.763-.167-5.868-.503-1.356-.411-2.25-1.245-2.682-2.5-.242-.699-.36-1.863-.36-3.492h5.012v.417c0 .869.25 1.428.75 1.677.345.172.762.262 1.253.273h1.843c.94 0 1.54-.048 1.8-.145.46-.181.763-.473.908-.877.076-.249.114-.57.114-.964 0-.881-.321-1.417-.964-1.61-.24-.076-1.358-.182-3.353-.316-1.603-.114-2.716-.224-3.339-.331-1.64-.307-2.735-.939-3.28-1.897-.48-.814-.72-2.047-.72-3.695 0-1.255.13-2.262.388-3.019.26-.757.678-1.332 1.255-1.726.845-.604 1.926-.958 3.242-1.064a42.434 42.434 0 0 1 3.647-.144c2.104 0 3.604.121 4.498.361 2.181.586 3.272 2.228 3.272 4.926 0 .221-.016.552-.048.994Zm22.045 13.635v-20.022h10.04c1.377 0 2.428.112 3.15.337 1.651.518 2.759 1.577 3.327 3.178.292.84.439 2.105.439 3.795 0 2.031-.163 3.49-.484 4.379-.644 1.757-1.969 2.769-3.971 3.031-.235.04-1.237.075-3.005.103l-.894.03h-3.213v5.169h-5.389Zm5.389-9.814h3.359c1.066-.038 1.713-.12 1.947-.248.318-.175.532-.526.638-1.052.068-.349.102-.87.102-1.561 0-.847-.067-1.475-.203-1.885-.194-.574-.658-.924-1.393-1.051-.146-.019-.494-.029-1.045-.029h-3.405v5.826Zm23.069 6.354h-7.205l-.968 3.46h-5.576l6.016-20.022h8.129l6.09 20.022h-5.458l-1.028-3.46Zm-1.071-3.9-2.525-8.68-2.45 8.68h4.975Z"/><path fill="#F0F0F0" d="M113.752 339.056c2.118 0 4.102.947 5.443 2.596l.087.107.058-.125 1.162-2.49.025-.057-.044-.043a10.254 10.254 0 0 0-7.076-2.798c-2.072 0-4.065.605-5.766 1.75a10 10 0 0 0-3.682 4.497l.079-.053h-2.32l-.023.049-1.337 2.868-.057.123h3.049l-.086-.094a9.635 9.635 0 0 0 .013 1.794l.086-.094h-1.519l-.023.049-1.338 2.868-.056.122h3.681l-.079-.052c1.599 3.69 5.28 6.074 9.378 6.074 2.055 0 4.034-.595 5.727-1.723l.038-.025v-3.79l-.151.172a7.007 7.007 0 0 1-11.139-.789l-.071.133h7.481l.022-.049 1.338-2.868.057-.122h-9.991l.085.073a7.215 7.215 0 0 1-.041-1.757l-.086.078h10.782l.023-.05 1.337-2.868.058-.122h-11.273l.075.129a7.046 7.046 0 0 1 6.074-3.513Zm-6.149 3.556h11.137l-.078-.123-1.337 2.868.078-.049h-10.804l-.009.077a7.428 7.428 0 0 0 .043 1.799l.011.074h9.93l-.078-.123-1.337 2.868.077-.05h-7.585l.088.133a7.173 7.173 0 0 0 11.412.808l-.151-.057v3.515l.038-.071a10.116 10.116 0 0 1-5.631 1.694c-4.03 0-7.649-2.343-9.22-5.97l-.023-.052h-3.602l.078.123 1.337-2.868-.078.05h1.559l-.009-.095a9.59 9.59 0 0 1-.05-.966c0-.243.012-.504.036-.797l.008-.092h-3.007l.077.122 1.338-2.868-.078.05h2.323l.021-.053a9.835 9.835 0 0 1 3.621-4.42 10.113 10.113 0 0 1 5.669-1.721c2.61 0 5.08.977 6.957 2.751l-.019-.099-1.161 2.491.145-.018a7.166 7.166 0 0 0-5.577-2.659 7.22 7.22 0 0 0-6.223 3.599l-.075.129h.149Z"/><path fill="#DD9BFD" d="M478 321.164H255a8 8 0 0 0-8 8v34a8 8 0 0 0 8 8h223a8 8 0 0 0 8-8v-34a8 8 0 0 0-8-8Z"/><path fill="#fff" d="M341.138 333.108a13.05 13.05 0 0 0-7.272 2.189 13.28 13.28 0 0 0-4.823 5.813c-.995 2.416-1.225 4.983-.765 7.549.459 2.567 1.684 4.832 3.521 6.644 1.837 1.812 4.21 3.095 6.736 3.548 2.527.528 5.206.226 7.579-.755a13.043 13.043 0 0 0 5.894-4.832c1.455-2.113 2.22-4.68 2.22-7.247 0-3.472-1.378-6.794-3.827-9.21-2.45-2.34-5.818-3.699-9.263-3.699Zm-12.248 13.513h4.057c0 1.812.306 3.624.842 5.36h-3.368c-.919-1.661-1.454-3.548-1.531-5.36Zm12.707-7.247v-5.284c2.297.226 4.287 2.264 5.512 5.284h-5.512Zm5.818.906c.536 1.736.842 3.548.919 5.36h-6.737v-5.36h5.818Zm-6.813-6.19v5.284h-5.511c1.224-3.02 3.291-5.058 5.511-5.284Zm0 6.19v5.36h-6.736c0-1.812.306-3.624.918-5.36h5.818Zm-7.655 5.36h-4.057c.077-1.888.612-3.699 1.531-5.36h3.368c-.536 1.736-.765 3.548-.842 5.36Zm.919.981h6.736v5.36h-5.818a21.275 21.275 0 0 1-.918-5.36Zm6.736 6.266v5.284c-2.296-.226-4.287-2.264-5.511-5.284h5.511Zm.995 5.284v-5.359h5.512c-1.225 3.095-3.215 5.133-5.512 5.359Zm0-6.265v-5.36h6.737a16.1 16.1 0 0 1-.919 5.36h-5.818Zm7.655-5.285h4.057c-.076 1.887-.612 3.699-1.531 5.36h-3.368c.536-1.812.842-3.548.842-5.36Zm0-.981c0-1.812-.306-3.624-.842-5.36h3.368c.919 1.661 1.455 3.472 1.531 5.36h-4.057Zm1.991-6.266h-3.139a13.322 13.322 0 0 0-1.148-2.34 9.551 9.551 0 0 0-1.914-2.341c2.526.831 4.67 2.492 6.201 4.681Zm-14.086-4.681c-.688.68-1.377 1.435-1.913 2.341-.46.755-.842 1.51-1.149 2.34h-3.138c1.531-2.189 3.674-3.85 6.2-4.681Zm-6.2 18.194h3.138c.307.83.689 1.585 1.149 2.34.536.831 1.148 1.661 1.913 2.34-2.526-.83-4.669-2.491-6.2-4.68Zm14.085 4.68a9.528 9.528 0 0 0 1.914-2.34c.459-.755.842-1.585 1.148-2.34h3.139c-1.531 2.189-3.675 3.85-6.201 4.68Zm45.318-15.173h-2.144v11.625h2.144v-11.625Zm-1.072-1.586c.765 0 1.454-.604 1.454-1.434s-.612-1.434-1.454-1.434c-.766 0-1.455.604-1.455 1.434s.689 1.434 1.455 1.434Zm5.435 4.681h3.139v-1.812h-3.139v-1.661c0-1.208.842-1.887 2.296-1.887h.843v-2.114h-.843c-2.755 0-4.439 1.51-4.439 3.926v12.154h2.143v-8.606Zm8.956 8.606h.842v-2.114h-.842c-1.454 0-2.296-.679-2.296-1.887v-4.605h3.138v-1.812h-3.138v-5.662h-2.144v12.154c0 2.341 1.685 3.85 4.44 3.926Zm-27.098 0 2.143-8.682 2.143 8.682h2.45l3.292-11.626h-2.22l-2.297 8.908-2.22-8.908h-2.373l-2.22 8.908-2.296-8.908h-2.144l3.292 11.626h2.45Zm-11.636-1.963c-1.837 0-3.368-1.132-3.904-2.265l-1.99 1.057c.918 2.038 3.215 3.397 5.818 3.397 3.368 0 5.741-1.887 5.741-4.605 0-6.265-8.957-3.623-8.957-7.247 0-1.585 1.378-2.34 3.292-2.34 1.531 0 2.909.83 3.751 1.887l1.684-1.434c-1.148-1.585-3.215-2.491-5.435-2.491-3.445 0-5.588 2.113-5.588 4.378 0 6.115 9.033 3.095 9.033 7.323 0 1.359-1.378 2.34-3.445 2.34Z"/></g></g><defs><linearGradient id="c" x1="335.069" x2="365.824" y1="56.471" y2="99.322" gradientUnits="userSpaceOnUse"><stop stop-color="#2453A8"/><stop offset="1" stop-color="#2E67D1"/></linearGradient><clipPath id="a"><path fill="#fff" d="M0 0h486v372H0z"/></clipPath></defs></svg>