<svg xmlns="http://www.w3.org/2000/svg" width="567" height="440" fill="none"><g clip-path="url('#a')"><path fill="#fff" d="M404.305 32.356H5.694a5.338 5.338 0 0 0-5.339 5.338v395.882a5.339 5.339 0 0 0 5.339 5.339h398.611a5.338 5.338 0 0 0 5.338-5.339V37.694a5.338 5.338 0 0 0-5.338-5.338Z"/><path fill="#282828" d="M18.321 65.472h1.794v-3.774h1.988l1.967 3.774h2.05l-2.19-4.045c1.19-.431 1.892-1.53 1.892-2.857v-.014c0-1.912-1.293-3.114-3.448-3.114H18.32v10.03Zm1.794-5.15v-3.428h2.036c1.14 0 1.829.654 1.829 1.703v.014c0 1.078-.66 1.71-1.794 1.71h-2.071Zm10.719 5.303c2.064 0 3.079-1.189 3.322-2.169l.021-.062H32.53l-.021.048c-.167.348-.702.82-1.64.82-1.175 0-1.912-.792-1.933-2.154h5.31v-.57c0-2.294-1.334-3.81-3.496-3.81s-3.545 1.564-3.545 3.956v.007c0 2.419 1.37 3.934 3.629 3.934Zm-.063-6.541c.966 0 1.668.619 1.786 1.863H28.95c.132-1.21.855-1.863 1.82-1.863Zm5.206 8.912h1.731v-3.733h.118c.397.82 1.266 1.334 2.308 1.334 1.926 0 3.121-1.494 3.121-3.913v-.014c0-2.405-1.216-3.92-3.12-3.92-1.064 0-1.892.486-2.309 1.313h-.118v-1.189h-1.73v10.122Zm3.615-3.858c-1.175 0-1.905-.939-1.905-2.461v-.014c0-1.522.73-2.454 1.905-2.454 1.182 0 1.898.932 1.898 2.46v.015c0 1.522-.716 2.454-1.898 2.454Zm7.48 1.46c1 0 1.807-.432 2.224-1.168h.118v1.042h1.71V60.28c0-1.606-1.098-2.552-3.052-2.552-1.807 0-3.03.849-3.197 2.128l-.007.062h1.634l.006-.028c.174-.5.689-.785 1.481-.785.932 0 1.425.417 1.425 1.175v.653l-1.953.118c-1.85.111-2.885.904-2.885 2.26v.013c0 1.383 1.05 2.273 2.496 2.273Zm-.786-2.357v-.014c0-.626.452-.98 1.418-1.043l1.71-.111v.612c0 .903-.771 1.585-1.814 1.585-.765 0-1.314-.383-1.314-1.03Zm7.493 4.9c1.683 0 2.552-.604 3.205-2.509l2.725-7.758h-1.821l-1.766 5.937h-.132l-1.773-5.937h-1.89l2.718 7.605-.09.348c-.188.688-.612.98-1.322.98-.18 0-.375-.007-.514-.021v1.328c.209.02.452.027.66.027Zm7.417-2.669h1.731V60.85c0-.946.626-1.669 1.48-1.669.849 0 1.37.522 1.37 1.363v4.928h1.731v-4.747c0-.87.584-1.544 1.488-1.544.924 0 1.376.5 1.376 1.488v4.803h1.73v-5.227c0-1.578-.917-2.517-2.446-2.517-1.056 0-1.932.543-2.3 1.37h-.119c-.327-.841-1.077-1.37-2.106-1.37-.994 0-1.759.48-2.086 1.328h-.118v-1.181h-1.73v7.597Zm16.21.153c2.065 0 3.08-1.189 3.323-2.169l.021-.062h-1.647l-.021.048c-.167.348-.702.82-1.64.82-1.175 0-1.912-.792-1.933-2.154h5.31v-.57c0-2.294-1.334-3.81-3.496-3.81-2.161 0-3.545 1.564-3.545 3.956v.007c0 2.419 1.37 3.934 3.629 3.934Zm-.062-6.541c.966 0 1.669.619 1.787 1.863h-3.608c.132-1.21.855-1.863 1.821-1.863Zm5.207 6.388h1.73v-4.428c0-1.14.64-1.863 1.669-1.863 1.05 0 1.529.598 1.529 1.78v4.511h1.73v-4.914c0-1.808-.924-2.83-2.62-2.83-1.098 0-1.828.494-2.19 1.307h-.118v-1.16h-1.73v7.597Zm11.692.035c.333 0 .653-.028.903-.077v-1.334a5.05 5.05 0 0 1-.584.028c-.723 0-1.022-.32-1.022-1.078v-3.83h1.606v-1.342H93.54v-1.863h-1.758v1.863H90.6v1.342h1.182v4.24c0 1.467.716 2.05 2.46 2.05Zm10.086.215c2.405 0 3.913-1.223 3.913-3.176v-.007c0-1.516-.882-2.364-2.996-2.809l-1.077-.229c-1.251-.264-1.759-.709-1.759-1.418v-.007c0-.855.793-1.376 1.905-1.376 1.147-.007 1.891.549 2.016 1.327l.014.084h1.717l-.007-.09c-.125-1.613-1.509-2.83-3.733-2.83-2.169 0-3.712 1.21-3.712 3.003v.007c0 1.495.89 2.454 2.94 2.885l1.078.222c1.293.278 1.814.716 1.814 1.44v.006c0 .862-.848 1.46-2.058 1.46-1.272 0-2.168-.556-2.252-1.397l-.007-.07h-1.738l.007.098c.126 1.73 1.606 2.877 3.935 2.877Zm9.009-.097c1.925 0 3.044-1.036 3.294-2.593l.014-.055-1.633.007-.014.027c-.216.8-.765 1.21-1.661 1.21-1.175 0-1.877-.945-1.877-2.558v-.014c0-1.592.695-2.523 1.877-2.523.945 0 1.508.528 1.668 1.265l.007.02h1.633v-.027c-.194-1.571-1.362-2.656-3.315-2.656-2.287 0-3.629 1.467-3.629 3.921v.014c0 2.481 1.349 3.962 3.636 3.962Zm5.025-.153h1.731v-4.428c0-1.14.64-1.863 1.668-1.863 1.05 0 1.53.598 1.53 1.78v4.511h1.731v-4.914c0-1.808-.925-2.83-2.621-2.83-1.098 0-1.828.494-2.19 1.307h-.118v-4.1h-1.731v10.537Zm11.956.153c2.065 0 3.08-1.189 3.323-2.169l.021-.062h-1.647l-.021.048c-.167.348-.702.82-1.641.82-1.175 0-1.911-.792-1.932-2.154h5.311v-.57c0-2.294-1.335-3.81-3.497-3.81s-3.545 1.564-3.545 3.956v.007c0 2.419 1.369 3.934 3.628 3.934Zm-.062-6.541c.966 0 1.668.619 1.786 1.863h-3.607c.132-1.21.855-1.863 1.821-1.863Zm7.945 6.513c1.071 0 1.891-.486 2.308-1.313h.118v1.188h1.738V54.934h-1.738v4.15h-.118c-.396-.82-1.265-1.335-2.308-1.335-1.925 0-3.114 1.502-3.114 3.92v.015c0 2.405 1.21 3.913 3.114 3.913Zm.542-1.46c-1.181 0-1.897-.924-1.897-2.453v-.014c0-1.53.723-2.46 1.897-2.46 1.175 0 1.912.938 1.912 2.46v.014c0 1.522-.73 2.454-1.912 2.454Zm8.314 1.488c1.098 0 1.87-.493 2.224-1.307h.119v1.154h1.73v-7.597h-1.73v4.427c0 1.14-.598 1.863-1.717 1.863-1.043 0-1.481-.598-1.481-1.772v-4.519h-1.731v4.915c0 1.807.876 2.836 2.586 2.836Zm6.256-.153h1.731V54.934h-1.731v10.538Zm7.174.153c2.064 0 3.079-1.189 3.322-2.169l.021-.062h-1.647l-.021.048c-.167.348-.702.82-1.64.82-1.175 0-1.912-.792-1.933-2.154h5.311v-.57c0-2.294-1.335-3.81-3.497-3.81-2.161 0-3.545 1.564-3.545 3.956v.007c0 2.419 1.37 3.934 3.629 3.934Zm-.063-6.541c.966 0 1.669.619 1.787 1.863h-3.608c.132-1.21.855-1.863 1.821-1.863Z"/><path stroke="#EBEBEB" stroke-width=".712" d="M17.084 77.2h375.833"/><path fill="#999" d="M29.24 103.639h.75v-6.018h-.75v6.018Zm2.194 0h.726v-2.661c0-.788.454-1.272 1.172-1.272.717 0 1.05.388 1.05 1.197v2.736h.726v-2.911c0-1.068-.563-1.664-1.572-1.664-.663 0-1.084.28-1.31.755h-.066v-.676h-.726v4.496Zm6.586.033c.141 0 .279-.016.42-.041v-.618a2.915 2.915 0 0 1-.333.017c-.467 0-.65-.213-.65-.742v-2.545h.984v-.6h-.985v-1.164h-.75v1.164h-.71v.6h.71v2.728c0 .859.388 1.201 1.314 1.201Zm3.274.046c1.059 0 1.701-.6 1.856-1.209l.008-.034h-.726l-.017.038c-.12.271-.496.559-1.105.559-.8 0-1.314-.542-1.334-1.473h3.236v-.283c0-1.343-.742-2.252-1.964-2.252s-2.015.951-2.015 2.339v.005c0 1.409.776 2.31 2.06 2.31Zm-.05-4.008c.663 0 1.155.421 1.23 1.31h-2.486c.08-.855.588-1.31 1.255-1.31Zm3.094 3.929h.726v-2.786c0-.659.492-1.097 1.184-1.097.159 0 .297.017.447.042v-.705a2.438 2.438 0 0 0-.363-.03c-.61 0-1.03.276-1.201.747h-.067v-.667h-.726v4.496Zm4.963.079c1.06 0 1.702-.6 1.856-1.209l.009-.034h-.726l-.017.038c-.12.271-.496.559-1.105.559-.8 0-1.314-.542-1.334-1.473h3.236v-.283c0-1.343-.742-2.252-1.965-2.252-1.222 0-2.014.951-2.014 2.339v.005c0 1.409.776 2.31 2.06 2.31Zm-.05-4.008c.663 0 1.156.421 1.23 1.31h-2.485c.08-.855.588-1.31 1.255-1.31Zm4.638 4.008c1.022 0 1.802-.555 1.802-1.355v-.009c0-.642-.409-1.009-1.255-1.213l-.693-.167c-.53-.129-.755-.321-.755-.626v-.008c0-.396.392-.672.926-.672.542 0 .893.246.989.601h.713c-.1-.734-.755-1.205-1.698-1.205-.955 0-1.672.563-1.672 1.309v.004c0 .647.38 1.014 1.222 1.214l.696.167c.555.133.785.346.785.651v.008c0 .409-.43.696-1.035.696-.575 0-.934-.246-1.055-.621h-.742c.083.742.771 1.226 1.772 1.226Zm4.484-.046c.142 0 .28-.016.421-.041v-.618a2.916 2.916 0 0 1-.334.017c-.467 0-.65-.213-.65-.742v-2.545h.984v-.6h-.984v-1.164h-.751v1.164h-.709v.6h.709v2.728c0 .859.388 1.201 1.314 1.201Zm4-.033h.75v-2.148h1.518c1.13 0 1.931-.797 1.931-1.94v-.008c0-1.143-.8-1.922-1.93-1.922h-2.27v6.018Zm2.077-5.351c.859 0 1.355.471 1.355 1.264v.008c0 .792-.496 1.264-1.356 1.264h-1.326v-2.536h1.327Zm4.329 5.43c.605 0 1.076-.263 1.36-.742h.066v.663h.726v-3.078c0-.934-.613-1.497-1.71-1.497-.96 0-1.643.475-1.76 1.18l-.004.025h.725l.004-.013c.117-.35.472-.55 1.01-.55.671 0 1.01.3 1.01.855v.409l-1.29.079c-1.046.062-1.639.525-1.639 1.326v.009c0 .817.647 1.334 1.502 1.334Zm-.76-1.351v-.008c0-.447.301-.689.985-.73l1.201-.075v.408c0 .643-.538 1.126-1.276 1.126-.522 0-.91-.267-.91-.721Zm4.622-4.092c.275 0 .5-.225.5-.5s-.225-.5-.5-.5-.5.225-.5.5.225.5.5.5Zm-.367 5.364h.725v-4.496h-.725v4.496Zm3.754.079c.625 0 1.126-.296 1.4-.796h.068v.717h.725v-6.281h-.725v2.494h-.067c-.246-.48-.784-.788-1.401-.788-1.143 0-1.886.913-1.886 2.323v.008c0 1.401.747 2.323 1.886 2.323Zm.166-.642c-.821 0-1.31-.634-1.31-1.681v-.008c0-1.047.489-1.681 1.31-1.681.818 0 1.318.642 1.318 1.681v.008c0 1.039-.5 1.681-1.318 1.681Zm-44.495 11.213c-1.523 0-2.608 1.042-2.608 2.467v.01c0 1.333.944 2.316 2.292 2.316.963 0 1.576-.491 1.834-1.046h.097c0 .054-.005.107-.005.161-.053 1.343-.525 2.433-1.64 2.433-.617 0-1.05-.321-1.235-.813l-.015-.049h-1.236l.01.054c.224 1.075 1.187 1.839 2.477 1.839 1.766 0 2.832-1.401 2.832-3.766v-.01c0-2.53-1.304-3.596-2.803-3.596Zm-.005 3.83c-.798 0-1.377-.584-1.377-1.397v-.009c0-.784.618-1.402 1.392-1.402.778 0 1.386.628 1.386 1.431v.01c0 .793-.608 1.367-1.4 1.367Zm6.695 3.542c1.519 0 2.584-.997 2.584-2.457v-.01c0-1.343-.949-2.316-2.258-2.316-.661 0-1.206.282-1.498.754h-.083l.195-2.136h3.236v-1.031H36.35l-.34 4.111h1.074c.083-.155.2-.292.326-.399.258-.233.599-.35.993-.35.803 0 1.377.574 1.377 1.392v.009c0 .828-.564 1.407-1.387 1.407-.72 0-1.25-.458-1.343-1.032l-.005-.034h-1.158l.005.063c.093 1.153 1.061 2.029 2.496 2.029Zm6.491 0c1.67 0 2.682-1.416 2.682-3.683v-.01c0-2.267-1.012-3.679-2.681-3.679-1.67 0-2.672 1.412-2.672 3.679v.01c0 2.267 1.002 3.683 2.671 3.683Zm0-1.017c-.895 0-1.406-1.002-1.406-2.666v-.01c0-1.664.511-2.657 1.407-2.657.895 0 1.416.993 1.416 2.657v.01c0 1.664-.521 2.666-1.416 2.666Zm9.722 1.017c1.786 0 2.886-1.046 2.886-2.593v-4.603h-1.255v4.501c0 .968-.584 1.61-1.626 1.61-1.046 0-1.635-.642-1.635-1.61v-4.501h-1.255v4.603c0 1.547 1.11 2.593 2.886 2.593Zm7.051 0c1.684 0 2.74-.856 2.74-2.223v-.005c0-1.061-.618-1.655-2.098-1.966l-.754-.161c-.876-.185-1.23-.496-1.23-.992v-.005c0-.599.554-.964 1.332-.964.803-.004 1.324.385 1.411.93l.01.058h1.202l-.005-.063c-.087-1.129-1.056-1.981-2.613-1.981-1.518 0-2.598.847-2.598 2.103v.004c0 1.047.623 1.718 2.058 2.02l.754.155c.905.195 1.27.502 1.27 1.008v.005c0 .603-.593 1.021-1.44 1.021-.89 0-1.518-.389-1.577-.978l-.004-.048h-1.217l.005.068c.088 1.211 1.124 2.014 2.754 2.014Zm4.15-.175h2.633c2.102 0 3.304-1.289 3.304-3.537v-.01c0-2.199-1.216-3.474-3.304-3.474h-2.632v7.021Zm1.256-1.056v-4.909h1.212c1.377 0 2.19.895 2.19 2.437v.01c0 1.577-.794 2.462-2.19 2.462h-1.212Zm7.605 1.056h1.256v-5.965h2.165v-1.056h-5.581v1.056h2.16v5.965Zm256.92-17.705c1.113 0 1.772-.676 1.772-1.815v-4.345h-.751v4.337c0 .734-.358 1.13-1.026 1.13-.596 0-.892-.379-.938-.834l-.004-.041h-.751l.004.058c.063.863.651 1.51 1.694 1.51Zm4.45-.063c.604 0 1.076-.263 1.359-.742h.067v.663h.726v-3.078c0-.934-.613-1.497-1.71-1.497-.959 0-1.643.475-1.76 1.18l-.004.025h.725l.004-.013c.117-.35.472-.55 1.01-.55.671 0 1.009.3 1.009.855v.409l-1.289.079c-1.047.062-1.639.525-1.639 1.326v.009c0 .817.647 1.334 1.502 1.334Zm-.759-1.351v-.008c0-.447.3-.689.984-.73l1.201-.075v.408c0 .643-.538 1.126-1.276 1.126-.522 0-.909-.267-.909-.721Zm4.237 1.272h.726v-2.661c0-.788.454-1.272 1.172-1.272.717 0 1.051.388 1.051 1.197v2.736h.726v-2.911c0-1.068-.564-1.664-1.573-1.664-.663 0-1.084.28-1.309.755h-.067v-.676h-.726v4.496Zm8.859 0h.75v-6.018h-.746l-1.602 1.15v.793l1.531-1.11h.067v5.185Zm4.458-6.16c-1.213 0-2.106.871-2.106 2.073v.008c0 1.155.843 2.014 1.973 2.014.813 0 1.38-.438 1.601-.93h.08c0 .046 0 .096-.005.142-.045 1.256-.492 2.323-1.584 2.323-.609 0-1.031-.313-1.214-.817l-.017-.046h-.755l.013.054c.204.888.955 1.481 1.964 1.481 1.46 0 2.315-1.201 2.315-3.253v-.009c0-2.264-1.164-3.04-2.265-3.04Zm-.004 3.441c-.78 0-1.347-.576-1.347-1.377v-.008c0-.78.605-1.393 1.36-1.393.763 0 1.359.626 1.359 1.418v.004c0 .784-.592 1.356-1.372 1.356Zm2.961 4.25h.538l.655-2.374h-.83l-.363 2.374Zm5.118-1.531h3.895v-.676h-2.853v-.066l1.368-1.414c1.089-1.122 1.385-1.623 1.385-2.31v-.01c0-.971-.805-1.684-1.856-1.684-1.151 0-1.977.767-1.981 1.835l.008.004.718.004.004-.008c0-.71.48-1.18 1.201-1.18.709 0 1.139.475 1.139 1.11v.007c0 .526-.225.839-.993 1.669l-2.035 2.202v.517Zm7.169.142c1.331 0 2.132-1.214 2.132-3.149v-.009c0-1.935-.801-3.144-2.132-3.144-1.33 0-2.123 1.21-2.123 3.144v.009c0 1.935.793 3.149 2.123 3.149Zm0-.655c-.863 0-1.368-.959-1.368-2.494v-.009c0-1.534.505-2.485 1.368-2.485.864 0 1.377.95 1.377 2.485v.009c0 1.535-.513 2.494-1.377 2.494Zm3.366.513h3.896v-.676h-2.853v-.066l1.368-1.414c1.088-1.122 1.384-1.623 1.384-2.31v-.01c0-.971-.805-1.684-1.856-1.684-1.151 0-1.976.767-1.981 1.835l.009.004.717.004.004-.008c0-.71.48-1.18 1.201-1.18.709 0 1.139.475 1.139 1.11v.007c0 .526-.225.839-.993 1.669l-2.035 2.202v.517Zm5.155 0h3.896v-.676h-2.853v-.066l1.368-1.414c1.088-1.122 1.384-1.623 1.384-2.31v-.01c0-.971-.804-1.684-1.856-1.684-1.151 0-1.976.767-1.981 1.835l.009.004.717.004.004-.008c0-.71.48-1.18 1.201-1.18.709 0 1.139.475 1.139 1.11v.007c0 .526-.225.839-.993 1.669l-2.035 2.202v.517Z"/><path fill="#F3F3F3" d="M378.681 109.062h-23.847a2.848 2.848 0 0 0-2.848 2.847v12.153a2.848 2.848 0 0 0 2.848 2.847h23.847a2.847 2.847 0 0 0 2.847-2.847v-12.153a2.847 2.847 0 0 0-2.847-2.847Z"/><path fill="#999" d="M357.153 121.486h.876v-2.506h1.771c1.319 0 2.253-.929 2.253-2.262v-.01c0-1.333-.934-2.243-2.253-2.243h-2.647v7.021Zm2.423-6.243c1.003 0 1.582.55 1.582 1.475v.009c0 .925-.579 1.475-1.582 1.475h-1.547v-2.959h1.547Zm5.051 6.336c.706 0 1.255-.307 1.586-.867h.078v.774h.847v-3.591c0-1.09-.715-1.747-1.995-1.747-1.119 0-1.917.555-2.054 1.377l-.004.029h.846l.005-.014c.136-.409.55-.642 1.178-.642.783 0 1.177.35 1.177.997v.477l-1.503.092c-1.222.073-1.913.613-1.913 1.548v.009c0 .954.755 1.558 1.752 1.558Zm-.885-1.577v-.01c0-.52.35-.803 1.148-.851l1.401-.088v.477c0 .749-.627 1.314-1.489 1.314-.608 0-1.06-.312-1.06-.842Zm5.391-4.773a.586.586 0 0 0 .584-.584.586.586 0 0 0-.584-.584.586.586 0 0 0-.584.584c0 .321.263.584.584.584Zm-.428 6.257h.846v-5.245h-.846v5.245Zm4.379.093c.73 0 1.314-.346 1.635-.93h.078v.837h.846v-7.328h-.846v2.91h-.078c-.287-.56-.915-.92-1.635-.92-1.333 0-2.199 1.066-2.199 2.711v.009c0 1.635.871 2.711 2.199 2.711Zm.195-.75c-.959 0-1.528-.739-1.528-1.961v-.009c0-1.222.569-1.961 1.528-1.961.953 0 1.537.749 1.537 1.961v.009c0 1.212-.584 1.961-1.537 1.961Z"/><path fill="#F9F9F9" d="M387.223 135.451H22.778a5.694 5.694 0 0 0-5.694 5.694v37.966a5.694 5.694 0 0 0 5.694 5.694h364.445a5.694 5.694 0 0 0 5.694-5.694v-37.966a5.694 5.694 0 0 0-5.694-5.694Z"/><path fill="#999" d="M29.24 152.993h.75v-6.018h-.75v6.018Zm2.194 0h.726v-2.661c0-.788.454-1.272 1.172-1.272.717 0 1.05.388 1.05 1.197v2.736h.726v-2.911c0-1.068-.563-1.664-1.572-1.664-.663 0-1.084.279-1.31.755h-.066v-.676h-.726v4.496Zm6.586.034c.141 0 .279-.017.42-.042v-.617a3.157 3.157 0 0 1-.333.016c-.467 0-.65-.212-.65-.742v-2.544h.984v-.601h-.985v-1.164h-.75v1.164h-.71v.601h.71v2.727c0 .86.388 1.202 1.314 1.202Zm3.274.045c1.059 0 1.701-.6 1.856-1.209l.008-.033h-.726l-.017.037c-.12.271-.496.559-1.105.559-.8 0-1.314-.542-1.334-1.472h3.236v-.284c0-1.343-.742-2.252-1.964-2.252s-2.015.951-2.015 2.34v.004c0 1.41.776 2.31 2.06 2.31Zm-.05-4.008c.663 0 1.155.422 1.23 1.31h-2.486c.08-.855.588-1.31 1.255-1.31Zm3.094 3.929h.726v-2.786c0-.659.492-1.097 1.184-1.097.159 0 .297.017.447.042v-.705a2.513 2.513 0 0 0-.363-.029c-.61 0-1.03.275-1.201.746h-.067v-.667h-.726v4.496Zm4.963.079c1.06 0 1.702-.6 1.856-1.209l.009-.033h-.726l-.017.037c-.12.271-.496.559-1.105.559-.8 0-1.314-.542-1.334-1.472h3.236v-.284c0-1.343-.742-2.252-1.965-2.252-1.222 0-2.014.951-2.014 2.34v.004c0 1.41.776 2.31 2.06 2.31Zm-.05-4.008c.663 0 1.156.422 1.23 1.31h-2.485c.08-.855.588-1.31 1.255-1.31Zm4.638 4.008c1.022 0 1.802-.554 1.802-1.355v-.008c0-.643-.409-1.01-1.255-1.214l-.693-.167c-.53-.129-.755-.321-.755-.626v-.008c0-.396.392-.671.926-.671.542 0 .893.246.989.6h.713c-.1-.734-.755-1.205-1.698-1.205-.955 0-1.672.563-1.672 1.309v.005c0 .646.38 1.013 1.222 1.213l.696.167c.555.134.785.346.785.651v.008c0 .409-.43.697-1.035.697-.575 0-.934-.246-1.055-.622h-.742c.083.743.771 1.226 1.772 1.226Zm4.484-.045c.142 0 .28-.017.421-.042v-.617a3.159 3.159 0 0 1-.334.016c-.467 0-.65-.212-.65-.742v-2.544h.984v-.601h-.984v-1.164h-.751v1.164h-.709v.601h.709v2.727c0 .86.388 1.202 1.314 1.202Zm4-.034h3.653v-.675h-2.903v-5.343h-.75v6.018Zm6.39.079c1.058 0 1.7-.6 1.855-1.209l.008-.033h-.725l-.017.037c-.121.271-.496.559-1.105.559-.801 0-1.314-.542-1.335-1.472h3.237v-.284c0-1.343-.743-2.252-1.965-2.252s-2.014.951-2.014 2.34v.004c0 1.41.776 2.31 2.06 2.31Zm-.051-4.008c.663 0 1.155.422 1.23 1.31h-2.485c.079-.855.588-1.31 1.255-1.31Zm3.395 3.929h.726v-3.895h1.022v-.601h-1.022v-.48c0-.492.208-.746.725-.746.13 0 .25.004.338.021v-.58a2.533 2.533 0 0 0-.484-.042c-.855 0-1.305.43-1.305 1.327v.5h-.747v.601h.747v3.895Zm4.392.034c.142 0 .28-.017.421-.042v-.617a3.156 3.156 0 0 1-.334.016c-.467 0-.65-.212-.65-.742v-2.544h.984v-.601h-.984v-1.164h-.751v1.164h-.709v.601h.709v2.727c0 .86.388 1.202 1.314 1.202Z"/><path fill="#282828" d="M31.83 170.981c1.616 0 2.74-.836 2.74-2.038v-.01c0-.9-.652-1.596-1.591-1.786v-.029c.803-.214 1.338-.803 1.338-1.557v-.01c0-1.08-1.032-1.873-2.487-1.873s-2.486.793-2.486 1.873v.01c0 .754.535 1.343 1.338 1.557v.029c-.934.19-1.591.886-1.591 1.786v.01c0 1.202 1.124 2.038 2.74 2.038Zm0-4.262c-.734 0-1.245-.428-1.245-1.041v-.01c0-.613.51-1.041 1.245-1.041.735 0 1.246.428 1.246 1.041v.01c0 .613-.511 1.041-1.246 1.041Zm0 3.304c-.841 0-1.44-.487-1.44-1.163v-.01c0-.681.589-1.172 1.44-1.172.847 0 1.44.491 1.44 1.172v.01c0 .676-.598 1.163-1.44 1.163Zm6.628.993c1.518 0 2.583-.998 2.583-2.458v-.009c0-1.343-.948-2.317-2.257-2.317-.662 0-1.207.283-1.5.755h-.082l.195-2.137h3.236v-1.031h-4.214l-.34 4.112h1.075c.082-.156.199-.292.326-.399.258-.234.598-.351.992-.351.803 0 1.377.574 1.377 1.392v.01c0 .827-.564 1.406-1.386 1.406-.72 0-1.251-.458-1.343-1.032l-.005-.034h-1.159l.005.063c.093 1.154 1.061 2.03 2.497 2.03Zm6.49 0c1.67 0 2.682-1.416 2.682-3.684v-.01c0-2.267-1.012-3.678-2.681-3.678-1.67 0-2.672 1.411-2.672 3.678v.01c0 2.268 1.003 3.684 2.672 3.684Zm0-1.017c-.895 0-1.406-1.003-1.406-2.667v-.01c0-1.664.511-2.656 1.407-2.656.895 0 1.416.992 1.416 2.656v.01c0 1.664-.521 2.667-1.416 2.667Zm9.723 1.017c1.785 0 2.885-1.047 2.885-2.594v-4.603h-1.255v4.501c0 .968-.584 1.61-1.626 1.61-1.046 0-1.634-.642-1.634-1.61v-4.501h-1.256v4.603c0 1.547 1.11 2.594 2.886 2.594Zm7.05 0c1.684 0 2.74-.857 2.74-2.224v-.005c0-1.061-.618-1.654-2.097-1.966l-.755-.16c-.876-.185-1.23-.497-1.23-.993v-.005c0-.598.554-.963 1.333-.963.802-.005 1.323.384 1.41.929l.01.058h1.202l-.005-.063c-.087-1.129-1.055-1.98-2.613-1.98-1.518 0-2.598.846-2.598 2.102v.005c0 1.046.623 1.717 2.058 2.019l.755.156c.905.194 1.27.501 1.27 1.007v.005c0 .603-.594 1.022-1.44 1.022-.891 0-1.519-.39-1.577-.978l-.005-.049h-1.217l.005.068c.088 1.212 1.124 2.015 2.754 2.015Zm4.15-.176h2.633c2.102 0 3.304-1.289 3.304-3.537v-.01c0-2.199-1.216-3.474-3.304-3.474h-2.632v7.021Zm1.256-1.056v-4.909h1.212c1.377 0 2.19.895 2.19 2.438v.009c0 1.577-.794 2.462-2.19 2.462h-1.212Zm7.606 1.056h1.255v-5.965h2.165v-1.056h-5.58v1.056h2.16v5.965Z"/><path fill="#999" d="M170.178 152.993h.75v-6.018h-.75v6.018Zm2.193 0h.726v-2.661c0-.788.455-1.272 1.172-1.272.717 0 1.051.388 1.051 1.197v2.736h.726v-2.911c0-1.068-.563-1.664-1.573-1.664-.663 0-1.084.279-1.309.755h-.067v-.676h-.726v4.496Zm6.586.034c.142 0 .279-.017.421-.042v-.617a3.143 3.143 0 0 1-.333.016c-.468 0-.651-.212-.651-.742v-2.544h.984v-.601h-.984v-1.164h-.751v1.164h-.709v.601h.709v2.727c0 .86.388 1.202 1.314 1.202Zm3.274.045c1.059 0 1.702-.6 1.856-1.209l.008-.033h-.725l-.017.037c-.121.271-.496.559-1.105.559-.801 0-1.314-.542-1.335-1.472h3.237v-.284c0-1.343-.743-2.252-1.965-2.252s-2.014.951-2.014 2.34v.004c0 1.41.775 2.31 2.06 2.31Zm-.05-4.008c.663 0 1.155.422 1.23 1.31h-2.485c.079-.855.588-1.31 1.255-1.31Zm3.095 3.929h.725v-2.786c0-.659.492-1.097 1.185-1.097.158 0 .296.017.446.042v-.705a2.512 2.512 0 0 0-.363-.029c-.609 0-1.03.275-1.201.746h-.067v-.667h-.725v4.496Zm4.963.079c1.059 0 1.701-.6 1.856-1.209l.008-.033h-.726l-.016.037c-.121.271-.497.559-1.106.559-.8 0-1.313-.542-1.334-1.472h3.236v-.284c0-1.343-.742-2.252-1.964-2.252s-2.015.951-2.015 2.34v.004c0 1.41.776 2.31 2.061 2.31Zm-.05-4.008c.663 0 1.155.422 1.23 1.31h-2.486c.08-.855.588-1.31 1.256-1.31Zm4.638 4.008c1.021 0 1.801-.554 1.801-1.355v-.008c0-.643-.408-1.01-1.255-1.214l-.692-.167c-.53-.129-.755-.321-.755-.626v-.008c0-.396.392-.671.926-.671.542 0 .892.246.988.6h.713c-.1-.734-.755-1.205-1.697-1.205-.955 0-1.673.563-1.673 1.309v.005c0 .646.38 1.013 1.222 1.213l.697.167c.555.134.784.346.784.651v.008c0 .409-.43.697-1.034.697-.576 0-.935-.246-1.056-.622h-.742c.083.743.772 1.226 1.773 1.226Zm4.483-.045c.142 0 .28-.017.421-.042v-.617a3.143 3.143 0 0 1-.333.016c-.467 0-.651-.212-.651-.742v-2.544h.984v-.601h-.984v-1.164h-.751v1.164h-.709v.601h.709v2.727c0 .86.388 1.202 1.314 1.202Zm4-.034h.751v-2.148h1.518c1.13 0 1.931-.796 1.931-1.939v-.008c0-1.143-.801-1.923-1.931-1.923h-2.269v6.018Zm2.077-5.351c.859 0 1.355.471 1.355 1.264v.008c0 .793-.496 1.264-1.355 1.264h-1.326v-2.536h1.326Zm4.329 5.43c.605 0 1.076-.262 1.36-.742h.067v.663h.725v-3.078c0-.934-.613-1.497-1.71-1.497-.959 0-1.643.475-1.76 1.18l-.004.025h.726l.004-.012c.117-.351.471-.551 1.009-.551.672 0 1.01.3 1.01.855v.409l-1.289.079c-1.047.063-1.639.526-1.639 1.326v.009c0 .817.646 1.334 1.501 1.334Zm-.759-1.351v-.008c0-.447.3-.688.984-.73l1.202-.075v.409c0 .642-.538 1.126-1.277 1.126-.521 0-.909-.267-.909-.722Zm4.621-4.091a.502.502 0 1 0-.5-.501c0 .275.225.501.5.501Zm-.367 5.363h.726v-4.496h-.726v4.496Zm3.754.079c.625 0 1.126-.296 1.401-.796h.067v.717h.726v-6.281h-.726v2.494h-.067c-.246-.479-.784-.788-1.401-.788-1.143 0-1.885.913-1.885 2.323v.008c0 1.402.746 2.323 1.885 2.323Zm.167-.642c-.822 0-1.31-.634-1.31-1.681v-.008c0-1.047.488-1.681 1.31-1.681.817 0 1.318.642 1.318 1.681v.008c0 1.039-.501 1.681-1.318 1.681Zm-44.452 18.586c1.518 0 2.584-.998 2.584-2.458v-.009c0-1.343-.949-2.317-2.258-2.317-.662 0-1.207.283-1.499.755h-.082l.194-2.137h3.236v-1.031h-4.214l-.34 4.112h1.075c.083-.156.199-.292.326-.399.258-.234.598-.351.993-.351.802 0 1.377.574 1.377 1.392v.01c0 .827-.565 1.406-1.387 1.406-.72 0-1.251-.458-1.343-1.032l-.005-.034h-1.158l.005.063c.092 1.154 1.061 2.03 2.496 2.03Zm6.491 0c1.669 0 2.681-1.416 2.681-3.684v-.01c0-2.267-1.012-3.678-2.681-3.678s-2.671 1.411-2.671 3.678v.01c0 2.268 1.002 3.684 2.671 3.684Zm0-1.017c-.895 0-1.406-1.003-1.406-2.667v-.01c0-1.664.511-2.656 1.406-2.656.895 0 1.416.992 1.416 2.656v.01c0 1.664-.521 2.667-1.416 2.667Zm9.722 1.017c1.786 0 2.886-1.047 2.886-2.594v-4.603h-1.256v4.501c0 .968-.584 1.61-1.625 1.61-1.046 0-1.635-.642-1.635-1.61v-4.501h-1.255v4.603c0 1.547 1.109 2.594 2.885 2.594Zm7.051 0c1.683 0 2.739-.857 2.739-2.224v-.005c0-1.061-.618-1.654-2.097-1.966l-.754-.16c-.876-.185-1.231-.497-1.231-.993v-.005c0-.598.554-.963 1.333-.963.803-.005 1.323.384 1.411.929l.01.058h1.202l-.005-.063c-.088-1.129-1.056-1.98-2.613-1.98-1.518 0-2.599.846-2.599 2.102v.005c0 1.046.623 1.717 2.059 2.019l.754.156c.905.194 1.27.501 1.27 1.007v.005c0 .603-.594 1.022-1.44 1.022-.891 0-1.519-.39-1.577-.978l-.005-.049h-1.216l.005.068c.087 1.212 1.124 2.015 2.754 2.015Zm4.15-.176h2.633c2.102 0 3.304-1.289 3.304-3.537v-.01c0-2.199-1.217-3.474-3.304-3.474h-2.633v7.021Zm1.256-1.056v-4.909h1.211c1.377 0 2.19.895 2.19 2.438v.009c0 1.577-.793 2.462-2.19 2.462h-1.211Zm7.605 1.056h1.255v-5.965h2.166v-1.056h-5.581v1.056h2.16v5.965Zm120.34-17.847h.75v-2.607h2.666v-.667h-2.666v-2.069h2.903v-.675h-3.653v6.018Zm6.631.079c1.06 0 1.702-.6 1.856-1.209l.009-.033h-.726l-.017.037c-.121.271-.496.559-1.105.559-.801 0-1.314-.542-1.335-1.472h3.237v-.284c0-1.343-.743-2.252-1.965-2.252s-2.014.951-2.014 2.34v.004c0 1.41.776 2.31 2.06 2.31Zm-.05-4.008c.663 0 1.155.422 1.231 1.31h-2.486c.079-.855.588-1.31 1.255-1.31Zm5.33 4.008c1.139 0 1.886-.921 1.886-2.323v-.008c0-1.41-.743-2.323-1.886-2.323-.617 0-1.155.309-1.401.788h-.067v-2.494h-.725v6.281h.725v-.717h.067c.275.5.776.796 1.401.796Zm-.166-.642c-.818 0-1.318-.642-1.318-1.681v-.008c0-1.039.5-1.681 1.318-1.681.821 0 1.309.634 1.309 1.681v.008c0 1.047-.488 1.681-1.309 1.681Zm7.048.563h.751v-6.018h-.747l-1.601 1.151v.792l1.53-1.109h.067v5.184Zm4.459-6.16c-1.214 0-2.107.872-2.107 2.073v.008c0 1.155.843 2.015 1.973 2.015.813 0 1.381-.438 1.602-.93h.079c0 .045 0 .096-.004.141-.046 1.256-.492 2.323-1.585 2.323-.609 0-1.03-.312-1.214-.817l-.016-.046h-.755l.012.054c.205.889.955 1.481 1.965 1.481 1.459 0 2.314-1.201 2.314-3.253v-.009c0-2.264-1.163-3.04-2.264-3.04Zm-.005 3.441c-.779 0-1.347-.576-1.347-1.376v-.009c0-.78.605-1.393 1.36-1.393.763 0 1.36.626 1.36 1.418v.004c0 .784-.593 1.356-1.373 1.356Zm2.962 4.25h.538l.654-2.373h-.829l-.363 2.373Zm5.117-1.531h3.896v-.675h-2.853v-.067l1.368-1.414c1.088-1.122 1.385-1.623 1.385-2.311v-.008c0-.972-.805-1.685-1.856-1.685-1.152 0-1.977.767-1.982 1.835l.009.004.717.004.004-.008c0-.709.48-1.18 1.201-1.18.71 0 1.139.475 1.139 1.109v.009c0 .525-.225.838-.993 1.668l-2.035 2.202v.517Zm7.17.142c1.33 0 2.131-1.214 2.131-3.149v-.008c0-1.935-.801-3.145-2.131-3.145-1.331 0-2.123 1.21-2.123 3.145v.008c0 1.935.792 3.149 2.123 3.149Zm0-.655c-.864 0-1.368-.959-1.368-2.494v-.008c0-1.535.504-2.486 1.368-2.486.863 0 1.376.951 1.376 2.486v.008c0 1.535-.513 2.494-1.376 2.494Zm3.365.513h3.896v-.675h-2.853v-.067l1.368-1.414c1.089-1.122 1.385-1.623 1.385-2.311v-.008c0-.972-.805-1.685-1.856-1.685-1.151 0-1.977.767-1.981 1.835l.008.004.717.004.005-.008c0-.709.479-1.18 1.201-1.18.709 0 1.138.475 1.138 1.109v.009c0 .525-.225.838-.992 1.668l-2.036 2.202v.517Zm5.155 0h3.896v-.675h-2.853v-.067l1.368-1.414c1.089-1.122 1.385-1.623 1.385-2.311v-.008c0-.972-.805-1.685-1.856-1.685-1.151 0-1.977.767-1.981 1.835l.008.004.717.004.005-.008c0-.709.479-1.18 1.201-1.18.709 0 1.138.475 1.138 1.109v.009c0 .525-.225.838-.992 1.668l-2.036 2.202v.517Z"/><path fill="#EAF2FF" d="M378.681 158.417h-38.847a2.848 2.848 0 0 0-2.848 2.847v12.153a2.848 2.848 0 0 0 2.848 2.847h38.847a2.847 2.847 0 0 0 2.847-2.847v-12.153a2.847 2.847 0 0 0-2.847-2.847Z"/><path fill="#2A80FB" d="M344.98 171.006c1.494 0 2.603-.832 2.837-2.117v-.01h-.886l-.009.01c-.219.808-.964 1.309-1.942 1.309-1.353 0-2.199-1.105-2.199-2.861v-.01c0-1.756.846-2.866 2.194-2.866.969 0 1.718.569 1.952 1.47l.004.009h.881l.005-.009c-.209-1.348-1.362-2.278-2.842-2.278-1.907 0-3.094 1.412-3.094 3.674v.01c0 2.258 1.192 3.669 3.099 3.669Zm5.956-.073c.769 0 1.299-.316 1.557-.876h.078v.783h.847v-5.245h-.847v3.104c0 .92-.492 1.484-1.416 1.484-.837 0-1.178-.452-1.178-1.396v-3.192h-.846v3.396c0 1.241.613 1.942 1.805 1.942Zm4.063-.093h.847v-3.25c0-.769.574-1.28 1.382-1.28.184 0 .345.02.52.049v-.822a2.773 2.773 0 0 0-.423-.035c-.711 0-1.202.322-1.401.871h-.078v-.778h-.847v5.245Zm3.893 0h.846v-3.25c0-.769.575-1.28 1.382-1.28.185 0 .346.02.521.049v-.822a2.773 2.773 0 0 0-.423-.035c-.711 0-1.202.322-1.402.871h-.078v-.778h-.846v5.245Zm5.79.093c1.236 0 1.985-.701 2.165-1.411l.01-.039h-.847l-.019.044c-.141.316-.579.652-1.289.652-.935 0-1.533-.633-1.558-1.718h3.776v-.331c0-1.567-.866-2.628-2.291-2.628-1.426 0-2.351 1.11-2.351 2.73v.005c0 1.645.905 2.696 2.404 2.696Zm-.058-4.676c.773 0 1.348.491 1.435 1.528h-2.9c.092-.998.686-1.528 1.465-1.528Zm3.61 4.583h.847v-3.104c0-.92.53-1.484 1.367-1.484s1.226.452 1.226 1.396v3.192h.847v-3.396c0-1.246-.657-1.942-1.834-1.942-.774 0-1.266.326-1.528.881h-.078v-.788h-.847v5.245Zm7.683.039c.166 0 .326-.019.492-.048v-.721a3.45 3.45 0 0 1-.389.02c-.545 0-.76-.248-.76-.866v-2.968h1.149v-.701h-1.149v-1.358h-.875v1.358h-.828v.701h.828v3.182c0 1.002.452 1.401 1.532 1.401Z"/><path fill="#999" d="M29.24 202.347h.75v-6.018h-.75v6.018Zm2.194 0h.726v-2.661c0-.788.454-1.272 1.172-1.272.717 0 1.05.388 1.05 1.197v2.736h.726v-2.911c0-1.068-.563-1.664-1.572-1.664-.663 0-1.084.279-1.31.755h-.066v-.676h-.726v4.496Zm6.586.034c.141 0 .279-.017.42-.042v-.617a3.157 3.157 0 0 1-.333.016c-.467 0-.65-.212-.65-.742v-2.544h.984v-.601h-.985v-1.164h-.75v1.164h-.71v.601h.71v2.727c0 .86.388 1.202 1.314 1.202Zm3.274.045c1.059 0 1.701-.6 1.856-1.209l.008-.033h-.726l-.017.037c-.12.271-.496.559-1.105.559-.8 0-1.314-.542-1.334-1.472h3.236v-.284c0-1.343-.742-2.252-1.964-2.252s-2.015.951-2.015 2.34v.004c0 1.41.776 2.31 2.06 2.31Zm-.05-4.008c.663 0 1.155.422 1.23 1.31h-2.486c.08-.855.588-1.31 1.255-1.31Zm3.094 3.929h.726v-2.786c0-.659.492-1.097 1.184-1.097.159 0 .297.017.447.042v-.705a2.513 2.513 0 0 0-.363-.029c-.61 0-1.03.275-1.201.746h-.067v-.667h-.726v4.496Zm4.963.079c1.06 0 1.702-.6 1.856-1.209l.009-.033h-.726l-.017.037c-.12.271-.496.559-1.105.559-.8 0-1.314-.542-1.334-1.472h3.236v-.284c0-1.343-.742-2.252-1.965-2.252-1.222 0-2.014.951-2.014 2.34v.004c0 1.41.776 2.31 2.06 2.31Zm-.05-4.008c.663 0 1.156.422 1.23 1.31h-2.485c.08-.855.588-1.31 1.255-1.31Zm4.638 4.008c1.022 0 1.802-.554 1.802-1.355v-.008c0-.643-.409-1.01-1.255-1.214l-.693-.167c-.53-.129-.755-.321-.755-.626v-.008c0-.396.392-.671.926-.671.542 0 .893.246.989.6h.713c-.1-.734-.755-1.205-1.698-1.205-.955 0-1.672.563-1.672 1.309v.005c0 .646.38 1.013 1.222 1.213l.696.167c.555.134.785.346.785.651v.008c0 .409-.43.697-1.035.697-.575 0-.934-.246-1.055-.622h-.742c.083.743.771 1.226 1.772 1.226Zm4.484-.045c.142 0 .28-.017.421-.042v-.617a3.159 3.159 0 0 1-.334.016c-.467 0-.65-.212-.65-.742v-2.544h.984v-.601h-.984v-1.164h-.751v1.164h-.709v.601h.709v2.727c0 .86.388 1.202 1.314 1.202Zm3.52-.034h.788l.605-1.722h2.394l.605 1.722h.788l-2.219-6.018h-.742l-2.22 6.018Zm2.556-5.046h.067l.943 2.686h-1.952l.943-2.686Zm3.587 5.046h.726v-2.786c0-.634.446-1.147 1.034-1.147.568 0 .935.346.935.88v3.053h.725v-2.89c0-.572.413-1.043 1.039-1.043.634 0 .938.33.938.993v2.94h.726v-3.107c0-.943-.513-1.468-1.43-1.468-.622 0-1.135.313-1.377.788h-.067c-.208-.467-.634-.788-1.242-.788-.589 0-1.014.279-1.214.763h-.067v-.684h-.726v4.496Zm9.28.079c1.28 0 2.073-.884 2.073-2.323v-.008c0-1.443-.792-2.323-2.073-2.323-1.28 0-2.073.88-2.073 2.323v.008c0 1.439.793 2.323 2.073 2.323Zm0-.642c-.85 0-1.33-.621-1.33-1.681v-.008c0-1.064.48-1.681 1.33-1.681.851 0 1.33.617 1.33 1.681v.008c0 1.06-.479 1.681-1.33 1.681Zm4.705.642c.659 0 1.113-.271 1.335-.75h.066v.671h.726v-4.496h-.726v2.661c0 .788-.421 1.272-1.213 1.272-.718 0-1.01-.388-1.01-1.197v-2.736h-.725v2.911c0 1.064.525 1.664 1.547 1.664Zm3.482-.079h.726v-2.661c0-.788.455-1.272 1.172-1.272.717 0 1.051.388 1.051 1.197v2.736h.726v-2.911c0-1.068-.563-1.664-1.573-1.664-.663 0-1.084.279-1.31.755h-.066v-.676h-.726v4.496Zm6.586.034c.142 0 .28-.017.421-.042v-.617a3.156 3.156 0 0 1-.333.016c-.468 0-.651-.212-.651-.742v-2.544h.984v-.601h-.984v-1.164h-.75v1.164h-.71v.601h.71v2.727c0 .86.387 1.202 1.313 1.202Z"/><path fill="#282828" d="M31.699 212.998c-1.523 0-2.608 1.041-2.608 2.467v.009c0 1.334.944 2.317 2.292 2.317.963 0 1.576-.492 1.834-1.047h.097c0 .054-.005.107-.005.161-.053 1.343-.525 2.433-1.64 2.433-.617 0-1.05-.321-1.235-.813l-.015-.048h-1.236l.01.053c.224 1.076 1.187 1.84 2.477 1.84 1.766 0 2.832-1.402 2.832-3.767v-.009c0-2.531-1.304-3.596-2.803-3.596Zm-.005 3.829c-.798 0-1.377-.584-1.377-1.396v-.01c0-.783.618-1.401 1.392-1.401.778 0 1.386.627 1.386 1.43v.01c0 .793-.608 1.367-1.4 1.367Zm6.734 3.543c1.67 0 2.681-1.416 2.681-3.684v-.01c0-2.267-1.012-3.678-2.68-3.678-1.67 0-2.672 1.411-2.672 3.678v.01c0 2.268 1.002 3.684 2.671 3.684Zm0-1.017c-.895 0-1.406-1.003-1.406-2.667v-.01c0-1.664.511-2.656 1.406-2.656.896 0 1.416.992 1.416 2.656v.01c0 1.664-.52 2.667-1.416 2.667Zm6.628 1.017c1.669 0 2.68-1.416 2.68-3.684v-.01c0-2.267-1.011-3.678-2.68-3.678-1.67 0-2.672 1.411-2.672 3.678v.01c0 2.268 1.003 3.684 2.672 3.684Zm0-1.017c-.896 0-1.406-1.003-1.406-2.667v-.01c0-1.664.51-2.656 1.406-2.656.895 0 1.416.992 1.416 2.656v.01c0 1.664-.521 2.667-1.416 2.667Zm9.722 1.017c1.785 0 2.885-1.047 2.885-2.594v-4.603h-1.255v4.501c0 .968-.584 1.61-1.625 1.61-1.047 0-1.635-.642-1.635-1.61v-4.501h-1.256v4.603c0 1.547 1.11 2.594 2.886 2.594Zm7.05 0c1.684 0 2.74-.857 2.74-2.224v-.005c0-1.061-.618-1.654-2.097-1.966l-.755-.16c-.876-.185-1.23-.497-1.23-.993v-.005c0-.598.554-.963 1.333-.963.802-.005 1.323.384 1.41.929l.01.058h1.202l-.005-.063c-.087-1.129-1.056-1.98-2.613-1.98-1.518 0-2.598.846-2.598 2.102v.005c0 1.046.623 1.717 2.058 2.019l.755.156c.905.194 1.27.501 1.27 1.007v.005c0 .603-.594 1.022-1.44 1.022-.891 0-1.519-.39-1.577-.978l-.005-.049h-1.217l.005.068c.088 1.212 1.124 2.015 2.754 2.015Zm4.15-.176h2.633c2.102 0 3.304-1.289 3.304-3.537v-.01c0-2.199-1.216-3.474-3.304-3.474H65.98v7.021Zm1.256-1.056v-4.909h1.212c1.377 0 2.19.895 2.19 2.438v.009c0 1.577-.794 2.462-2.19 2.462h-1.212Zm7.606 1.056h1.255v-5.965h2.165v-1.056h-5.58v1.056h2.16v5.965Z"/><path fill="#999" d="M329.295 202.347h.7v-4.596h.046l1.902 4.596h.634l1.902-4.596h.046v4.596h.701v-6.018h-.872l-2.06 5.021h-.067l-2.061-5.021h-.871v6.018Zm8.608.079c.605 0 1.076-.262 1.36-.742h.067v.663h.725v-3.078c0-.934-.613-1.497-1.71-1.497-.959 0-1.643.475-1.76 1.18l-.004.025h.726l.004-.012c.117-.351.471-.551 1.009-.551.672 0 1.01.3 1.01.855v.409l-1.289.079c-1.047.063-1.639.526-1.639 1.326v.009c0 .817.646 1.334 1.501 1.334Zm-.759-1.351v-.008c0-.447.3-.688.984-.73l1.202-.075v.409c0 .642-.538 1.126-1.277 1.126-.521 0-.909-.267-.909-.722Zm4.238 1.272h.725v-2.786c0-.659.492-1.097 1.185-1.097.158 0 .296.017.446.042v-.705a2.512 2.512 0 0 0-.363-.029c-.609 0-1.03.275-1.201.746h-.067v-.667h-.725v4.496Zm7.123 0h.751v-6.018h-.747l-1.601 1.151v.792l1.53-1.109h.067v5.184Zm4.459-6.16c-1.214 0-2.107.872-2.107 2.073v.008c0 1.155.843 2.015 1.973 2.015.814 0 1.381-.438 1.602-.93h.079c0 .045 0 .096-.004.141-.046 1.256-.492 2.323-1.585 2.323-.609 0-1.03-.312-1.214-.817l-.016-.046h-.755l.012.054c.205.889.955 1.481 1.965 1.481 1.459 0 2.314-1.201 2.314-3.253v-.009c0-2.264-1.163-3.04-2.264-3.04Zm-.004 3.441c-.78 0-1.348-.576-1.348-1.376v-.009c0-.78.605-1.393 1.36-1.393.763 0 1.36.626 1.36 1.418v.004c0 .784-.593 1.356-1.372 1.356Zm2.961 4.25h.538l.655-2.373h-.83l-.363 2.373Zm5.117-1.531h3.896v-.675h-2.853v-.067l1.368-1.414c1.088-1.122 1.385-1.623 1.385-2.311v-.008c0-.972-.805-1.685-1.856-1.685-1.152 0-1.977.767-1.981 1.835l.008.004.717.004.004-.008c0-.709.48-1.18 1.202-1.18.709 0 1.138.475 1.138 1.109v.009c0 .525-.225.838-.992 1.668l-2.036 2.202v.517Zm7.17.142c1.33 0 2.131-1.214 2.131-3.149v-.008c0-1.935-.801-3.145-2.131-3.145-1.331 0-2.123 1.21-2.123 3.145v.008c0 1.935.792 3.149 2.123 3.149Zm0-.655c-.864 0-1.368-.959-1.368-2.494v-.008c0-1.535.504-2.486 1.368-2.486.863 0 1.376.951 1.376 2.486v.008c0 1.535-.513 2.494-1.376 2.494Zm3.366.513h3.895v-.675h-2.853v-.067l1.368-1.414c1.089-1.122 1.385-1.623 1.385-2.311v-.008c0-.972-.805-1.685-1.856-1.685-1.151 0-1.977.767-1.981 1.835l.008.004.718.004.004-.008c0-.709.479-1.18 1.201-1.18.709 0 1.138.475 1.138 1.109v.009c0 .525-.225.838-.992 1.668l-2.035 2.202v.517Zm5.155 0h3.895v-.675h-2.853v-.067l1.368-1.414c1.089-1.122 1.385-1.623 1.385-2.311v-.008c0-.972-.805-1.685-1.856-1.685-1.151 0-1.977.767-1.981 1.835l.008.004.718.004.004-.008c0-.709.479-1.18 1.201-1.18.709 0 1.138.475 1.138 1.109v.009c0 .525-.225.838-.992 1.668l-2.035 2.202v.517Z"/><path fill="#F3F3F3" d="M378.681 207.771h-50.847a2.848 2.848 0 0 0-2.848 2.847v12.153a2.848 2.848 0 0 0 2.848 2.847h50.847a2.847 2.847 0 0 0 2.847-2.847v-12.153a2.847 2.847 0 0 0-2.847-2.847Z"/><path fill="#282828" d="M332.936 220.36c1.742 0 2.784-1.051 2.784-2.579v-4.608h-.876v4.549c0 1.081-.691 1.83-1.908 1.83-1.216 0-1.917-.749-1.917-1.83v-4.549h-.876v4.608c0 1.528 1.051 2.579 2.793 2.579Zm4.458 1.586h.846v-2.579h.078c.287.56.915.92 1.635.92 1.333 0 2.199-1.066 2.199-2.71v-.01c0-1.635-.871-2.711-2.199-2.711-.73 0-1.314.346-1.635.93h-.078v-.837h-.846v6.997Zm2.364-2.409c-.953 0-1.537-.749-1.537-1.96v-.01c0-1.212.584-1.961 1.537-1.961.959 0 1.528.739 1.528 1.961v.01c0 1.221-.569 1.96-1.528 1.96Zm5.864.75c1.26 0 1.966-.677 2.18-1.625l.009-.054-.837.005-.009.029c-.195.584-.643.895-1.348.895-.934 0-1.538-.773-1.538-1.98v-.01c0-1.182.594-1.941 1.538-1.941.754 0 1.221.418 1.353.934l.004.015h.842l-.005-.03c-.155-.934-.919-1.669-2.194-1.669-1.47 0-2.404 1.061-2.404 2.691v.01c0 1.664.939 2.73 2.409 2.73Zm5.586 0c1.494 0 2.418-1.032 2.418-2.71v-.01c0-1.684-.924-2.711-2.418-2.711-1.494 0-2.419 1.027-2.419 2.711v.01c0 1.678.925 2.71 2.419 2.71Zm0-.75c-.993 0-1.553-.725-1.553-1.96v-.01c0-1.241.56-1.961 1.553-1.961.992 0 1.552.72 1.552 1.961v.01c0 1.235-.56 1.96-1.552 1.96Zm3.732.657h.846v-3.25c0-.74.521-1.338 1.207-1.338.662 0 1.09.404 1.09 1.027v3.561h.847v-3.372c0-.666.482-1.216 1.211-1.216.74 0 1.095.384 1.095 1.158v3.43h.847v-3.625c0-1.099-.599-1.713-1.669-1.713-.725 0-1.324.365-1.606.92h-.078c-.243-.545-.739-.92-1.45-.92-.686 0-1.182.327-1.416.891h-.078v-.798h-.846v5.245Zm9.118-6.257a.585.585 0 0 0 .584-.584.585.585 0 0 0-.584-.584.585.585 0 0 0 0 1.168Zm-.428 6.257h.847v-5.245h-.847v5.245Zm2.443 0h.847v-3.104c0-.92.53-1.484 1.367-1.484s1.226.452 1.226 1.396v3.192h.847v-3.396c0-1.246-.657-1.942-1.835-1.942-.773 0-1.265.327-1.528.881h-.077v-.788h-.847v5.245Zm7.98 1.849c1.43 0 2.336-.749 2.336-1.922v-5.172h-.847v.866h-.059c-.321-.594-.895-.959-1.634-.959-1.373 0-2.219 1.066-2.219 2.536v.009c0 1.47.842 2.521 2.199 2.521.72 0 1.314-.326 1.645-.905h.078v1.061c0 .773-.56 1.216-1.499 1.216-.754 0-1.221-.282-1.314-.681l-.005-.005h-.876l-.009.005c.131.861.939 1.43 2.204 1.43Zm-.039-2.87c-.973 0-1.518-.73-1.518-1.772v-.009c0-1.042.545-1.786 1.518-1.786.968 0 1.557.744 1.557 1.786v.009c0 1.042-.584 1.772-1.557 1.772Z"/><path stroke="#EBEBEB" stroke-width=".712" d="M17.084 233.804h375.833"/><path fill="#999" d="M29.24 251.701h.75v-6.018h-.75v6.018Zm2.194 0h.726v-2.661c0-.788.454-1.272 1.172-1.272.717 0 1.05.388 1.05 1.197v2.736h.726v-2.911c0-1.067-.563-1.664-1.572-1.664-.663 0-1.084.28-1.31.755h-.066v-.676h-.726v4.496Zm6.586.034c.141 0 .279-.017.42-.042v-.617a3.157 3.157 0 0 1-.333.016c-.467 0-.65-.212-.65-.742v-2.544h.984v-.601h-.985v-1.163h-.75v1.163h-.71v.601h.71v2.728c0 .859.388 1.201 1.314 1.201Zm3.274.046c1.059 0 1.701-.601 1.856-1.21l.008-.033h-.726l-.017.037c-.12.271-.496.559-1.105.559-.8 0-1.314-.542-1.334-1.472h3.236v-.284c0-1.343-.742-2.252-1.964-2.252s-2.015.951-2.015 2.34v.004c0 1.41.776 2.311 2.06 2.311Zm-.05-4.008c.663 0 1.155.421 1.23 1.309h-2.486c.08-.855.588-1.309 1.255-1.309Zm3.094 3.928h.726v-2.786c0-.659.492-1.097 1.184-1.097.159 0 .297.017.447.042v-.705a2.513 2.513 0 0 0-.363-.029c-.61 0-1.03.275-1.201.747h-.067v-.668h-.726v4.496Zm4.963.08c1.06 0 1.702-.601 1.856-1.21l.009-.033h-.726l-.017.037c-.12.271-.496.559-1.105.559-.8 0-1.314-.542-1.334-1.472h3.236v-.284c0-1.343-.742-2.252-1.965-2.252-1.222 0-2.014.951-2.014 2.34v.004c0 1.41.776 2.311 2.06 2.311Zm-.05-4.008c.663 0 1.156.421 1.23 1.309h-2.485c.08-.855.588-1.309 1.255-1.309Zm4.638 4.008c1.022 0 1.802-.555 1.802-1.356v-.008c0-.642-.409-1.009-1.255-1.214l-.693-.167c-.53-.129-.755-.321-.755-.625v-.009c0-.396.392-.671.926-.671.542 0 .893.246.989.6h.713c-.1-.734-.755-1.205-1.698-1.205-.955 0-1.672.563-1.672 1.31v.004c0 .646.38 1.013 1.222 1.214l.696.166c.555.134.785.347.785.651v.008c0 .409-.43.697-1.035.697-.575 0-.934-.246-1.055-.622h-.742c.083.743.771 1.227 1.772 1.227Zm4.484-.046c.142 0 .28-.017.421-.042v-.617a3.159 3.159 0 0 1-.334.016c-.467 0-.65-.212-.65-.742v-2.544h.984v-.601h-.984v-1.163h-.751v1.163h-.709v.601h.709v2.728c0 .859.388 1.201 1.314 1.201Zm3.52-.034h.788l.605-1.722h2.394l.605 1.722h.788l-2.219-6.018h-.742l-2.22 6.018Zm2.556-5.046h.067l.943 2.686h-1.952l.943-2.686Zm3.587 5.046h.726v-2.786c0-.634.446-1.147 1.034-1.147.568 0 .935.347.935.88v3.053h.725v-2.89c0-.571.413-1.043 1.039-1.043.634 0 .938.33.938.993v2.94h.726v-3.107c0-.942-.513-1.468-1.43-1.468-.622 0-1.135.313-1.377.788h-.067c-.208-.467-.634-.788-1.242-.788-.589 0-1.014.28-1.214.763h-.067v-.684h-.726v4.496Zm9.28.08c1.28 0 2.073-.885 2.073-2.323v-.009c0-1.443-.792-2.323-2.073-2.323-1.28 0-2.073.88-2.073 2.323v.009c0 1.438.793 2.323 2.073 2.323Zm0-.643c-.85 0-1.33-.621-1.33-1.68v-.009c0-1.063.48-1.681 1.33-1.681.851 0 1.33.618 1.33 1.681v.009c0 1.059-.479 1.68-1.33 1.68Zm4.705.643c.659 0 1.113-.271 1.335-.751h.066v.671h.726v-4.496h-.726v2.661c0 .789-.421 1.272-1.213 1.272-.718 0-1.01-.388-1.01-1.197v-2.736h-.725v2.912c0 1.063.525 1.664 1.547 1.664Zm3.482-.08h.726v-2.661c0-.788.455-1.272 1.172-1.272.717 0 1.051.388 1.051 1.197v2.736h.726v-2.911c0-1.067-.563-1.664-1.573-1.664-.663 0-1.084.28-1.31.755h-.066v-.676h-.726v4.496Zm6.586.034c.142 0 .28-.017.421-.042v-.617a3.156 3.156 0 0 1-.333.016c-.468 0-.651-.212-.651-.742v-2.544h.984v-.601h-.984v-1.163h-.75v1.163h-.71v.601h.71v2.728c0 .859.387 1.201 1.313 1.201Z"/><path fill="#282828" d="M31.699 262.352c-1.523 0-2.608 1.041-2.608 2.467v.01c0 1.333.944 2.316 2.292 2.316.963 0 1.576-.492 1.834-1.046h.097c0 .053-.005.107-.005.16-.053 1.343-.525 2.433-1.64 2.433-.617 0-1.05-.321-1.235-.812l-.015-.049h-1.236l.01.053c.224 1.076 1.187 1.84 2.477 1.84 1.766 0 2.832-1.402 2.832-3.766v-.01c0-2.53-1.304-3.596-2.803-3.596Zm-.005 3.829c-.798 0-1.377-.583-1.377-1.396v-.01c0-.783.618-1.401 1.392-1.401.778 0 1.386.628 1.386 1.43v.01c0 .793-.608 1.367-1.4 1.367Zm6.734 3.543c1.67 0 2.681-1.416 2.681-3.684v-.009c0-2.268-1.012-3.679-2.68-3.679-1.67 0-2.672 1.411-2.672 3.679v.009c0 2.268 1.002 3.684 2.671 3.684Zm0-1.017c-.895 0-1.406-1.003-1.406-2.667v-.009c0-1.665.511-2.657 1.406-2.657.896 0 1.416.992 1.416 2.657v.009c0 1.664-.52 2.667-1.416 2.667Zm6.628 1.017c1.669 0 2.68-1.416 2.68-3.684v-.009c0-2.268-1.011-3.679-2.68-3.679-1.67 0-2.672 1.411-2.672 3.679v.009c0 2.268 1.003 3.684 2.672 3.684Zm0-1.017c-.896 0-1.406-1.003-1.406-2.667v-.009c0-1.665.51-2.657 1.406-2.657.895 0 1.416.992 1.416 2.657v.009c0 1.664-.521 2.667-1.416 2.667Zm9.722 1.017c1.785 0 2.885-1.046 2.885-2.594v-4.603h-1.255v4.501c0 .968-.584 1.611-1.625 1.611-1.047 0-1.635-.643-1.635-1.611v-4.501h-1.256v4.603c0 1.548 1.11 2.594 2.886 2.594Zm7.05 0c1.684 0 2.74-.857 2.74-2.224v-.005c0-1.061-.618-1.654-2.097-1.966l-.755-.16c-.876-.185-1.23-.497-1.23-.993v-.005c0-.598.554-.963 1.333-.963.802-.005 1.323.384 1.41.929l.01.059h1.202l-.005-.064c-.087-1.128-1.056-1.98-2.613-1.98-1.518 0-2.598.847-2.598 2.102v.005c0 1.046.623 1.718 2.058 2.019l.755.156c.905.195 1.27.501 1.27 1.007v.005c0 .603-.594 1.022-1.44 1.022-.891 0-1.519-.389-1.577-.978l-.005-.049h-1.217l.005.068c.088 1.212 1.124 2.015 2.754 2.015Zm4.15-.175h2.633c2.102 0 3.304-1.29 3.304-3.538v-.01c0-2.199-1.216-3.474-3.304-3.474H65.98v7.022Zm1.256-1.056v-4.91h1.212c1.377 0 2.19.895 2.19 2.438v.01c0 1.576-.794 2.462-2.19 2.462h-1.212Zm7.606 1.056h1.255v-5.966h2.165v-1.056h-5.58v1.056h2.16v5.966Z"/><path fill="#999" d="M329.815 251.701h.788l.605-1.722h2.394l.605 1.722h.788l-2.219-6.018h-.742l-2.219 6.018Zm2.557-5.046h.067l.942 2.686h-1.952l.943-2.686Zm3.587 6.548h.725v-2.211h.067c.246.48.784.789 1.401.789 1.143 0 1.886-.914 1.886-2.323v-.009c0-1.401-.747-2.323-1.886-2.323-.625 0-1.126.296-1.401.797h-.067v-.718h-.725v5.998Zm2.027-2.065c-.818 0-1.318-.642-1.318-1.68v-.009c0-1.038.5-1.681 1.318-1.681.821 0 1.309.634 1.309 1.681v.009c0 1.046-.488 1.68-1.309 1.68Zm3.186.563h.726v-2.786c0-.659.492-1.097 1.184-1.097.159 0 .296.017.447.042v-.705a2.525 2.525 0 0 0-.363-.029c-.609 0-1.031.275-1.202.747h-.066v-.668h-.726v4.496Zm7.124 0h.75v-6.018h-.746l-1.602 1.151v.793l1.531-1.11h.067v5.184Zm4.458-6.16c-1.214 0-2.106.872-2.106 2.073v.008c0 1.156.842 2.015 1.973 2.015.813 0 1.38-.438 1.601-.93h.08c0 .046 0 .096-.005.142-.046 1.255-.492 2.323-1.585 2.323-.608 0-1.03-.313-1.213-.818l-.017-.046h-.755l.013.055c.204.888.955 1.48 1.964 1.48 1.46 0 2.315-1.201 2.315-3.253v-.008c0-2.265-1.164-3.041-2.265-3.041Zm-.004 3.441c-.78 0-1.347-.575-1.347-1.376v-.009c0-.78.605-1.393 1.36-1.393.763 0 1.359.626 1.359 1.418v.005c0 .784-.592 1.355-1.372 1.355Zm2.961 4.25h.538l.655-2.373h-.83l-.363 2.373Zm5.118-1.531h3.895v-.675h-2.853v-.067l1.368-1.414c1.089-1.122 1.385-1.622 1.385-2.31v-.009c0-.972-.805-1.685-1.856-1.685-1.151 0-1.977.768-1.981 1.835l.008.005.718.004.004-.009c0-.709.48-1.18 1.201-1.18.709 0 1.139.476 1.139 1.109v.009c0 .525-.226.838-.993 1.668l-2.035 2.202v.517Zm7.169.142c1.331 0 2.131-1.213 2.131-3.149v-.008c0-1.935-.8-3.145-2.131-3.145-1.33 0-2.123 1.21-2.123 3.145v.008c0 1.936.793 3.149 2.123 3.149Zm0-.655c-.863 0-1.368-.959-1.368-2.494v-.008c0-1.535.505-2.486 1.368-2.486.864 0 1.377.951 1.377 2.486v.008c0 1.535-.513 2.494-1.377 2.494Zm3.366.513h3.895v-.675h-2.852v-.067l1.368-1.414c1.088-1.122 1.384-1.622 1.384-2.31v-.009c0-.972-.805-1.685-1.856-1.685-1.151 0-1.977.768-1.981 1.835l.009.005.717.004.004-.009c0-.709.48-1.18 1.201-1.18.709 0 1.139.476 1.139 1.109v.009c0 .525-.225.838-.993 1.668l-2.035 2.202v.517Zm5.155 0h3.895v-.675h-2.852v-.067l1.368-1.414c1.088-1.122 1.384-1.622 1.384-2.31v-.009c0-.972-.805-1.685-1.856-1.685-1.151 0-1.977.768-1.981 1.835l.009.005.717.004.004-.009c0-.709.48-1.18 1.201-1.18.709 0 1.139.476 1.139 1.109v.009c0 .525-.225.838-.993 1.668l-2.035 2.202v.517Z"/><path fill="#F3F3F3" d="M378.681 257.125h-50.847a2.848 2.848 0 0 0-2.848 2.847v12.153a2.848 2.848 0 0 0 2.848 2.847h50.847a2.847 2.847 0 0 0 2.847-2.847v-12.153a2.847 2.847 0 0 0-2.847-2.847Z"/><path fill="#282828" d="M332.936 269.714c1.742 0 2.784-1.051 2.784-2.579v-4.608h-.876v4.55c0 1.08-.691 1.829-1.908 1.829-1.216 0-1.917-.749-1.917-1.829v-4.55h-.876v4.608c0 1.528 1.051 2.579 2.793 2.579Zm4.458 1.586h.846v-2.579h.078c.287.56.915.92 1.635.92 1.333 0 2.199-1.066 2.199-2.71v-.01c0-1.635-.871-2.71-2.199-2.71-.73 0-1.314.345-1.635.929h-.078v-.837h-.846v6.997Zm2.364-2.408c-.953 0-1.537-.75-1.537-1.961v-.01c0-1.212.584-1.961 1.537-1.961.959 0 1.528.74 1.528 1.961v.01c0 1.221-.569 1.961-1.528 1.961Zm5.864.749c1.26 0 1.966-.676 2.18-1.625l.009-.054-.837.005-.009.029c-.195.584-.643.896-1.348.896-.934 0-1.538-.774-1.538-1.981v-.009c0-1.183.594-1.942 1.538-1.942.754 0 1.221.419 1.353.934l.004.015h.842l-.005-.029c-.155-.935-.919-1.669-2.194-1.669-1.47 0-2.404 1.06-2.404 2.691v.009c0 1.664.939 2.73 2.409 2.73Zm5.586 0c1.494 0 2.418-1.032 2.418-2.71v-.01c0-1.684-.924-2.71-2.418-2.71-1.494 0-2.419 1.026-2.419 2.71v.01c0 1.678.925 2.71 2.419 2.71Zm0-.749c-.993 0-1.553-.725-1.553-1.961v-.01c0-1.241.56-1.961 1.553-1.961.992 0 1.552.72 1.552 1.961v.01c0 1.236-.56 1.961-1.552 1.961Zm3.732.657h.846v-3.251c0-.739.521-1.338 1.207-1.338.662 0 1.09.404 1.09 1.027v3.562h.847v-3.372c0-.667.482-1.217 1.211-1.217.74 0 1.095.384 1.095 1.158v3.431h.847v-3.625c0-1.1-.599-1.713-1.669-1.713-.725 0-1.324.365-1.606.919h-.078c-.243-.545-.739-.919-1.45-.919-.686 0-1.182.326-1.416.89h-.078v-.798h-.846v5.246Zm9.118-6.258a.585.585 0 0 0 .584-.584.585.585 0 0 0-.584-.584.585.585 0 0 0 0 1.168Zm-.428 6.258h.847v-5.246h-.847v5.246Zm2.443 0h.847v-3.105c0-.919.53-1.484 1.367-1.484s1.226.453 1.226 1.397v3.192h.847v-3.397c0-1.245-.657-1.941-1.835-1.941-.773 0-1.265.326-1.528.88h-.077v-.788h-.847v5.246Zm7.98 1.849c1.43 0 2.336-.75 2.336-1.922v-5.173h-.847v.866h-.059c-.321-.593-.895-.958-1.634-.958-1.373 0-2.219 1.065-2.219 2.535v.01c0 1.469.842 2.52 2.199 2.52.72 0 1.314-.326 1.645-.905h.078v1.061c0 .773-.56 1.216-1.499 1.216-.754 0-1.221-.282-1.314-.681l-.005-.005h-.876l-.009.005c.131.861.939 1.431 2.204 1.431Zm-.039-2.871c-.973 0-1.518-.73-1.518-1.771v-.01c0-1.041.545-1.786 1.518-1.786.968 0 1.557.745 1.557 1.786v.01c0 1.041-.584 1.771-1.557 1.771Z"/><path stroke="#EBEBEB" stroke-width=".712" d="M17.084 283.158h375.833"/><path fill="#999" d="M29.24 301.056h.75v-6.019h-.75v6.019Zm2.194 0h.726v-2.661c0-.789.454-1.272 1.172-1.272.717 0 1.05.388 1.05 1.197v2.736h.726v-2.912c0-1.067-.563-1.664-1.572-1.664-.663 0-1.084.28-1.31.755h-.066v-.675h-.726v4.496Zm6.586.033c.141 0 .279-.017.42-.042v-.617a2.915 2.915 0 0 1-.333.017c-.467 0-.65-.213-.65-.743v-2.544h.984v-.6h-.985v-1.164h-.75v1.164h-.71v.6h.71v2.728c0 .859.388 1.201 1.314 1.201Zm3.274.046c1.059 0 1.701-.601 1.856-1.21l.008-.033h-.726l-.017.038c-.12.271-.496.558-1.105.558-.8 0-1.314-.542-1.334-1.472h3.236v-.283c0-1.343-.742-2.253-1.964-2.253s-2.015.951-2.015 2.34v.004c0 1.41.776 2.311 2.06 2.311Zm-.05-4.008c.663 0 1.155.421 1.23 1.309h-2.486c.08-.855.588-1.309 1.255-1.309Zm3.094 3.929h.726v-2.786c0-.659.492-1.097 1.184-1.097.159 0 .297.016.447.041v-.704a2.354 2.354 0 0 0-.363-.03c-.61 0-1.03.276-1.201.747h-.067v-.667h-.726v4.496Zm4.963.079c1.06 0 1.702-.601 1.856-1.21l.009-.033h-.726l-.017.038c-.12.271-.496.558-1.105.558-.8 0-1.314-.542-1.334-1.472h3.236v-.283c0-1.343-.742-2.253-1.965-2.253-1.222 0-2.014.951-2.014 2.34v.004c0 1.41.776 2.311 2.06 2.311Zm-.05-4.008c.663 0 1.156.421 1.23 1.309h-2.485c.08-.855.588-1.309 1.255-1.309Zm4.638 4.008c1.022 0 1.802-.555 1.802-1.356v-.008c0-.642-.409-1.009-1.255-1.214l-.693-.166c-.53-.13-.755-.322-.755-.626v-.008c0-.397.392-.672.926-.672.542 0 .893.246.989.601h.713c-.1-.734-.755-1.206-1.698-1.206-.955 0-1.672.563-1.672 1.31v.004c0 .647.38 1.014 1.222 1.214l.696.167c.555.133.785.346.785.65v.009c0 .408-.43.696-1.035.696-.575 0-.934-.246-1.055-.621h-.742c.083.742.771 1.226 1.772 1.226Zm4.484-.046c.142 0 .28-.017.421-.042v-.617a2.916 2.916 0 0 1-.334.017c-.467 0-.65-.213-.65-.743v-2.544h.984v-.6h-.984v-1.164h-.751v1.164h-.709v.6h.709v2.728c0 .859.388 1.201 1.314 1.201Zm3.52-.033h.788l.605-1.723h2.394l.605 1.723h.788l-2.219-6.019h-.742l-2.22 6.019Zm2.556-5.047h.067l.943 2.686h-1.952l.943-2.686Zm3.587 5.047h.726v-2.786c0-.634.446-1.147 1.034-1.147.568 0 .935.346.935.88v3.053h.725v-2.891c0-.571.413-1.042 1.039-1.042.634 0 .938.329.938.992v2.941h.726v-3.108c0-.942-.513-1.468-1.43-1.468-.622 0-1.135.313-1.377.789h-.067c-.208-.467-.634-.789-1.242-.789-.589 0-1.014.28-1.214.764h-.067v-.684h-.726v4.496Zm9.28.079c1.28 0 2.073-.884 2.073-2.323v-.009c0-1.443-.792-2.323-2.073-2.323-1.28 0-2.073.88-2.073 2.323v.009c0 1.439.793 2.323 2.073 2.323Zm0-.642c-.85 0-1.33-.622-1.33-1.681v-.009c0-1.063.48-1.68 1.33-1.68.851 0 1.33.617 1.33 1.68v.009c0 1.059-.479 1.681-1.33 1.681Zm4.705.642c.659 0 1.113-.271 1.335-.751h.066v.672h.726v-4.496h-.726v2.661c0 .788-.421 1.272-1.213 1.272-.718 0-1.01-.388-1.01-1.197v-2.736h-.725v2.911c0 1.063.525 1.664 1.547 1.664Zm3.482-.079h.726v-2.661c0-.789.455-1.272 1.172-1.272.717 0 1.051.388 1.051 1.197v2.736h.726v-2.912c0-1.067-.563-1.664-1.573-1.664-.663 0-1.084.28-1.31.755h-.066v-.675h-.726v4.496Zm6.586.033c.142 0 .28-.017.421-.042v-.617a2.914 2.914 0 0 1-.333.017c-.468 0-.651-.213-.651-.743v-2.544h.984v-.6h-.984v-1.164h-.75v1.164h-.71v.6h.71v2.728c0 .859.387 1.201 1.313 1.201Z"/><path fill="#282828" d="M31.699 311.706c-1.523 0-2.608 1.042-2.608 2.467v.01c0 1.333.944 2.316 2.292 2.316.963 0 1.576-.491 1.834-1.046h.097c0 .053-.005.107-.005.161-.053 1.342-.525 2.432-1.64 2.432-.617 0-1.05-.321-1.235-.812l-.015-.049h-1.236l.01.054c.224 1.075 1.187 1.839 2.477 1.839 1.766 0 2.832-1.401 2.832-3.766v-.01c0-2.53-1.304-3.596-2.803-3.596Zm-.005 3.83c-.798 0-1.377-.584-1.377-1.397v-.01c0-.783.618-1.401 1.392-1.401.778 0 1.386.628 1.386 1.431v.009c0 .793-.608 1.368-1.4 1.368Zm6.734 3.542c1.67 0 2.681-1.416 2.681-3.683v-.01c0-2.268-1.012-3.679-2.68-3.679-1.67 0-2.672 1.411-2.672 3.679v.01c0 2.267 1.002 3.683 2.671 3.683Zm0-1.017c-.895 0-1.406-1.002-1.406-2.666v-.01c0-1.664.511-2.657 1.406-2.657.896 0 1.416.993 1.416 2.657v.01c0 1.664-.52 2.666-1.416 2.666Zm6.628 1.017c1.669 0 2.68-1.416 2.68-3.683v-.01c0-2.268-1.011-3.679-2.68-3.679-1.67 0-2.672 1.411-2.672 3.679v.01c0 2.267 1.003 3.683 2.672 3.683Zm0-1.017c-.896 0-1.406-1.002-1.406-2.666v-.01c0-1.664.51-2.657 1.406-2.657.895 0 1.416.993 1.416 2.657v.01c0 1.664-.521 2.666-1.416 2.666Zm9.722 1.017c1.785 0 2.885-1.046 2.885-2.593v-4.604h-1.255v4.501c0 .969-.584 1.611-1.625 1.611-1.047 0-1.635-.642-1.635-1.611v-4.501h-1.256v4.604c0 1.547 1.11 2.593 2.886 2.593Zm7.05 0c1.684 0 2.74-.856 2.74-2.224v-.005c0-1.06-.618-1.654-2.097-1.965l-.755-.161c-.876-.185-1.23-.496-1.23-.993v-.004c0-.599.554-.964 1.333-.964.802-.005 1.323.385 1.41.929l.01.059h1.202l-.005-.063c-.087-1.129-1.056-1.981-2.613-1.981-1.518 0-2.598.847-2.598 2.102v.005c0 1.046.623 1.718 2.058 2.019l.755.156c.905.195 1.27.501 1.27 1.007V317c0 .604-.594 1.022-1.44 1.022-.891 0-1.519-.389-1.577-.978l-.005-.049h-1.217l.005.069c.088 1.211 1.124 2.014 2.754 2.014Zm4.15-.175h2.633c2.102 0 3.304-1.29 3.304-3.538v-.009c0-2.2-1.216-3.475-3.304-3.475H65.98v7.022Zm1.256-1.056v-4.91h1.212c1.377 0 2.19.896 2.19 2.438v.01c0 1.576-.794 2.462-2.19 2.462h-1.212Zm7.606 1.056h1.255v-5.966h2.165v-1.056h-5.58v1.056h2.16v5.966Z"/><path fill="#999" d="M328.295 301.056h.7v-4.596h.046l1.902 4.596h.634l1.902-4.596h.046v4.596h.701v-6.019h-.872l-2.06 5.022h-.067l-2.061-5.022h-.871v6.019Zm8.608.079c.605 0 1.076-.263 1.36-.742h.067v.663h.725v-3.078c0-.935-.613-1.498-1.71-1.498-.959 0-1.643.476-1.76 1.181l-.004.025h.726l.004-.013c.117-.35.471-.55 1.009-.55.672 0 1.01.3 1.01.855v.408l-1.289.08c-1.047.062-1.639.525-1.639 1.326v.008c0 .818.646 1.335 1.501 1.335Zm-.759-1.351v-.009c0-.446.3-.688.984-.73l1.202-.075v.409c0 .642-.538 1.126-1.277 1.126-.521 0-.909-.267-.909-.721Zm4.454 2.848c.797 0 1.168-.292 1.539-1.301l1.756-4.771h-.763l-1.23 3.699h-.067l-1.235-3.699h-.775l1.664 4.5-.084.267c-.162.517-.413.705-.825.705a1.8 1.8 0 0 1-.301-.021v.596c.1.017.226.025.321.025Zm8.125-1.576h.751v-6.019h-.747l-1.601 1.151v.793l1.53-1.11h.067v5.185Zm4.459-6.161c-1.214 0-2.107.872-2.107 2.073v.009c0 1.155.843 2.014 1.973 2.014.813 0 1.381-.438 1.602-.93h.079c0 .046 0 .096-.004.142-.046 1.255-.492 2.323-1.585 2.323-.609 0-1.03-.313-1.214-.817l-.017-.046h-.754l.012.054c.204.888.955 1.48 1.964 1.48 1.46 0 2.315-1.201 2.315-3.253v-.008c0-2.265-1.163-3.041-2.264-3.041Zm-.005 3.441c-.78 0-1.347-.575-1.347-1.376v-.008c0-.78.605-1.393 1.36-1.393.763 0 1.36.625 1.36 1.418v.004c0 .784-.593 1.355-1.373 1.355Zm2.962 4.25h.538l.654-2.373h-.83l-.362 2.373Zm5.117-1.53h3.896v-.676h-2.853v-.067l1.368-1.414c1.088-1.122 1.384-1.622 1.384-2.31v-.009c0-.971-.805-1.685-1.856-1.685-1.151 0-1.976.768-1.981 1.836l.009.004.717.004.004-.008c0-.709.48-1.181 1.201-1.181.709 0 1.139.476 1.139 1.11v.008c0 .526-.225.838-.993 1.668l-2.035 2.202v.518Zm7.17.141c1.33 0 2.131-1.213 2.131-3.148v-.009c0-1.935-.801-3.145-2.131-3.145-1.331 0-2.123 1.21-2.123 3.145v.009c0 1.935.792 3.148 2.123 3.148Zm0-.654c-.864 0-1.368-.96-1.368-2.494v-.009c0-1.535.504-2.486 1.368-2.486.863 0 1.376.951 1.376 2.486v.009c0 1.534-.513 2.494-1.376 2.494Zm3.365.513h3.896v-.676h-2.853v-.067l1.368-1.414c1.089-1.122 1.385-1.622 1.385-2.31v-.009c0-.971-.805-1.685-1.856-1.685-1.151 0-1.977.768-1.981 1.836l.008.004.717.004.005-.008c0-.709.479-1.181 1.201-1.181.709 0 1.138.476 1.138 1.11v.008c0 .526-.225.838-.992 1.668l-2.036 2.202v.518Zm5.155 0h3.896v-.676h-2.853v-.067l1.368-1.414c1.089-1.122 1.385-1.622 1.385-2.31v-.009c0-.971-.805-1.685-1.856-1.685-1.151 0-1.977.768-1.981 1.836l.008.004.717.004.005-.008c0-.709.479-1.181 1.201-1.181.709 0 1.138.476 1.138 1.11v.008c0 .526-.225.838-.992 1.668l-2.036 2.202v.518Z"/><path fill="#F3F3F3" d="M378.681 306.479h-50.847a2.848 2.848 0 0 0-2.848 2.847v12.153a2.848 2.848 0 0 0 2.848 2.847h50.847a2.847 2.847 0 0 0 2.847-2.847v-12.153a2.847 2.847 0 0 0-2.847-2.847Z"/><path fill="#282828" d="M332.936 319.068c1.742 0 2.784-1.051 2.784-2.579v-4.608h-.876v4.55c0 1.08-.691 1.83-1.908 1.83-1.216 0-1.917-.75-1.917-1.83v-4.55h-.876v4.608c0 1.528 1.051 2.579 2.793 2.579Zm4.458 1.587h.846v-2.579h.078c.287.559.915.919 1.635.919 1.333 0 2.199-1.065 2.199-2.71v-.01c0-1.635-.871-2.71-2.199-2.71-.73 0-1.314.345-1.635.929h-.078v-.837h-.846v6.998Zm2.364-2.409c-.953 0-1.537-.749-1.537-1.961v-.01c0-1.211.584-1.961 1.537-1.961.959 0 1.528.74 1.528 1.961v.01c0 1.221-.569 1.961-1.528 1.961Zm5.864.749c1.26 0 1.966-.676 2.18-1.625l.009-.053-.837.004-.009.03c-.195.584-.643.895-1.348.895-.934 0-1.538-.774-1.538-1.98v-.01c0-1.183.594-1.942 1.538-1.942.754 0 1.221.419 1.353.935l.004.014h.842l-.005-.029c-.155-.934-.919-1.669-2.194-1.669-1.47 0-2.404 1.061-2.404 2.691v.01c0 1.664.939 2.729 2.409 2.729Zm5.586 0c1.494 0 2.418-1.031 2.418-2.71v-.01c0-1.683-.924-2.71-2.418-2.71-1.494 0-2.419 1.027-2.419 2.71v.01c0 1.679.925 2.71 2.419 2.71Zm0-.749c-.993 0-1.553-.725-1.553-1.961v-.01c0-1.241.56-1.961 1.553-1.961.992 0 1.552.72 1.552 1.961v.01c0 1.236-.56 1.961-1.552 1.961Zm3.732.657h.846v-3.251c0-.739.521-1.338 1.207-1.338.662 0 1.09.404 1.09 1.027v3.562h.847v-3.372c0-.667.482-1.217 1.211-1.217.74 0 1.095.385 1.095 1.158v3.431h.847v-3.625c0-1.1-.599-1.713-1.669-1.713-.725 0-1.324.365-1.606.92h-.078c-.243-.545-.739-.92-1.45-.92-.686 0-1.182.326-1.416.89h-.078v-.798h-.846v5.246Zm9.118-6.258a.585.585 0 0 0 0-1.167.584.584 0 0 0 0 1.167Zm-.428 6.258h.847v-5.246h-.847v5.246Zm2.443 0h.847v-3.105c0-.919.53-1.484 1.367-1.484s1.226.453 1.226 1.397v3.192h.847v-3.397c0-1.245-.657-1.941-1.835-1.941-.773 0-1.265.326-1.528.881h-.077v-.789h-.847v5.246Zm7.98 1.849c1.43 0 2.336-.749 2.336-1.922v-5.173h-.847v.867h-.059c-.321-.594-.895-.959-1.634-.959-1.373 0-2.219 1.066-2.219 2.535v.01c0 1.469.842 2.52 2.199 2.52.72 0 1.314-.326 1.645-.905h.078v1.061c0 .774-.56 1.217-1.499 1.217-.754 0-1.221-.283-1.314-.682l-.005-.005h-.876l-.009.005c.131.862.939 1.431 2.204 1.431Zm-.039-2.871c-.973 0-1.518-.73-1.518-1.771v-.01c0-1.041.545-1.786 1.518-1.786.968 0 1.557.745 1.557 1.786v.01c0 1.041-.584 1.771-1.557 1.771Z"/><path stroke="#EBEBEB" stroke-width=".712" d="M17.084 332.512h375.833"/><path fill="#999" d="M29.24 350.41h.75v-6.019h-.75v6.019Zm2.194 0h.726v-2.661c0-.789.454-1.272 1.172-1.272.717 0 1.05.388 1.05 1.197v2.736h.726v-2.912c0-1.067-.563-1.664-1.572-1.664-.663 0-1.084.28-1.31.755h-.066v-.675h-.726v4.496Zm6.586.033c.141 0 .279-.017.42-.042v-.617a2.915 2.915 0 0 1-.333.017c-.467 0-.65-.213-.65-.743v-2.544h.984v-.6h-.985v-1.164h-.75v1.164h-.71v.6h.71v2.728c0 .859.388 1.201 1.314 1.201Zm3.274.046c1.059 0 1.701-.601 1.856-1.21l.008-.033h-.726l-.017.038c-.12.271-.496.558-1.105.558-.8 0-1.314-.542-1.334-1.472h3.236v-.283c0-1.343-.742-2.253-1.964-2.253s-2.015.951-2.015 2.34v.004c0 1.41.776 2.311 2.06 2.311Zm-.05-4.008c.663 0 1.155.421 1.23 1.309h-2.486c.08-.855.588-1.309 1.255-1.309Zm3.094 3.929h.726v-2.786c0-.659.492-1.097 1.184-1.097.159 0 .297.016.447.041v-.704a2.354 2.354 0 0 0-.363-.03c-.61 0-1.03.276-1.201.747h-.067v-.667h-.726v4.496Zm4.963.079c1.06 0 1.702-.601 1.856-1.21l.009-.033h-.726l-.017.038c-.12.271-.496.558-1.105.558-.8 0-1.314-.542-1.334-1.472h3.236v-.283c0-1.343-.742-2.253-1.965-2.253-1.222 0-2.014.951-2.014 2.34v.004c0 1.41.776 2.311 2.06 2.311Zm-.05-4.008c.663 0 1.156.421 1.23 1.309h-2.485c.08-.855.588-1.309 1.255-1.309Zm4.638 4.008c1.022 0 1.802-.555 1.802-1.356v-.008c0-.642-.409-1.009-1.255-1.214l-.693-.166c-.53-.13-.755-.322-.755-.626v-.008c0-.397.392-.672.926-.672.542 0 .893.246.989.601h.713c-.1-.734-.755-1.206-1.698-1.206-.955 0-1.672.563-1.672 1.31v.004c0 .647.38 1.014 1.222 1.214l.696.167c.555.133.785.346.785.65v.009c0 .408-.43.696-1.035.696-.575 0-.934-.246-1.055-.621h-.742c.083.742.771 1.226 1.772 1.226Zm4.484-.046c.142 0 .28-.017.421-.042v-.617a2.916 2.916 0 0 1-.334.017c-.467 0-.65-.213-.65-.743v-2.544h.984v-.6h-.984v-1.164h-.751v1.164h-.709v.6h.709v2.728c0 .859.388 1.201 1.314 1.201Zm3.52-.033h.788l.605-1.723h2.394l.605 1.723h.788l-2.219-6.019h-.742l-2.22 6.019Zm2.556-5.047h.067l.943 2.686h-1.952l.943-2.686Zm3.587 5.047h.726v-2.786c0-.634.446-1.147 1.034-1.147.568 0 .935.346.935.88v3.053h.725v-2.891c0-.571.413-1.042 1.039-1.042.634 0 .938.329.938.992v2.941h.726v-3.108c0-.942-.513-1.468-1.43-1.468-.622 0-1.135.313-1.377.789h-.067c-.208-.467-.634-.789-1.242-.789-.589 0-1.014.28-1.214.764h-.067v-.684h-.726v4.496Zm9.28.079c1.28 0 2.073-.884 2.073-2.323v-.009c0-1.443-.792-2.323-2.073-2.323-1.28 0-2.073.88-2.073 2.323v.009c0 1.439.793 2.323 2.073 2.323Zm0-.642c-.85 0-1.33-.622-1.33-1.681v-.009c0-1.063.48-1.68 1.33-1.68.851 0 1.33.617 1.33 1.68v.009c0 1.059-.479 1.681-1.33 1.681Zm4.705.642c.659 0 1.113-.271 1.335-.751h.066v.672h.726v-4.496h-.726v2.661c0 .788-.421 1.272-1.213 1.272-.718 0-1.01-.388-1.01-1.197v-2.736h-.725v2.911c0 1.063.525 1.664 1.547 1.664Zm3.482-.079h.726v-2.661c0-.789.455-1.272 1.172-1.272.717 0 1.051.388 1.051 1.197v2.736h.726v-2.912c0-1.067-.563-1.664-1.573-1.664-.663 0-1.084.28-1.31.755h-.066v-.675h-.726v4.496Zm6.586.033c.142 0 .28-.017.421-.042v-.617a2.914 2.914 0 0 1-.333.017c-.468 0-.651-.213-.651-.743v-2.544h.984v-.6h-.984v-1.164h-.75v1.164h-.71v.6h.71v2.728c0 .859.387 1.201 1.313 1.201Z"/><path fill="#282828" d="M31.699 361.06c-1.523 0-2.608 1.042-2.608 2.467v.01c0 1.333.944 2.316 2.292 2.316.963 0 1.576-.491 1.834-1.046h.097c0 .053-.005.107-.005.161-.053 1.342-.525 2.432-1.64 2.432-.617 0-1.05-.321-1.235-.812l-.015-.049h-1.236l.01.054c.224 1.075 1.187 1.839 2.477 1.839 1.766 0 2.832-1.401 2.832-3.766v-.01c0-2.53-1.304-3.596-2.803-3.596Zm-.005 3.83c-.798 0-1.377-.584-1.377-1.397v-.01c0-.783.618-1.401 1.392-1.401.778 0 1.386.628 1.386 1.431v.009c0 .793-.608 1.368-1.4 1.368Zm6.734 3.542c1.67 0 2.681-1.416 2.681-3.683v-.01c0-2.268-1.012-3.679-2.68-3.679-1.67 0-2.672 1.411-2.672 3.679v.01c0 2.267 1.002 3.683 2.671 3.683Zm0-1.017c-.895 0-1.406-1.002-1.406-2.666v-.01c0-1.664.511-2.657 1.406-2.657.896 0 1.416.993 1.416 2.657v.01c0 1.664-.52 2.666-1.416 2.666Zm6.628 1.017c1.669 0 2.68-1.416 2.68-3.683v-.01c0-2.268-1.011-3.679-2.68-3.679-1.67 0-2.672 1.411-2.672 3.679v.01c0 2.267 1.003 3.683 2.672 3.683Zm0-1.017c-.896 0-1.406-1.002-1.406-2.666v-.01c0-1.664.51-2.657 1.406-2.657.895 0 1.416.993 1.416 2.657v.01c0 1.664-.521 2.666-1.416 2.666Zm9.722 1.017c1.785 0 2.885-1.046 2.885-2.593v-4.604h-1.255v4.501c0 .969-.584 1.611-1.625 1.611-1.047 0-1.635-.642-1.635-1.611v-4.501h-1.256v4.604c0 1.547 1.11 2.593 2.886 2.593Zm7.05 0c1.684 0 2.74-.856 2.74-2.224v-.005c0-1.06-.618-1.654-2.097-1.965l-.755-.161c-.876-.185-1.23-.496-1.23-.993v-.004c0-.599.554-.964 1.333-.964.802-.005 1.323.385 1.41.93l.01.058h1.202l-.005-.063c-.087-1.129-1.056-1.981-2.613-1.981-1.518 0-2.598.847-2.598 2.102v.005c0 1.046.623 1.718 2.058 2.019l.755.156c.905.195 1.27.501 1.27 1.007v.005c0 .604-.594 1.022-1.44 1.022-.891 0-1.519-.389-1.577-.978l-.005-.049h-1.217l.005.069c.088 1.211 1.124 2.014 2.754 2.014Zm4.15-.175h2.633c2.102 0 3.304-1.29 3.304-3.538v-.009c0-2.2-1.216-3.475-3.304-3.475H65.98v7.022Zm1.256-1.056v-4.91h1.212c1.377 0 2.19.896 2.19 2.438v.01c0 1.576-.794 2.462-2.19 2.462h-1.212Zm7.606 1.056h1.255v-5.966h2.165v-1.056h-5.58v1.056h2.16v5.966Z"/><path fill="#999" d="M29.24 390.799h.75v-2.148h1.52c1.13 0 1.93-.797 1.93-1.94v-.008c0-1.143-.8-1.923-1.93-1.923h-2.27v6.019Zm2.077-5.351c.86 0 1.356.471 1.356 1.263v.009c0 .792-.497 1.263-1.356 1.263h-1.326v-2.535h1.326Zm3.262 5.351h.725v-2.786c0-.659.493-1.097 1.185-1.097.158 0 .296.016.446.041v-.705a2.513 2.513 0 0 0-.363-.029c-.609 0-1.03.276-1.2.747h-.068v-.667h-.725v4.496Zm3.637-5.364a.502.502 0 0 0 0-1.001.502.502 0 0 0 0 1.001Zm-.367 5.364h.725v-4.496h-.725v4.496Zm2.093 0h.726v-2.661c0-.789.455-1.272 1.172-1.272.717 0 1.051.387 1.051 1.197v2.736h.726v-2.912c0-1.067-.563-1.664-1.573-1.664-.663 0-1.084.28-1.31.755h-.066v-.675h-.726v4.496Zm6.828.079c1.08 0 1.685-.58 1.868-1.393l.009-.046-.718.004-.008.025c-.167.501-.55.768-1.155.768-.801 0-1.318-.664-1.318-1.698v-.008c0-1.014.508-1.664 1.318-1.664.646 0 1.047.358 1.16.8l.003.013h.722l-.004-.025c-.134-.801-.789-1.431-1.881-1.431-1.26 0-2.06.91-2.06 2.307v.008c0 1.426.804 2.34 2.064 2.34Zm3.324-5.443a.502.502 0 0 0 0-1.001.502.502 0 0 0 0 1.001Zm-.367 5.364h.726v-4.496h-.726v4.496Zm2.094 1.501h.725v-2.21h.067c.246.479.784.788 1.401.788 1.143 0 1.886-.914 1.886-2.323v-.009c0-1.401-.747-2.323-1.886-2.323-.625 0-1.126.296-1.401.797h-.067v-.717h-.725v5.997Zm2.026-2.064c-.817 0-1.317-.643-1.317-1.681v-.009c0-1.038.5-1.68 1.317-1.68.822 0 1.31.634 1.31 1.68v.009c0 1.047-.488 1.681-1.31 1.681Zm4.422.642c.604 0 1.075-.263 1.36-.743h.066v.664h.726v-3.078c0-.935-.614-1.498-1.71-1.498-.96 0-1.644.476-1.76 1.181l-.005.025h.726l.004-.013c.117-.35.471-.55 1.01-.55.671 0 1.009.3 1.009.855v.408l-1.289.08c-1.047.062-1.639.525-1.639 1.326v.008c0 .818.646 1.335 1.502 1.335Zm-.76-1.351v-.009c0-.446.3-.688.985-.73l1.2-.075v.409c0 .642-.537 1.126-1.275 1.126-.522 0-.91-.267-.91-.721Zm4.28 1.272h.725v-6.282h-.725v6.282Zm4.612 0h3.654v-.676h-2.903v-5.343h-.75v6.019Zm6.39.079c1.06 0 1.702-.601 1.856-1.21l.008-.033h-.725l-.017.037c-.121.272-.496.559-1.105.559-.801 0-1.314-.542-1.335-1.472h3.237v-.284c0-1.342-.743-2.252-1.965-2.252s-2.014.951-2.014 2.34v.004c0 1.41.775 2.311 2.06 2.311Zm-.05-4.008c.663 0 1.155.421 1.23 1.309h-2.485c.079-.855.588-1.309 1.255-1.309Zm3.395 3.929h.726v-3.896h1.022v-.6h-1.022v-.48c0-.492.208-.747.725-.747.13 0 .25.005.338.021v-.58a2.538 2.538 0 0 0-.484-.041c-.855 0-1.305.429-1.305 1.326v.501h-.747v.6h.747v3.896Zm4.392.033c.141 0 .28-.017.42-.042v-.617a3.16 3.16 0 0 1-.333.017c-.467 0-.65-.213-.65-.743v-2.544h.984v-.6h-.984v-1.164h-.751v1.164h-.71v.6h.71v2.728c0 .859.388 1.201 1.314 1.201Z"/><path fill="#282828" d="M30.925 408.646h1.256v-7.022h-1.25l-1.835 1.29v1.182l1.747-1.236h.082v5.786Zm5.78.175c1.67 0 2.682-1.416 2.682-3.684v-.009c0-2.268-1.012-3.679-2.681-3.679-1.67 0-2.672 1.411-2.672 3.679v.009c0 2.268 1.003 3.684 2.672 3.684Zm0-1.017c-.894 0-1.405-1.002-1.405-2.667v-.009c0-1.664.51-2.657 1.406-2.657.895 0 1.416.993 1.416 2.657v.009c0 1.665-.52 2.667-1.416 2.667Zm6.628 1.017c1.67 0 2.681-1.416 2.681-3.684v-.009c0-2.268-1.012-3.679-2.68-3.679-1.67 0-2.672 1.411-2.672 3.679v.009c0 2.268 1.002 3.684 2.671 3.684Zm0-1.017c-.895 0-1.406-1.002-1.406-2.667v-.009c0-1.664.51-2.657 1.406-2.657.895 0 1.416.993 1.416 2.657v.009c0 1.665-.52 2.667-1.416 2.667Zm3.43 2.696h.828l.846-2.925h-1.25l-.423 2.925Zm5.572-1.679c1.669 0 2.681-1.416 2.681-3.684v-.009c0-2.268-1.012-3.679-2.681-3.679s-2.671 1.411-2.671 3.679v.009c0 2.268 1.002 3.684 2.671 3.684Zm0-1.017c-.895 0-1.406-1.002-1.406-2.667v-.009c0-1.664.51-2.657 1.406-2.657.895 0 1.416.993 1.416 2.657v.009c0 1.665-.52 2.667-1.416 2.667Zm6.627 1.017c1.67 0 2.681-1.416 2.681-3.684v-.009c0-2.268-1.012-3.679-2.68-3.679-1.67 0-2.672 1.411-2.672 3.679v.009c0 2.268 1.002 3.684 2.671 3.684Zm0-1.017c-.895 0-1.406-1.002-1.406-2.667v-.009c0-1.664.511-2.657 1.406-2.657.896 0 1.416.993 1.416 2.657v.009c0 1.665-.52 2.667-1.416 2.667Zm6.628 1.017c1.669 0 2.68-1.416 2.68-3.684v-.009c0-2.268-1.011-3.679-2.68-3.679-1.67 0-2.672 1.411-2.672 3.679v.009c0 2.268 1.003 3.684 2.672 3.684Zm0-1.017c-.896 0-1.407-1.002-1.407-2.667v-.009c0-1.664.511-2.657 1.407-2.657.895 0 1.416.993 1.416 2.657v.009c0 1.665-.521 2.667-1.416 2.667Zm9.722 1.017c1.785 0 2.885-1.046 2.885-2.594v-4.603h-1.255v4.501c0 .969-.584 1.611-1.625 1.611-1.047 0-1.635-.642-1.635-1.611v-4.501h-1.256v4.603c0 1.548 1.11 2.594 2.886 2.594Zm7.05 0c1.684 0 2.74-.856 2.74-2.224v-.005c0-1.06-.618-1.654-2.098-1.965l-.754-.161c-.876-.185-1.23-.496-1.23-.993v-.005c0-.598.554-.963 1.333-.963.802-.005 1.323.384 1.41.929l.01.059h1.202l-.005-.063c-.087-1.129-1.056-1.981-2.613-1.981-1.518 0-2.598.847-2.598 2.102v.005c0 1.046.623 1.718 2.058 2.019l.755.156c.904.195 1.27.501 1.27 1.007v.005c0 .604-.594 1.022-1.44 1.022-.891 0-1.519-.389-1.577-.978l-.005-.049h-1.217l.005.068c.088 1.212 1.124 2.015 2.754 2.015Zm4.15-.175h2.633c2.102 0 3.304-1.29 3.304-3.538v-.009c0-2.2-1.216-3.475-3.304-3.475h-2.632v7.022Zm1.256-1.056v-4.91h1.212c1.377 0 2.19.896 2.19 2.438v.01c0 1.576-.794 2.462-2.19 2.462h-1.212Zm7.606 1.056h1.255v-5.966h2.165v-1.056h-5.58v1.056h2.16v5.966Z"/><path fill="#999" d="M170.178 390.799h.75v-2.148h1.518c1.131 0 1.932-.797 1.932-1.94v-.008c0-1.143-.801-1.923-1.932-1.923h-2.268v6.019Zm2.077-5.351c.859 0 1.355.471 1.355 1.263v.009c0 .792-.496 1.263-1.355 1.263h-1.327v-2.535h1.327Zm3.261 5.351h.726v-2.786c0-.659.492-1.097 1.184-1.097.159 0 .296.016.447.041v-.705a2.525 2.525 0 0 0-.363-.029c-.609 0-1.03.276-1.201.747h-.067v-.667h-.726v4.496Zm3.637-5.364a.501.501 0 0 0 0-1.001.502.502 0 0 0 0 1.001Zm-.367 5.364h.726v-4.496h-.726v4.496Zm2.094 0h.725v-2.661c0-.789.455-1.272 1.172-1.272.718 0 1.051.387 1.051 1.197v2.736h.726v-2.912c0-1.067-.563-1.664-1.572-1.664-.663 0-1.085.28-1.31.755h-.067v-.675h-.725v4.496Zm6.827.079c1.08 0 1.685-.58 1.869-1.393l.008-.046-.717.004-.009.025c-.167.501-.55.768-1.155.768-.801 0-1.318-.664-1.318-1.698v-.008c0-1.014.509-1.664 1.318-1.664.646 0 1.047.358 1.159.8l.005.013h.721l-.004-.025c-.133-.801-.788-1.431-1.881-1.431-1.26 0-2.06.91-2.06 2.307v.008c0 1.426.805 2.34 2.064 2.34Zm3.324-5.443a.502.502 0 0 0 0-1.001.502.502 0 0 0 0 1.001Zm-.367 5.364h.726v-4.496h-.726v4.496Zm2.094 1.501h.726v-2.21h.066c.246.479.784.788 1.402.788 1.143 0 1.885-.914 1.885-2.323v-.009c0-1.401-.747-2.323-1.885-2.323-.626 0-1.126.296-1.402.797h-.066v-.717h-.726v5.997Zm2.027-2.064c-.818 0-1.318-.643-1.318-1.681v-.009c0-1.038.5-1.68 1.318-1.68.822 0 1.31.634 1.31 1.68v.009c0 1.047-.488 1.681-1.31 1.681Zm4.421.642c.605 0 1.076-.263 1.36-.743h.066v.664h.726v-3.078c0-.935-.613-1.498-1.71-1.498-.959 0-1.643.476-1.76 1.181l-.004.025h.725l.005-.013c.116-.35.471-.55 1.009-.55.671 0 1.009.3 1.009.855v.408l-1.288.08c-1.047.062-1.64.525-1.64 1.326v.008c0 .818.647 1.335 1.502 1.335Zm-.759-1.351v-.009c0-.446.3-.688.984-.73l1.201-.075v.409c0 .642-.538 1.126-1.276 1.126-.521 0-.909-.267-.909-.721Zm4.279 1.272h.726v-6.282h-.726v6.282Zm4.613 0h.751v-2.148h1.518c1.13 0 1.931-.797 1.931-1.94v-.008c0-1.143-.801-1.923-1.931-1.923h-2.269v6.019Zm2.077-5.351c.859 0 1.355.471 1.355 1.263v.009c0 .792-.496 1.263-1.355 1.263h-1.326v-2.535h1.326Zm4.329 5.43c.605 0 1.076-.263 1.36-.743h.066v.664h.726v-3.078c0-.935-.613-1.498-1.71-1.498-.959 0-1.643.476-1.76 1.181l-.004.025h.726l.004-.013c.117-.35.471-.55 1.009-.55.672 0 1.009.3 1.009.855v.408l-1.288.08c-1.047.062-1.639.525-1.639 1.326v.008c0 .818.646 1.335 1.501 1.335Zm-.759-1.351v-.009c0-.446.3-.688.984-.73l1.201-.075v.409c0 .642-.538 1.126-1.276 1.126-.521 0-.909-.267-.909-.721Zm4.621-4.092a.502.502 0 0 0 .501-.5.502.502 0 1 0-.501.5Zm-.367 5.364h.726v-4.496h-.726v4.496Zm3.754.079c.625 0 1.126-.296 1.401-.797h.067v.718h.726v-6.282h-.726v2.495h-.067c-.246-.48-.784-.789-1.401-.789-1.143 0-1.885.914-1.885 2.323v.009c0 1.401.746 2.323 1.885 2.323Zm.167-.642c-.822 0-1.31-.634-1.31-1.681v-.009c0-1.046.488-1.68 1.31-1.68.817 0 1.318.642 1.318 1.68v.009c0 1.038-.501 1.681-1.318 1.681Zm-49.298 18.41h1.255v-7.022h-1.251l-1.834 1.29v1.182l1.747-1.236h.083v5.786Zm5.78.175c1.669 0 2.681-1.416 2.681-3.684v-.009c0-2.268-1.012-3.679-2.681-3.679s-2.671 1.411-2.671 3.679v.009c0 2.268 1.002 3.684 2.671 3.684Zm0-1.017c-.895 0-1.406-1.002-1.406-2.667v-.009c0-1.664.511-2.657 1.406-2.657.896 0 1.416.993 1.416 2.657v.009c0 1.665-.52 2.667-1.416 2.667Zm3.431 2.696h.827l.846-2.925h-1.25l-.423 2.925Zm5.571-1.679c1.669 0 2.681-1.416 2.681-3.684v-.009c0-2.268-1.012-3.679-2.681-3.679s-2.671 1.411-2.671 3.679v.009c0 2.268 1.002 3.684 2.671 3.684Zm0-1.017c-.895 0-1.406-1.002-1.406-2.667v-.009c0-1.664.511-2.657 1.406-2.657.895 0 1.416.993 1.416 2.657v.009c0 1.665-.521 2.667-1.416 2.667Zm6.627 1.017c1.669 0 2.681-1.416 2.681-3.684v-.009c0-2.268-1.012-3.679-2.681-3.679s-2.671 1.411-2.671 3.679v.009c0 2.268 1.002 3.684 2.671 3.684Zm0-1.017c-.895 0-1.406-1.002-1.406-2.667v-.009c0-1.664.511-2.657 1.406-2.657.896 0 1.416.993 1.416 2.657v.009c0 1.665-.52 2.667-1.416 2.667Zm6.628 1.017c1.669 0 2.681-1.416 2.681-3.684v-.009c0-2.268-1.012-3.679-2.681-3.679s-2.672 1.411-2.672 3.679v.009c0 2.268 1.003 3.684 2.672 3.684Zm0-1.017c-.896 0-1.407-1.002-1.407-2.667v-.009c0-1.664.511-2.657 1.407-2.657.895 0 1.416.993 1.416 2.657v.009c0 1.665-.521 2.667-1.416 2.667Zm9.722 1.017c1.785 0 2.885-1.046 2.885-2.594v-4.603h-1.255v4.501c0 .969-.584 1.611-1.626 1.611-1.046 0-1.634-.642-1.634-1.611v-4.501h-1.256v4.603c0 1.548 1.11 2.594 2.886 2.594Zm7.05 0c1.684 0 2.74-.856 2.74-2.224v-.005c0-1.06-.618-1.654-2.097-1.965l-.755-.161c-.876-.185-1.231-.496-1.231-.993v-.005c0-.598.555-.963 1.334-.963.802-.005 1.323.384 1.411.929l.009.059h1.202l-.005-.063c-.087-1.129-1.056-1.981-2.613-1.981-1.518 0-2.598.847-2.598 2.102v.005c0 1.046.623 1.718 2.058 2.019l.754.156c.906.195 1.27.501 1.27 1.007v.005c0 .604-.593 1.022-1.44 1.022-.89 0-1.518-.389-1.576-.978l-.005-.049h-1.217l.005.068c.088 1.212 1.124 2.015 2.754 2.015Zm4.151-.175h2.632c2.102 0 3.304-1.29 3.304-3.538v-.009c0-2.2-1.216-3.475-3.304-3.475h-2.632v7.022Zm1.255-1.056v-4.91h1.212c1.377 0 2.189.896 2.189 2.438v.01c0 1.576-.793 2.462-2.189 2.462h-1.212Zm7.606 1.056h1.255v-5.966h2.165v-1.056h-5.581v1.056h2.161v5.966Zm101.9-58.095c1.113 0 1.772-.675 1.772-1.814v-4.346h-.751v4.338c0 .734-.358 1.13-1.026 1.13-.596 0-.892-.379-.938-.834l-.004-.042h-.751l.004.059c.063.863.651 1.509 1.694 1.509Zm4.721-.062c.659 0 1.113-.271 1.334-.751h.067v.672h.726v-4.496h-.726v2.661c0 .788-.421 1.272-1.214 1.272-.717 0-1.009-.388-1.009-1.197v-2.736h-.726v2.911c0 1.063.526 1.664 1.548 1.664Zm3.482-.079h.726v-2.661c0-.789.455-1.272 1.172-1.272.717 0 1.051.388 1.051 1.197v2.736h.726v-2.912c0-1.067-.563-1.664-1.573-1.664-.663 0-1.084.28-1.309.755h-.067v-.675h-.726v4.496Zm8.859 0h.751v-6.019h-.747l-1.601 1.151v.793l1.53-1.11h.067v5.185Zm4.459-6.161c-1.214 0-2.107.872-2.107 2.073v.009c0 1.155.843 2.014 1.973 2.014.813 0 1.381-.438 1.602-.93h.079c0 .046 0 .096-.004.142-.046 1.255-.492 2.323-1.585 2.323-.609 0-1.03-.313-1.214-.817l-.017-.046h-.754l.012.054c.204.888.955 1.48 1.964 1.48 1.46 0 2.315-1.201 2.315-3.253v-.008c0-2.265-1.163-3.041-2.264-3.041Zm-.005 3.441c-.78 0-1.347-.575-1.347-1.376v-.008c0-.78.605-1.393 1.36-1.393.763 0 1.36.625 1.36 1.418v.004c0 .784-.593 1.355-1.373 1.355Zm2.962 4.25h.538l.654-2.373h-.83l-.362 2.373Zm5.117-1.53h3.896v-.676h-2.853v-.067l1.368-1.414c1.088-1.122 1.384-1.622 1.384-2.31v-.009c0-.971-.805-1.685-1.856-1.685-1.151 0-1.976.768-1.981 1.836l.009.004.717.004.004-.008c0-.709.48-1.181 1.201-1.181.709 0 1.139.476 1.139 1.11v.008c0 .526-.225.838-.993 1.668l-2.035 2.202v.518Zm7.17.141c1.33 0 2.131-1.213 2.131-3.148v-.009c0-1.935-.801-3.145-2.131-3.145-1.331 0-2.123 1.21-2.123 3.145v.009c0 1.935.792 3.148 2.123 3.148Zm0-.654c-.864 0-1.368-.96-1.368-2.494v-.009c0-1.535.504-2.486 1.368-2.486.863 0 1.376.951 1.376 2.486v.009c0 1.534-.513 2.494-1.376 2.494Zm3.365.513h3.896v-.676h-2.853v-.067l1.368-1.414c1.089-1.122 1.385-1.622 1.385-2.31v-.009c0-.971-.805-1.685-1.856-1.685-1.151 0-1.977.768-1.981 1.836l.008.004.717.004.005-.008c0-.709.479-1.181 1.201-1.181.709 0 1.138.476 1.138 1.11v.008c0 .526-.225.838-.992 1.668l-2.036 2.202v.518Zm5.155 0h3.896v-.676h-2.853v-.067l1.368-1.414c1.089-1.122 1.385-1.622 1.385-2.31v-.009c0-.971-.805-1.685-1.856-1.685-1.151 0-1.977.768-1.981 1.836l.008.004.717.004.005-.008c0-.709.479-1.181 1.201-1.181.709 0 1.138.476 1.138 1.11v.008c0 .526-.225.838-.992 1.668l-2.036 2.202v.518Z"/><path fill="#F3F3F3" d="M378.681 355.833h-50.847a2.848 2.848 0 0 0-2.848 2.847v12.153a2.848 2.848 0 0 0 2.848 2.847h50.847a2.847 2.847 0 0 0 2.847-2.847V358.68a2.847 2.847 0 0 0-2.847-2.847Z"/><path fill="#282828" d="M332.936 368.422c1.742 0 2.784-1.051 2.784-2.579v-4.608h-.876v4.55c0 1.08-.691 1.83-1.908 1.83-1.216 0-1.917-.75-1.917-1.83v-4.55h-.876v4.608c0 1.528 1.051 2.579 2.793 2.579Zm4.458 1.587h.846v-2.579h.078c.287.559.915.919 1.635.919 1.333 0 2.199-1.065 2.199-2.71v-.01c0-1.635-.871-2.71-2.199-2.71-.73 0-1.314.345-1.635.929h-.078v-.837h-.846v6.998Zm2.364-2.409c-.953 0-1.537-.749-1.537-1.961v-.01c0-1.211.584-1.961 1.537-1.961.959 0 1.528.74 1.528 1.961v.01c0 1.221-.569 1.961-1.528 1.961Zm5.864.749c1.26 0 1.966-.676 2.18-1.625l.009-.053-.837.004-.009.03c-.195.584-.643.895-1.348.895-.934 0-1.538-.774-1.538-1.98v-.01c0-1.183.594-1.942 1.538-1.942.754 0 1.221.419 1.353.935l.004.014h.842l-.005-.029c-.155-.934-.919-1.669-2.194-1.669-1.47 0-2.404 1.061-2.404 2.691v.01c0 1.664.939 2.729 2.409 2.729Zm5.586 0c1.494 0 2.418-1.031 2.418-2.71v-.01c0-1.683-.924-2.71-2.418-2.71-1.494 0-2.419 1.027-2.419 2.71v.01c0 1.679.925 2.71 2.419 2.71Zm0-.749c-.993 0-1.553-.725-1.553-1.961v-.01c0-1.241.56-1.961 1.553-1.961.992 0 1.552.72 1.552 1.961v.01c0 1.236-.56 1.961-1.552 1.961Zm3.732.657h.846v-3.251c0-.739.521-1.338 1.207-1.338.662 0 1.09.404 1.09 1.027v3.562h.847v-3.372c0-.667.482-1.217 1.211-1.217.74 0 1.095.385 1.095 1.158v3.431h.847v-3.625c0-1.1-.599-1.713-1.669-1.713-.725 0-1.324.365-1.606.92h-.078c-.243-.545-.739-.92-1.45-.92-.686 0-1.182.326-1.416.89h-.078v-.798h-.846v5.246Zm9.118-6.258a.585.585 0 0 0 0-1.167.584.584 0 0 0 0 1.167Zm-.428 6.258h.847v-5.246h-.847v5.246Zm2.443 0h.847v-3.105c0-.919.53-1.484 1.367-1.484s1.226.453 1.226 1.397v3.192h.847v-3.397c0-1.245-.657-1.941-1.835-1.941-.773 0-1.265.326-1.528.881h-.077v-.789h-.847v5.246Zm7.98 1.849c1.43 0 2.336-.749 2.336-1.922v-5.173h-.847v.867h-.059c-.321-.594-.895-.959-1.634-.959-1.373 0-2.219 1.066-2.219 2.535v.01c0 1.469.842 2.52 2.199 2.52.72 0 1.314-.326 1.645-.905h.078v1.061c0 .774-.56 1.217-1.499 1.217-.754 0-1.221-.283-1.314-.682l-.005-.005h-.876l-.009.005c.131.862.939 1.431 2.204 1.431Zm-.039-2.871c-.973 0-1.518-.73-1.518-1.771v-.01c0-1.041.545-1.786 1.518-1.786.968 0 1.557.745 1.557 1.786v.01c0 1.041-.584 1.771-1.557 1.771Z"/><path stroke="#EBEBEB" stroke-width=".712" d="M404.305 32.356H5.694a5.338 5.338 0 0 0-5.339 5.338v395.882a5.339 5.339 0 0 0 5.339 5.339h398.611a5.338 5.338 0 0 0 5.338-5.339V37.694a5.338 5.338 0 0 0-5.338-5.338Z"/><path fill="#fff" d="M225 4.718A4.718 4.718 0 0 1 229.718 0h332.14a4.718 4.718 0 0 1 4.718 4.718V124.9a4.718 4.718 0 0 1-4.718 4.718h-332.14A4.718 4.718 0 0 1 225 124.9V4.718Z"/><path stroke="#282828" stroke-opacity=".15" stroke-width=".829" d="M225.414 4.718a4.304 4.304 0 0 1 4.304-4.304h332.14a4.304 4.304 0 0 1 4.304 4.304V124.9a4.304 4.304 0 0 1-4.304 4.304h-332.14a4.304 4.304 0 0 1-4.304-4.304V4.718Z"/><path fill="#000" fill-opacity=".6" d="M244.35 23.772h5.51v-1.3h-3.965V15.13h-1.545v8.643Zm9.245.132c1.959 0 3.151-1.282 3.151-3.402v-.012c0-2.109-1.198-3.39-3.151-3.39-1.947 0-3.15 1.287-3.15 3.39v.012c0 2.12 1.186 3.402 3.15 3.402Zm0-1.21c-1.036 0-1.629-.809-1.629-2.186v-.012c0-1.378.593-2.192 1.629-2.192 1.03 0 1.623.814 1.623 2.192v.012c0 1.377-.587 2.186-1.623 2.186Zm6.131 1.186c.863 0 1.557-.371 1.917-1.006h.102v.898h1.473v-4.474c0-1.384-.946-2.198-2.629-2.198-1.558 0-2.612.73-2.756 1.832l-.006.054h1.408l.006-.024c.15-.43.593-.676 1.276-.676.802 0 1.228.359 1.228 1.012v.563l-1.684.102c-1.593.095-2.485.778-2.485 1.946v.012c0 1.192.904 1.959 2.15 1.959Zm-.677-2.03v-.013c0-.539.39-.844 1.222-.898l1.474-.096v.527c0 .779-.665 1.366-1.564 1.366-.659 0-1.132-.33-1.132-.887Zm5.658 1.922h1.491v-3.815c0-.983.551-1.605 1.438-1.605.904 0 1.318.515 1.318 1.533v3.887h1.491v-4.235c0-1.557-.797-2.437-2.258-2.437-.946 0-1.575.425-1.887 1.126h-.102v-1h-1.491v6.546Zm11.513 0 .467-2.306h1.695l-.473 2.306h1.162l.461-2.306h1.51l.215-1.132h-1.491l.377-1.869h1.456l.215-1.126h-1.443l.443-2.21h-1.156l-.443 2.21h-1.695l.449-2.21h-1.15l-.449 2.21h-1.438l-.221 1.126h1.431l-.377 1.869h-1.384l-.221 1.132h1.377l-.461 2.306h1.144Zm.641-3.384.395-1.965h1.785l-.395 1.965h-1.785Zm9.641 3.6c.569 0 1.084-.09 1.551-.258l.701.94h1.509l-1.15-1.545c.941-.779 1.474-2.054 1.474-3.672v-.011c0-2.786-1.57-4.529-4.085-4.529-2.51 0-4.091 1.743-4.091 4.529v.011c0 2.78 1.557 4.535 4.091 4.535Zm0-1.336c-1.558 0-2.516-1.258-2.516-3.199v-.011c0-1.953.982-3.193 2.516-3.193 1.533 0 2.509 1.24 2.509 3.193v.011c0 1.055-.287 1.905-.796 2.468l-.635-.856h-1.51l1.115 1.497c-.216.06-.444.09-.683.09Zm7.011 1.12h1.456l1.749-6.187h.089l1.761 6.187h1.45l2.318-8.643h-1.599l-1.48 6.487h-.084l-1.725-6.487h-1.371l-1.701 6.487h-.09l-1.48-6.487h-1.611l2.318 8.643Zm9.575 0h1.689l2.043-3.18h.053l2.043 3.18h1.785l-2.845-4.313v-.018l2.893-4.312h-1.737l-2.001 3.252h-.066l-2.006-3.252h-1.827l2.797 4.27v.018l-2.821 4.355Zm11.719.174c1.917 0 3.229-1.06 3.229-2.582v-.012c0-1.198-.845-1.952-2.115-2.072v-.03c1.036-.216 1.809-.929 1.809-2v-.013c0-1.353-1.156-2.282-2.935-2.282-1.743 0-2.923.983-3.054 2.48l-.006.066h1.437l.006-.06c.078-.773.707-1.258 1.617-1.258.923 0 1.456.467 1.456 1.258v.012c0 .755-.635 1.294-1.588 1.294h-.988v1.15h1.018c1.108 0 1.779.503 1.779 1.413v.012c0 .803-.665 1.36-1.665 1.36-1.012 0-1.689-.521-1.773-1.252l-.006-.066h-1.473l.006.072c.114 1.48 1.354 2.51 3.246 2.51Zm8.365.042c1.995 0 3.426-1.156 3.654-2.887v-.042h-1.515l-.006.03c-.222.952-1.037 1.563-2.133 1.563-1.473 0-2.39-1.228-2.39-3.199v-.011c0-1.965.917-3.193 2.384-3.193 1.09 0 1.917.677 2.139 1.701l.006.024h1.515v-.048c-.204-1.767-1.695-3.013-3.66-3.013-2.449 0-3.965 1.731-3.965 4.535v.011c0 2.792 1.521 4.529 3.971 4.529Zm8.042-.042c1.917 0 3.228-1.06 3.228-2.582v-.012c0-1.198-.844-1.952-2.114-2.072v-.03c1.036-.216 1.809-.929 1.809-2v-.013c0-1.353-1.156-2.282-2.935-2.282-1.743 0-2.923.983-3.055 2.48l-.006.066h1.438l.006-.06c.078-.773.706-1.258 1.617-1.258.922 0 1.455.467 1.455 1.258v.012c0 .755-.635 1.294-1.587 1.294h-.988v1.15h1.018c1.108 0 1.779.503 1.779 1.413v.012c0 .803-.665 1.36-1.665 1.36-1.012 0-1.689-.521-1.773-1.252l-.006-.066h-1.474l.006.072c.114 1.48 1.354 2.51 3.247 2.51Zm4.759-.174h5.594v-1.3h-4.049v-2.474h3.828V18.77h-3.828v-2.34h4.049v-1.3h-5.594v8.643Zm7.209 0h1.545V20.52h1.713l1.696 3.252h1.766l-1.886-3.486c1.024-.371 1.629-1.318 1.629-2.462v-.012c0-1.647-1.114-2.683-2.971-2.683h-3.492v8.643Zm1.545-4.438V16.38h1.755c.983 0 1.576.563 1.576 1.467v.012c0 .928-.569 1.474-1.546 1.474h-1.785Zm6.491 4.438h5.594v-1.3h-4.049v-2.474h3.827V18.77h-3.827v-2.34h4.049v-1.3h-5.594v8.643Zm10.934.216c.569 0 1.084-.09 1.552-.258l.7.94h1.51l-1.15-1.545c.94-.779 1.473-2.054 1.473-3.672v-.011c0-2.786-1.569-4.529-4.085-4.529-2.509 0-4.091 1.743-4.091 4.529v.011c0 2.78 1.558 4.535 4.091 4.535Zm0-1.336c-1.557 0-2.515-1.258-2.515-3.199v-.011c0-1.953.982-3.193 2.515-3.193 1.534 0 2.51 1.24 2.51 3.193v.011c0 1.055-.288 1.905-.797 2.468l-.635-.856h-1.509l1.114 1.497c-.216.06-.443.09-.683.09Zm9.282 1.336c2.521 0 4.085-1.755 4.085-4.535v-.011c0-2.786-1.57-4.529-4.085-4.529-2.51 0-4.091 1.743-4.091 4.529v.011c0 2.78 1.557 4.535 4.091 4.535Zm0-1.336c-1.558 0-2.516-1.258-2.516-3.199v-.011c0-1.953.982-3.193 2.516-3.193 1.533 0 2.509 1.24 2.509 3.193v.011c0 1.941-.97 3.199-2.509 3.199Zm9.102 1.336c2.198 0 3.551-1.288 3.551-3.193v-5.666h-1.545v5.54c0 1.192-.719 1.983-2.001 1.983-1.287 0-2.012-.79-2.012-1.983v-5.54h-1.545v5.666c0 1.905 1.365 3.192 3.552 3.192Z"/><path fill="#000" d="M249.604 75.174h3.392V58.968h-3.381l-4.189 2.909v3.055l3.976-2.763h.202v13.005Zm7.542 0h11.691v-2.73h-7.143v-.258l2.999-2.796c2.953-2.729 3.908-4.256 3.908-6.098v-.034c0-2.796-2.336-4.705-5.672-4.705-3.548 0-5.974 2.134-5.974 5.244l.011.045h3.133v-.056c0-1.538 1.09-2.594 2.673-2.594 1.55 0 2.493.966 2.493 2.347v.034c0 1.134-.617 1.954-2.897 4.166l-5.222 5.155v2.28Zm14.055 4.357h2.19l2.044-6.951h-3.246l-.988 6.951Zm13.067-20.99c-3.65 0-6.21 2.449-6.21 5.762v.022c0 3.066 2.122 5.312 5.278 5.312 2.246 0 3.594-1.123 4.178-2.37h.224v.36c-.123 2.954-1.156 5.256-3.504 5.256-1.302 0-2.223-.685-2.616-1.696l-.034-.101h-3.324l.022.101c.506 2.538 2.83 4.391 5.964 4.391 4.155 0 6.716-3.223 6.716-8.647v-.023c0-5.694-2.943-8.367-6.694-8.367Zm0 8.592c-1.696 0-2.931-1.224-2.931-2.931v-.023a2.926 2.926 0 0 1 2.954-2.942c1.65 0 2.942 1.314 2.942 3.01v.022c0 1.673-1.292 2.864-2.965 2.864Zm15.605 8.456c3.639 0 6.155-2.324 6.155-5.738v-.023c0-3.088-2.179-5.312-5.2-5.312-1.55 0-2.808.674-3.459 1.763h-.202l.404-4.615h7.491v-2.696h-10.13l-.753 9.591h2.909c.18-.348.449-.651.753-.898.539-.46 1.235-.697 2.055-.697 1.718 0 2.942 1.202 2.942 2.931v.023c0 1.74-1.213 2.965-2.953 2.965-1.528 0-2.64-.955-2.875-2.145l-.023-.079h-3.077l.011.157c.191 2.707 2.482 4.773 5.952 4.773Zm15.1 0c4.009 0 6.435-3.279 6.435-8.512v-.023c0-5.244-2.426-8.501-6.435-8.501-3.998 0-6.435 3.257-6.435 8.501v.023c0 5.233 2.437 8.512 6.435 8.512Zm0-2.684c-1.909 0-2.998-2.167-2.998-5.828v-.023c0-3.672 1.089-5.817 2.998-5.817 1.921 0 3.01 2.145 3.01 5.817v.023c0 3.66-1.089 5.828-3.01 5.828Zm22.024 2.684c4.178 0 6.783-2.414 6.783-6.008V58.968h-3.391v10.31c0 2.1-1.213 3.436-3.392 3.436s-3.403-1.336-3.403-3.436v-10.31h-3.391v10.613c0 3.605 2.639 6.008 6.794 6.008Zm16.245 0c4.043 0 6.536-2.032 6.536-5.244v-.011c0-2.527-1.493-3.898-4.919-4.605l-1.718-.348c-1.909-.393-2.695-1.022-2.695-2.078v-.011c0-1.213 1.112-1.977 2.785-1.988 1.707 0 2.83.809 3.021 1.965l.022.135h3.19l-.011-.146c-.214-2.706-2.437-4.705-6.222-4.705-3.594 0-6.177 1.988-6.177 4.997v.012c0 2.459 1.449 4.031 4.818 4.716l1.707.348c2.01.416 2.808 1.011 2.808 2.078v.011c0 1.247-1.247 2.112-3.055 2.112-1.898 0-3.212-.82-3.335-2.033l-.012-.112h-3.268l.012.18c.191 2.874 2.639 4.727 6.513 4.727Zm9.485-.415h6.379c4.851 0 7.603-2.965 7.603-8.198v-.023c0-5.076-2.785-7.985-7.603-7.985h-6.379v16.206Zm3.391-2.797V61.765h2.449c2.942 0 4.683 1.909 4.683 5.244v.023c0 3.459-1.685 5.345-4.683 5.345h-2.449Zm16.92 2.797h3.391v-13.41h4.863v-2.796h-13.117v2.797h4.863v13.409Z"/><path fill="#55D37D" d="M511.068 22.828h1.618l.718-2.234h3.199l.725 2.234h1.617l-3.067-8.643h-1.743l-3.067 8.643Zm3.888-7.037h.101l1.162 3.611h-2.425l1.162-3.611Zm7.768 7.169c1.659 0 2.624-.892 2.839-2.234l.012-.048-1.407.006-.012.024c-.186.689-.659 1.042-1.432 1.042-1.012 0-1.617-.814-1.617-2.204v-.012c0-1.371.599-2.174 1.617-2.174.815 0 1.3.455 1.438 1.09l.006.018h1.407v-.024c-.167-1.354-1.174-2.288-2.857-2.288-1.97 0-3.126 1.264-3.126 3.378v.012c0 2.138 1.162 3.414 3.132 3.414Zm6.93-.102c.288 0 .563-.024.779-.066v-1.15c-.18.018-.294.024-.503.024-.623 0-.881-.275-.881-.928v-3.3h1.384v-1.156h-1.384v-1.605h-1.515v1.605h-1.018v1.156h1.018v3.653c0 1.264.617 1.767 2.12 1.767Zm3.031-7.672c.485 0 .886-.39.886-.88a.887.887 0 0 0-.886-.881.889.889 0 0 0-.893.88c0 .491.402.88.893.88Zm-.749 7.642h1.492v-6.546h-1.492v6.546Zm5.085.001h1.636l2.318-6.547h-1.57l-1.503 5.091h-.102l-1.515-5.091h-1.594l2.33 6.547Zm7.75.131c1.779 0 2.654-1.024 2.864-1.869l.018-.053h-1.421l-.017.041c-.143.3-.605.707-1.413.707-1.012 0-1.647-.683-1.665-1.857h4.576v-.49c0-1.977-1.15-3.283-3.013-3.283s-3.055 1.348-3.055 3.408v.006c0 2.084 1.179 3.39 3.126 3.39Zm-.053-5.636c.833 0 1.438.533 1.539 1.605h-3.109c.114-1.042.737-1.605 1.57-1.605Z"/><path fill="#C6C6C8" d="M237.508 39.366h315.597v-.96H237.508v.96Z" opacity=".5"/><path fill="#000" fill-opacity=".6" d="M509.025 76.696c3.384 0 5.784-1.968 5.784-4.71v-.023c0-2.233-1.571-3.649-3.915-3.859v-.055c1.946-.41 3.362-1.736 3.362-3.716v-.022c0-2.466-2.079-4.168-5.253-4.168-3.118 0-5.241 1.78-5.484 4.467l-.011.121h2.322l.011-.11c.155-1.504 1.393-2.444 3.162-2.444 1.803 0 2.842.907 2.842 2.455v.022c0 1.482-1.238 2.555-3.063 2.555h-1.869v1.923h1.946c2.124 0 3.428 1.007 3.428 2.81v.021c0 1.57-1.315 2.665-3.262 2.665-1.979 0-3.317-1.017-3.472-2.466l-.011-.11h-2.366l.011.132c.21 2.643 2.433 4.512 5.838 4.512Zm14.217.089c3.671 0 5.894-3.218 5.894-8.36v-.022c0-5.142-2.223-8.349-5.894-8.349-3.682 0-5.894 3.207-5.894 8.349v.022c0 5.142 2.212 8.36 5.894 8.36Zm0-2.057c-2.145 0-3.395-2.4-3.395-6.303v-.022c0-3.904 1.25-6.281 3.395-6.281 2.134 0 3.395 2.377 3.395 6.28v.023c0 3.903-1.261 6.303-3.395 6.303Zm11.961-5.761c2.146 0 3.45-1.692 3.45-4.379v-.011c0-2.687-1.304-4.357-3.45-4.357-2.145 0-3.45 1.67-3.45 4.357v.011c0 2.687 1.305 4.379 3.45 4.379Zm1.648 7.43 10.814-15.956h-2.067l-10.815 15.957h2.068Zm-1.648-8.912c-1.05 0-1.647-1.073-1.647-2.897v-.011c0-1.814.597-2.875 1.647-2.875 1.051 0 1.659 1.061 1.659 2.875v.011c0 1.825-.608 2.897-1.659 2.897Zm12.031 9.134c2.145 0 3.45-1.681 3.45-4.368v-.011c0-2.687-1.305-4.368-3.45-4.368-2.145 0-3.45 1.68-3.45 4.368v.011c0 2.687 1.305 4.368 3.45 4.368Zm0-1.482c-1.05 0-1.647-1.073-1.647-2.886v-.011c0-1.825.597-2.886 1.647-2.886 1.051 0 1.648 1.061 1.648 2.886v.011c0 1.813-.597 2.886-1.648 2.886Zm-70.129.513h4.844v-.895h-3.848v-7.082h-.996v7.978Zm7.157 0h.995v-7.082h2.571v-.895h-6.137v.895h2.571v7.083Zm7.107 0h.984l2.941-7.977h-1.045l-2.344 6.69h-.088l-2.345-6.69h-1.045l2.942 7.978Zm-246.984 32.614h1.066v-6.702h.096l4.69 6.702h1.048v-8.643h-1.066v6.727h-.096l-4.69-6.727h-1.048v8.643Zm11.306.114c1.521 0 2.443-.862 2.665-1.737l.012-.048h-1.042l-.024.054c-.174.389-.713.803-1.587.803-1.15 0-1.887-.779-1.917-2.115h4.648v-.407c0-1.929-1.066-3.234-2.821-3.234-1.755 0-2.893 1.365-2.893 3.36v.006c0 2.024 1.114 3.318 2.959 3.318Zm-.072-5.756c.952 0 1.659.605 1.767 1.881h-3.57c.114-1.228.844-1.881 1.803-1.881Zm3.387 5.642h1.168l1.534-2.437h.096l1.527 2.437h1.222l-2.222-3.27 2.192-3.186h-1.168l-1.515 2.401h-.096l-1.534-2.401h-1.227l2.234 3.228-2.211 3.228Zm8.941.048c.203 0 .401-.024.604-.06v-.886a4.328 4.328 0 0 1-.479.024c-.671 0-.934-.306-.934-1.066v-3.654h1.413v-.862h-1.413v-1.672h-1.078v1.672h-1.018v.862h1.018v3.917c0 1.234.557 1.725 1.887 1.725Zm5.14-.048h1.078v-3.084h2.18c1.623 0 2.773-1.144 2.773-2.785v-.012c0-1.642-1.15-2.762-2.773-2.762h-3.258v8.643Zm2.982-7.684c1.234 0 1.947.677 1.947 1.815v.012c0 1.138-.713 1.814-1.947 1.814h-1.904v-3.641h1.904Zm5.916 7.798c.868 0 1.545-.377 1.952-1.066h.096v.952h1.042v-4.42c0-1.342-.88-2.15-2.455-2.15-1.378 0-2.36.683-2.528 1.695l-.006.036h1.042l.006-.018c.168-.503.677-.791 1.45-.791.964 0 1.449.431 1.449 1.228v.587l-1.851.114c-1.503.09-2.354.754-2.354 1.905v.011c0 1.174.929 1.917 2.157 1.917Zm-1.09-1.94v-.012c0-.641.431-.989 1.413-1.049l1.725-.107v.587c0 .922-.772 1.617-1.833 1.617-.748 0-1.305-.384-1.305-1.036Zm6.095 4.09c1.144 0 1.677-.419 2.21-1.868l2.521-6.852h-1.096l-1.767 5.312h-.095l-1.773-5.312h-1.114l2.389 6.462-.119.384c-.234.742-.593 1.012-1.186 1.012-.144 0-.306-.006-.432-.03v.856c.144.024.324.036.462.036Zm5.807-2.264h1.042v-4.001c0-.91.641-1.647 1.486-1.647.814 0 1.341.497 1.341 1.264v4.384h1.043v-4.15c0-.821.593-1.498 1.491-1.498.91 0 1.348.473 1.348 1.426v4.222h1.042v-4.462c0-1.354-.737-2.108-2.055-2.108-.892 0-1.629.449-1.976 1.132h-.096c-.3-.671-.91-1.132-1.785-1.132-.844 0-1.455.401-1.743 1.096h-.096v-.982h-1.042v6.456Zm13.007.114c1.521 0 2.444-.862 2.665-1.737l.012-.048h-1.042l-.024.054c-.173.389-.713.803-1.587.803-1.15 0-1.887-.779-1.917-2.115h4.648v-.407c0-1.929-1.066-3.234-2.821-3.234-1.755 0-2.893 1.365-2.893 3.36v.006c0 2.024 1.114 3.318 2.959 3.318Zm-.072-5.756c.953 0 1.659.605 1.767 1.881h-3.57c.114-1.228.845-1.881 1.803-1.881Zm4.143 5.642h1.042v-3.821c0-1.132.653-1.827 1.683-1.827s1.509.557 1.509 1.719v3.929h1.042v-4.18c0-1.534-.808-2.39-2.258-2.39-.952 0-1.557.401-1.88 1.084h-.096v-.97h-1.042v6.456Zm9.155.048c.204 0 .401-.024.605-.06v-.886a4.34 4.34 0 0 1-.479.024c-.671 0-.934-.306-.934-1.066v-3.654h1.413v-.862h-1.413v-1.672h-1.079v1.672h-1.018v.862h1.018v3.917c0 1.234.557 1.725 1.887 1.725Zm9.027.912h1.545v-3.528h3.624v-1.258h-3.624v-2.558h3.965v-1.299h-5.51v8.643Zm9.569.131c1.778 0 2.653-1.024 2.863-1.868l.018-.054h-1.42l-.018.042c-.144.299-.605.706-1.413.706-1.013 0-1.648-.682-1.666-1.856h4.576v-.492c0-1.976-1.15-3.282-3.012-3.282-1.863 0-3.055 1.348-3.055 3.408v.006c0 2.085 1.18 3.39 3.127 3.39Zm-.054-5.636c.832 0 1.437.533 1.539 1.605h-3.109c.114-1.042.737-1.605 1.57-1.605Zm7.826 5.612c1.641 0 2.689-1.299 2.689-3.372v-.012c0-2.084-1.03-3.378-2.689-3.378-.899 0-1.648.443-1.989 1.15h-.102v-3.576h-1.491v9.081h1.491v-1.025h.102c.359.713 1.072 1.132 1.989 1.132Zm-.468-1.257c-1.012 0-1.641-.803-1.641-2.115v-.012c0-1.311.629-2.12 1.641-2.12 1.019 0 1.636.803 1.636 2.12v.012c0 1.318-.617 2.115-1.636 2.115Zm11.298 1.15h1.479v-1.66h1.162v-1.275h-1.162v-5.708h-2.186a114.435 114.435 0 0 0-3.522 5.72v1.263h4.229v1.66Zm-2.791-2.899v-.09a89.306 89.306 0 0 1 2.725-4.421h.09v4.511h-2.815Zm6.262 5.181h1.019l1.042-3.6h-1.539l-.522 3.6Zm6.896-2.282h6.001v-1.282h-3.911v-.126l1.731-1.677c1.575-1.515 2.048-2.294 2.048-3.276v-.018c0-1.456-1.21-2.48-2.893-2.48-1.803 0-3.06 1.126-3.06 2.737l.006.018 1.437.006.006-.024c0-.892.617-1.497 1.534-1.497.898 0 1.443.575 1.443 1.371v.018c0 .665-.329 1.102-1.503 2.288l-2.839 2.899v1.043Zm10.581.215c2.054 0 3.3-1.743 3.3-4.534v-.012c0-2.791-1.246-4.528-3.3-4.528-2.055 0-3.289 1.737-3.289 4.528v.012c0 2.791 1.234 4.534 3.289 4.534Zm0-1.252c-1.102 0-1.731-1.233-1.731-3.282v-.012c0-2.048.629-3.27 1.731-3.27s1.743 1.222 1.743 3.27v.012c0 2.049-.641 3.282-1.743 3.282Zm4.687 1.037h6.002v-1.282h-3.912v-.126l1.731-1.677c1.576-1.515 2.049-2.294 2.049-3.276v-.018c0-1.456-1.21-2.48-2.893-2.48-1.803 0-3.061 1.126-3.061 2.737l.006.018 1.438.006.006-.024c0-.892.617-1.497 1.533-1.497.899 0 1.444.575 1.444 1.371v.018c0 .665-.33 1.102-1.504 2.288l-2.839 2.899v1.043Zm7.413 0h6.001v-1.282h-3.911v-.126l1.731-1.677c1.575-1.515 2.049-2.294 2.049-3.276v-.018c0-1.456-1.21-2.48-2.893-2.48-1.803 0-3.061 1.126-3.061 2.737l.006.018 1.437.006.006-.024c0-.892.617-1.497 1.534-1.497.898 0 1.443.575 1.443 1.371v.018c0 .665-.329 1.102-1.503 2.288l-2.839 2.899v1.043Zm93.36.237c1.839 0 3.204-1.024 3.492-2.606v-.012h-1.09l-.012.012c-.27.995-1.186 1.612-2.39 1.612-1.665 0-2.708-1.36-2.708-3.522v-.012c0-2.163 1.043-3.528 2.702-3.528 1.192 0 2.114.701 2.402 1.809l.006.012h1.084l.006-.012c-.258-1.659-1.677-2.803-3.498-2.803-2.348 0-3.81 1.737-3.81 4.522v.012c0 2.779 1.468 4.516 3.816 4.516Zm7.52-.09c1.839 0 2.977-1.27 2.977-3.336v-.012c0-2.073-1.138-3.336-2.977-3.336s-2.977 1.263-2.977 3.336v.012c0 2.066 1.138 3.336 2.977 3.336Zm0-.922c-1.222 0-1.91-.893-1.91-2.414v-.012c0-1.528.688-2.414 1.91-2.414s1.911.886 1.911 2.414v.012c0 1.521-.689 2.414-1.911 2.414Zm4.352.808h1.042v-9.02h-1.042v9.02Zm2.801 0h1.042v-9.02h-1.042v9.02Zm4.514.114c.868 0 1.545-.377 1.952-1.066h.096v.952h1.042v-4.42c0-1.342-.88-2.15-2.456-2.15-1.377 0-2.359.682-2.527 1.695l-.006.036h1.042l.006-.018c.168-.504.677-.791 1.45-.791.964 0 1.449.431 1.449 1.228v.587l-1.851.114c-1.503.089-2.354.754-2.354 1.904v.012c0 1.174.929 1.917 2.157 1.917Zm-1.091-1.941v-.012c0-.641.432-.988 1.414-1.048l1.725-.108v.587c0 .923-.773 1.618-1.833 1.618-.749 0-1.306-.384-1.306-1.037Zm8.078 1.875c.204 0 .401-.024.605-.06v-.886a4.352 4.352 0 0 1-.479.024c-.671 0-.935-.306-.935-1.066v-3.654h1.414v-.863h-1.414v-1.671h-1.078v1.671h-1.018v.863h1.018v3.917c0 1.234.557 1.725 1.887 1.725Zm4.4.066c1.521 0 2.444-.863 2.665-1.737l.012-.048h-1.042l-.024.054c-.174.389-.713.803-1.587.803-1.15 0-1.887-.779-1.917-2.115h4.648v-.407c0-1.929-1.066-3.234-2.821-3.234-1.755 0-2.893 1.365-2.893 3.36v.006c0 2.024 1.114 3.318 2.959 3.318Zm-.072-5.756c.952 0 1.659.605 1.767 1.881h-3.57c.114-1.228.845-1.881 1.803-1.881Zm4.142 5.642h1.043v-4.001c0-.946.706-1.575 1.701-1.575.227 0 .425.024.64.06v-1.013a3.643 3.643 0 0 0-.521-.041c-.874 0-1.479.395-1.725 1.072h-.095v-.959h-1.043v6.457Zm6.143.114c.869 0 1.546-.377 1.953-1.066h.096v.952h1.042v-4.42c0-1.342-.881-2.15-2.456-2.15-1.377 0-2.36.682-2.528 1.695l-.005.036h1.042l.006-.018c.167-.504.677-.791 1.449-.791.965 0 1.45.431 1.45 1.228v.587l-1.851.114c-1.504.089-2.354.754-2.354 1.904v.012c0 1.174.928 1.917 2.156 1.917Zm-1.09-1.941v-.012c0-.641.431-.988 1.414-1.048l1.725-.108v.587c0 .923-.773 1.618-1.833 1.618-.749 0-1.306-.384-1.306-1.037Zm5.844 1.827h1.042v-9.02h-1.042v9.02Z"/><path fill="url('#b')" d="M550.002 106.875c-.964 3.857-4.88 6.205-8.747 5.243-3.865-.962-6.218-4.869-5.254-8.727.964-3.858 4.88-6.206 8.745-5.244 3.867.962 6.219 4.87 5.256 8.728Z"/><path fill="#fff" fill-rule="evenodd" d="M545.176 104.296c.097-.65-.399-.999-1.077-1.233l.22-.88-.538-.134-.214.858a18.033 18.033 0 0 0-.43-.101l.216-.863-.537-.134-.22.88a17.694 17.694 0 0 1-.343-.08v-.003l-.741-.184-.142.572s.398.091.39.097c.217.054.257.198.25.312l-.251 1.003a.373.373 0 0 1 .056.017l-.056-.014-.352 1.406c-.026.066-.094.165-.246.127a8.21 8.21 0 0 1-.39-.097l-.267.613.699.174.234.06.149.039-.222.891.536.133.22-.881c.147.04.289.076.428.111l-.219.877.537.134.222-.889c.916.173 1.605.103 1.895-.724.234-.665-.011-1.049-.493-1.3.351-.081.615-.311.686-.787Zm-1.228 1.717c-.152.611-1.111.359-1.549.243l-.104-.027.295-1.18.132.03c.453.102 1.381.31 1.226.934Zm-1.135-1.481c.366.098 1.163.31 1.302-.245.142-.568-.633-.739-1.012-.823l-.111-.025-.267 1.07.088.023Z" clip-rule="evenodd"/></g><defs><linearGradient id="b" x1="543.816" x2="534.326" y1="118.141" y2="89.477" gradientUnits="userSpaceOnUse"><stop stop-color="#FFC300"/><stop offset="1" stop-color="#FF541E"/></linearGradient><clipPath id="a"><path fill="#fff" d="M0 0h567v440H0z"/></clipPath></defs></svg>