<svg xmlns="http://www.w3.org/2000/svg" width="281" height="235" fill="none"><g clip-path="url('#a')"><mask id="b" width="281" height="326" x="0" y="0" maskUnits="userSpaceOnUse" style="mask-type:luminance"><path fill="#fff" d="M281 0H0v325.627h281V0Z"/></mask><g mask="url('#b')"><path fill="#E5E5E5" d="M171.777 164.747H18.181a1.962 1.962 0 0 0-1.961 1.962v20.068c0 1.083.878 1.961 1.961 1.961h153.596a1.961 1.961 0 0 0 1.961-1.961v-20.068a1.961 1.961 0 0 0-1.961-1.962Z"/><path fill="#fff" d="M174.975 12.75H14.809a4.512 4.512 0 0 0-4.511 4.512v178.212a4.512 4.512 0 0 0 4.511 4.512h160.166a4.512 4.512 0 0 0 4.511-4.512V17.262a4.512 4.512 0 0 0-4.511-4.511Z"/><mask id="c" width="170" height="21" x="10" y="18" maskUnits="userSpaceOnUse" style="mask-type:luminance"><path fill="#fff" d="M179.485 18.165H10.297v19.851h169.188V18.165Z"/></mask><g mask="url('#c')"><path fill="#fff" d="M179.485 18.165H10.297v19.851h169.188V18.165Z"/><path fill="#EBEBEB" d="M179.485 37.565H10.297v.451h169.188v-.451Z"/><path fill="#282828" d="M71.798 30.974h1.011l.45-1.397h2l.452 1.397h1.011l-1.917-5.404h-1.09l-1.917 5.404Zm2.43-4.4h.064l.727 2.258h-1.517l.726-2.259Zm4.393 4.467c.577 0 1.018-.262 1.243-.708h.064v.64h.936v-5.677h-.936v2.236h-.064c-.213-.442-.682-.719-1.243-.719-1.038 0-1.678.809-1.678 2.112v.008c0 1.296.651 2.108 1.678 2.108Zm.292-.786c-.637 0-1.022-.498-1.022-1.322v-.008c0-.824.389-1.326 1.022-1.326s1.03.506 1.03 1.326v.008c0 .82-.393 1.322-1.03 1.322Zm4.415.786c.576 0 1.018-.262 1.243-.708h.064v.64h.936v-5.677h-.936v2.236h-.064c-.213-.442-.681-.719-1.243-.719-1.038 0-1.678.809-1.678 2.112v.008c0 1.296.652 2.108 1.678 2.108Zm.292-.786c-.637 0-1.023-.498-1.023-1.322v-.008c0-.824.39-1.326 1.023-1.326.633 0 1.03.506 1.03 1.326v.008c0 .82-.394 1.322-1.03 1.322Zm4.496.719h1.012l.449-1.397h2l.453 1.397h1.011l-1.917-5.404h-1.09l-1.918 5.404Zm2.43-4.4h.065l.726 2.258h-1.516l.726-2.259Zm4.393 4.467c.577 0 1.019-.262 1.244-.708h.063v.64h.937v-5.677h-.937v2.236h-.063c-.214-.442-.682-.719-1.244-.719-1.037 0-1.677.809-1.677 2.112v.008c0 1.296.651 2.108 1.677 2.108Zm.293-.786c-.637 0-1.023-.498-1.023-1.322v-.008c0-.824.39-1.326 1.023-1.326.632 0 1.03.506 1.03 1.326v.008c0 .82-.394 1.322-1.03 1.322Zm4.414.786c.577 0 1.019-.262 1.244-.708h.063v.64h.937v-5.677h-.937v2.236h-.063c-.214-.442-.682-.719-1.244-.719-1.037 0-1.677.809-1.677 2.112v.008c0 1.296.651 2.108 1.677 2.108Zm.293-.786c-.637 0-1.023-.498-1.023-1.322v-.008c0-.824.39-1.326 1.023-1.326.633 0 1.029.506 1.029 1.326v.008c0 .82-.393 1.322-1.03 1.322Zm2.939.719h.932v-2.378c0-.585.409-.955 1.03-.955.161 0 .315.022.465.052v-.835a1.502 1.502 0 0 0-.379-.045c-.539 0-.914.258-1.052.697h-.064v-.63h-.932v4.094Zm4.654.082c1.113 0 1.659-.64 1.79-1.168l.012-.034h-.888l-.011.026c-.09.188-.378.442-.884.442-.633 0-1.03-.427-1.041-1.16h2.861v-.308c0-1.236-.719-2.052-1.884-2.052-1.164 0-1.91.842-1.91 2.13v.005c0 1.303.738 2.12 1.955 2.12Zm-.033-3.524c.52 0 .898.333.962 1.004h-1.944c.071-.652.461-1.004.982-1.004Zm4.167 3.524c1.008 0 1.738-.52 1.738-1.3v-.007c0-.595-.378-.936-1.179-1.116l-.663-.146c-.442-.101-.615-.247-.615-.487v-.003c0-.308.3-.51.716-.51.438 0 .707.21.775.468l.003.012h.877v-.008c-.06-.663-.655-1.157-1.652-1.157-.966 0-1.64.51-1.64 1.247v.004c0 .603.371.97 1.15 1.142l.663.15c.449.1.629.258.629.498v.007c0 .307-.322.517-.787.517-.464 0-.737-.198-.835-.483l-.003-.008h-.926v.008c.079.693.708 1.172 1.749 1.172Zm3.966 0c1.007 0 1.737-.52 1.737-1.3v-.007c0-.595-.378-.936-1.179-1.116l-.663-.146c-.442-.101-.614-.247-.614-.487v-.003c0-.308.299-.51.715-.51.438 0 .708.21.775.468l.004.012h.877v-.008c-.061-.663-.656-1.157-1.652-1.157-.967 0-1.641.51-1.641 1.247v.004c0 .603.371.97 1.15 1.142l.663.15c.449.1.629.258.629.498v.007c0 .307-.322.517-.786.517-.465 0-.738-.198-.836-.483l-.003-.008h-.925v.008c.079.693.708 1.172 1.749 1.172Z"/><path stroke="#282828" stroke-linecap="round" stroke-linejoin="round" stroke-width=".902" d="m25.636 25.383-5.414 5.414m0-5.414 5.414 5.414"/></g><path fill="#fff" d="M179.486 45.686H10.298V70.95h169.188V45.686Z"/><path fill="#999" d="M18.044 52.061h2.509v-.464h-1.994v-3.669h-.515v4.133Zm4.082.054c.415 0 .739-.18.934-.51h.046v.456h.498v-2.114c0-.641-.421-1.028-1.174-1.028-.659 0-1.129.327-1.209.81l-.003.018h.499l.003-.008c.08-.241.323-.379.693-.379.46 0 .693.206.693.587v.28l-.885.055c-.72.044-1.126.361-1.126.912v.005c0 .561.444.916 1.031.916Zm-.521-.927v-.006c0-.307.206-.473.676-.501l.825-.052v.28c0 .442-.37.774-.877.774-.358 0-.624-.184-.624-.495Zm4.409.927c.781 0 1.294-.633 1.294-1.595v-.006c0-.967-.51-1.595-1.294-1.595-.424 0-.794.212-.963.541h-.046v-1.712h-.498v4.313h.498v-.492h.046c.19.343.533.546.963.546Zm-.115-.44c-.561 0-.905-.442-.905-1.155v-.006c0-.713.344-1.154.905-1.154.564 0 .9.436.9 1.154v.006c0 .72-.336 1.155-.9 1.155Zm3.406.44c.728 0 1.169-.412 1.275-.83l.005-.023h-.498l-.011.026c-.083.186-.341.384-.76.384-.55 0-.901-.373-.916-1.012h2.223v-.194c0-.922-.51-1.547-1.35-1.547-.838 0-1.383.653-1.383 1.607v.003c0 .968.533 1.586 1.415 1.586Zm-.034-2.752c.455 0 .793.29.845.9h-1.707c.054-.588.404-.9.862-.9Zm2.117 2.698h.499v-4.313h-.499v4.313Z"/><path fill="#282828" d="M18.206 63.458h.63V59.33h.04l1.708 4.127h.57l1.707-4.127h.041v4.127h.63v-5.404h-.783l-1.85 4.509h-.06l-1.85-4.51h-.783v5.405Zm6.782 1.416c.715 0 1.048-.263 1.382-1.169l1.576-4.284h-.685l-1.105 3.322h-.06l-1.108-3.322h-.697l1.494 4.04-.074.24c-.146.465-.371.633-.742.633-.09 0-.191-.004-.27-.018v.535c.09.015.203.023.289.023Zm7.462-1.288c1.206 0 1.997-.63 1.997-1.64v-.005c0-.779-.446-1.232-1.573-1.483l-.6-.135c-.733-.16-1.03-.453-1.03-.883v-.004c0-.566.521-.884 1.195-.888.704-.003 1.154.348 1.229.824l.007.049h.674l-.003-.053c-.057-.805-.81-1.441-1.888-1.441-1.116 0-1.899.632-1.902 1.527v.004c0 .783.468 1.281 1.55 1.52l.6.132c.74.165 1.052.472 1.052.92v.005c0 .55-.536.929-1.27.929-.779 0-1.34-.341-1.39-.88l-.003-.042h-.674l.003.041c.08.88.843 1.503 2.026 1.503Zm4.502-.057c.95 0 1.528-.54 1.666-1.086l.008-.03h-.652l-.015.034c-.109.243-.446.501-.992.501-.72 0-1.18-.486-1.199-1.321h2.906v-.255c0-1.206-.666-2.023-1.764-2.023-1.097 0-1.808.855-1.808 2.102v.003c0 1.266.696 2.075 1.85 2.075Zm-.045-3.599c.595 0 1.037.378 1.104 1.176H35.78c.071-.767.528-1.176 1.128-1.176Zm4.246 3.6c.97 0 1.513-.521 1.678-1.252l.007-.041-.644.004-.008.022c-.15.45-.494.69-1.037.69-.719 0-1.183-.596-1.183-1.525v-.007c0-.91.457-1.494 1.183-1.494.58 0 .94.321 1.041.718l.004.012h.648l-.004-.023c-.12-.719-.708-1.285-1.689-1.285-1.13 0-1.85.817-1.85 2.072v.007c0 1.281.723 2.101 1.854 2.101Zm4.115 0c1.15 0 1.861-.795 1.861-2.087v-.008c0-1.295-.711-2.086-1.86-2.086-1.15 0-1.862.79-1.862 2.087v.007c0 1.292.711 2.086 1.861 2.086Zm0-.578c-.764 0-1.194-.558-1.194-1.51v-.007c0-.954.43-1.508 1.194-1.508s1.195.554 1.195 1.508v.008c0 .951-.43 1.51-1.195 1.51Zm2.688.506h.652v-2.39c0-.707.408-1.141 1.052-1.141.645 0 .945.348.945 1.074v2.457h.65v-2.614c0-.959-.505-1.495-1.411-1.495-.596 0-.974.251-1.176.679h-.06v-.607h-.651v4.037Zm5.786.071c.562 0 1.011-.266 1.258-.715h.06v.644h.652v-5.64h-.652v2.24H55c-.22-.431-.704-.709-1.258-.709-1.026 0-1.693.82-1.693 2.087v.007c0 1.258.67 2.086 1.693 2.086Zm.15-.577c-.738 0-1.176-.569-1.176-1.51v-.007c0-.94.438-1.508 1.176-1.508.734 0 1.183.576 1.183 1.508v.008c0 .933-.45 1.51-1.183 1.51Zm3.995.577c.543 0 .966-.236 1.221-.666h.06v.595h.652v-2.764c0-.839-.55-1.345-1.536-1.345-.861 0-1.475.428-1.58 1.06l-.004.023h.652l.003-.011c.105-.315.424-.494.907-.494.603 0 .906.269.906.767v.367l-1.157.072c-.94.055-1.472.471-1.472 1.19v.008c0 .734.58 1.198 1.348 1.198Zm-.681-1.213v-.008c0-.4.27-.618.883-.655l1.079-.067v.366c0 .577-.483 1.012-1.146 1.012-.468 0-.816-.24-.816-.648Zm3.62 1.142h.652v-2.502c0-.592.442-.985 1.064-.985.142 0 .266.015.4.038v-.633a2.188 2.188 0 0 0-.325-.027c-.547 0-.925.248-1.079.67h-.06v-.598h-.652v4.037Zm3.12 1.416c.715 0 1.048-.263 1.382-1.169l1.576-4.284h-.685l-1.105 3.322h-.06l-1.108-3.322h-.697l1.494 4.04-.074.24c-.146.465-.371.633-.742.633-.09 0-.191-.004-.27-.018v.535c.09.015.203.023.289.023Zm6.81-1.416h.638l1.243-4.266h.045l1.243 4.266h.637l1.472-5.404h-.705l-1.074 4.393h-.045L73 58.054h-.681l-1.21 4.393h-.045l-1.075-4.393h-.704l1.472 5.404Zm6.772.071c.542 0 .966-.236 1.22-.666h.06v.595h.652v-2.764c0-.839-.551-1.345-1.536-1.345-.86 0-1.475.428-1.58 1.06l-.004.023h.651l.004-.011c.105-.315.424-.494.907-.494.603 0 .906.269.906.767v.367l-1.157.072c-.94.055-1.472.471-1.472 1.19v.008c0 .734.58 1.198 1.349 1.198Zm-.682-1.213v-.008c0-.4.27-.618.884-.655l1.078-.067v.366c0 .577-.483 1.012-1.146 1.012-.468 0-.816-.24-.816-.648Zm3.658 1.142h.651v-5.64h-.65v5.64Zm1.756 0h.652v-5.64h-.652v5.64Zm3.366.071c.951 0 1.528-.54 1.667-1.086l.007-.03h-.651l-.015.034c-.11.243-.446.501-.993.501-.719 0-1.18-.486-1.198-1.321h2.906v-.255c0-1.206-.667-2.023-1.764-2.023s-1.809.855-1.809 2.102v.003c0 1.266.697 2.075 1.85 2.075Zm-.045-3.599c.596 0 1.038.378 1.105 1.176h-2.232c.071-.767.528-1.176 1.127-1.176Zm4.03 3.558c.126 0 .25-.015.378-.037v-.555a2.79 2.79 0 0 1-.3.015c-.42 0-.584-.19-.584-.666V59.96h.884v-.539h-.884v-1.045h-.674v1.045h-.637v.539h.637v2.45c0 .77.348 1.078 1.18 1.078Z"/><path fill="#999" d="M172.268 70.5H17.517v.451h154.751v-.45Z"/><path fill="#999" d="M172.268 70.5H17.517v.451h154.751v-.45Z"/><path fill="#fff" d="M179.486 70.951H10.298v7.219h169.188v-7.219Zm0 7.219H10.298v25.265h169.188V78.17Z"/><path fill="#999" d="M172.268 102.984H17.517v.451h154.751v-.451Z"/><path fill="url('#d')" d="M28.183 94.82a5.414 5.414 0 0 1-10.504-2.62 5.413 5.413 0 1 1 10.504 2.62Z"/><path fill="#fff" fill-rule="evenodd" d="M24.562 92.88c.073-.488-.3-.75-.808-.926l.165-.662-.403-.1-.161.644c-.106-.026-.215-.051-.323-.076l.162-.649-.403-.1-.165.662-.257-.06v-.003l-.556-.138-.107.43s.3.068.293.073c.163.04.193.148.188.234l-.188.754a.356.356 0 0 1 .042.014l-.043-.011-.264 1.057c-.02.05-.07.123-.184.095.004.006-.293-.073-.293-.073l-.2.462.524.13.176.045.111.03-.166.67.402.1.166-.663c.11.03.216.057.32.084l-.164.659.403.1.167-.668c.687.13 1.204.077 1.421-.544.175-.5-.009-.79-.37-.978.263-.06.462-.233.515-.591Zm-.921 1.292c-.114.46-.834.269-1.162.182a3.712 3.712 0 0 0-.079-.02l.222-.887.099.023c.34.076 1.037.233.92.702Zm-.852-1.114c.274.074.872.233.977-.184.106-.427-.475-.556-.76-.619a2.313 2.313 0 0 1-.082-.019l-.201.805.066.017Z" clip-rule="evenodd"/><path fill="#282828" d="M32.62 96.207h2.31c1.154 0 1.858-.584 1.858-1.532v-.007c0-.7-.502-1.225-1.228-1.292v-.068c.543-.086.962-.588.962-1.153v-.008c0-.827-.617-1.344-1.644-1.344H32.62v5.404Zm2.022-4.651c.585 0 .925.28.925.76v.007c0 .49-.363.757-1.048.757h-.933v-1.525h1.056Zm.03 2.21c.738 0 1.128.288 1.128.834v.008c0 .55-.379.846-1.09.846h-1.124v-1.689h1.086Zm4.33 2.441h.965v-4.592h1.667v-.812h-4.296v.812h1.663v4.592Zm5.511.135c1.247 0 2.143-.723 2.285-1.805v-.026h-.948l-.004.018c-.138.596-.647.978-1.333.978-.921 0-1.494-.768-1.494-2v-.008c0-1.228.573-1.996 1.49-1.996.682 0 1.199.423 1.337 1.064l.004.015h.948v-.03c-.128-1.105-1.06-1.884-2.288-1.884-1.532 0-2.48 1.082-2.48 2.835v.008c0 1.745.952 2.83 2.483 2.83Z"/><path fill="#999" d="M17.715 84.545h.541l.415-1.183h1.644l.415 1.183h.542l-1.524-4.132h-.51l-1.523 4.132Zm1.755-3.465h.046l.647 1.844h-1.34l.647-1.844Zm3.43 3.52c.701 0 1.237-.381 1.237-.931v-.006c0-.44-.28-.693-.862-.833l-.476-.115c-.363-.089-.518-.22-.518-.43v-.005c0-.272.27-.461.636-.461.372 0 .613.169.678.412h.49c-.069-.504-.518-.827-1.165-.827-.656 0-1.149.386-1.149.899v.003c0 .443.26.695.84.833l.478.115c.38.091.538.237.538.446v.006c0 .28-.295.478-.71.478-.396 0-.642-.168-.725-.426h-.51c.058.51.53.842 1.218.842Zm2.976 0c.702 0 1.237-.381 1.237-.931v-.006c0-.44-.28-.693-.862-.833l-.475-.115c-.364-.089-.518-.22-.518-.43v-.005c0-.272.269-.461.635-.461.373 0 .613.169.68.412h.489c-.069-.504-.518-.827-1.166-.827-.655 0-1.148.386-1.148.899v.003c0 .443.26.695.839.833l.478.115c.381.091.539.237.539.446v.006c0 .28-.295.478-.71.478-.396 0-.642-.168-.725-.426h-.51c.057.51.53.842 1.217.842Zm3.235 0c.727 0 1.168-.413 1.274-.831l.006-.023h-.498l-.012.026c-.083.186-.34.384-.759.384-.55 0-.902-.372-.916-1.011h2.222v-.195c0-.922-.51-1.546-1.349-1.546s-1.383.653-1.383 1.606v.003c0 .968.533 1.587 1.415 1.587Zm-.035-2.752c.456 0 .794.289.845.899h-1.707c.055-.588.404-.9.862-.9Zm3.186 2.72c.097 0 .192-.011.29-.029v-.423c-.092.008-.141.01-.23.01-.32 0-.447-.145-.447-.509v-1.746h.676v-.413h-.676v-.8h-.515v.8h-.487v.413h.487v1.872c0 .59.266.825.902.825Z"/><path stroke="#2A80FB" stroke-linecap="round" stroke-linejoin="round" stroke-width=".902" d="m164.146 92.607 2.707 2.707 2.708-2.707"/><path fill="#fff" d="M179.486 103.435H10.298v7.219h169.188v-7.219Zm0 7.219H10.298v25.266h169.188v-25.266Z"/><path fill="#999" d="M17.745 117.52h.625l.479-1.365h1.897l.479 1.365h.624l-1.758-4.768h-.588l-1.758 4.768Zm2.026-3.998h.053l.746 2.127h-1.546l.747-2.127Zm3.85 4.061c.496 0 .892-.235 1.11-.632h.053v.569h.575v-4.977h-.575v1.977h-.052c-.195-.381-.622-.625-1.11-.625-.906 0-1.494.724-1.494 1.84v.007c0 1.11.591 1.841 1.493 1.841Zm.132-.509c-.65 0-1.037-.503-1.037-1.332v-.007c0-.829.386-1.331 1.037-1.331.648 0 1.045.509 1.045 1.331v.007c0 .823-.397 1.332-1.045 1.332Zm3.917.509c.496 0 .892-.235 1.11-.632h.053v.569h.575v-4.977h-.575v1.977h-.053c-.195-.381-.621-.625-1.11-.625-.905 0-1.494.724-1.494 1.84v.007c0 1.11.592 1.841 1.494 1.841Zm.132-.509c-.65 0-1.037-.503-1.037-1.332v-.007c0-.829.386-1.331 1.037-1.331.648 0 1.044.509 1.044 1.331v.007c0 .823-.396 1.332-1.044 1.332Zm2.602.446h.575v-2.207c0-.523.39-.869.938-.869.125 0 .235.013.354.032v-.558a1.923 1.923 0 0 0-.288-.023c-.482 0-.816.218-.952.591h-.052v-.528h-.575v3.562Zm3.824.063c.839 0 1.348-.476 1.47-.959l.007-.026h-.575l-.014.03c-.095.215-.393.443-.875.443-.635 0-1.041-.43-1.058-1.167h2.565v-.225c0-1.064-.589-1.784-1.557-1.784s-1.596.753-1.596 1.853v.004c0 1.117.615 1.831 1.633 1.831Zm-.04-3.176c.525 0 .915.334.975 1.037h-1.97c.063-.677.466-1.037.995-1.037Zm3.566 3.176c.81 0 1.428-.44 1.428-1.074v-.007c0-.509-.324-.8-.995-.961l-.548-.133c-.42-.102-.599-.254-.599-.495v-.007c0-.314.311-.532.734-.532.43 0 .707.195.783.476h.565c-.08-.582-.598-.955-1.345-.955-.756 0-1.325.446-1.325 1.037v.004c0 .512.3.803.968.962l.552.131c.44.106.621.275.621.516v.007c0 .323-.34.551-.819.551-.456 0-.74-.195-.836-.492h-.588c.066.588.611.972 1.404.972Zm3.368 0c.81 0 1.428-.44 1.428-1.074v-.007c0-.509-.324-.8-.995-.961l-.548-.133c-.42-.102-.599-.254-.599-.495v-.007c0-.314.311-.532.734-.532.43 0 .707.195.783.476h.565c-.08-.582-.598-.955-1.345-.955-.756 0-1.325.446-1.325 1.037v.004c0 .512.301.803.968.962l.552.131c.44.106.621.275.621.516v.007c0 .323-.34.551-.819.551-.456 0-.74-.195-.836-.492h-.588c.066.588.611.972 1.404.972Z"/><mask id="e" width="156" height="12" x="17" y="120" maskUnits="userSpaceOnUse" style="mask-type:luminance"><path fill="#fff" d="M172.268 120.58H17.517v10.828h154.751V120.58Z"/></mask><g mask="url('#e')"><mask id="f" width="115" height="12" x="17" y="120" maskUnits="userSpaceOnUse" style="mask-type:luminance"><path fill="#fff" d="M131.211 120.58H17.517v10.828H131.21V120.58Z"/></mask><g mask="url('#f')"><path fill="#282828" d="M20.587 128.426h.659v-1.119h.768v-.603h-.768v-3.682h-.977a85.629 85.629 0 0 0-2.315 3.67v.615h2.633v1.119Zm-1.944-1.719v-.045a68.611 68.611 0 0 1 1.903-3.014h.045v3.059h-1.948Zm4.314 1.719h1.854c1.606 0 2.55-1 2.55-2.7v-.007c0-1.697-.947-2.697-2.55-2.697h-1.854v5.404Zm.674-.606v-4.191h1.135c1.198 0 1.906.779 1.906 2.097v.008c0 1.314-.7 2.086-1.906 2.086H23.63Zm4.715.606h.666v-4.19h.06l2.932 4.19h.656v-5.404h-.667v4.206h-.06l-2.932-4.206h-.655v5.404Zm5.358 0H37.7v-.606h-3.108v-.06l3.044-4.258v-.48H33.81v.607h2.955v.06l-3.06 4.258v.479Zm6.104 0h.66l1.493-4.037h-.689l-1.105 3.326h-.06l-1.104-3.326h-.69l1.495 4.037Zm3.175-4.816a.45.45 0 0 0 0-.899.45.45 0 0 0 0 .899Zm-.33 4.816h.652v-4.037h-.651v4.037Zm2.476 0h.651l.899-3.123h.06l.903 3.123h.655l1.131-4.037h-.648l-.794 3.228h-.06l-.902-3.228h-.618l-.903 3.228h-.06l-.794-3.228h-.651l1.13 4.037Zm4.976 0h.652v-2.501c0-.57.4-1.03.929-1.03.509 0 .838.31.838.79v2.741h.652v-2.595c0-.513.37-.936.933-.936.569 0 .842.296.842.891v2.64h.652v-2.79c0-.846-.46-1.318-1.285-1.318-.558 0-1.018.281-1.236.708h-.06c-.187-.419-.569-.708-1.115-.708-.529 0-.91.251-1.09.685h-.06v-.614h-.652v4.037Zm6.76 0h.651v-3.498h.918v-.539h-.918v-.431c0-.442.188-.67.652-.67.116 0 .224.004.303.019v-.521a2.281 2.281 0 0 0-.434-.037c-.768 0-1.173.385-1.173 1.191v.449h-.67v.539h.67v3.498Zm3.115.128c1 0 1.591-.607 1.591-1.629v-3.903h-.673v3.895c0 .659-.323 1.015-.922 1.015-.535 0-.801-.341-.843-.749l-.003-.038h-.674l.003.053c.057.775.584 1.356 1.52 1.356Zm4.194-.057c.561 0 1.011-.265 1.258-.715h.06v.644h.652v-5.64h-.652v2.24h-.06c-.221-.431-.704-.708-1.258-.708-1.027 0-1.693.82-1.693 2.086v.007c0 1.259.67 2.086 1.693 2.086Zm.15-.576c-.738 0-1.177-.57-1.177-1.51v-.007c0-.94.439-1.509 1.176-1.509.735 0 1.184.577 1.184 1.509v.007c0 .933-.45 1.51-1.184 1.51Zm4.456.505h.674v-2.325l1.917-3.079h-.767l-1.457 2.401h-.06l-1.457-2.401h-.768l1.918 3.079v2.325Zm4.927.09c1.146 0 1.963-.644 1.963-1.55v-.008c0-.666-.469-1.221-1.16-1.382v-.015c.59-.183.965-.633.965-1.202v-.007c0-.817-.745-1.42-1.768-1.42-1.022 0-1.767.603-1.767 1.42v.007c0 .569.374 1.019.966 1.202v.015c-.693.161-1.16.716-1.16 1.382v.008c0 .906.816 1.55 1.961 1.55Zm0-3.206c-.651 0-1.097-.37-1.097-.895v-.007c0-.524.446-.895 1.097-.895.652 0 1.098.371 1.098.895v.007c0 .525-.446.895-1.098.895Zm0 2.618c-.745 0-1.277-.419-1.277-1.003v-.008c0-.592.528-1.015 1.277-1.015.75 0 1.278.423 1.278 1.015v.008c0 .584-.532 1.003-1.278 1.003Zm4.359.498h.674v-4.797h1.742v-.607h-4.157v.607h1.74v4.797Zm3.273 0h.63v-4.127h.04l1.708 4.127h.57l1.707-4.127h.041v4.127h.63v-5.404h-.784l-1.85 4.509h-.06l-1.85-4.509h-.782v5.404Zm6.433 0h3.498v-.606h-2.561v-.06l1.228-1.27c.978-1.007 1.243-1.457 1.243-2.075v-.007c0-.873-.723-1.513-1.667-1.513-1.033 0-1.774.689-1.778 1.648l.007.003.644.004.004-.007c0-.637.43-1.06 1.079-1.06.636 0 1.022.427 1.022.996v.007c0 .472-.202.753-.891 1.499l-1.828 1.977v.464Zm6.8 0h.66v-1.119h.767v-.603h-.767v-3.682h-.978a85.726 85.726 0 0 0-2.314 3.67v.615h2.633v1.119Zm-1.943-1.719v-.045a68.146 68.146 0 0 1 1.903-3.014h.044v3.059H92.63Zm5.475 1.719h.674v-5.404h-.67l-1.439 1.034v.711l1.375-.996h.06v4.655Zm2.137 0h3.348v-.606h-2.673v-1.858h2.535v-.599h-2.535v-1.734h2.673v-.607h-3.348v5.404Zm5.872 0h.674v-2.325l1.918-3.079h-.768l-1.457 2.401h-.06l-1.457-2.401h-.767l1.917 3.079v2.325Zm5.213 0h.659v-1.119h.768v-.603h-.768v-3.682h-.978a85.725 85.725 0 0 0-2.314 3.67v.615h2.633v1.119Zm-1.944-1.719v-.045a68.333 68.333 0 0 1 1.903-3.014h.044v3.059h-1.947Zm5.475 1.719h.674v-5.404h-.671l-1.438 1.034v.711l1.375-.996h.06v4.655Zm3.258 0h.636l1.243-4.265h.045l1.244 4.265h.637l1.471-5.404h-.704l-1.075 4.393h-.045l-1.209-4.393h-.682l-1.21 4.393h-.044l-1.075-4.393h-.705l1.473 5.404Zm7.605 0h.674v-2.325l1.917-3.079h-.767l-1.457 2.401h-.06l-1.457-2.401h-.767l1.917 3.079v2.325Zm2.842 0h3.108v-.539h-2.329v-.06l2.318-2.955v-.483h-3.093v.539h2.325v.06l-2.329 2.967v.471Zm4.126 0h.675v-1.928h1.363c1.015 0 1.734-.716 1.734-1.742v-.007c0-1.027-.719-1.727-1.734-1.727h-2.038v5.404Zm1.865-4.805c.772 0 1.218.424 1.218 1.135v.008c0 .711-.446 1.134-1.218 1.134h-1.19v-2.277h1.19Zm4.018 4.876c.918 0 1.618-.498 1.618-1.217v-.007c0-.577-.367-.906-1.127-1.09l-.622-.15c-.475-.116-.678-.288-.678-.561v-.008c0-.356.353-.603.832-.603.487 0 .801.221.887.54h.641c-.09-.66-.678-1.083-1.524-1.083-.858 0-1.502.505-1.502 1.176v.004c0 .58.34.91 1.097 1.089l.625.15c.499.12.705.311.705.584v.008c0 .367-.386.626-.929.626-.517 0-.839-.222-.948-.558h-.666c.075.666.693 1.1 1.591 1.1Zm4.91-.071h.659v-1.119h.768v-.603h-.768v-3.682h-.978a85.725 85.725 0 0 0-2.314 3.67v.615h2.633v1.119Zm-1.944-1.719v-.045a69.273 69.273 0 0 1 1.902-3.014h.046v3.059h-1.948Zm4.568-3.097c.247 0 .45-.202.45-.449a.452.452 0 0 0-.45-.45.45.45 0 0 0 0 .899Zm-.913 6.202c.846 0 1.239-.356 1.239-1.187v-4.236h-.651v4.247c0 .446-.165.6-.604.6h-.097v.576h.113Zm2.22-1.386h3.996v-.606h-3.109v-.06l3.045-4.258v-.48h-3.827v.607h2.954v.06l-3.059 4.258v.479Zm5.306-4.816a.45.45 0 0 0 0-.899.45.45 0 0 0 0 .899Zm-.33 4.816h.652v-4.037h-.652v4.037Zm1.917 0h.708l2.404-4.778v-.626h-3.576v.603h2.891v.053l-2.427 4.748Zm5.28 0h.674v-5.404h-.67l-1.438 1.034v.711l1.374-.996h.06v4.655Zm2.393-4.816a.45.45 0 0 0 0-.899.45.45 0 0 0 0 .899Zm-.914 6.202c.846 0 1.24-.356 1.24-1.187v-4.236h-.652v4.247c0 .446-.165.6-.603.6h-.097v.576h.112Zm3.947-1.315c1.149 0 1.861-.794 1.861-2.086v-.007c0-1.296-.712-2.086-1.861-2.086-1.15 0-1.861.79-1.861 2.086v.007c0 1.292.711 2.086 1.861 2.086Zm0-.576c-.764 0-1.195-.558-1.195-1.51v-.007c0-.955.431-1.509 1.195-1.509s1.194.554 1.194 1.509v.007c0 .952-.43 1.51-1.194 1.51Zm2.77.505h3.348v-.606h-2.673v-1.858h2.535v-.599h-2.535v-1.734h2.673v-.607h-3.348v5.404Zm5.966 1.424c1.101 0 1.797-.577 1.797-1.48v-3.981h-.651v.667h-.045c-.248-.457-.689-.738-1.259-.738-1.056 0-1.707.82-1.707 1.951v.008c0 1.131.648 1.939 1.693 1.939.554 0 1.011-.25 1.265-.696h.06v.817c0 .595-.43.936-1.153.936-.581 0-.94-.217-1.012-.524l-.003-.004h-.674l-.008.004c.101.662.723 1.101 1.697 1.101Zm-.03-2.21c-.749 0-1.169-.562-1.169-1.363v-.008c0-.801.42-1.374 1.169-1.374.745 0 1.198.573 1.198 1.374v.008c0 .801-.449 1.363-1.198 1.363Zm4.516.857c1.149 0 1.861-.794 1.861-2.086v-.007c0-1.296-.712-2.086-1.861-2.086-1.15 0-1.862.79-1.862 2.086v.007c0 1.292.712 2.086 1.862 2.086Zm0-.576c-.764 0-1.195-.558-1.195-1.51v-.007c0-.955.431-1.509 1.195-1.509s1.194.554 1.194 1.509v.007c0 .952-.43 1.51-1.194 1.51Z"/></g><path fill="#fff" d="M172.267 120.58H134.82v10.828h37.447V120.58Z"/><path fill="#2A80FB" d="M135.602 128.426h.674v-1.928h1.363c1.015 0 1.734-.716 1.734-1.742v-.007c0-1.027-.719-1.727-1.734-1.727h-2.037v5.404Zm1.865-4.805c.771 0 1.217.424 1.217 1.135v.008c0 .711-.446 1.134-1.217 1.134h-1.191v-2.277h1.191Zm3.703 4.876c.543 0 .966-.235 1.221-.666h.06v.595h.651v-2.764c0-.839-.55-1.344-1.535-1.344-.861 0-1.476.427-1.581 1.06l-.003.023h.652l.003-.012c.105-.315.423-.494.906-.494.603 0 .907.269.907.767v.368l-1.157.071c-.94.056-1.473.472-1.473 1.191v.007c0 .734.581 1.198 1.349 1.198Zm-.682-1.213v-.007c0-.401.27-.619.884-.656l1.079-.067v.367c0 .577-.484 1.011-1.147 1.011-.467 0-.816-.24-.816-.648Zm5.007 1.213c.917 0 1.618-.498 1.618-1.217v-.007c0-.577-.368-.906-1.128-1.09l-.621-.15c-.476-.116-.678-.288-.678-.561v-.008c0-.356.352-.603.831-.603.487 0 .802.221.888.54h.64c-.09-.66-.678-1.083-1.524-1.083-.858 0-1.502.505-1.502 1.176v.004c0 .58.341.91 1.097 1.089l.626.15c.498.12.704.311.704.584v.008c0 .367-.386.626-.929.626-.516 0-.839-.222-.947-.558h-.667c.075.666.693 1.1 1.592 1.1Zm3.842-.041c.127 0 .251-.014.378-.037v-.555c-.12.012-.184.016-.3.016-.419 0-.584-.191-.584-.667v-2.285h.884v-.539h-.884v-1.045h-.674v1.045h-.637v.539h.637v2.45c0 .771.348 1.078 1.18 1.078Zm2.755.041c.952 0 1.528-.539 1.667-1.086l.008-.03h-.652l-.015.034c-.109.243-.446.502-.993.502-.718 0-1.179-.487-1.198-1.322h2.906v-.255c0-1.206-.666-2.022-1.764-2.022-1.097 0-1.809.854-1.809 2.101v.004c0 1.266.697 2.074 1.85 2.074Zm-.044-3.599c.595 0 1.037.379 1.105 1.176h-2.233c.071-.767.528-1.176 1.128-1.176Z"/><mask id="h" width="11" height="10" x="161" y="121" maskUnits="userSpaceOnUse" style="mask-type:alpha"><mask id="g" width="12" height="12" x="161" y="120" maskUnits="userSpaceOnUse" style="mask-type:luminance"><path fill="#fff" d="M172.268 120.58H161.44v10.828h10.828V120.58Z"/></mask><g stroke="#282828" stroke-linecap="round" stroke-linejoin="round" stroke-width=".902" mask="url('#g')"><path d="M164.849 121.482h-1.503a1 1 0 0 0-.709.294.999.999 0 0 0-.294.709v1.504m9.023 0v-1.504a.999.999 0 0 0-.294-.709.999.999 0 0 0-.708-.294h-1.504m0 9.024h1.504a.999.999 0 0 0 .708-.294.999.999 0 0 0 .294-.709v-1.504m-9.023 0v1.504c0 .266.105.521.294.709a1 1 0 0 0 .709.294h1.503m1.103-7.219h-1.805v1.805h1.805v-1.805Zm0 3.609h-1.805v1.805h1.805v-1.805Zm3.61 0h-1.805v1.805h1.805v-1.805Zm0-3.609h-1.805v1.805h1.805v-1.805Z"/></g></mask><g mask="url('#h')"><path fill="#2A80FB" d="M172.268 120.58h-10.829v10.828h10.829V120.58Z"/></g></g><path fill="#999" d="M172.268 135.469H17.517v.451h154.751v-.451Z"/><path fill="#999" d="M172.268 135.469H17.517v.451h154.751v-.451Z"/><path fill="#fff" d="M179.486 158.027H10.298v36.545h169.188v-36.545Z"/><path fill="#2A80FB" d="M169.561 165.246H20.224a2.707 2.707 0 0 0-2.707 2.707v16.693a2.707 2.707 0 0 0 2.707 2.707H169.56a2.707 2.707 0 0 0 2.707-2.707v-16.693a2.707 2.707 0 0 0-2.707-2.707Z"/><path fill="#fff" d="M88.69 179.131c1.297 0 2.11-.659 2.11-1.711v-.004c0-.817-.476-1.273-1.615-1.513l-.58-.124c-.674-.142-.948-.382-.948-.764v-.003c0-.461.427-.742 1.026-.742.618-.003 1.019.296 1.087.716l.007.045h.925l-.004-.049c-.067-.869-.813-1.525-2.01-1.525-1.17 0-2 .652-2 1.618v.004c0 .805.479 1.322 1.584 1.554l.58.12c.697.15.977.386.977.775v.004c0 .465-.456.787-1.108.787-.685 0-1.168-.3-1.214-.753l-.003-.038h-.937l.004.053c.067.932.865 1.55 2.12 1.55Zm3.992-.067c.54 0 .974-.232 1.198-.629h.064v.562h.921v-2.798c0-.865-.591-1.374-1.644-1.374-.974 0-1.633.456-1.723 1.145l-.004.034h.88l.004-.015c.094-.269.37-.423.798-.423.502 0 .768.225.768.633v.352l-1.052.064c-.997.059-1.555.487-1.555 1.217v.007c0 .746.566 1.225 1.345 1.225Zm-.424-1.269v-.008c0-.337.244-.528.764-.562l.922-.06v.33c0 .486-.416.854-.978.854-.412 0-.707-.206-.707-.554Zm4.516 1.202h1.022l1.45-4.094h-.982l-.94 3.183h-.063l-.948-3.183h-.996l1.457 4.094Zm4.661.082c1.112 0 1.659-.641 1.79-1.169l.011-.033h-.888l-.011.026c-.09.187-.378.442-.883.442-.634 0-1.03-.427-1.042-1.161h2.861v-.307c0-1.236-.719-2.052-1.883-2.052-1.165 0-1.91.842-1.91 2.13v.004c0 1.303.738 2.12 1.955 2.12Zm-.034-3.524c.52 0 .899.333.963 1.003h-1.944c.071-.651.46-1.003.981-1.003Z"/><mask id="i" width="152" height="321" x="119" y="65" maskUnits="userSpaceOnUse" style="mask-type:luminance"><path fill="#fff" d="M270.7 65.714H119.166v319.742H270.7V65.714Z"/></mask><g mask="url('#i')"><path fill="#F9F9F9" stroke="#000" stroke-width="1.962" d="M258.931 66.695H130.936a9.807 9.807 0 0 0-9.808 9.808V373.77c0 5.417 4.391 9.808 9.808 9.808h127.995c5.417 0 9.808-4.391 9.808-9.808V76.503c0-5.417-4.391-9.808-9.808-9.808Z"/><path fill="#2A80FB" fill-rule="evenodd" d="M258.401 89.19c.161 0 .291.15.291.336v1.637c0 .186-.13.336-.291.336-.161 0-.292-.15-.292-.336v-1.637c0-.186.131-.336.292-.336Z" clip-rule="evenodd"/><path fill="#2A80FB" fill-rule="evenodd" d="M258.156 91.084a.367.367 0 0 1 .48-.119l1.482.793c.169.09.226.288.129.444a.367.367 0 0 1-.48.12l-1.482-.793a.313.313 0 0 1-.129-.445Zm-3.181-2.616c.199 0 .36.15.36.334v1.02h1.104c.199 0 .36.15.36.334 0 .183-.161.332-.36.332h-1.464c-.199 0-.361-.149-.361-.332V88.8c0-.183.162-.333.361-.333Z" clip-rule="evenodd"/><path fill="#2A80FB" fill-rule="evenodd" d="M257.719 87.813a3.523 3.523 0 0 1 2.02.197 3.484 3.484 0 0 1 1.569 1.276 3.441 3.441 0 0 1 0 3.849 3.49 3.49 0 0 1-1.569 1.275 3.527 3.527 0 0 1-2.02.197 3.51 3.51 0 0 1-1.789-.948.347.347 0 0 1 0-.493.353.353 0 0 1 .497 0c.391.387.888.65 1.43.758a2.819 2.819 0 0 0 1.613-.158c.51-.21.946-.564 1.253-1.019a2.746 2.746 0 0 0 0-3.074 2.788 2.788 0 0 0-1.253-1.019 2.814 2.814 0 0 0-3.043.6l-1.212 1.202a.355.355 0 0 1-.498 0 .347.347 0 0 1 0-.493l1.213-1.202a3.505 3.505 0 0 1 1.789-.948Zm-15.112.457a3.125 3.125 0 0 1 2.886 4.707.348.348 0 0 0-.039.277l.315 1.1-1.1-.314a.35.35 0 0 0-.277.038 3.127 3.127 0 0 1-4.057-.774 3.12 3.12 0 0 1 .258-4.125 3.122 3.122 0 0 1 2.014-.91Zm2.011 6.478a3.82 3.82 0 0 1-5.627-3.599 3.816 3.816 0 0 1 3.573-3.573 3.821 3.821 0 0 1 3.99 3.1 3.816 3.816 0 0 1-.392 2.527l.303 1.06a.645.645 0 0 1-.162.625.645.645 0 0 1-.625.162l-1.06-.302Z" clip-rule="evenodd"/><path fill="#2A80FB" fill-rule="evenodd" d="M241.413 91.735c0-.192.156-.347.347-.347h2.084a.348.348 0 0 1 0 .694h-2.084a.347.347 0 0 1-.347-.347Zm0-1.042c0-.191.156-.347.347-.347h2.084a.348.348 0 0 1 0 .695h-2.084a.347.347 0 0 1-.347-.348Z" clip-rule="evenodd"/><path fill="#282828" d="M128.734 85.198h1.024l.923-3.354h.02l.92 3.355h1.023l1.329-5.007h-1.086l-.794 3.587h-.021l-.923-3.587h-.92l-.922 3.587h-.021l-.791-3.587h-1.086l1.325 5.007Zm6.418.06c.49 0 .885-.233 1.097-.615h.02v.555h1.013v-2.55c0-.749-.621-1.245-1.582-1.245-.981 0-1.571.493-1.627 1.18l-.003.041h.926l.007-.031c.049-.24.278-.416.656-.416.395 0 .61.205.61.534v.229l-.919.056c-.923.058-1.447.454-1.447 1.13v.007c0 .656.503 1.124 1.249 1.124Zm-.246-1.177v-.007c0-.263.204-.43.597-.454l.766-.049v.268c0 .388-.333.68-.787.68-.35 0-.576-.163-.576-.438Zm3.122 1.117h1.013v-5.006h-1.013V85.2Zm1.786 0h1.014v-5.006h-1.014V85.2Zm3.455.077c1.062 0 1.575-.628 1.69-1.177l.01-.038h-.929l-.007.021c-.073.208-.326.437-.743.437-.517 0-.839-.346-.85-.94H145v-.312c0-1.124-.683-1.863-1.772-1.863-1.09 0-1.787.756-1.787 1.94v.003c0 1.19.691 1.928 1.828 1.928Zm-.024-3.116c.42 0 .722.267.784.78h-1.578c.065-.502.378-.78.794-.78Zm3.823 3.115c.212 0 .375-.02.489-.037v-.743c-.062.007-.128.017-.218.017-.306 0-.462-.118-.462-.465v-1.803h.68v-.764h-.68v-.909h-1.023v.91h-.517v.763h.517v1.914c0 .799.389 1.118 1.214 1.118Z"/><path fill="#999" d="M128.618 102.613h.437v-3.111h1.129v-.393h-2.696v.393h1.13v3.111Zm2.735.046c.746 0 1.207-.515 1.207-1.352v-.005c0-.841-.461-1.353-1.207-1.353-.745 0-1.207.512-1.207 1.353v.005c0 .837.462 1.352 1.207 1.352Zm0-.374c-.495 0-.775-.362-.775-.978v-.005c0-.62.28-.979.775-.979s.775.359.775.979v.005c0 .616-.28.978-.775.978Zm2.75.347c.083 0 .163-.01.246-.024v-.359a1.86 1.86 0 0 1-.195.01c-.272 0-.379-.125-.379-.433v-1.481h.574v-.35h-.574v-.677h-.437v.677h-.413v.35h.413v1.588c0 .5.226.699.765.699Zm1.553.027c.352 0 .627-.153.792-.432h.039v.386h.422v-1.792c0-.544-.357-.872-.996-.872-.558 0-.956.277-1.025.687l-.002.015h.423l.002-.007c.068-.204.275-.321.588-.321.391 0 .588.175.588.498v.238l-.751.046c-.609.036-.954.306-.954.772v.005c0 .476.376.777.874.777Zm-.442-.787v-.005c0-.259.175-.4.573-.424l.7-.044v.238c0 .374-.314.655-.743.655-.304 0-.53-.155-.53-.42Zm2.449.741h.422v-3.657h-.422v3.657Zm2.601 0h1.367c.745 0 1.187-.367 1.187-.981v-.005c0-.462-.303-.789-.781-.85v-.039c.337-.06.604-.391.604-.752v-.005c0-.535-.394-.872-1.037-.872h-1.34v3.504Zm1.248-3.118c.434 0 .687.206.687.561v.005c0 .369-.269.558-.799.558h-.699v-1.124h.811Zm.012 1.501c.559 0 .845.206.845.609v.005c0 .403-.277.617-.804.617h-.864v-1.231h.823Zm2.631 1.663c.352 0 .626-.153.792-.432h.038v.386h.423v-1.792c0-.544-.357-.872-.995-.872-.559 0-.957.277-1.025.687l-.003.015h.423l.002-.007c.068-.204.274-.321.588-.321.391 0 .587.175.587.498v.238l-.75.046c-.61.036-.954.306-.954.772v.005c0 .476.376.777.874.777Zm-.442-.787v-.005c0-.259.175-.4.573-.424l.699-.044v.238c0 .374-.313.655-.743.655-.303 0-.529-.155-.529-.42Zm2.449.741h.423v-3.657h-.423v3.657Zm1.91.046c.352 0 .626-.153.791-.432h.039v.386h.423v-1.792c0-.544-.357-.872-.996-.872-.558 0-.957.277-1.025.687l-.002.015h.423l.002-.007c.068-.204.274-.321.588-.321.391 0 .587.175.587.498v.238l-.75.046c-.61.036-.954.306-.954.772v.005c0 .476.376.777.874.777Zm-.442-.787v-.005c0-.259.175-.4.573-.424l.699-.044v.238c0 .374-.313.655-.743.655-.303 0-.529-.155-.529-.42Zm2.425.741h.422v-1.55c0-.459.265-.74.682-.74.418 0 .612.226.612.697v1.593h.423v-1.695c0-.622-.328-.97-.916-.97-.386 0-.631.164-.762.441h-.039v-.394h-.422v2.618Zm3.932.046c.629 0 .981-.338 1.088-.811l.005-.027-.418.003-.004.014c-.098.292-.321.447-.673.447-.467 0-.768-.386-.768-.988v-.005c0-.59.296-.969.768-.969.376 0 .609.209.675.466l.002.008h.42l-.002-.015c-.078-.466-.459-.833-1.095-.833-.734 0-1.2.529-1.2 1.343v.005c0 .83.468 1.362 1.202 1.362Zm2.738 0c.617 0 .991-.349 1.08-.704l.005-.02h-.422l-.01.022c-.07.158-.289.326-.643.326-.467 0-.765-.316-.777-.858h1.884v-.165c0-.782-.432-1.311-1.144-1.311s-1.172.553-1.172 1.362v.003c0 .821.451 1.345 1.199 1.345Zm-.029-2.334c.386 0 .672.246.716.763h-1.447c.046-.498.342-.763.731-.763Z"/><mask id="j" width="6" height="5" x="160" y="99" maskUnits="userSpaceOnUse" style="mask-type:luminance"><path fill="#fff" d="M165.793 99.018h-5.328v4.085h5.328v-4.085Z"/></mask><g fill="#B8B8B8" fill-rule="evenodd" clip-rule="evenodd" mask="url('#j')"><path d="M161.781 100.048a4.237 4.237 0 0 0-.825.976.073.073 0 0 0-.011.036.07.07 0 0 0 .011.037c.161.259.442.653.825.977.381.323.832.553 1.348.553.516 0 .967-.23 1.349-.553.382-.324.663-.718.824-.977a.07.07 0 0 0 .011-.037.073.073 0 0 0-.011-.036 4.254 4.254 0 0 0-.824-.976c-.382-.324-.833-.553-1.349-.553s-.967.23-1.348.553Zm-1.234.726a.539.539 0 0 0 0 .573c.349.562 1.247 1.757 2.582 1.757 1.335 0 2.233-1.195 2.582-1.757a.539.539 0 0 0 0-.573c-.349-.562-1.247-1.756-2.582-1.756-1.335 0-2.233 1.194-2.582 1.756Z"/><path d="M163.129 100.59c-.236 0-.427.211-.427.47 0 .26.191.471.427.471s.428-.211.428-.471c0-.259-.192-.47-.428-.47Zm-.888.47c0-.539.398-.976.888-.976.491 0 .888.437.888.976 0 .54-.397.977-.888.977-.49 0-.888-.437-.888-.977Z"/></g><path fill="#282828" d="M130.975 118.062h.608v-1.013c1.76-.098 3.005-1.002 3.005-2.538v-.013c0-1.317-.838-2.009-2.526-2.367l-.479-.097v-2.107c.722.085 1.165.45 1.257 1.05l.012.055h1.621l-.013-.103c-.121-1.403-1.196-2.265-2.877-2.368v-1.02h-.608v1.014c-1.73.085-2.901 1.038-2.901 2.459v.012c0 1.287.825 2.04 2.446 2.38l.455.097v2.173c-.88-.079-1.293-.479-1.396-1.038l-.012-.066h-1.621l.006.091c.097 1.432 1.281 2.294 3.023 2.386v1.013Zm-1.207-7.169v-.013c0-.485.406-.886 1.207-.959v1.985c-.873-.194-1.207-.522-1.207-1.013Zm3.126 3.776v.012c0 .546-.401.941-1.311 1.008v-2.059c1.007.219 1.311.516 1.311 1.039Zm7.278 2.513h1.742v-1.609h1.154v-1.463h-1.154v-5.689h-2.585l-3.516 5.622v1.53h4.359v1.609Zm-2.762-3.023v-.049l2.756-4.365h.043v4.414h-2.799Zm10.125 3.175c2.222 0 3.57-1.742 3.57-4.529v-.012c0-2.787-1.348-4.523-3.57-4.523-2.222 0-3.569 1.736-3.569 4.523v.012c0 2.787 1.347 4.529 3.569 4.529Zm0-1.469c-1.093 0-1.718-1.136-1.718-3.06v-.012c0-1.925.625-3.054 1.718-3.054s1.718 1.129 1.718 3.054v.012c0 1.924-.625 3.06-1.718 3.06Zm4.079 3.144h1.227l.892-3.357h-1.676l-.443 3.357Zm6.725-1.675c2.222 0 3.571-1.742 3.571-4.529v-.012c0-2.787-1.349-4.523-3.571-4.523-2.222 0-3.569 1.736-3.569 4.523v.012c0 2.787 1.347 4.529 3.569 4.529Zm0-1.469c-1.092 0-1.717-1.136-1.717-3.06v-.012c0-1.925.625-3.054 1.717-3.054 1.094 0 1.719 1.129 1.719 3.054v.012c0 1.924-.625 3.06-1.719 3.06Zm6.896 1.317h1.815v-8.761h-1.821l-2.264 1.573v1.627l2.234-1.518h.036v7.079Zm8.025 0h1.742v-1.609h1.154v-1.463h-1.154v-5.689h-2.586l-3.515 5.622v1.53h4.359v1.609Zm-2.762-3.023v-.049l2.756-4.365h.043v4.414h-2.799Zm7.582 3.126a.98.98 0 0 0 .983-.983.976.976 0 0 0-.983-.984.973.973 0 0 0-.984.984c0 .546.431.983.984.983Zm5.602.049c2.088 0 3.527-1.038 3.527-2.544v-.012c0-1.135-.844-1.973-2.015-2.204v-.036c1.008-.249 1.7-.984 1.7-1.919v-.012c0-1.354-1.324-2.337-3.212-2.337-1.894 0-3.212.983-3.212 2.337v.012c0 .935.686 1.67 1.7 1.919v.036c-1.177.231-2.021 1.069-2.021 2.204v.012c0 1.506 1.444 2.544 3.533 2.544Zm0-5.349c-.826 0-1.403-.492-1.403-1.196v-.012c0-.698.583-1.184 1.403-1.184.819 0 1.396.486 1.396 1.184v.012c0 .704-.57 1.196-1.396 1.196Zm0 4.013c-.959 0-1.633-.558-1.633-1.329v-.013c0-.776.668-1.341 1.633-1.341s1.627.565 1.627 1.341v.013c0 .771-.674 1.329-1.627 1.329Zm6.914 1.184h1.815v-8.761h-1.821l-2.265 1.573v1.627l2.234-1.518h.037v7.079Z"/><path fill="#EBEBEB" d="M129.924 136.331a2.664 2.664 0 1 0 0-5.328 2.664 2.664 0 0 0 0 5.328Z"/><path fill="#999" fill-rule="evenodd" d="M131.278 132.665a.225.225 0 0 1 .003.317l-1.647 1.683a.224.224 0 0 1-.318 0l-.749-.765a.224.224 0 1 1 .319-.315l.589.602 1.487-1.52a.223.223 0 0 1 .316-.002Z" clip-rule="evenodd"/><path fill="#282828" d="M136.015 134.299h.374v-1.367h1.649v1.367h.374v-3.003h-.374v1.299h-1.649v-1.299h-.374v3.003Zm3.295-2.676a.25.25 0 0 0 .25-.25.25.25 0 1 0-.25.25Zm-.183 2.676h.362v-2.243h-.362v2.243Zm1.859.04a.766.766 0 0 0 .699-.398h.033v.358h.362v-3.134h-.362v1.244h-.033c-.122-.239-.391-.393-.699-.393-.57 0-.941.456-.941 1.159v.005c0 .699.372 1.159.941 1.159Zm.083-.321c-.41 0-.653-.316-.653-.838v-.005c0-.522.243-.838.653-.838.408 0 .658.32.658.838v.005c0 .518-.25.838-.658.838Zm2.609.321c.528 0 .849-.299.926-.604l.004-.016h-.362l-.009.018c-.06.136-.247.279-.551.279-.4 0-.656-.27-.666-.734h1.615v-.142c0-.67-.37-1.124-.98-1.124s-1.006.475-1.006 1.168v.002c0 .703.387 1.153 1.029 1.153Zm-.025-2c.331 0 .576.21.614.654h-1.241c.04-.428.294-.654.627-.654Zm3.745 2.031c.67 0 1.109-.35 1.109-.912v-.002c0-.433-.248-.684-.874-.824l-.333-.074c-.408-.09-.573-.253-.573-.492v-.002c0-.314.29-.491.664-.493.392-.003.642.193.683.457l.005.028h.374l-.002-.03c-.031-.447-.449-.801-1.049-.801-.62 0-1.055.352-1.058.849v.002c0 .435.261.713.862.845l.334.073c.411.092.584.263.584.512v.002c0 .306-.298.517-.706.517-.432 0-.744-.189-.771-.49l-.003-.022h-.375l.003.022c.044.49.468.835 1.126.835Zm1.674-.071h.362v-1.39c0-.316.223-.572.516-.572.283 0 .466.172.466.439v1.523h.363v-1.442c0-.285.206-.52.518-.52.316 0 .468.164.468.495v1.467h.362v-1.55c0-.471-.256-.733-.714-.733-.31 0-.566.156-.686.393h-.034a.647.647 0 0 0-.62-.393c-.294 0-.506.139-.606.381h-.033v-.341h-.362v2.243Zm4.311.04c.302 0 .537-.131.678-.371h.034v.331h.362v-1.535c0-.467-.306-.748-.854-.748-.478 0-.82.237-.878.589l-.002.013h.362l.002-.007c.058-.175.235-.274.504-.274.335 0 .504.149.504.427v.204l-.644.039c-.522.031-.818.262-.818.662v.004c0 .408.323.666.75.666Zm-.379-.674v-.005c0-.222.15-.343.491-.364l.6-.037v.204c0 .321-.269.562-.637.562-.26 0-.454-.134-.454-.36Zm2.122.634h.361v-3.134h-.361v3.134Zm1.063 0h.363v-3.134h-.363v3.134Zm2.274 0h1.172c.639 0 1.018-.314 1.018-.841v-.004c0-.395-.261-.676-.67-.728v-.034c.289-.052.518-.335.518-.644v-.005c0-.458-.337-.747-.889-.747h-1.149v3.003Zm1.07-2.672c.373 0 .589.177.589.481v.004c0 .316-.231.478-.685.478h-.599v-.963h.695Zm.011 1.286c.478 0 .724.177.724.523v.004c0 .345-.237.528-.689.528h-.741v-1.055h.706Zm2.277 1.426c.302 0 .537-.131.679-.371h.033v.331h.362v-1.535c0-.467-.306-.748-.853-.748-.479 0-.821.237-.879.589l-.002.013h.362l.002-.007c.059-.175.236-.274.504-.274.335 0 .504.149.504.427v.204l-.643.039c-.523.031-.818.262-.818.662v.004c0 .408.322.666.749.666Zm-.379-.674v-.005c0-.222.15-.343.491-.364l.6-.037v.204c0 .321-.269.562-.637.562-.26 0-.454-.134-.454-.36Zm2.121.634h.363v-3.134h-.363v3.134Zm1.66.04c.302 0 .537-.131.678-.371h.034v.331h.362v-1.535c0-.467-.306-.748-.853-.748-.479 0-.821.237-.879.589l-.002.013h.362l.002-.007c.059-.175.236-.274.504-.274.335 0 .504.149.504.427v.204l-.643.039c-.523.031-.818.262-.818.662v.004c0 .408.322.666.749.666Zm-.379-.674v-.005c0-.222.15-.343.491-.364l.6-.037v.204c0 .321-.269.562-.637.562-.26 0-.454-.134-.454-.36Zm2.101.634h.362v-1.328c0-.393.227-.634.585-.634s.524.193.524.597v1.365h.362v-1.453c0-.532-.281-.83-.784-.83-.331 0-.542.139-.654.377h-.033v-.337h-.362v2.243Zm3.393.04c.539 0 .841-.289.932-.695l.005-.023-.358.002-.005.012c-.083.25-.275.383-.576.383-.4 0-.658-.331-.658-.846v-.005c0-.506.254-.83.658-.83.323 0 .522.179.579.4l.002.005h.359l-.001-.012c-.067-.4-.394-.714-.939-.714-.629 0-1.029.454-1.029 1.151v.005c0 .711.402 1.167 1.031 1.167Zm2.369 0c.529 0 .849-.299.926-.604l.004-.016h-.362l-.008.018c-.06.136-.248.279-.552.279-.399 0-.655-.27-.666-.734h1.615v-.142c0-.67-.37-1.124-.98-1.124s-1.005.475-1.005 1.168v.002c0 .703.387 1.153 1.028 1.153Zm-.025-2c.331 0 .577.21.614.654h-1.241c.04-.428.294-.654.627-.654Zm2.3 2c.51 0 .899-.277.899-.677v-.004c0-.32-.204-.503-.626-.605l-.346-.084c-.264-.064-.376-.16-.376-.312v-.004c0-.197.195-.335.462-.335.27 0 .445.123.493.3h.356c-.05-.366-.377-.602-.847-.602-.477 0-.835.281-.835.654v.002c0 .322.19.505.61.605l.348.084c.276.066.391.172.391.324v.005c0 .203-.214.347-.516.347-.287 0-.466-.123-.527-.31h-.37c.041.37.385.612.884.612Z"/><path fill="#fff" d="M261.441 142.462H128.426a2.696 2.696 0 0 0-2.697 2.697v18.982a2.696 2.696 0 0 0 2.697 2.697h133.015a2.697 2.697 0 0 0 2.697-2.697v-18.982a2.697 2.697 0 0 0-2.697-2.697Z"/><path fill="url('#k')" d="M136.585 161.489a6.84 6.84 0 1 0 0-13.678 6.84 6.84 0 0 0 0 13.678Z"/><path fill="#fff" fill-rule="evenodd" d="M132.468 154.748a4.206 4.206 0 0 1 4.201-4.201c2.316 0 4.2 1.885 4.2 4.201s-1.884 4.2-4.2 4.2a4.205 4.205 0 0 1-4.201-4.2Zm.589 0a3.615 3.615 0 0 0 3.612 3.611 3.615 3.615 0 0 0 3.611-3.611 3.616 3.616 0 0 0-3.611-3.613 3.617 3.617 0 0 0-3.612 3.613Zm2.095 1.154a1.897 1.897 0 0 1-.373-.898l-.007.001-.012.001h-.672a.258.258 0 1 1 0-.516h.672l.012.001.007.001c.045-.335.177-.642.373-.898l-.005-.004a.09.09 0 0 1-.01-.009l-.476-.476a.259.259 0 0 1 .365-.365l.475.476a.05.05 0 0 1 .007.008l.007.007c.256-.195.563-.328.898-.373l-.001-.009-.001-.009v-.673a.257.257 0 1 1 .515 0v.673l-.001.011-.001.007c.335.045.642.178.898.373a.027.027 0 0 0 .005-.006l.008-.008.476-.477a.259.259 0 0 1 .365.366l-.476.475a.055.055 0 0 1-.009.007l-.007.006c.197.256.328.563.374.898l.007-.001.011-.001h.673a.258.258 0 1 1 0 .516h-.673l-.012-.001-.007-.001a1.897 1.897 0 0 1-.373.898l.007.005.009.007.475.476a.258.258 0 1 1-.365.364l-.475-.475-.008-.009-.005-.006a1.888 1.888 0 0 1-.898.373l.001.007a.041.041 0 0 1 .001.011v.673a.258.258 0 0 1-.516 0v-.673l.001-.009.001-.009a1.897 1.897 0 0 1-.898-.373.055.055 0 0 0-.006.008l-.007.007-.475.475a.258.258 0 1 1-.365-.364l.476-.476.009-.008.006-.004Zm2.846-1.154c0-.733-.597-1.33-1.329-1.33-.734 0-1.331.597-1.331 1.33 0 .733.597 1.33 1.331 1.33.732 0 1.329-.597 1.329-1.33Z" clip-rule="evenodd"/><path fill="#282828" d="M148.656 156.204c.746 0 1.299-.416 1.416-1.057v-.005h-.442l-.005.005c-.109.403-.481.654-.969.654-.675 0-1.097-.552-1.097-1.428v-.005c0-.877.422-1.43 1.095-1.43.483 0 .857.284.974.733l.002.005h.439l.003-.005c-.105-.673-.68-1.136-1.418-1.136-.952 0-1.545.704-1.545 1.833v.005c0 1.126.595 1.831 1.547 1.831Zm3.129-.037c.745 0 1.207-.515 1.207-1.352v-.005c0-.841-.462-1.353-1.207-1.353-.746 0-1.207.512-1.207 1.353v.005c0 .837.461 1.352 1.207 1.352Zm0-.374c-.495 0-.775-.362-.775-.978v-.005c0-.619.28-.979.775-.979s.775.36.775.979v.005c0 .616-.28.978-.775.978Zm2.043-2.795a.292.292 0 0 0 0-.583.292.292 0 0 0 0 .583Zm-.213 3.123h.422v-2.617h-.422v2.617Zm1.176 0h.423v-1.549c0-.459.264-.741.682-.741.418 0 .612.226.612.697v1.593h.423v-1.695c0-.621-.328-.969-.916-.969-.386 0-.632.163-.763.44h-.038v-.393h-.423v2.617Zm2.915 0h2.127v-.393h-1.69v-3.111h-.437v3.504Zm3.685.046c.746 0 1.207-.515 1.207-1.352v-.005c0-.841-.461-1.353-1.207-1.353s-1.207.512-1.207 1.353v.005c0 .837.461 1.352 1.207 1.352Zm0-.374c-.495 0-.775-.362-.775-.978v-.005c0-.619.28-.979.775-.979.496 0 .775.36.775.979v.005c0 .616-.279.978-.775.978Zm2.539.374c.352 0 .626-.153.792-.432h.038v.386h.423v-1.792c0-.544-.357-.872-.995-.872-.559 0-.957.277-1.025.688l-.003.014h.423l.002-.007c.068-.204.275-.321.588-.321.391 0 .587.175.587.498v.238l-.75.046c-.609.037-.954.306-.954.772v.005c0 .476.376.777.874.777Zm-.442-.787v-.005c0-.259.175-.4.573-.424l.699-.044v.238c0 .374-.313.656-.743.656-.303 0-.529-.156-.529-.421Zm2.425.741h.422v-1.549c0-.459.265-.741.683-.741.417 0 .612.226.612.697v1.593h.422v-1.695c0-.621-.328-.969-.916-.969-.386 0-.631.163-.762.44h-.039v-.393h-.422v2.617Zm5.181 0h.438v-3.111h1.129v-.393h-2.695v.393h1.128v3.111Zm2.736.046c.746 0 1.207-.515 1.207-1.352v-.005c0-.841-.461-1.353-1.207-1.353s-1.207.512-1.207 1.353v.005c0 .837.461 1.352 1.207 1.352Zm0-.374c-.495 0-.774-.362-.774-.978v-.005c0-.619.279-.979.774-.979.496 0 .775.36.775.979v.005c0 .616-.279.978-.775.978Zm1.844.328h.423v-.993l.245-.238.981 1.231h.532l-1.217-1.517 1.142-1.1h-.512l-1.132 1.143h-.039v-2.183h-.423v3.657Zm3.581.046c.617 0 .991-.349 1.081-.704l.004-.019h-.422l-.01.022c-.07.158-.289.325-.643.325-.467 0-.766-.316-.777-.857h1.884v-.166c0-.781-.432-1.311-1.144-1.311-.711 0-1.173.554-1.173 1.362v.003c0 .821.452 1.345 1.2 1.345Zm-.029-2.333c.386 0 .673.245.716.762h-1.447c.046-.498.342-.762.731-.762Zm1.759 2.287h.423v-1.549c0-.459.264-.741.682-.741.418 0 .612.226.612.697v1.593h.422v-1.695c0-.621-.328-.969-.915-.969-.386 0-.631.163-.763.44h-.038v-.393h-.423v2.617Zm43.383-3.713h.849v-.781h.555v-.714h-.555v-2.76h-1.25a52.956 52.956 0 0 0-1.684 2.775v.699h2.085v.781Zm-1.282-1.471v-.047c.383-.687.84-1.427 1.252-2.061h.048v2.108h-1.3Zm3.419 1.471h3.069v-.716h-1.875v-.068l.787-.734c.776-.717 1.026-1.118 1.026-1.601v-.009c0-.734-.613-1.236-1.489-1.236-.931 0-1.568.56-1.568 1.377l.003.012h.822v-.014c0-.405.286-.682.702-.682.407 0 .655.254.655.616v.009c0 .298-.162.514-.761 1.094l-1.371 1.354v.598Zm4.416.074a.5.5 0 0 0 .518-.513.498.498 0 0 0-.518-.51.5.5 0 0 0-.519.51c0 .292.218.513.519.513Zm2.868.035c.955 0 1.615-.61 1.615-1.506v-.006c0-.811-.572-1.395-1.365-1.395-.407 0-.737.177-.908.463h-.053l.106-1.212h1.967v-.708h-2.66l-.198 2.518h.764a.81.81 0 0 1 .737-.418c.452 0 .773.315.773.77v.005c0 .458-.318.779-.776.779-.401 0-.692-.251-.754-.563l-.007-.021h-.807l.003.041c.05.711.651 1.253 1.563 1.253Zm2.543-.109h.931l1.779-3.538v-.72h-3.043v.711h2.146v.05l-1.813 3.497Zm4.973.109c.956 0 1.616-.61 1.616-1.506v-.006c0-.811-.572-1.395-1.365-1.395-.407 0-.738.177-.908.463h-.054l.107-1.212h1.967v-.708h-2.66l-.198 2.518h.764a.81.81 0 0 1 .737-.418c.451 0 .773.315.773.77v.005c0 .458-.319.779-.776.779-.401 0-.693-.251-.755-.563l-.006-.021h-.807l.002.041c.051.711.652 1.253 1.563 1.253Zm3.968 0c.955 0 1.616-.61 1.616-1.506v-.006c0-.811-.572-1.395-1.366-1.395-.406 0-.737.177-.908.463h-.053l.107-1.212h1.966v-.708h-2.659l-.198 2.518h.764a.808.808 0 0 1 .737-.418c.451 0 .772.315.772.77v.005c0 .458-.318.779-.775.779-.401 0-.693-.251-.755-.563l-.006-.021h-.808l.003.041c.05.711.652 1.253 1.563 1.253Zm5.762 0c1.026 0 1.755-.607 1.846-1.497l.003-.033h-.867l-.006.024c-.094.454-.463.752-.973.752-.672 0-1.088-.566-1.088-1.48v-.007c0-.914.416-1.477 1.085-1.477.507 0 .888.324.979.802v.021h.867v-.036c-.083-.899-.837-1.542-1.846-1.542-1.235 0-1.996.852-1.996 2.232v.007c0 1.38.764 2.234 1.996 2.234Zm2.626-.109h2.784v-.734h-1.893v-3.521h-.891v4.255Zm4.021 0h.89v-3.521h1.277v-.734h-3.444v.734h1.277v3.521Z"/><path fill="#999" d="M241.58 160.626h.25v-.35c.491-.039.899-.32.899-.82v-.004c0-.435-.299-.656-.834-.785l-.065-.014v-.956c.281.036.481.208.508.487v.005l.362-.003v-.002c-.016-.458-.389-.77-.87-.814v-.351h-.25v.351c-.493.046-.845.351-.845.796v.004c0 .408.279.639.798.764l.047.013v1c-.362-.039-.522-.245-.559-.503v-.005l-.363.003v.002c.017.483.427.784.922.831v.351Zm-.482-2.481v-.004c0-.2.166-.4.482-.444v.895c-.358-.087-.482-.245-.482-.447Zm.745.864c.412.1.524.245.524.472v.004c0 .24-.15.435-.537.467v-.945l.013.002Zm2.544 1.365c.601 0 1.042-.37 1.042-.872v-.004c0-.427-.297-.7-.734-.737v-.008c.374-.079.637-.333.637-.704v-.004c0-.456-.377-.774-.95-.774-.562 0-.949.326-.997.816l-.002.02h.36l.002-.02c.032-.304.284-.492.637-.492.367 0 .573.181.573.496v.004c0 .3-.25.52-.608.52h-.36v.317h.377c.42 0 .684.206.684.574v.004c0 .319-.268.539-.661.539-.4 0-.673-.204-.702-.499l-.002-.021h-.36l.002.025c.04.475.441.82 1.062.82Zm3.008-.05h.366v-.622h.427v-.335h-.427v-2.046h-.543a46.69 46.69 0 0 0-1.287 2.039v.342h1.464v.622Zm-1.081-.955v-.025c.327-.552.72-1.172 1.058-1.676h.025v1.701h-1.083Zm3.444 1.026c.664 0 1.063-.605 1.063-1.572v-.004c0-.966-.399-1.569-1.063-1.569-.664 0-1.06.603-1.06 1.569v.004c0 .967.396 1.572 1.06 1.572Zm0-.327c-.431 0-.683-.479-.683-1.245v-.004c0-.766.252-1.24.683-1.24.43 0 .687.474.687 1.24v.004c0 .766-.257 1.245-.687 1.245Zm1.796.277c.15 0 .271-.123.271-.271a.27.27 0 1 0-.271.271Zm1.849.05c.606 0 1.051-.435 1.051-1.035v-.004c0-.576-.421-1.005-.985-1.005-.405 0-.689.218-.799.464h-.039c0-.023 0-.047.002-.071.023-.626.246-1.159.791-1.159.304 0 .514.156.605.408l.009.023h.376l-.006-.027c-.102-.444-.477-.739-.98-.739-.728 0-1.155.599-1.155 1.623v.004c0 1.131.58 1.518 1.13 1.518Zm-.683-1.039v-.002c0-.391.296-.676.685-.676.389 0 .673.287.673.687v.004a.683.683 0 0 1-.679.695c-.381 0-.679-.312-.679-.708Zm3.327 1.039c.664 0 1.064-.605 1.064-1.572v-.004c0-.966-.4-1.569-1.064-1.569s-1.06.603-1.06 1.569v.004c0 .967.396 1.572 1.06 1.572Zm0-.327c-.431 0-.683-.479-.683-1.245v-.004c0-.766.252-1.24.683-1.24.431 0 .687.474.687 1.24v.004c0 .766-.256 1.245-.687 1.245Zm3.037.256h.366v-.622h.427v-.335h-.427v-2.046h-.543c-.42.626-.88 1.359-1.286 2.039v.342h1.463v.622Zm-1.08-.955v-.025a38.42 38.42 0 0 1 1.057-1.676h.025v1.701h-1.082Z"/><path stroke="#EBEBEB" stroke-width=".49" d="M261.441 142.462H128.426a2.696 2.696 0 0 0-2.697 2.697v18.982a2.696 2.696 0 0 0 2.697 2.697h133.015a2.697 2.697 0 0 0 2.697-2.697v-18.982a2.697 2.697 0 0 0-2.697-2.697Z"/><path fill="#fff" d="M261.441 171.252H128.426a2.696 2.696 0 0 0-2.697 2.697v18.982a2.696 2.696 0 0 0 2.697 2.697h133.015a2.697 2.697 0 0 0 2.697-2.697v-18.982a2.697 2.697 0 0 0-2.697-2.697Z"/><path fill="url('#l')" d="M143.219 185.094v.001a6.838 6.838 0 1 1-13.269-3.31 6.838 6.838 0 0 1 13.269 3.309Z"/><path fill="#fff" fill-rule="evenodd" d="M138.646 182.646c.092-.618-.378-.95-1.02-1.171l.208-.836-.509-.127-.203.814a22.233 22.233 0 0 0-.408-.096l.204-.819-.508-.127-.209.836c-.11-.025-.219-.05-.325-.076l.001-.003-.702-.176-.136.544s.378.087.37.092c.206.052.244.188.237.296l-.238.953a.246.246 0 0 1 .053.017l-.053-.014-.333 1.335c-.026.062-.089.156-.233.121a8.71 8.71 0 0 1-.37-.093l-.253.583.662.165.222.057.141.037-.21.846.508.126.209-.836c.139.037.273.072.405.105l-.208.833.509.127.211-.845c.868.165 1.521.098 1.796-.686.221-.632-.011-.997-.468-1.235.333-.077.583-.296.65-.747Zm-1.163 1.63c-.145.58-1.053.341-1.468.231a5.647 5.647 0 0 0-.099-.026l.28-1.12.125.029c.429.096 1.309.293 1.162.886Zm-1.076-1.406c.347.092 1.102.294 1.233-.233.135-.54-.599-.702-.958-.781a5.302 5.302 0 0 1-.105-.024l-.253 1.016.083.022Z" clip-rule="evenodd"/><path fill="#282828" d="M147.245 184.911h1.367c.746 0 1.188-.367 1.188-.981v-.004c0-.462-.304-.79-.782-.851v-.039c.337-.06.605-.39.605-.752v-.005c0-.534-.394-.872-1.038-.872h-1.34v3.504Zm1.248-3.118c.435 0 .688.207.688.561v.005c0 .369-.27.558-.8.558h-.699v-1.124h.811Zm.012 1.501c.559 0 .845.206.845.61v.004c0 .404-.276.617-.803.617h-.865v-1.231h.823Zm2.136-1.506a.291.291 0 1 0 0-.583.291.291 0 0 0 0 .583Zm-.214 3.123h.423v-2.617h-.423v2.617Zm2.107.02c.082 0 .162-.01.245-.025v-.359c-.078.007-.119.01-.194.01-.272 0-.379-.124-.379-.432v-1.482h.573v-.349h-.573v-.678h-.437v.678h-.413v.349h.413v1.588c0 .501.226.7.765.7Zm1.866.026c.629 0 .981-.337 1.088-.811l.005-.026-.418.002-.005.014c-.097.292-.32.447-.672.447-.467 0-.768-.386-.768-.988v-.005c0-.59.296-.969.768-.969.376 0 .609.209.674.466l.003.008h.42l-.002-.015c-.078-.466-.459-.833-1.095-.833-.734 0-1.2.53-1.2 1.343v.005c0 .831.468 1.362 1.202 1.362Zm2.745 0c.746 0 1.207-.515 1.207-1.352v-.005c0-.84-.461-1.353-1.207-1.353s-1.207.513-1.207 1.353v.005c0 .837.461 1.352 1.207 1.352Zm0-.374c-.495 0-.774-.361-.774-.978v-.005c0-.619.279-.979.774-.979.496 0 .775.36.775.979v.005c0 .617-.279.978-.775.978Zm2.043-2.795a.292.292 0 0 0 0-.583.292.292 0 0 0 0 .583Zm-.213 3.123h.422v-2.617h-.422v2.617Zm1.177 0h.422v-1.549c0-.459.265-.741.682-.741.418 0 .612.226.612.697v1.593h.423v-1.695c0-.621-.328-.969-.916-.969-.386 0-.631.163-.763.44h-.038v-.393h-.422v2.617Zm49.901-3.603c1.053 0 1.69-.861 1.69-2.235v-.006c0-1.377-.637-2.233-1.69-2.233-1.05 0-1.69.856-1.69 2.233v.006c0 1.374.64 2.235 1.69 2.235Zm0-.705c-.501 0-.787-.569-.787-1.53v-.006c0-.964.286-1.528.787-1.528.504 0 .79.564.79 1.528v.006c0 .961-.286 1.53-.79 1.53Zm2.762.67a.5.5 0 0 0 .518-.514.498.498 0 0 0-.518-.51.5.5 0 0 0-.519.51c0 .292.218.514.519.514Zm1.378-.075h3.07v-.716h-1.875v-.068l.787-.734c.776-.717 1.026-1.117 1.026-1.601v-.009c0-.734-.613-1.236-1.489-1.236-.932 0-1.569.56-1.569 1.377l.003.012h.823v-.015c0-.404.286-.681.702-.681.407 0 .654.254.654.617v.009c0 .297-.162.513-.761 1.094l-1.371 1.353v.598Zm5.457.11c.956 0 1.616-.611 1.616-1.507v-.006c0-.811-.572-1.395-1.365-1.395-.407 0-.737.177-.908.463h-.053l.106-1.212h1.967v-.708h-2.66l-.198 2.519h.764a.81.81 0 0 1 .737-.419c.451 0 .773.315.773.77v.005c0 .458-.319.779-.776.779-.401 0-.693-.251-.755-.563l-.006-.021h-.807l.002.041c.05.711.652 1.254 1.563 1.254Zm4.021-.015c1.023 0 1.728-.51 1.728-1.247v-.006c0-.555-.416-.967-.994-1.08v-.017c.496-.124.838-.481.838-.944v-.006c0-.66-.649-1.144-1.572-1.144-.926 0-1.572.484-1.572 1.144v.006c0 .463.339.823.838.944v.017c-.581.116-.994.525-.994 1.08v.006c0 .737.705 1.247 1.728 1.247Zm0-2.619c-.41 0-.693-.241-.693-.589v-.006c0-.348.286-.587.693-.587.404 0 .69.239.69.587v.006c0 .348-.283.589-.69.589Zm0 1.97c-.469 0-.799-.274-.799-.657v-.006c0-.384.327-.661.799-.661.472 0 .796.277.796.661v.006c0 .383-.33.657-.796.657Zm4.074.649c.993 0 1.657-.522 1.657-1.295v-.005c0-.579-.413-.944-1.047-1.003v-.018c.499-.103.888-.448.888-.979v-.006c0-.678-.59-1.138-1.504-1.138-.893 0-1.492.495-1.554 1.257l-.003.035h.82l.003-.027c.035-.354.315-.581.734-.581s.664.218.664.573v.005c0 .345-.289.581-.738.581h-.475v.634h.487c.516 0 .82.224.82.631v.006c0 .36-.298.613-.752.613-.46 0-.764-.236-.802-.566l-.003-.032h-.852l.003.038c.059.761.693 1.277 1.654 1.277Zm4.074.015c.958 0 1.63-.64 1.63-1.51v-.006c0-.805-.56-1.395-1.389-1.395-.586 0-.943.292-1.097.623h-.058c0-.033 0-.066.003-.098.032-.772.3-1.377.917-1.377.345 0 .587.18.687.445l.011.027h.87l-.006-.03c-.129-.666-.742-1.153-1.565-1.153-1.089 0-1.761.847-1.761 2.271v.006c0 1.498.77 2.197 1.758 2.197Zm-.782-1.498v-.003c0-.44.342-.755.782-.755.445 0 .77.324.77.769v.006a.77.77 0 0 1-.776.776.775.775 0 0 1-.776-.793Zm5.145 1.388h.849v-.781h.554v-.713h-.554v-2.761h-1.25a52.283 52.283 0 0 0-1.684 2.775v.699h2.085v.781Zm-1.283-1.471v-.047c.383-.687.84-1.427 1.253-2.061h.047v2.108h-1.3Zm5.085 1.566c1.023 0 1.728-.51 1.728-1.247v-.006c0-.555-.416-.967-.994-1.08v-.017c.496-.124.838-.481.838-.944v-.006c0-.66-.649-1.144-1.572-1.144-.926 0-1.571.484-1.571 1.144v.006c0 .463.338.823.837.944v.017c-.581.116-.994.525-.994 1.08v.006c0 .737.705 1.247 1.728 1.247Zm0-2.619c-.41 0-.693-.241-.693-.589v-.006c0-.348.286-.587.693-.587.404 0 .69.239.69.587v.006c0 .348-.283.589-.69.589Zm0 1.97c-.468 0-.799-.274-.799-.657v-.006c0-.384.328-.661.799-.661.472 0 .796.277.796.661v.006c0 .383-.33.657-.796.657Zm4.151.649c1.023 0 1.728-.51 1.728-1.247v-.006c0-.555-.416-.967-.994-1.08v-.017c.496-.124.837-.481.837-.944v-.006c0-.66-.648-1.144-1.571-1.144-.926 0-1.572.484-1.572 1.144v.006c0 .463.339.823.837.944v.017c-.581.116-.993.525-.993 1.08v.006c0 .737.705 1.247 1.728 1.247Zm0-2.619c-.41 0-.693-.241-.693-.589v-.006c0-.348.286-.587.693-.587.404 0 .69.239.69.587v.006c0 .348-.283.589-.69.589Zm0 1.97c-.469 0-.799-.274-.799-.657v-.006c0-.384.327-.661.799-.661.471 0 .796.277.796.661v.006c0 .383-.33.657-.796.657Zm4.084.554h1.911c.908 0 1.471-.468 1.471-1.214v-.006c0-.546-.409-.967-.973-1.012v-.053a.92.92 0 0 0 .77-.905v-.006c0-.655-.492-1.059-1.318-1.059h-1.861v4.255Zm1.634-3.594c.424 0 .669.206.669.552v.005c0 .351-.262.552-.743.552h-.669v-1.109h.743Zm.029 1.696c.525 0 .811.212.811.607v.006c0 .404-.277.622-.79.622h-.793V179.3h.772Zm3.514 1.898h.89v-3.52h1.277v-.735h-3.444v.735h1.277v3.52Zm4.572.11c1.026 0 1.755-.608 1.846-1.498l.003-.033h-.867l-.006.024c-.094.454-.463.752-.973.752-.673 0-1.088-.566-1.088-1.48v-.006c0-.914.415-1.478 1.085-1.478.507 0 .888.325.979.802v.021h.867v-.035c-.083-.9-.837-1.543-1.846-1.543-1.235 0-1.997.853-1.997 2.233v.006c0 1.38.764 2.235 1.997 2.235Z"/><path fill="#999" d="M241.69 189.416h.25v-.35c.491-.039.899-.32.899-.819v-.005c0-.435-.3-.656-.835-.785l-.064-.014v-.956c.281.036.48.209.508.487v.005l.362-.002v-.003c-.017-.457-.39-.77-.87-.813v-.352h-.25v.352c-.493.045-.845.349-.845.795v.004c0 .408.279.639.797.764l.048.012v1.001c-.362-.039-.523-.245-.56-.503v-.004l-.362.002v.002c.016.483.426.784.922.83v.352Zm-.483-2.481v-.004c0-.2.166-.4.483-.444v.895c-.358-.087-.483-.245-.483-.447Zm.745.864c.412.1.525.245.525.473v.003c0 .24-.15.435-.537.467v-.945l.012.002Zm2.583 1.386c.606 0 1.052-.435 1.052-1.034v-.005c0-.576-.421-1.005-.985-1.005-.406 0-.689.219-.799.464h-.04c0-.023 0-.048.002-.071.023-.626.246-1.159.791-1.159.304 0 .514.156.606.408l.008.023h.377l-.006-.027c-.102-.444-.477-.739-.981-.739-.728 0-1.155.599-1.155 1.623v.005c0 1.13.581 1.517 1.13 1.517Zm-.682-1.039v-.002c0-.391.295-.676.685-.676.389 0 .672.287.672.687v.004a.683.683 0 0 1-.679.695c-.381 0-.678-.312-.678-.708Zm2.086 1.732h.269l.326-1.184h-.414l-.181 1.184Zm2.18-.693c.664 0 1.063-.606 1.063-1.572v-.004c0-.965-.399-1.569-1.063-1.569-.664 0-1.06.604-1.06 1.569v.004c0 .966.396 1.572 1.06 1.572Zm0-.326c-.431 0-.683-.48-.683-1.246v-.004c0-.766.252-1.24.683-1.24.43 0 .686.474.686 1.24v.004c0 .766-.256 1.246-.686 1.246Zm2.652.326c.61 0 1.045-.423 1.045-1.028v-.004c0-.581-.406-1.004-.97-1.004-.273 0-.508.111-.642.313h-.033l.102-1.016h1.376v-.335h-1.671l-.159 1.726h.325a.679.679 0 0 1 .137-.179c.13-.124.3-.184.5-.184.389 0 .668.286.668.685v.004c0 .406-.275.691-.674.691-.352 0-.612-.229-.648-.516l-.002-.016h-.36l.002.022c.044.481.444.841 1.004.841Zm2.617-3.145c-.606 0-1.052.435-1.052 1.034v.005c0 .576.421 1.005.985 1.005.406 0 .689-.219.799-.464h.04c0 .023 0 .048-.002.07-.023.627-.246 1.16-.791 1.16-.304 0-.514-.156-.606-.408l-.009-.023h-.376l.006.027c.102.443.477.739.981.739.728 0 1.155-.599 1.155-1.624v-.004c0-1.13-.581-1.517-1.13-1.517Zm-.002 1.717c-.39 0-.673-.287-.673-.686v-.005c0-.389.302-.695.678-.695.382 0 .679.312.679.708v.002a.663.663 0 0 1-.684.676Zm1.85 1.378a.27.27 0 1 0 .001-.541.27.27 0 0 0-.001.541Zm1.564-.02h.374v-3.004h-.372l-.8.574v.396l.764-.554h.034v2.588Zm1.353 0h.394l1.336-2.656v-.348h-1.988v.335h1.607v.029l-1.349 2.64Z"/><path stroke="#EBEBEB" stroke-width=".49" d="M261.441 171.252H128.426a2.696 2.696 0 0 0-2.697 2.697v18.982a2.696 2.696 0 0 0 2.697 2.697h133.015a2.697 2.697 0 0 0 2.697-2.697v-18.982a2.697 2.697 0 0 0-2.697-2.697Z"/><path fill="#fff" d="M261.441 200.042H128.426a2.697 2.697 0 0 0-2.697 2.697v18.982a2.697 2.697 0 0 0 2.697 2.698h133.015a2.698 2.698 0 0 0 2.697-2.698v-18.982a2.698 2.698 0 0 0-2.697-2.697Z"/><path fill="url('#m')" d="M136.585 219.068a6.838 6.838 0 1 0 .002-13.676 6.838 6.838 0 0 0-.002 13.676Z"/><path fill="#fff" d="m134.807 210.779-1.22-1.179v3.945h-1.525l.415 1.316h2.33v-2.2l1.705 1.568 1.706-1.568v2.2h2.329l.417-1.316h-1.526V209.6l-1.22 1.179-1.706 1.68-1.705-1.68Z"/><path fill="#282828" d="M147.245 213.701h.408v-2.676h.027l1.107 2.676h.369l1.108-2.676h.027v2.676h.407v-3.504h-.508l-1.199 2.924h-.039l-1.199-2.924h-.508v3.504Zm5.327.046c.745 0 1.207-.514 1.207-1.352v-.005c0-.84-.462-1.353-1.207-1.353-.746 0-1.207.513-1.207 1.353v.005c0 .838.461 1.352 1.207 1.352Zm0-.373c-.496 0-.775-.362-.775-.979v-.005c0-.619.279-.978.775-.978.495 0 .774.359.774.978v.005c0 .617-.279.979-.774.979Zm1.82.327h.422v-1.549c0-.459.265-.74.683-.74.417 0 .612.225.612.696v1.593h.422v-1.695c0-.621-.328-.969-.916-.969-.386 0-.631.163-.762.44h-.039v-.393h-.422v2.617Zm3.93.046c.617 0 .99-.349 1.081-.704l.005-.019h-.423l-.01.022c-.07.158-.289.325-.643.325-.467 0-.765-.316-.778-.857h1.885v-.165c0-.782-.432-1.312-1.144-1.312-.711 0-1.173.554-1.173 1.363v.002c0 .821.452 1.345 1.2 1.345Zm-.029-2.333c.386 0 .672.245.716.762h-1.447c.046-.498.342-.762.731-.762Zm1.759 2.287h.423v-1.622c0-.383.286-.638.689-.638.092 0 .173.009.26.024v-.41a1.302 1.302 0 0 0-.211-.018c-.355 0-.6.161-.7.435h-.038v-.388h-.423v2.617Zm2.855.046c.745 0 1.206-.514 1.206-1.352v-.005c0-.84-.461-1.353-1.206-1.353-.746 0-1.207.513-1.207 1.353v.005c0 .838.461 1.352 1.207 1.352Zm0-.373c-.496 0-.775-.362-.775-.979v-.005c0-.619.279-.978.775-.978.495 0 .774.359.774.978v.005c0 .617-.279.979-.774.979Zm60.79-3.385h3.07v-.717h-1.875v-.068l.787-.734c.776-.716 1.026-1.117 1.026-1.601v-.009c0-.734-.613-1.236-1.489-1.236-.932 0-1.569.561-1.569 1.377l.003.012h.823v-.015c0-.403.286-.681.702-.681.407 0 .654.254.654.617v.009c0 .297-.162.513-.76 1.094l-1.372 1.353v.599Zm5.54.109c.958 0 1.631-.64 1.631-1.51v-.006c0-.805-.561-1.395-1.389-1.395-.587 0-.944.292-1.097.623h-.06c0-.033 0-.065.003-.097.033-.773.302-1.378.918-1.378.345 0 .586.18.687.445l.012.027h.869l-.006-.03c-.129-.666-.743-1.153-1.565-1.153-1.088 0-1.761.847-1.761 2.271v.006c0 1.498.77 2.197 1.758 2.197Zm-.782-1.498v-.003c0-.44.343-.755.782-.755.445 0 .77.325.77.769v.006a.77.77 0 0 1-.776.776.776.776 0 0 1-.776-.793Zm3.555 1.463a.5.5 0 0 0 .519-.513.498.498 0 0 0-.519-.511.5.5 0 0 0-.519.511c0 .291.219.513.519.513Zm3.322-.074h.85v-.782h.554v-.713h-.554v-2.76h-1.251a52.244 52.244 0 0 0-1.683 2.774v.699h2.084v.782Zm-1.283-1.472v-.047c.384-.687.841-1.427 1.254-2.061h.047v2.108h-1.301Zm5.033 1.581c.955 0 1.616-.611 1.616-1.507v-.006c0-.811-.573-1.395-1.366-1.395-.407 0-.737.177-.908.463h-.053l.106-1.212h1.967v-.707h-2.66l-.197 2.518h.763a.763.763 0 0 1 .198-.236.808.808 0 0 1 .54-.183c.451 0 .772.315.772.77v.005c0 .458-.318.779-.775.779-.401 0-.693-.25-.755-.563l-.006-.021h-.808l.003.041c.05.711.652 1.254 1.563 1.254Zm2.543-.109h.932l1.778-3.539v-.719h-3.043v.71h2.147v.05l-1.814 3.498Zm4.763 0h.961l.929-1.492h.029l.932 1.492h1.015l-1.374-2.126v-.012l1.394-2.117h-.997l-.896 1.533h-.035l-.903-1.533h-1.049l1.344 2.102v.009l-1.35 2.144Zm4.619 0h.793v-2.896h.059l1.091 2.896h.558l1.091-2.896h.059v2.896h.793v-4.255h-1.021l-1.173 3.114h-.053l-1.177-3.114h-1.02v4.255Zm5.437 0h.89v-1.557h.728l.793 1.557h1.009l-.896-1.69c.486-.192.769-.661.769-1.206v-.006c0-.837-.554-1.353-1.522-1.353h-1.771v4.255Zm.89-2.206v-1.353h.772c.446 0 .72.265.72.675v.006c0 .419-.262.672-.708.672h-.784Z"/><path fill="#999" d="M241.399 218.206h.25v-.35c.491-.039.899-.32.899-.819v-.004c0-.436-.3-.656-.835-.786l-.064-.014v-.956c.281.036.48.209.507.488v.004l.363-.002v-.002c-.017-.458-.39-.771-.87-.814v-.352h-.25v.352c-.494.045-.845.349-.845.795v.004c0 .408.279.639.797.764l.048.012v1.002c-.362-.04-.523-.246-.56-.504v-.004l-.362.002v.002c.016.483.426.785.922.83v.352Zm-.483-2.481v-.004c0-.2.166-.399.483-.444v.896c-.358-.088-.483-.246-.483-.448Zm.745.864c.412.1.525.245.525.473v.003c0 .24-.15.436-.537.467v-.945l.012.002Zm2.894 1.316h.366v-.623h.427v-.335h-.427v-2.046h-.543a46.733 46.733 0 0 0-1.287 2.04v.341h1.464v.623Zm-1.081-.956v-.025c.327-.551.72-1.172 1.058-1.675h.025v1.7h-1.083Zm2.203 1.72h.269l.326-1.185h-.414l-.181 1.185Zm2.18-.694c.664 0 1.063-.606 1.063-1.571v-.005c0-.965-.399-1.569-1.063-1.569-.664 0-1.06.604-1.06 1.569v.005c0 .965.396 1.571 1.06 1.571Zm0-.326c-.431 0-.683-.479-.683-1.245v-.005c0-.766.252-1.24.683-1.24.431 0 .687.474.687 1.24v.005c0 .766-.256 1.245-.687 1.245Zm2.4.256h.375v-3.004h-.373l-.799.575v.395l.764-.554h.033v2.588Zm2.251.05c.601 0 1.042-.371 1.042-.873v-.004c0-.426-.297-.699-.734-.737v-.008c.374-.079.637-.333.637-.703v-.005c0-.455-.378-.774-.95-.774-.562 0-.949.327-.997.816l-.002.021h.36l.002-.021c.032-.304.283-.492.637-.492.367 0 .572.182.572.496v.004c0 .3-.249.52-.607.52h-.36v.317h.377c.42 0 .684.206.684.575v.003c0 .319-.268.54-.661.54-.4 0-.673-.204-.702-.5l-.002-.02h-.36l.002.025c.039.474.441.82 1.062.82Zm1.788-.03a.27.27 0 1 0 0-.54.27.27 0 0 0 0 .54Zm1.85.03c.602 0 1.043-.371 1.043-.873v-.004c0-.426-.297-.699-.734-.737v-.008c.374-.079.636-.333.636-.703v-.005c0-.455-.376-.774-.949-.774-.562 0-.949.327-.997.816l-.002.021h.36l.002-.021c.032-.304.283-.492.637-.492.367 0 .573.182.573.496v.004c0 .3-.25.52-.608.52h-.36v.317h.377c.42 0 .684.206.684.575v.003c0 .319-.268.54-.662.54-.399 0-.672-.204-.701-.5l-.002-.02h-.36l.002.025c.039.474.441.82 1.061.82Zm2.659 0c.602 0 1.043-.371 1.043-.873v-.004c0-.426-.298-.699-.735-.737v-.008c.374-.079.637-.333.637-.703v-.005c0-.455-.377-.774-.949-.774-.562 0-.949.327-.997.816l-.003.021h.361l.002-.021c.031-.304.283-.492.637-.492.366 0 .572.182.572.496v.004c0 .3-.249.52-.607.52h-.361v.317h.377c.421 0 .685.206.685.575v.003c0 .319-.269.54-.662.54-.4 0-.673-.204-.701-.5l-.002-.02h-.361l.003.025c.039.474.44.82 1.061.82Z"/><path stroke="#EBEBEB" stroke-width=".49" d="M261.441 200.042H128.426a2.697 2.697 0 0 0-2.697 2.697v18.982a2.697 2.697 0 0 0 2.697 2.698h133.015a2.698 2.698 0 0 0 2.697-2.698v-18.982a2.698 2.698 0 0 0-2.697-2.697Z"/><path fill="#fff" d="M261.441 228.832H128.426a2.697 2.697 0 0 0-2.697 2.697v18.982a2.697 2.697 0 0 0 2.697 2.698h133.015a2.698 2.698 0 0 0 2.697-2.698v-18.982a2.698 2.698 0 0 0-2.697-2.697Z"/><path fill="url('#n')" d="M136.585 247.859a6.839 6.839 0 1 0 0-13.678 6.839 6.839 0 0 0 0 13.678Z"/><path fill="#282828" d="M227.363 238.779h.89v-4.255h-.887l-1.1.763v.803l1.044-.726h.053v3.415Zm2.195 0h.932l1.778-3.539v-.719h-3.043v.71h2.147v.05l-1.814 3.498Zm2.662 1.144h.574l.537-1.825h-.852l-.259 1.825Zm4.02-1.144h.85v-.782h.554v-.713h-.554v-2.76h-1.251a52.244 52.244 0 0 0-1.683 2.774v.699h2.084v.782Zm-1.283-1.472v-.047c.384-.687.841-1.427 1.254-2.061h.047v2.108h-1.301Zm5.057 1.581c1.052 0 1.689-.861 1.689-2.235v-.006c0-1.377-.637-2.232-1.689-2.232-1.05 0-1.69.855-1.69 2.232v.006c0 1.374.64 2.235 1.69 2.235Zm0-.705c-.502 0-.788-.569-.788-1.53v-.006c0-.964.286-1.527.788-1.527.504 0 .79.563.79 1.527v.006c0 .961-.286 1.53-.79 1.53Zm4.427.596h.849v-.782h.555v-.713h-.555v-2.76h-1.25a52.921 52.921 0 0 0-1.684 2.774v.699h2.085v.782Zm-1.283-1.472v-.047c.384-.687.841-1.427 1.253-2.061h.048v2.108h-1.301Zm5.02 1.472h2.819v-.734h-1.929v-1.077h1.82v-.684h-1.82v-1.026h1.929v-.734h-2.819v4.255Zm5.495.109c1.097 0 1.781-.634 1.781-1.578v-2.786h-.891v2.707c0 .551-.318.902-.89.902-.572 0-.894-.351-.894-.902v-2.707h-.89v2.786c0 .947.693 1.578 1.784 1.578Zm2.77-.109h.891v-1.557h.728l.793 1.557h1.009l-.896-1.69c.486-.191.769-.66.769-1.206v-.006c0-.837-.554-1.353-1.522-1.353h-1.772v4.255Zm.891-2.206v-1.353h.772c.446 0 .72.265.72.675v.006c0 .419-.263.672-.708.672h-.784Z"/><path stroke="#EBEBEB" stroke-width=".49" d="M261.441 228.832H128.426a2.697 2.697 0 0 0-2.697 2.697v18.982a2.697 2.697 0 0 0 2.697 2.698h133.015a2.698 2.698 0 0 0 2.697-2.698v-18.982a2.698 2.698 0 0 0-2.697-2.697Z"/></g></g></g><defs><linearGradient id="d" x1="23.542" x2="16.395" y1="103.29" y2="81.748" gradientUnits="userSpaceOnUse"><stop stop-color="#FFC300"/><stop offset="1" stop-color="#FF541E"/></linearGradient><linearGradient id="k" x1="134.632" x2="141.53" y1="147.811" y2="163.382" gradientUnits="userSpaceOnUse"><stop stop-color="#2F80ED"/><stop offset="1" stop-color="#72A9F3"/></linearGradient><linearGradient id="l" x1="137.357" x2="128.33" y1="195.793" y2="168.584" gradientUnits="userSpaceOnUse"><stop stop-color="#FFC300"/><stop offset="1" stop-color="#FF541E"/></linearGradient><linearGradient id="m" x1="131.01" x2="141.32" y1="205.392" y2="216.544" gradientUnits="userSpaceOnUse"><stop offset="0" stop-color="#FF6F08"/><stop offset="1" stop-color="#FFA666"/></linearGradient><linearGradient id="n" x1="131.01" x2="143.424" y1="234.182" y2="251.479" gradientUnits="userSpaceOnUse"><stop stop-color="#2453A8"/><stop offset="1" stop-color="#2E67D1"/></linearGradient><clipPath id="a"><path fill="#fff" d="M0 0h281v325.627H0z"/></clipPath></defs></svg>