<svg xmlns="http://www.w3.org/2000/svg" width="529" height="638" fill="none"><mask id="a" width="573" height="664" x="0" y="0" maskUnits="userSpaceOnUse"><path fill="#fff" d="M573 0H0v664h573z"/></mask><g mask="url('#a')" transform="translate(-21 -26)"><path fill="#e5e5e5" d="M350.279 335.943H37.076a4 4 0 0 0-4 4v40.922a4 4 0 0 0 4 4H350.28a4 4 0 0 0 4-4v-40.922a4 4 0 0 0-4-4z"/><path fill="#fff" d="M356.8 26H30.2a9.2 9.2 0 0 0-9.2 9.2v363.4a9.2 9.2 0 0 0 9.2 9.2h326.6a9.2 9.2 0 0 0 9.2-9.2V35.2a9.2 9.2 0 0 0-9.2-9.2z"/><mask id="b" width="345" height="41" x="21" y="37" maskUnits="userSpaceOnUse"><path fill="#fff" d="M366 37.04H21v40.48h345z"/></mask><g mask="url('#b')"><path fill="#fff" d="M366 37.04H21v40.48h345z"/><path fill="#ebebeb" d="M366 76.6H21v.92h345z"/><path fill="#282828" d="M146.41 63.16h2.062l.916-2.849h4.078l.924 2.849h2.062l-3.91-11.02h-2.222zm4.956-8.973h.13l1.482 4.605h-3.093zm8.957 9.11c1.176 0 2.077-.534 2.535-1.443h.13v1.306h1.909V51.583h-1.909v4.559h-.13c-.435-.901-1.39-1.466-2.535-1.466-2.116 0-3.421 1.65-3.421 4.307v.015c0 2.642 1.328 4.3 3.421 4.3zm.596-1.603c-1.299 0-2.085-1.016-2.085-2.696v-.015c0-1.68.794-2.704 2.085-2.704 1.29 0 2.1 1.031 2.1 2.704v.015c0 1.672-.802 2.696-2.1 2.696zm9.002 1.603c1.176 0 2.077-.534 2.535-1.443h.13v1.306h1.909V51.583h-1.909v4.559h-.13c-.435-.901-1.389-1.466-2.535-1.466-2.115 0-3.421 1.65-3.421 4.307v.015c0 2.642 1.329 4.3 3.421 4.3zm.596-1.603c-1.299 0-2.085-1.016-2.085-2.696v-.015c0-1.68.794-2.704 2.085-2.704 1.29 0 2.1 1.031 2.1 2.704v.015c0 1.672-.802 2.696-2.1 2.696zm9.169 1.466h2.062l.916-2.849h4.078l.924 2.849h2.062l-3.91-11.02h-2.222zm4.956-8.973h.13l1.482 4.605h-3.093zm8.957 9.11c1.176 0 2.077-.534 2.535-1.443h.13v1.306h1.909V51.583h-1.909v4.559h-.13c-.435-.901-1.389-1.466-2.535-1.466-2.115 0-3.421 1.65-3.421 4.307v.015c0 2.642 1.329 4.3 3.421 4.3zm.596-1.603c-1.299 0-2.085-1.016-2.085-2.696v-.015c0-1.68.794-2.704 2.085-2.704 1.29 0 2.1 1.031 2.1 2.704v.015c0 1.672-.802 2.696-2.1 2.696zm9.002 1.603c1.176 0 2.077-.534 2.536-1.443h.129v1.306h1.91V51.583h-1.91v4.559h-.129c-.436-.901-1.39-1.466-2.536-1.466-2.115 0-3.421 1.65-3.421 4.307v.015c0 2.642 1.329 4.3 3.421 4.3zm.596-1.603c-1.298 0-2.085-1.016-2.085-2.696v-.015c0-1.68.794-2.704 2.085-2.704s2.1 1.031 2.1 2.704v.015c0 1.672-.802 2.696-2.1 2.696zm5.994 1.466h1.901v-4.85c0-1.19.833-1.947 2.1-1.947.329 0 .642.046.947.107v-1.703a3.045 3.045 0 0 0-.771-.091c-1.1 0-1.864.526-2.146 1.42h-.13v-1.283h-1.901zm9.491.168c2.268 0 3.383-1.306 3.65-2.383l.023-.068h-1.81l-.023.053c-.183.382-.771.901-1.802.901-1.291 0-2.1-.87-2.123-2.367h5.834v-.626c0-2.52-1.466-4.185-3.841-4.185s-3.895 1.718-3.895 4.345v.008c0 2.657 1.505 4.322 3.987 4.322zm-.069-7.186c1.062 0 1.833.68 1.963 2.046h-3.964c.145-1.328.94-2.046 2.001-2.046zm8.499 7.186c2.054 0 3.543-1.062 3.543-2.65v-.015c0-1.215-.771-1.91-2.405-2.276l-1.352-.298c-.901-.206-1.253-.504-1.253-.993v-.007c0-.626.611-1.039 1.459-1.039.893 0 1.443.428 1.581.955l.007.023h1.787v-.016c-.122-1.351-1.336-2.36-3.367-2.36-1.971 0-3.345 1.04-3.345 2.544v.007c0 1.23.756 1.978 2.344 2.33l1.352.305c.916.206 1.283.527 1.283 1.016v.015c0 .626-.657 1.054-1.604 1.054-.947 0-1.504-.405-1.703-.985l-.007-.016h-1.887v.016c.161 1.412 1.444 2.39 3.567 2.39zm8.086 0c2.054 0 3.543-1.062 3.543-2.65v-.015c0-1.215-.771-1.91-2.405-2.276l-1.352-.298c-.901-.206-1.252-.504-1.252-.993v-.007c0-.626.61-1.039 1.458-1.039.894 0 1.443.428 1.581.955l.008.023h1.787v-.016c-.123-1.351-1.337-2.36-3.368-2.36-1.971 0-3.345 1.04-3.345 2.544v.007c0 1.23.756 1.978 2.344 2.33l1.352.305c.916.206 1.283.527 1.283 1.016v.015c0 .626-.657 1.054-1.604 1.054-.947 0-1.504-.405-1.703-.985l-.007-.016h-1.887v.016c.161 1.412 1.444 2.39 3.567 2.39z"/><path stroke="#282828" stroke-linecap="round" stroke-linejoin="round" stroke-width="1.84" d="M52.28 51.76 41.24 62.8m0-11.04L52.28 62.8"/></g><path fill="#fff" d="M366 93.16H21v51.52h345z"/><path fill="#999" d="M36.795 106.16h5.116v-.946h-4.065v-7.48h-1.051zm8.324.111c.847 0 1.507-.368 1.904-1.04h.093v.929h1.016v-4.31c0-1.308-.858-2.096-2.394-2.096-1.343 0-2.3.665-2.464 1.652l-.006.035h1.016l.006-.017c.163-.491.66-.771 1.413-.771.94 0 1.413.42 1.413 1.197v.572l-1.804.111c-1.466.088-2.295.736-2.295 1.858v.011c0 1.145.905 1.869 2.102 1.869zm-1.063-1.892v-.012c0-.625.42-.963 1.378-1.022l1.682-.105v.572c0 .9-.753 1.577-1.787 1.577-.73 0-1.273-.374-1.273-1.01zm8.99 1.892c1.594 0 2.64-1.291 2.64-3.253v-.012c0-1.973-1.04-3.252-2.64-3.252-.864 0-1.618.432-1.962 1.103h-.094v-3.492h-1.016v8.795h1.016v-1.004h.094c.385.7 1.086 1.115 1.962 1.115zm-.234-.899c-1.144 0-1.845-.9-1.845-2.354v-.012c0-1.454.7-2.353 1.845-2.353 1.15 0 1.834.888 1.834 2.353v.012c0 1.466-.683 2.354-1.834 2.354zm6.946.899c1.484 0 2.383-.841 2.599-1.694l.012-.046h-1.016l-.024.052c-.17.38-.695.783-1.547.783-1.122 0-1.84-.759-1.87-2.062h4.533v-.397c0-1.88-1.04-3.153-2.75-3.153-1.712 0-2.822 1.331-2.822 3.276v.006c0 1.974 1.087 3.235 2.885 3.235zm-.07-5.612c.929 0 1.618.59 1.723 1.834h-3.48c.11-1.198.823-1.834 1.757-1.834zm4.318 5.501h1.016v-8.795h-1.016z"/><path fill="#282828" d="M37.126 129.4h1.283v-8.416h.084l3.482 8.416h1.161l3.482-8.416h.084v8.416h1.283v-11.02H46.39l-3.772 9.195h-.122l-3.773-9.195h-1.596zm13.829 2.887c1.458 0 2.138-.535 2.818-2.383l3.215-8.736H55.59l-2.252 6.773h-.123l-2.26-6.773h-1.42l3.046 8.24-.152.488c-.298.947-.756 1.291-1.512 1.291-.184 0-.39-.008-.55-.038v1.092c.183.03.412.046.588.046zm15.218-2.627c2.459 0 4.07-1.283 4.07-3.345v-.008c0-1.588-.909-2.512-3.208-3.024l-1.221-.275c-1.497-.328-2.1-.924-2.1-1.802v-.008c0-1.153 1.061-1.802 2.436-1.81 1.435-.007 2.352.71 2.504 1.68l.016.1h1.374l-.007-.107c-.115-1.642-1.65-2.94-3.85-2.94-2.275 0-3.871 1.29-3.879 3.115v.008c0 1.596.955 2.612 3.162 3.1l1.222.268c1.512.336 2.146.962 2.146 1.878v.008c0 1.123-1.092 1.894-2.59 1.894-1.588 0-2.733-.695-2.832-1.795l-.008-.084h-1.375l.008.084c.16 1.795 1.718 3.063 4.132 3.063zm9.178-.115c1.94 0 3.115-1.1 3.398-2.215l.015-.061h-1.328l-.031.069c-.222.496-.909 1.023-2.024 1.023-1.466 0-2.405-.992-2.444-2.695h5.927v-.52c0-2.459-1.36-4.124-3.597-4.124-2.238 0-3.689 1.742-3.689 4.285v.007c0 2.582 1.42 4.231 3.773 4.231zm-.092-7.339c1.214 0 2.115.771 2.253 2.398H72.96c.145-1.565 1.077-2.398 2.3-2.398zm8.659 7.339c1.978 0 3.085-1.061 3.421-2.551l.015-.084-1.313.008-.015.046c-.306.916-1.008 1.405-2.116 1.405-1.466 0-2.413-1.214-2.413-3.108v-.015c0-1.856.932-3.047 2.413-3.047 1.184 0 1.917.656 2.123 1.466l.008.023h1.321l-.007-.046c-.245-1.466-1.444-2.62-3.445-2.62-2.306 0-3.772 1.665-3.772 4.224v.015c0 2.612 1.474 4.284 3.78 4.284zm8.392 0c2.344 0 3.795-1.619 3.795-4.254v-.015c0-2.642-1.451-4.254-3.795-4.254-2.345 0-3.796 1.612-3.796 4.254v.015c0 2.635 1.451 4.254 3.796 4.254zm0-1.176c-1.558 0-2.437-1.138-2.437-3.078v-.015c0-1.947.879-3.077 2.437-3.077 1.557 0 2.436 1.13 2.436 3.077v.015c0 1.94-.879 3.078-2.436 3.078zm5.482 1.031h1.328v-4.872c0-1.444.833-2.329 2.146-2.329 1.314 0 1.925.71 1.925 2.191v5.01h1.328v-5.33c0-1.955-1.031-3.048-2.879-3.048-1.214 0-1.985.512-2.398 1.383h-.122v-1.237h-1.328zm11.797.145c1.146 0 2.062-.542 2.566-1.459h.122v1.314h1.329v-11.501h-1.329v4.567h-.122c-.451-.878-1.436-1.444-2.566-1.444-2.092 0-3.452 1.673-3.452 4.254v.015c0 2.566 1.367 4.254 3.452 4.254zm.306-1.176c-1.505 0-2.398-1.161-2.398-3.078v-.015c0-1.917.893-3.077 2.398-3.077 1.496 0 2.413 1.176 2.413 3.077v.015c0 1.902-.917 3.078-2.413 3.078zm8.147 1.176c1.107 0 1.97-.481 2.489-1.359h.122v1.214h1.329v-5.636c0-1.711-1.122-2.742-3.131-2.742-1.756 0-3.009.871-3.222 2.162l-.008.045h1.329l.007-.022c.214-.642.863-1.008 1.848-1.008 1.23 0 1.848.549 1.848 1.565v.748l-2.359.146c-1.917.114-3.001.962-3.001 2.428v.015c0 1.497 1.183 2.444 2.749 2.444zm-1.39-2.474v-.016c0-.817.55-1.26 1.802-1.336l2.199-.137v.748c0 1.176-.985 2.062-2.336 2.062-.955 0-1.665-.489-1.665-1.321zm7.383 2.329h1.329v-5.101c0-1.207.901-2.009 2.169-2.009.29 0 .542.031.817.077v-1.291a4.433 4.433 0 0 0-.664-.054c-1.115 0-1.887.505-2.2 1.367h-.122v-1.221h-1.329zm6.361 2.887c1.458 0 2.138-.535 2.818-2.383l3.215-8.736h-1.398l-2.253 6.773h-.122l-2.26-6.773h-1.421l3.047 8.24-.152.488c-.298.947-.757 1.291-1.513 1.291-.183 0-.389-.008-.549-.038v1.092c.183.03.412.046.588.046zm13.888-2.887h1.299l2.535-8.698h.092l2.535 8.698h1.298l3.002-11.02h-1.436l-2.192 8.958h-.091l-2.467-8.958h-1.39l-2.467 8.958h-.091l-2.192-8.958h-1.436zm13.807.145c1.107 0 1.97-.481 2.489-1.359h.122v1.214h1.329v-5.636c0-1.711-1.123-2.742-3.131-2.742-1.756 0-3.009.871-3.223 2.162l-.007.045h1.328l.008-.022c.214-.642.863-1.008 1.848-1.008 1.23 0 1.848.549 1.848 1.565v.748l-2.359.146c-1.917.114-3.002.962-3.002 2.428v.015c0 1.497 1.184 2.444 2.75 2.444zm-1.39-2.474v-.016c0-.817.549-1.26 1.802-1.336l2.199-.137v.748c0 1.176-.985 2.062-2.337 2.062-.954 0-1.664-.489-1.664-1.321zm7.46 2.329h1.328v-11.501h-1.328zm3.58 0h1.329v-11.501h-1.329zm6.864.145c1.94 0 3.116-1.1 3.399-2.215l.015-.061h-1.329l-.03.069c-.222.496-.909 1.023-2.024 1.023-1.466 0-2.406-.992-2.444-2.695h5.926v-.52c0-2.459-1.359-4.124-3.597-4.124-2.237 0-3.688 1.742-3.688 4.285v.007c0 2.582 1.42 4.231 3.772 4.231zm-.091-7.339c1.214 0 2.115.771 2.252 2.398h-4.551c.145-1.565 1.077-2.398 2.299-2.398zm8.216 7.255c.259 0 .511-.03.771-.076v-1.131a5.532 5.532 0 0 1-.611.031c-.855 0-1.191-.389-1.191-1.359v-4.659h1.802v-1.099h-1.802v-2.131h-1.375v2.131h-1.298v1.099h1.298v4.995c0 1.573.71 2.199 2.406 2.199z"/><path fill="#999" d="M351.281 143.76H35.721v.92h315.56Z"/><path fill="#999" d="M351.281 143.76H35.721v.92h315.56Z"/><path fill="#fff" d="M366 144.68H21v14.72h345zm0 14.72H21v51.52h345z"/><path fill="#999" d="M351.281 210H35.721v.92h315.56Z"/><path fill="url('#c')" d="M57.47 193.351c-1.474 5.914-7.465 9.513-13.381 8.039-5.913-1.475-9.513-7.465-8.038-13.379 1.474-5.915 7.465-9.515 13.38-8.041 5.914 1.475 9.514 7.466 8.04 13.381z" style="fill:url(#c)"/><path fill="#fff" fill-rule="evenodd" d="M50.087 189.397c.149-.996-.61-1.532-1.648-1.889l.337-1.35-.822-.205-.328 1.314c-.216-.054-.438-.104-.658-.155l.33-1.323-.822-.204-.336 1.349c-.18-.041-.355-.081-.525-.123v-.005l-1.133-.282-.218.877s.61.14.597.149c.332.083.393.303.383.477l-.384 1.538a.743.743 0 0 1 .086.028l-.087-.022-.538 2.155c-.04.101-.144.252-.376.195.008.012-.598-.149-.598-.149l-.408.941 1.07.266.358.092.228.059-.34 1.366.82.205.338-1.351c.224.061.441.117.654.17l-.335 1.344.821.205.34-1.363c1.402.265 2.456.158 2.9-1.109.356-1.02-.019-1.609-.756-1.993.537-.124.942-.477 1.05-1.207zm-1.878 2.633c-.233.937-1.7.549-2.37.372a7.016 7.016 0 0 0-.16-.041l.452-1.809c.056.014.124.029.202.046.693.156 2.114.475 1.876 1.432zm-1.737-2.271c.56.15 1.779.475 1.991-.376.217-.871-.968-1.133-1.547-1.261a4.69 4.69 0 0 1-.17-.039l-.409 1.641.135.035z" clip-rule="evenodd"/><path fill="#282828" d="M66.52 196.18h4.711c2.352 0 3.788-1.191 3.788-3.123v-.016c0-1.428-1.023-2.497-2.505-2.634v-.138c1.108-.175 1.963-1.199 1.963-2.352v-.015c0-1.688-1.26-2.742-3.353-2.742H66.52zm4.123-9.485c1.192 0 1.887.573 1.887 1.55v.016c0 1-.741 1.542-2.139 1.542H68.49v-3.108zm.061 4.506c1.505 0 2.3.588 2.3 1.703v.015c0 1.123-.772 1.726-2.223 1.726H68.49v-3.444zm8.827 4.979h1.97v-9.363H84.9v-1.657h-8.76v1.657h3.391zm11.24.275c2.543 0 4.369-1.474 4.659-3.681v-.053h-1.932l-.008.038c-.283 1.214-1.321 1.993-2.719 1.993-1.878 0-3.047-1.566-3.047-4.078v-.015c0-2.505 1.169-4.071 3.04-4.071 1.39 0 2.443.863 2.726 2.169l.008.031h1.932v-.061c-.26-2.253-2.161-3.842-4.666-3.842-3.124 0-5.056 2.207-5.056 5.781v.016c0 3.558 1.94 5.773 5.063 5.773z"/><path fill="#999" d="M36.124 172.4h1.104l.846-2.412h3.353l.846 2.412h1.104l-3.107-8.427h-1.04zm3.58-7.066h.093l1.32 3.761h-2.733zm6.992 7.177c1.431 0 2.523-.777 2.523-1.898v-.012c0-.899-.572-1.413-1.758-1.699l-.969-.234c-.742-.181-1.057-.449-1.057-.876v-.011c0-.555.549-.941 1.296-.941.76 0 1.25.345 1.384.841h1c-.141-1.027-1.058-1.687-2.378-1.687-1.337 0-2.342.788-2.342 1.833v.006c0 .905.532 1.419 1.712 1.7l.975.233c.777.187 1.098.485 1.098.911v.012c0 .572-.602.975-1.449.975-.806 0-1.308-.344-1.477-.87h-1.04c.117 1.04 1.08 1.717 2.482 1.717zm6.07 0c1.431 0 2.523-.777 2.523-1.898v-.012c0-.899-.572-1.413-1.758-1.699l-.97-.234c-.74-.181-1.056-.449-1.056-.876v-.011c0-.555.549-.941 1.296-.941.76 0 1.25.345 1.384.841h.999c-.14-1.027-1.057-1.687-2.377-1.687-1.337 0-2.342.788-2.342 1.833v.006c0 .905.532 1.419 1.711 1.7l.976.233c.776.187 1.098.485 1.098.911v.012c0 .572-.602.975-1.449.975-.806 0-1.308-.344-1.477-.87h-1.04c.117 1.04 1.08 1.717 2.482 1.717zm6.596 0c1.483 0 2.383-.841 2.599-1.694l.011-.046h-1.016l-.023.052c-.17.38-.695.783-1.548.783-1.121 0-1.84-.759-1.869-2.062h4.532v-.397c0-1.88-1.04-3.153-2.75-3.153-1.712 0-2.821 1.331-2.821 3.276v.006c0 1.974 1.086 3.235 2.885 3.235zm-.07-5.612c.928 0 1.617.59 1.723 1.834h-3.481c.11-1.198.823-1.834 1.758-1.834zm6.496 5.548c.199 0 .391-.024.59-.059v-.864a4.126 4.126 0 0 1-.467.023c-.654 0-.911-.297-.911-1.039v-3.562h1.378v-.841H65v-1.63h-1.052v1.63h-.992v.841h.992v3.819c0 1.203.543 1.682 1.84 1.682z"/><path stroke="#2a80fb" stroke-linecap="round" stroke-linejoin="round" stroke-width="1.84" d="m334.721 188.84 5.52 5.52 5.52-5.52"/><path fill="#fff" d="M366 210.92H21v14.72h345zm0 14.72H21v51.52h345z"/><path fill="#999" d="M36.185 239.64h1.274l.977-2.783h3.868l.977 2.783h1.274l-3.585-9.723h-1.2zm4.131-8.153h.108l1.523 4.339h-3.154zm7.852 8.281c1.01 0 1.82-.478 2.264-1.287h.108v1.159h1.172v-10.148H50.54v4.03h-.108c-.398-.775-1.267-1.274-2.264-1.274-1.846 0-3.046 1.476-3.046 3.753v.014c0 2.264 1.206 3.753 3.046 3.753zm.27-1.038c-1.328 0-2.117-1.024-2.117-2.715v-.014c0-1.691.789-2.715 2.116-2.715 1.321 0 2.13 1.038 2.13 2.715v.014c0 1.678-.809 2.715-2.13 2.715zm7.986 1.038c1.01 0 1.82-.478 2.264-1.287h.108v1.159h1.172v-10.148h-1.172v4.03h-.108c-.398-.775-1.267-1.274-2.264-1.274-1.847 0-3.046 1.476-3.046 3.753v.014c0 2.264 1.206 3.753 3.046 3.753zm.27-1.038c-1.328 0-2.117-1.024-2.117-2.715v-.014c0-1.691.789-2.715 2.116-2.715 1.321 0 2.13 1.038 2.13 2.715v.014c0 1.678-.809 2.715-2.13 2.715zm5.304.91h1.172v-4.501c0-1.065.795-1.772 1.914-1.772.256 0 .478.027.721.067v-1.139a3.97 3.97 0 0 0-.586-.047c-.984 0-1.665.445-1.94 1.206h-.109v-1.078h-1.172zm7.798.128c1.711 0 2.749-.97 2.998-1.954l.014-.054h-1.173l-.027.061c-.195.438-.802.903-1.785.903-1.294 0-2.123-.876-2.157-2.379h5.23v-.458c0-2.17-1.2-3.639-3.175-3.639-1.974 0-3.254 1.536-3.254 3.78v.007c0 2.278 1.253 3.733 3.329 3.733zm-.081-6.475c1.071 0 1.866.68 1.987 2.115h-4.016c.129-1.381.95-2.115 2.029-2.115zm7.272 6.475c1.65 0 2.91-.896 2.91-2.19v-.013c0-1.038-.66-1.631-2.027-1.961l-1.119-.27c-.856-.209-1.22-.519-1.22-1.01v-.014c0-.64.634-1.085 1.496-1.085.876 0 1.442.398 1.597.97h1.153c-.162-1.185-1.22-1.947-2.743-1.947-1.543 0-2.702.91-2.702 2.116v.007c0 1.044.613 1.637 1.974 1.961l1.126.269c.896.216 1.266.559 1.266 1.051v.014c0 .66-.694 1.125-1.67 1.125-.93 0-1.51-.398-1.705-1.004h-1.2c.135 1.199 1.247 1.981 2.864 1.981zm6.868 0c1.65 0 2.91-.896 2.91-2.19v-.013c0-1.038-.66-1.631-2.028-1.961l-1.118-.27c-.856-.209-1.22-.519-1.22-1.01v-.014c0-.64.634-1.085 1.496-1.085.876 0 1.442.398 1.597.97h1.152c-.161-1.185-1.22-1.947-2.742-1.947-1.543 0-2.702.91-2.702 2.116v.007c0 1.044.613 1.637 1.974 1.961l1.125.269c.897.216 1.267.559 1.267 1.051v.014c0 .66-.694 1.125-1.67 1.125-.93 0-1.51-.398-1.706-1.004h-1.199c.135 1.199 1.247 1.981 2.864 1.981z"/><mask id="d" width="317" height="23" x="35" y="245" maskUnits="userSpaceOnUse"><path fill="#fff" d="M351.281 245.88H35.721v22.08h315.56Z"/></mask><g mask="url('#d')"><mask id="e" width="233" height="23" x="35" y="245" maskUnits="userSpaceOnUse"><path fill="#fff" d="M267.561 245.88H35.721v22.08h231.84Z"/></mask><g mask="url('#e')"><path fill="#282828" d="M41.983 261.88h1.344v-2.283h1.565v-1.23h-1.565v-7.507h-1.993a173.064 173.064 0 0 0-4.72 7.484v1.253h5.369zm-3.963-3.505v-.092a139.513 139.513 0 0 1 3.879-6.147h.091v6.239zm8.796 3.505h3.78c3.276 0 5.2-2.039 5.2-5.506v-.015c0-3.46-1.931-5.499-5.2-5.499h-3.78zm1.374-1.237v-8.546h2.314c2.444 0 3.887 1.589 3.887 4.277v.015c0 2.681-1.428 4.254-3.887 4.254zm9.614 1.237h1.36v-8.545h.121l5.98 8.545H66.6v-11.02h-1.359v8.576h-.122l-5.98-8.576h-1.336zm10.927 0h8.148v-1.237h-6.338v-.122l6.208-8.683v-.978h-7.804v1.237h6.025v.123l-6.24 8.683zm12.447 0h1.344l3.047-8.232h-1.405l-2.253 6.781h-.122l-2.253-6.781H78.13zm6.474-9.821a.919.919 0 0 0 .917-.916.92.92 0 0 0-.917-.917.92.92 0 0 0-.916.917c0 .504.412.916.916.916zm-.672 9.821h1.33v-8.232h-1.33zm5.047 0h1.329l1.833-6.369h.122l1.84 6.369h1.337l2.306-8.232h-1.321l-1.62 6.582h-.121l-1.84-6.582h-1.26l-1.841 6.582h-.122l-1.62-6.582h-1.328zm10.148 0h1.329v-5.101c0-1.161.817-2.1 1.894-2.1 1.038 0 1.71.633 1.71 1.611v5.59h1.329v-5.292c0-1.046.756-1.909 1.902-1.909 1.16 0 1.718.603 1.718 1.817v5.384h1.329v-5.689c0-1.726-.94-2.688-2.62-2.688-1.138 0-2.077.572-2.52 1.443h-.122c-.382-.855-1.161-1.443-2.276-1.443-1.077 0-1.856.511-2.222 1.397h-.122v-1.252h-1.329zm13.783 0h1.329v-7.133h1.871v-1.099h-1.871v-.879c0-.901.382-1.367 1.329-1.367.236 0 .458.008.618.039v-1.062a4.65 4.65 0 0 0-.886-.076c-1.565 0-2.39.786-2.39 2.428v.917h-1.367v1.099h1.367zm6.353.26c2.039 0 3.245-1.237 3.245-3.322v-7.958h-1.374v7.942c0 1.344-.657 2.07-1.879 2.07-1.092 0-1.634-.695-1.718-1.527l-.008-.077h-1.374l.007.107c.115 1.581 1.191 2.765 3.101 2.765zm8.552-.115c1.145 0 2.062-.542 2.566-1.459h.122v1.314h1.329v-11.501h-1.329v4.567h-.122c-.451-.878-1.436-1.443-2.566-1.443-2.093 0-3.452 1.672-3.452 4.253v.015c0 2.566 1.367 4.254 3.452 4.254zm.305-1.176c-1.504 0-2.398-1.161-2.398-3.078v-.015c0-1.917.894-3.077 2.398-3.077 1.497 0 2.413 1.176 2.413 3.077v.015c0 1.902-.916 3.078-2.413 3.078zm9.087 1.031h1.374v-4.742l3.91-6.278h-1.565l-2.971 4.895h-.122l-2.971-4.895h-1.565l3.91 6.278zm10.048.183c2.337 0 4.002-1.313 4.002-3.161v-.016c0-1.359-.955-2.489-2.367-2.818v-.03c1.206-.374 1.97-1.291 1.97-2.451v-.016c0-1.665-1.52-2.894-3.605-2.894-2.084 0-3.604 1.229-3.604 2.894v.016c0 1.16.764 2.077 1.97 2.451v.03c-1.413.329-2.367 1.459-2.367 2.818v.016c0 1.848 1.665 3.161 4.001 3.161zm0-6.537c-1.328 0-2.237-.756-2.237-1.825v-.015c0-1.069.909-1.825 2.237-1.825 1.329 0 2.238.756 2.238 1.825v.015c0 1.069-.909 1.825-2.238 1.825zm0 5.338c-1.519 0-2.604-.855-2.604-2.046v-.016c0-1.206 1.077-2.069 2.604-2.069 1.528 0 2.605.863 2.605 2.069v.016c0 1.191-1.085 2.046-2.605 2.046zm8.888 1.016h1.375v-9.783h3.551v-1.237h-8.477v1.237h3.551zm6.674 0h1.283v-8.416h.084l3.482 8.416h1.161l3.482-8.416h.084v8.416h1.283v-11.02h-1.596l-3.773 9.195h-.122l-3.772-9.195h-1.596zm13.118 0h7.133v-1.237h-5.223v-.122l2.504-2.589c1.994-2.054 2.536-2.971 2.536-4.231v-.015c0-1.78-1.474-3.085-3.399-3.085-2.107 0-3.619 1.405-3.627 3.36l.015.007 1.314.008.007-.015c0-1.299.879-2.161 2.2-2.161 1.298 0 2.085.87 2.085 2.031v.015c0 .962-.413 1.535-1.818 3.055l-3.727 4.032zm13.868 0h1.344v-2.283h1.565v-1.23h-1.565v-7.507h-1.994a173.45 173.45 0 0 0-4.719 7.484v1.253h5.369zm-3.964-3.505v-.092a138.772 138.772 0 0 1 3.88-6.147h.091v6.239zm11.164 3.505h1.374v-11.02h-1.367l-2.932 2.108v1.451l2.803-2.031h.122zm4.359 0h6.827v-1.237h-5.452v-3.788h5.17v-1.222h-5.17v-3.536h5.452v-1.237h-6.827zm11.973 0h1.375v-4.742l3.91-6.278h-1.565l-2.971 4.895h-.122l-2.971-4.895h-1.566l3.91 6.278zm10.63 0h1.344v-2.283h1.565v-1.23h-1.565v-7.507h-1.994a173.45 173.45 0 0 0-4.719 7.484v1.253h5.369zm-3.964-3.505v-.092a138.772 138.772 0 0 1 3.88-6.147h.091v6.239zm11.164 3.505h1.374v-11.02h-1.367l-2.932 2.108v1.451l2.803-2.031h.122zm6.643 0h1.298l2.535-8.698h.092l2.535 8.698h1.299l3.001-11.02h-1.436l-2.192 8.958h-.091l-2.467-8.958h-1.39l-2.467 8.958h-.091l-2.192-8.958h-1.436zm15.509 0h1.374v-4.742l3.91-6.278h-1.565l-2.971 4.895h-.122l-2.971-4.895h-1.565l3.91 6.278zm5.795 0h6.338v-1.1h-4.75v-.122l4.727-6.025v-.985h-6.308v1.099h4.743v.122l-4.75 6.049zm8.414 0h1.375v-3.933h2.78c2.069 0 3.535-1.459 3.535-3.551v-.015c0-2.093-1.466-3.521-3.535-3.521h-4.155zm3.803-9.798c1.574 0 2.482.863 2.482 2.314v.015c0 1.451-.908 2.314-2.482 2.314h-2.428v-4.643zm8.193 9.943c1.871 0 3.299-1.016 3.299-2.482v-.015c0-1.176-.748-1.848-2.298-2.222l-1.268-.306c-.97-.237-1.382-.588-1.382-1.145v-.016c0-.725.718-1.229 1.695-1.229.993 0 1.634.45 1.81 1.1h1.306c-.183-1.345-1.382-2.207-3.108-2.207-1.749 0-3.062 1.03-3.062 2.397v.008c0 1.184.694 1.856 2.237 2.222l1.275.306c1.016.244 1.436.634 1.436 1.191v.015c0 .749-.786 1.276-1.894 1.276-1.054 0-1.71-.451-1.932-1.138h-1.359c.153 1.359 1.413 2.245 3.245 2.245zm10.011-.145h1.344v-2.283h1.566v-1.23h-1.566v-7.507h-1.993a173.456 173.456 0 0 0-4.72 7.484v1.253h5.369zm-3.963-3.505v-.092a138.768 138.768 0 0 1 3.879-6.147h.092v6.239zm9.315-6.316a.92.92 0 0 0 .917-.916.92.92 0 0 0-.917-.917.92.92 0 0 0-.916.917c0 .504.412.916.916.916zm-1.863 12.647c1.726 0 2.528-.726 2.528-2.421v-8.637h-1.329v8.66c0 .908-.336 1.222-1.23 1.222h-.198v1.176zm4.527-2.826h8.149v-1.237h-6.339v-.122l6.209-8.683v-.978h-7.805v1.237h6.025v.123l-6.239 8.683zm10.82-9.821a.92.92 0 0 0 .917-.916.92.92 0 0 0-.917-.917.92.92 0 0 0-.916.917c0 .504.412.916.916.916zm-.672 9.821h1.329v-8.232h-1.329zm3.909 0h1.443l4.903-9.744v-1.276h-7.293v1.23h5.896v.107zm10.767 0h1.374v-11.02h-1.367l-2.932 2.108v1.451l2.802-2.031h.123zm4.878-9.821a.92.92 0 0 0 .917-.916.92.92 0 0 0-.917-.917.92.92 0 0 0-.916.917c0 .504.412.916.916.916zm-1.863 12.647c1.726 0 2.528-.726 2.528-2.421v-8.637h-1.329v8.66c0 .908-.336 1.222-1.23 1.222h-.198v1.176zm8.048-2.681c2.344 0 3.795-1.619 3.795-4.254v-.015c0-2.642-1.451-4.253-3.795-4.253-2.345 0-3.795 1.611-3.795 4.253v.015c0 2.635 1.45 4.254 3.795 4.254zm0-1.176c-1.558 0-2.436-1.138-2.436-3.078v-.015c0-1.947.878-3.077 2.436-3.077 1.558 0 2.436 1.13 2.436 3.077v.015c0 1.94-.878 3.078-2.436 3.078zm5.65 1.031h6.827v-1.237h-5.452v-3.788h5.17v-1.222h-5.17v-3.536h5.452v-1.237h-6.827zm12.164 2.902c2.245 0 3.666-1.176 3.666-3.017v-8.117h-1.329v1.359h-.092c-.504-.932-1.405-1.504-2.566-1.504-2.153 0-3.482 1.672-3.482 3.978v.016c0 2.306 1.321 3.955 3.452 3.955 1.13 0 2.062-.511 2.581-1.42h.122v1.665c0 1.214-.878 1.909-2.352 1.909-1.184 0-1.917-.443-2.062-1.069l-.007-.008h-1.375l-.015.008c.206 1.351 1.474 2.245 3.459 2.245zm-.061-4.506c-1.527 0-2.383-1.145-2.383-2.779v-.016c0-1.634.856-2.802 2.383-2.802 1.52 0 2.444 1.168 2.444 2.802v.016c0 1.634-.917 2.779-2.444 2.779zm9.209 1.749c2.344 0 3.795-1.619 3.795-4.254v-.015c0-2.642-1.451-4.253-3.795-4.253-2.345 0-3.796 1.611-3.796 4.253v.015c0 2.635 1.451 4.254 3.796 4.254zm0-1.176c-1.558 0-2.436-1.138-2.436-3.078v-.015c0-1.947.878-3.077 2.436-3.077 1.558 0 2.436 1.13 2.436 3.077v.015c0 1.94-.878 3.078-2.436 3.078z"/></g><path fill="#fff" d="M351.28 245.88h-76.36v22.08h76.36z"/><path fill="#2a80fb" d="M276.514 261.88h1.375v-3.933h2.779c2.07 0 3.536-1.459 3.536-3.551v-.015c0-2.093-1.466-3.521-3.536-3.521h-4.154zm3.803-9.798c1.573 0 2.482.863 2.482 2.314v.015c0 1.451-.909 2.314-2.482 2.314h-2.428v-4.643zm7.552 9.943c1.107 0 1.97-.481 2.489-1.359h.122v1.214h1.329v-5.636c0-1.711-1.122-2.741-3.131-2.741-1.756 0-3.009.87-3.223 2.161l-.007.046h1.329l.007-.023c.214-.642.863-1.008 1.848-1.008 1.23 0 1.848.549 1.848 1.565v.749l-2.359.145c-1.917.114-3.002.962-3.002 2.428v.015c0 1.497 1.184 2.444 2.75 2.444zm-1.39-2.474v-.015c0-.818.55-1.261 1.802-1.337l2.199-.137v.748c0 1.176-.985 2.062-2.337 2.062-.954 0-1.664-.489-1.664-1.321zm10.209 2.474c1.871 0 3.299-1.016 3.299-2.482v-.015c0-1.176-.749-1.848-2.299-2.222l-1.267-.306c-.97-.237-1.383-.588-1.383-1.145v-.016c0-.725.718-1.229 1.696-1.229.992 0 1.634.45 1.81 1.1h1.305c-.183-1.345-1.382-2.207-3.108-2.207-1.749 0-3.062 1.03-3.062 2.397v.008c0 1.184.695 1.856 2.237 2.222l1.276.306c1.016.244 1.436.634 1.436 1.191v.015c0 .749-.787 1.276-1.894 1.276-1.054 0-1.711-.451-1.932-1.138h-1.36c.153 1.359 1.413 2.245 3.246 2.245zm7.834-.084c.26 0 .512-.03.771-.076v-1.131a5.52 5.52 0 0 1-.611.031c-.855 0-1.191-.389-1.191-1.359v-4.659h1.802v-1.099h-1.802v-2.131h-1.375v2.131h-1.298v1.099h1.298v4.995c0 1.573.711 2.199 2.406 2.199zm5.619.084c1.94 0 3.116-1.1 3.399-2.215l.015-.061h-1.329l-.03.069c-.222.496-.909 1.023-2.024 1.023-1.466 0-2.406-.992-2.444-2.695h5.926v-.52c0-2.459-1.359-4.123-3.597-4.123-2.237 0-3.688 1.741-3.688 4.284v.007c0 2.582 1.42 4.231 3.772 4.231zm-.091-7.339c1.214 0 2.115.772 2.253 2.398h-4.552c.145-1.565 1.077-2.398 2.299-2.398z"/><mask id="g" width="21" height="22" x="330" y="246" maskUnits="userSpaceOnUse"><mask id="f" width="23" height="23" x="329" y="245" maskUnits="userSpaceOnUse"><path fill="#fff" d="M351.279 245.88h-22.08v22.08h22.08z"/></mask><g stroke="#282828" stroke-linecap="round" stroke-linejoin="round" stroke-width="1.84" mask="url('#f')"><path d="M336.15 247.72h-3.066a2.04 2.04 0 0 0-2.045 2.044v3.067m18.4 0v-3.067a2.04 2.04 0 0 0-.599-1.445 2.04 2.04 0 0 0-1.445-.599h-3.067m0 18.4h3.067a2.04 2.04 0 0 0 1.445-.599 2.04 2.04 0 0 0 .599-1.445v-3.067m-18.4 0v3.067a2.04 2.04 0 0 0 2.045 2.044h3.066m2.249-14.72h-3.68v3.68h3.68zm0 7.36h-3.68v3.68h3.68zm7.359 0h-3.68v3.68h3.68zm0-7.36h-3.68v3.68h3.68z"/></g></mask><g mask="url('#g')"><path fill="#2a80fb" d="M351.279 245.88h-22.08v22.08h22.08z"/></g></g><path fill="#999" d="M351.281 276.24H35.721v.92h315.56Z"/><path fill="#999" d="M351.281 276.24H35.721v.92h315.56Z"/><path fill="#fff" d="M366 322.24H21v74.52h345z"/><path fill="#2a80fb" d="M345.761 336.96H41.241a5.52 5.52 0 0 0-5.52 5.52v34.04a5.52 5.52 0 0 0 5.52 5.52h304.52a5.52 5.52 0 0 0 5.52-5.52v-34.04a5.52 5.52 0 0 0-5.52-5.52z"/><path fill="#fff" d="M180.854 365.275c2.643 0 4.3-1.344 4.3-3.49v-.008c0-1.665-.97-2.596-3.292-3.085l-1.183-.252c-1.375-.29-1.932-.779-1.932-1.558v-.008c0-.939.87-1.512 2.092-1.512 1.26-.007 2.077.604 2.215 1.459l.015.092h1.886l-.007-.1c-.138-1.771-1.658-3.108-4.101-3.108-2.383 0-4.078 1.329-4.078 3.299v.008c0 1.642.977 2.696 3.23 3.169l1.184.245c1.42.305 1.993.786 1.993 1.58v.008c0 .947-.932 1.604-2.261 1.604-1.397 0-2.382-.611-2.474-1.535l-.008-.077h-1.909l.008.107c.137 1.902 1.764 3.162 4.322 3.162zm8.138-.138c1.1 0 1.986-.473 2.444-1.283h.13V365h1.878v-5.705c0-1.764-1.206-2.802-3.352-2.802-1.986 0-3.33.931-3.513 2.336l-.008.069h1.795l.007-.03c.191-.55.756-.863 1.627-.863 1.023 0 1.566.458 1.566 1.29v.718l-2.146.13c-2.032.122-3.17.993-3.17 2.482v.015c0 1.52 1.154 2.497 2.742 2.497zm-.863-2.588v-.016c0-.687.496-1.076 1.558-1.145l1.879-.122v.672c0 .992-.848 1.741-1.994 1.741-.84 0-1.443-.42-1.443-1.13zm9.207 2.451h2.085l2.955-8.347h-2.001l-1.916 6.491h-.13l-1.932-6.491h-2.032zm9.505.168c2.268 0 3.383-1.306 3.65-2.383l.023-.068h-1.81l-.023.053c-.183.382-.771.901-1.802.901-1.291 0-2.1-.87-2.123-2.367h5.834v-.626c0-2.521-1.466-4.185-3.841-4.185s-3.895 1.718-3.895 4.345v.008c0 2.657 1.505 4.322 3.987 4.322zm-.069-7.186c1.061 0 1.833.679 1.963 2.046h-3.964c.145-1.328.939-2.046 2.001-2.046z"/><mask id="h" width="309" height="652" x="243" y="134" maskUnits="userSpaceOnUse"><path fill="#fff" d="M552 134H243v652h309z"/></mask><g mask="url('#h')"><path fill="#f9f9f9" stroke="#000" stroke-width="4" d="M528 136H267c-11.046 0-20 8.954-20 20v606.172c0 11.046 8.954 20 20 20h261c11.046 0 20-8.954 20-20V156c0-11.046-8.954-20-20-20z"/><path fill="#2a80fb" fill-rule="evenodd" d="M526.918 181.871c.328 0 .594.306.594.685v3.339c0 .378-.266.684-.594.684-.328 0-.594-.306-.594-.684v-3.339c0-.379.266-.685.594-.685z" clip-rule="evenodd"/><path fill="#2a80fb" fill-rule="evenodd" d="M526.42 185.734c.198-.317.636-.426.978-.243l3.023 1.617c.343.183.46.588.262.905-.198.318-.635.426-.978.243l-3.023-1.616c-.342-.183-.459-.589-.262-.906zm-6.488-5.335c.406 0 .735.305.735.68v2.081h2.25c.406 0 .735.305.735.68 0 .375-.329.679-.735.679h-2.985c-.406 0-.735-.304-.735-.679v-2.761c0-.375.329-.68.735-.68z" clip-rule="evenodd"/><path fill="#2a80fb" fill-rule="evenodd" d="M525.529 179.064a7.18 7.18 0 0 1 4.118.402 7.103 7.103 0 0 1 3.199 2.601 7.017 7.017 0 0 1 0 7.848 7.116 7.116 0 0 1-3.199 2.601 7.188 7.188 0 0 1-4.118.402 7.152 7.152 0 0 1-3.649-1.933.706.706 0 0 1 0-1.005.72.72 0 0 1 1.014 0 5.712 5.712 0 0 0 2.915 1.544 5.746 5.746 0 0 0 3.289-.321 5.674 5.674 0 0 0 2.555-2.078 5.602 5.602 0 0 0 0-6.268 5.674 5.674 0 0 0-2.555-2.078 5.738 5.738 0 0 0-6.204 1.223l-2.472 2.45a.724.724 0 0 1-1.015 0 .706.706 0 0 1 0-1.005l2.473-2.45a7.144 7.144 0 0 1 3.649-1.933zm-30.816.93a6.374 6.374 0 0 1 6.658 5.171 6.373 6.373 0 0 1-.774 4.429.705.705 0 0 0-.078.565l.641 2.242-2.243-.64a.71.71 0 0 0-.564.077 6.374 6.374 0 0 1-8.274-1.577 6.37 6.37 0 0 1 4.634-10.267zm4.101 13.21a7.793 7.793 0 0 1-9.853-2.074 7.785 7.785 0 0 1 5.664-12.549 7.788 7.788 0 0 1 7.337 11.474l.617 2.161a1.297 1.297 0 0 1-1.604 1.605z" clip-rule="evenodd"/><path fill="#2a80fb" fill-rule="evenodd" d="M492.279 187.061c0-.391.317-.708.708-.708h4.248a.708.708 0 0 1 0 1.416h-4.248a.708.708 0 0 1-.708-.708zm0-2.124c0-.391.317-.708.708-.708h4.248a.708.708 0 0 1 0 1.416h-4.248a.708.708 0 0 1-.708-.708z" clip-rule="evenodd"/><path fill="#282828" d="M262.51 173.732h2.087l1.882-6.841h.042l1.875 6.841h2.087l2.709-10.208h-2.214l-1.62 7.314h-.042l-1.882-7.314h-1.875l-1.881 7.314h-.043l-1.613-7.314h-2.214zm13.087.12c.998 0 1.804-.474 2.236-1.252h.042v1.132h2.066v-5.2c0-1.528-1.267-2.539-3.226-2.539-2.002 0-3.205 1.004-3.318 2.405l-.007.085h1.889l.014-.064c.099-.488.566-.849 1.337-.849.806 0 1.245.418 1.245 1.09v.466l-1.875.114c-1.881.12-2.95.926-2.95 2.306v.014c0 1.337 1.026 2.292 2.547 2.292zm-.502-2.398v-.014c0-.538.417-.878 1.217-.927l1.563-.099v.545c0 .792-.679 1.386-1.606 1.386-.714 0-1.174-.332-1.174-.891zm6.366 2.278h2.066v-10.208h-2.066zm3.643 0h2.066v-10.208h-2.066zm7.045.155c2.165 0 3.212-1.28 3.445-2.398l.022-.078h-1.896l-.014.043c-.149.424-.665.891-1.514.891-1.054 0-1.712-.707-1.733-1.917h5.22v-.637c0-2.292-1.393-3.798-3.614-3.798-2.222 0-3.644 1.542-3.644 3.954v.007c0 2.427 1.408 3.933 3.728 3.933zm-.049-6.352c.856 0 1.471.544 1.599 1.591h-3.219c.134-1.025.771-1.591 1.62-1.591zm7.795 6.352c.432 0 .764-.042.998-.077v-1.514c-.128.014-.262.035-.446.035-.623 0-.941-.241-.941-.948v-3.678h1.387v-1.557h-1.387v-1.853h-2.087v1.853h-1.054v1.557h1.054v3.904c0 1.628.793 2.278 2.476 2.278z"/><path fill="#999" d="M262.272 209.243h.891v-6.344h2.303v-.802h-5.497v.802h2.303zm5.578.094c1.52 0 2.461-1.05 2.461-2.758v-.01c0-1.714-.941-2.759-2.461-2.759s-2.461 1.045-2.461 2.759v.01c0 1.708.941 2.758 2.461 2.758zm0-.763c-1.01 0-1.58-.738-1.58-1.995v-.01c0-1.263.57-1.996 1.58-1.996 1.01 0 1.58.733 1.58 1.996v.01c0 1.257-.57 1.995-1.58 1.995zm5.608.708c.168 0 .332-.02.5-.049v-.733c-.159.015-.243.02-.396.02-.555 0-.773-.253-.773-.882v-3.02h1.169v-.713h-1.169v-1.382h-.891v1.382h-.842v.713h.842v3.238c0 1.02.46 1.426 1.56 1.426zm3.166.055c.718 0 1.278-.312 1.615-.882h.079v.788h.861v-3.655c0-1.109-.728-1.778-2.03-1.778-1.139 0-1.951.565-2.09 1.402l-.005.03h.862l.005-.015c.139-.416.56-.654 1.198-.654.798 0 1.199.357 1.199 1.015v.485l-1.53.095c-1.243.074-1.946.623-1.946 1.574v.01c0 .971.767 1.585 1.782 1.585zm-.901-1.605v-.01c0-.529.357-.817 1.169-.866l1.426-.089v.485c0 .763-.639 1.337-1.515 1.337-.619 0-1.08-.317-1.08-.857zm4.994 1.511h.861v-7.458h-.861zm5.303 0h2.788c1.52 0 2.421-.748 2.421-2.001v-.01c0-.941-.619-1.609-1.594-1.733v-.079c.688-.124 1.233-.797 1.233-1.535v-.01c0-1.09-.803-1.778-2.115-1.778h-2.733zm2.545-6.359c.886 0 1.401.421 1.401 1.144v.01c0 .753-.549 1.139-1.629 1.139h-1.426v-2.293zm.025 3.061c1.139 0 1.723.421 1.723 1.243v.01c0 .822-.565 1.257-1.639 1.257h-1.763v-2.51zm5.365 3.392c.718 0 1.277-.312 1.614-.882h.079v.788h.862v-3.655c0-1.109-.728-1.778-2.03-1.778-1.139 0-1.951.565-2.09 1.402l-.005.03h.862l.005-.015c.138-.416.559-.654 1.198-.654.797 0 1.198.357 1.198 1.015v.485l-1.53.095c-1.243.074-1.946.623-1.946 1.574v.01c0 .971.768 1.585 1.783 1.585zm-.901-1.605v-.01c0-.529.356-.817 1.168-.866l1.426-.089v.485c0 .763-.638 1.337-1.515 1.337-.619 0-1.079-.317-1.079-.857zm4.993 1.511h.862v-7.458h-.862zm3.895.094c.718 0 1.277-.312 1.614-.882h.079v.788h.862v-3.655c0-1.109-.728-1.778-2.03-1.778-1.139 0-1.952.565-2.09 1.402l-.005.03h.862l.004-.015c.139-.416.56-.654 1.199-.654.797 0 1.198.357 1.198 1.015v.485l-1.53.095c-1.243.074-1.946.623-1.946 1.574v.01c0 .971.767 1.585 1.783 1.585zm-.902-1.605v-.01c0-.529.357-.817 1.169-.866l1.426-.089v.485c0 .763-.639 1.337-1.515 1.337-.619 0-1.08-.317-1.08-.857zm4.945 1.511h.861v-3.16c0-.936.54-1.51 1.392-1.51.851 0 1.248.461 1.248 1.421v3.249h.861v-3.457c0-1.267-.668-1.976-1.867-1.976-.787 0-1.287.332-1.555.897h-.079v-.802h-.861zm8.019.094c1.282 0 2-.689 2.218-1.654l.01-.055-.851.005-.01.03c-.198.594-.654.911-1.372.911-.951 0-1.565-.787-1.565-2.015v-.01c0-1.203.604-1.976 1.565-1.976.767 0 1.243.426 1.377.951l.005.015h.856l-.005-.03c-.158-.951-.936-1.699-2.233-1.699-1.496 0-2.446 1.08-2.446 2.739v.01c0 1.693.955 2.778 2.451 2.778zm5.583 0c1.258 0 2.02-.713 2.203-1.436l.01-.04h-.861l-.02.045c-.144.322-.589.663-1.312.663-.951 0-1.56-.644-1.585-1.748h3.843v-.337c0-1.594-.882-2.674-2.333-2.674s-2.391 1.129-2.391 2.778v.005c0 1.674.921 2.744 2.446 2.744zm-.06-4.759c.788 0 1.372.5 1.461 1.555h-2.951c.094-1.015.698-1.555 1.49-1.555z"/><mask id="i" width="12" height="10" x="327" y="201" maskUnits="userSpaceOnUse"><path fill="#fff" d="M338.079 201.912h-10.866v8.33h10.866z"/></mask><g fill="#b8b8b8" fill-rule="evenodd" clip-rule="evenodd" mask="url('#i')"><path d="M329.896 204.012c-.78.661-1.353 1.463-1.681 1.991a.142.142 0 0 0-.023.074c0 .022.006.047.023.075.328.528.901 1.33 1.681 1.991.777.66 1.698 1.128 2.75 1.128 1.051 0 1.972-.468 2.75-1.128.78-.661 1.353-1.463 1.68-1.991a.134.134 0 0 0 0-.149c-.327-.528-.9-1.33-1.68-1.991-.778-.66-1.699-1.128-2.75-1.128-1.052 0-1.973.468-2.75 1.128zm-2.515 1.481a1.1 1.1 0 0 0 0 1.169c.712 1.146 2.542 3.581 5.265 3.581 2.722 0 4.553-2.435 5.264-3.581a1.097 1.097 0 0 0 0-1.169c-.711-1.147-2.542-3.581-5.264-3.581-2.723 0-4.553 2.434-5.265 3.581z"/><path d="M332.647 205.118c-.482 0-.872.43-.872.959 0 .53.39.959.872.959.481 0 .872-.429.872-.959 0-.529-.391-.959-.872-.959zm-1.811.959c0-1.1.811-1.992 1.811-1.992 1 0 1.811.892 1.811 1.992 0 1.101-.811 1.992-1.811 1.992-1 0-1.811-.891-1.811-1.992z"/></g><path fill="#282828" d="M267.08 240.746h1.238v-2.067c3.59-.198 6.128-2.043 6.128-5.175v-.025c0-2.686-1.708-4.097-5.15-4.828l-.978-.198v-4.296c1.473.174 2.377.917 2.563 2.142l.025.112h3.305l-.025-.211c-.247-2.86-2.439-4.618-5.868-4.828v-2.08h-1.238v2.068c-3.528.173-5.917 2.117-5.917 5.013v.025c0 2.625 1.683 4.16 4.989 4.853l.928.198v4.432c-1.795-.161-2.637-.978-2.847-2.117l-.025-.136h-3.305l.012.186c.198 2.921 2.612 4.679 6.165 4.865zm-2.463-14.62v-.025c0-.99.829-1.807 2.463-1.956v4.048c-1.782-.396-2.463-1.064-2.463-2.067zm6.375 7.7v.025c0 1.114-.817 1.919-2.674 2.055v-4.197c2.055.446 2.674 1.052 2.674 2.117zm14.841 5.125h3.553v-3.28h2.353v-2.984h-2.353v-11.6h-5.273l-7.168 11.464v3.12h8.888zm-5.632-6.165v-.099l5.62-8.901h.087v9zm20.647 6.475c4.531 0 7.279-3.553 7.279-9.236v-.024c0-5.683-2.748-9.223-7.279-9.223s-7.279 3.54-7.279 9.223v.024c0 5.683 2.748 9.236 7.279 9.236zm0-2.996c-2.229 0-3.504-2.315-3.504-6.24v-.024c0-3.925 1.275-6.227 3.504-6.227 2.228 0 3.503 2.302 3.503 6.227v.024c0 3.925-1.275 6.24-3.503 6.24zm8.317 6.412h2.501l1.819-6.846h-3.416zm13.714-3.416c4.531 0 7.28-3.553 7.28-9.236v-.024c0-5.683-2.749-9.223-7.28-9.223-4.531 0-7.279 3.54-7.279 9.223v.024c0 5.683 2.748 9.236 7.279 9.236zm0-2.996c-2.228 0-3.503-2.315-3.503-6.24v-.024c0-3.925 1.275-6.227 3.503-6.227 2.229 0 3.504 2.302 3.504 6.227v.024c0 3.925-1.275 6.24-3.504 6.24zm14.062 2.686h3.701v-17.864h-3.714l-4.617 3.207v3.317l4.555-3.095h.075zm16.363 0h3.553v-3.28h2.353v-2.984h-2.353v-11.6h-5.273l-7.168 11.464v3.12h8.888zm-5.632-6.165v-.099l5.62-8.901h.087v9zm15.46 6.376a1.997 1.997 0 0 0 2.005-2.006 1.989 1.989 0 0 0-2.005-2.005 1.982 1.982 0 0 0-2.006 2.005 1.99 1.99 0 0 0 2.006 2.006zm11.424.099c4.259 0 7.193-2.117 7.193-5.187v-.025c0-2.315-1.721-4.024-4.11-4.494v-.074c2.055-.508 3.466-2.006 3.466-3.912v-.025c0-2.761-2.699-4.766-6.549-4.766-3.862 0-6.549 2.005-6.549 4.766v.025c0 1.906 1.399 3.404 3.467 3.912v.074c-2.402.47-4.123 2.179-4.123 4.494v.025c0 3.07 2.946 5.187 7.205 5.187zm0-10.907c-1.684 0-2.86-1.003-2.86-2.439v-.024c0-1.424 1.189-2.414 2.86-2.414 1.671 0 2.847.99 2.847 2.414v.024c0 1.436-1.163 2.439-2.847 2.439zm0 8.183c-1.956 0-3.33-1.139-3.33-2.711v-.025c0-1.584 1.362-2.736 3.33-2.736s3.318 1.152 3.318 2.736v.025c0 1.572-1.374 2.711-3.318 2.711zm14.098 2.414h3.702v-17.864h-3.714l-4.618 3.207v3.317l4.556-3.095h.074z"/><path fill="#ebebeb" d="M264.937 277.998a5.433 5.433 0 1 0 0-10.866 5.433 5.433 0 0 0 0 10.866z"/><path fill="#999" fill-rule="evenodd" d="M267.698 270.523a.46.46 0 0 1 .006.647l-3.358 3.431a.456.456 0 0 1-.65 0l-1.526-1.56a.455.455 0 1 1 .65-.641l1.201 1.227 3.032-3.099a.455.455 0 0 1 .645-.005z" clip-rule="evenodd"/><path fill="#282828" d="M277.355 273.856h.764v-2.788h3.361v2.788h.764v-6.125h-.764v2.649h-3.361v-2.649h-.764zm6.719-5.458c.28 0 .51-.229.51-.51a.51.51 0 1 0-.51.51zm-.373 5.458h.738v-4.575h-.738zm3.791.081c.636 0 1.146-.302 1.426-.811h.068v.73h.738v-6.392h-.738v2.538h-.068c-.25-.488-.798-.802-1.426-.802-1.163 0-1.919.929-1.919 2.364v.009c0 1.426.76 2.364 1.919 2.364zm.17-.654c-.837 0-1.333-.645-1.333-1.71v-.009c0-1.065.496-1.71 1.333-1.71.831 0 1.341.653 1.341 1.71v.009c0 1.056-.51 1.71-1.341 1.71zm5.319.654c1.078 0 1.731-.611 1.888-1.231l.009-.034h-.739l-.017.038c-.123.276-.505.569-1.124.569-.815 0-1.337-.552-1.359-1.498h3.294v-.289c0-1.367-.755-2.292-1.999-2.292-1.244 0-2.05.968-2.05 2.381v.004c0 1.435.789 2.352 2.097 2.352zm-.051-4.079c.675 0 1.175.429 1.252 1.333h-2.53c.081-.871.599-1.333 1.278-1.333zm7.637 4.142c1.367 0 2.262-.713 2.262-1.859v-.004c0-.883-.505-1.396-1.782-1.681l-.68-.152c-.831-.183-1.167-.514-1.167-1.002v-.004c0-.641.59-1.002 1.354-1.006.798-.005 1.308.394 1.392.933l.009.056h.764l-.004-.06c-.064-.912-.917-1.634-2.14-1.634-1.264 0-2.151.717-2.156 1.732v.004c0 .887.531 1.452 1.757 1.723l.68.149c.84.187 1.192.535 1.192 1.044v.004c0 .624-.607 1.053-1.439 1.053-.882 0-1.519-.386-1.574-.998l-.005-.046h-.764l.005.046c.089.998.955 1.702 2.296 1.702zm3.413-.144h.739v-2.835c0-.645.454-1.167 1.052-1.167.578 0 .951.352.951.895v3.107h.739v-2.941c0-.582.42-1.061 1.057-1.061.645 0 .955.335.955 1.01v2.992h.738v-3.162c0-.959-.522-1.494-1.456-1.494-.632 0-1.154.318-1.4.802h-.068c-.213-.475-.645-.802-1.265-.802-.599 0-1.032.284-1.235.777h-.068v-.696h-.739zm8.791.081c.616 0 1.095-.268 1.384-.756h.068v.675h.738v-3.132c0-.951-.623-1.524-1.74-1.524-.976 0-1.672.484-1.791 1.201l-.004.026h.738l.005-.013c.118-.357.479-.56 1.027-.56.683 0 1.027.305 1.027.87v.416l-1.312.08c-1.065.064-1.668.535-1.668 1.35v.009c0 .831.658 1.358 1.528 1.358zm-.772-1.375v-.009c0-.454.305-.7 1.002-.743l1.222-.076v.416c0 .654-.548 1.146-1.299 1.146-.53 0-.925-.272-.925-.734zm4.326 1.294h.738v-6.392h-.738zm2.169 0h.739v-6.392h-.739zm4.637 0h2.389c1.303 0 2.076-.641 2.076-1.715v-.008c0-.807-.531-1.38-1.367-1.486v-.068c.59-.106 1.057-.683 1.057-1.315v-.009c0-.934-.687-1.524-1.812-1.524h-2.343zm2.181-5.45c.76 0 1.202.361 1.202.981v.008c0 .645-.472.976-1.397.976h-1.222v-1.965zm.022 2.623c.976 0 1.477.361 1.477 1.066v.008c0 .705-.484 1.078-1.405 1.078h-1.511v-2.152zm4.644 2.908c.615 0 1.095-.268 1.384-.756h.067v.675h.739v-3.132c0-.951-.624-1.524-1.74-1.524-.976 0-1.673.484-1.791 1.201l-.005.026h.739l.004-.013c.119-.357.48-.56 1.027-.56.684 0 1.027.305 1.027.87v.416l-1.311.08c-1.065.064-1.668.535-1.668 1.35v.009c0 .831.658 1.358 1.528 1.358zm-.773-1.375v-.009c0-.454.306-.7 1.002-.743l1.222-.076v.416c0 .654-.547 1.146-1.298 1.146-.531 0-.926-.272-.926-.734zm4.326 1.294h.739v-6.392h-.739zm3.384.081c.615 0 1.095-.268 1.383-.756h.068v.675h.739v-3.132c0-.951-.624-1.524-1.74-1.524-.977 0-1.673.484-1.791 1.201l-.005.026h.739l.004-.013c.119-.357.48-.56 1.027-.56.684 0 1.027.305 1.027.87v.416l-1.311.08c-1.066.064-1.668.535-1.668 1.35v.009c0 .831.658 1.358 1.528 1.358zm-.773-1.375v-.009c0-.454.306-.7 1.002-.743l1.222-.076v.416c0 .654-.547 1.146-1.298 1.146-.531 0-.926-.272-.926-.734zm4.284 1.294h.738v-2.708c0-.802.463-1.294 1.193-1.294s1.07.394 1.07 1.218v2.784h.738v-2.963c0-1.086-.573-1.693-1.6-1.693-.675 0-1.104.284-1.333.768h-.068v-.687h-.738zm6.919.081c1.099 0 1.715-.59 1.901-1.418l.009-.047-.73.005-.009.025c-.169.509-.56.781-1.175.781-.815 0-1.342-.675-1.342-1.727v-.009c0-1.031.518-1.693 1.342-1.693.658 0 1.065.365 1.18.815l.004.012h.734l-.004-.025c-.136-.815-.802-1.456-1.914-1.456-1.282 0-2.097.925-2.097 2.347v.009c0 1.451.819 2.381 2.101 2.381zm4.831 0c1.078 0 1.732-.611 1.889-1.231l.008-.034h-.738l-.017.038c-.123.276-.505.569-1.125.569-.815 0-1.337-.552-1.358-1.498h3.293v-.289c0-1.367-.755-2.292-1.999-2.292-1.243 0-2.05.968-2.05 2.381v.004c0 1.435.79 2.352 2.097 2.352zm-.051-4.079c.675 0 1.176.429 1.252 1.333h-2.53c.081-.871.599-1.333 1.278-1.333zm4.691 4.079c1.04 0 1.833-.565 1.833-1.38v-.008c0-.654-.416-1.027-1.277-1.235l-.705-.17c-.539-.132-.768-.327-.768-.637v-.008c0-.403.399-.684.942-.684.552 0 .909.251 1.006.612h.726c-.102-.747-.768-1.227-1.727-1.227-.972 0-1.703.573-1.703 1.333v.004c0 .658.387 1.031 1.244 1.235l.709.17c.564.136.798.352.798.662v.009c0 .415-.437.708-1.053.708-.585 0-.95-.25-1.074-.632h-.755c.085.755.785 1.248 1.804 1.248z"/><path fill="#fff" d="M533.118 290.5H261.881a5.5 5.5 0 0 0-5.5 5.5v38.707a5.5 5.5 0 0 0 5.5 5.5h271.237a5.5 5.5 0 0 0 5.5-5.5V296a5.5 5.5 0 0 0-5.5-5.5z"/><path fill="url('#j')" d="M278.519 329.298c7.701 0 13.944-6.243 13.944-13.944 0-7.701-6.243-13.945-13.944-13.945-7.702 0-13.945 6.244-13.945 13.945 0 7.701 6.243 13.944 13.945 13.944z" style="fill:url(#j)"/><path fill="#fff" fill-rule="evenodd" d="M270.123 315.553c0-4.723 3.843-8.566 8.566-8.566 4.723 0 8.566 3.843 8.566 8.566 0 4.723-3.843 8.566-8.566 8.566-4.723 0-8.566-3.843-8.566-8.566zm1.201 0c0 4.061 3.304 7.365 7.365 7.365s7.365-3.304 7.365-7.365c0-4.062-3.304-7.366-7.365-7.366s-7.365 3.304-7.365 7.366zm4.272 2.353a3.867 3.867 0 0 1-.76-1.831l-.014.002a.194.194 0 0 1-.024.002h-1.372a.526.526 0 0 1 0-1.052h1.372l.024.002.014.002a3.854 3.854 0 0 1 .761-1.831l-.011-.008c-.007-.006-.014-.011-.02-.018l-.97-.97a.526.526 0 1 1 .744-.744l.969.97.013.015a.2.2 0 0 0 .014.016 3.86 3.86 0 0 1 1.831-.761l-.002-.019a.11.11 0 0 1-.002-.018v-1.372a.525.525 0 1 1 1.051 0v1.372a.164.164 0 0 1-.002.022l-.002.015a3.863 3.863 0 0 1 1.832.761.064.064 0 0 0 .01-.013l.015-.017.971-.971a.526.526 0 1 1 .744.745l-.971.969-.017.015-.014.011c.4.523.669 1.149.761 1.831a.088.088 0 0 0 .016-.002.164.164 0 0 1 .022-.002h1.371a.525.525 0 1 1 0 1.052h-1.372l-.023-.002-.015-.002a3.857 3.857 0 0 1-.76 1.831l.014.012.017.014.97.97a.525.525 0 1 1-.744.743l-.97-.97c-.006-.005-.01-.012-.015-.018l-.01-.012a3.866 3.866 0 0 1-1.832.76l.002.015.002.023v1.372a.525.525 0 1 1-1.052 0v-1.372l.002-.019a.11.11 0 0 0 .002-.019 3.867 3.867 0 0 1-1.831-.76.101.101 0 0 0-.013.016l-.013.014-.97.97a.524.524 0 0 1-.743 0 .524.524 0 0 1 0-.743l.97-.97.019-.017a.106.106 0 0 0 .011-.009zm5.804-2.353a2.715 2.715 0 0 0-2.711-2.711 2.715 2.715 0 0 0-2.713 2.711 2.716 2.716 0 0 0 2.713 2.712 2.715 2.715 0 0 0 2.711-2.712z" clip-rule="evenodd"/><path fill="#282828" d="M303.134 318.522c1.52 0 2.649-.847 2.887-2.154v-.01h-.901l-.01.01c-.223.822-.981 1.332-1.976 1.332-1.377 0-2.238-1.124-2.238-2.912v-.01c0-1.787.861-2.916 2.233-2.916.985 0 1.748.579 1.986 1.495l.005.01h.896l.005-.01c-.213-1.371-1.387-2.317-2.892-2.317-1.941 0-3.149 1.436-3.149 3.738v.01c0 2.298 1.213 3.734 3.154 3.734zm6.38-.074c1.52 0 2.461-1.05 2.461-2.758v-.01c0-1.714-.941-2.759-2.461-2.759s-2.461 1.045-2.461 2.759v.01c0 1.708.941 2.758 2.461 2.758zm0-.763c-1.01 0-1.58-.738-1.58-1.995v-.01c0-1.263.57-1.996 1.58-1.996 1.01 0 1.58.733 1.58 1.996v.01c0 1.257-.57 1.995-1.58 1.995zm4.167-5.699a.595.595 0 0 0 0-1.189.595.595 0 0 0 0 1.189zm-.436 6.368h.862v-5.338h-.862zm2.399 0h.862v-3.16c0-.936.539-1.51 1.391-1.51s1.248.461 1.248 1.421v3.249h.862v-3.457c0-1.267-.669-1.976-1.867-1.976-.788 0-1.288.332-1.555.897h-.079v-.802h-.862zm5.945 0h4.337v-.803h-3.446v-6.343h-.891zm7.514.094c1.52 0 2.461-1.05 2.461-2.758v-.01c0-1.714-.941-2.759-2.461-2.759-1.521 0-2.461 1.045-2.461 2.759v.01c0 1.708.94 2.758 2.461 2.758zm0-.763c-1.01 0-1.58-.738-1.58-1.995v-.01c0-1.263.57-1.996 1.58-1.996 1.01 0 1.579.733 1.579 1.996v.01c0 1.257-.569 1.995-1.579 1.995zm5.177.763c.718 0 1.277-.312 1.614-.882h.079v.788h.862v-3.655c0-1.109-.728-1.778-2.03-1.778-1.139 0-1.951.565-2.09 1.402l-.005.03h.862l.004-.015c.139-.416.56-.654 1.199-.654.797 0 1.198.357 1.198 1.015v.485l-1.53.095c-1.243.074-1.946.623-1.946 1.574v.01c0 .971.768 1.585 1.783 1.585zm-.902-1.605v-.01c0-.529.357-.817 1.169-.866l1.426-.089v.485c0 .763-.639 1.337-1.515 1.337-.619 0-1.08-.317-1.08-.857zm4.945 1.511h.861v-3.16c0-.936.54-1.51 1.392-1.51.851 0 1.248.461 1.248 1.421v3.249h.861v-3.457c0-1.267-.668-1.976-1.867-1.976-.787 0-1.287.332-1.555.897h-.079v-.802h-.861zm10.566 0h.892v-6.344h2.302v-.802h-5.496v.802h2.302zm5.578.094c1.521 0 2.462-1.05 2.462-2.758v-.01c0-1.714-.941-2.759-2.462-2.759-1.52 0-2.461 1.045-2.461 2.759v.01c0 1.708.941 2.758 2.461 2.758zm0-.763c-1.01 0-1.579-.738-1.579-1.995v-.01c0-1.263.569-1.996 1.579-1.996 1.011 0 1.58.733 1.58 1.996v.01c0 1.257-.569 1.995-1.58 1.995zm3.761.669h.862v-2.026l.5-.485 2 2.511h1.085l-2.481-3.095 2.327-2.243h-1.044l-2.308 2.332h-.079v-4.452h-.862zm7.301.094c1.258 0 2.021-.713 2.204-1.436l.01-.04h-.862l-.02.045c-.143.322-.589.663-1.312.663-.951 0-1.56-.644-1.584-1.748h3.842v-.337c0-1.594-.881-2.674-2.332-2.674-1.451 0-2.392 1.129-2.392 2.778v.005c0 1.674.921 2.744 2.446 2.744zm-.059-4.759c.787 0 1.372.5 1.461 1.555h-2.952c.095-1.015.699-1.555 1.491-1.555zm3.587 4.665h.862v-3.16c0-.936.54-1.51 1.391-1.51.852 0 1.248.461 1.248 1.421v3.249h.862v-3.457c0-1.267-.669-1.976-1.867-1.976-.787 0-1.287.332-1.555.897h-.079v-.802h-.862zm88.464-7.571h1.732v-1.594h1.131v-1.455h-1.131v-5.628h-2.549a107.024 107.024 0 0 0-3.434 5.658v1.425h4.251zm-2.615-3.001v-.096a75.724 75.724 0 0 1 2.555-4.203h.097v4.299zm6.972 3.001h6.26v-1.461h-3.825v-.139l1.606-1.497c1.581-1.461 2.092-2.279 2.092-3.265v-.018c0-1.497-1.25-2.519-3.036-2.519-1.9 0-3.199 1.142-3.199 2.808l.006.024h1.678v-.03c0-.824.583-1.389 1.431-1.389.829 0 1.335.517 1.335 1.256v.018c0 .608-.331 1.047-1.552 2.231l-2.796 2.76zm9.005.15c.619 0 1.058-.451 1.058-1.046s-.439-1.04-1.058-1.04c-.613 0-1.058.445-1.058 1.04s.445 1.046 1.058 1.046zm5.848.072c1.948 0 3.295-1.244 3.295-3.072v-.012c0-1.654-1.167-2.844-2.784-2.844-.83 0-1.503.36-1.852.944h-.108l.216-2.472h4.011v-1.443h-5.424l-.403 5.135h1.558c.096-.186.24-.349.402-.481.289-.246.662-.373 1.101-.373.92 0 1.575.644 1.575 1.57v.012c0 .932-.649 1.587-1.581 1.587-.818 0-1.413-.511-1.539-1.148l-.013-.042h-1.647l.006.084c.102 1.449 1.329 2.555 3.187 2.555zm5.186-.222h1.9l3.626-7.216V302.1h-6.205v1.449h4.377v.102zm10.141.222c1.949 0 3.296-1.244 3.296-3.072v-.012c0-1.654-1.167-2.844-2.784-2.844-.83 0-1.504.36-1.852.944h-.109l.217-2.472h4.011v-1.443h-5.424l-.403 5.135h1.557c.096-.186.241-.349.403-.481.289-.246.662-.373 1.101-.373.92 0 1.575.644 1.575 1.57v.012c0 .932-.649 1.587-1.581 1.587-.818 0-1.414-.511-1.54-1.148l-.012-.042h-1.647l.006.084c.102 1.449 1.328 2.555 3.186 2.555zm8.091 0c1.948 0 3.295-1.244 3.295-3.072v-.012c0-1.654-1.166-2.844-2.784-2.844-.829 0-1.503.36-1.852.944h-.108l.217-2.472h4.01v-1.443h-5.423l-.403 5.135h1.557c.096-.186.241-.349.403-.481.289-.246.661-.373 1.1-.373.92 0 1.576.644 1.576 1.57v.012c0 .932-.65 1.587-1.582 1.587-.818 0-1.413-.511-1.539-1.148l-.012-.042h-1.648l.006.084c.103 1.449 1.329 2.555 3.187 2.555zm11.75 0c2.093 0 3.578-1.238 3.764-3.054l.006-.066h-1.767l-.013.048c-.192.926-.944 1.533-1.984 1.533-1.371 0-2.219-1.154-2.219-3.018v-.013c0-1.864.848-3.012 2.213-3.012 1.034 0 1.81.661 1.997 1.636v.042h1.767v-.073c-.168-1.834-1.707-3.144-3.764-3.144-2.519 0-4.071 1.737-4.071 4.551v.013c0 2.814 1.558 4.557 4.071 4.557zm5.355-.222h5.676v-1.497h-3.86v-7.18h-1.816zm8.199 0h1.816v-7.18h2.604v-1.497h-7.024v1.497h2.604z"/><path fill="#999" d="M492.619 327.54h.51v-.713c1.001-.081 1.833-.654 1.833-1.673v-.008c0-.887-.611-1.337-1.702-1.6l-.131-.03v-1.948c.573.072.98.424 1.035.993v.009l.739-.005v-.004c-.034-.934-.794-1.57-1.774-1.66v-.717h-.51v.717c-1.006.094-1.723.714-1.723 1.622v.008c0 .832.569 1.303 1.626 1.558l.097.026v2.041c-.738-.081-1.065-.501-1.141-1.027v-.009l-.739.005v.004c.034.985.87 1.6 1.88 1.694zm-.984-5.06v-.008c0-.408.339-.815.984-.904v1.825c-.73-.178-.984-.501-.984-.913zm1.519 1.762c.841.204 1.07.501 1.07.963v.009c0 .488-.306.887-1.095.951v-1.927zm5.188 2.784c1.226 0 2.126-.755 2.126-1.778v-.009c0-.87-.607-1.426-1.498-1.502v-.017c.764-.161 1.299-.679 1.299-1.435v-.008c0-.93-.769-1.579-1.936-1.579-1.146 0-1.935.666-2.033 1.664l-.004.042h.734l.004-.042c.064-.62.578-1.002 1.299-1.002.747 0 1.167.369 1.167 1.01v.009c0 .611-.509 1.061-1.239 1.061h-.734v.645h.768c.857 0 1.396.42 1.396 1.171v.009c0 .649-.547 1.099-1.349 1.099-.815 0-1.371-.416-1.431-1.019l-.004-.042h-.734l.004.051c.081.968.9 1.672 2.165 1.672zm6.134-.102h.747v-1.269h.87v-.683h-.87V320.8h-1.108a94.335 94.335 0 0 0-2.623 4.159v.696h2.984zm-2.203-1.948v-.051a77.329 77.329 0 0 1 2.156-3.417h.051v3.468zm7.021 2.093c1.354 0 2.169-1.235 2.169-3.205v-.008c0-1.97-.815-3.201-2.169-3.201s-2.161 1.231-2.161 3.201v.008c0 1.97.807 3.205 2.161 3.205zm0-.667c-.879 0-1.392-.976-1.392-2.538v-.008c0-1.562.513-2.53 1.392-2.53.878 0 1.401.968 1.401 2.53v.008c0 1.562-.523 2.538-1.401 2.538zm3.664.565a.554.554 0 0 0 .551-.552.55.55 0 1 0-1.103 0c0 .301.25.552.552.552zm3.769.102c1.236 0 2.144-.887 2.144-2.11v-.008c0-1.176-.858-2.05-2.008-2.05-.827 0-1.405.445-1.63.946h-.08c0-.047 0-.097.004-.144.047-1.278.501-2.364 1.613-2.364.62 0 1.048.318 1.235.832l.017.046h.768l-.013-.055c-.208-.904-.972-1.507-1.999-1.507-1.485 0-2.355 1.223-2.355 3.311v.008c0 2.305 1.184 3.095 2.304 3.095zm-1.392-2.118v-.005c0-.798.603-1.379 1.397-1.379.793 0 1.371.586 1.371 1.401v.008c0 .794-.616 1.418-1.384 1.418-.777 0-1.384-.637-1.384-1.443zm6.784 2.118c1.354 0 2.169-1.235 2.169-3.205v-.008c0-1.97-.815-3.201-2.169-3.201s-2.161 1.231-2.161 3.201v.008c0 1.97.807 3.205 2.161 3.205zm0-.667c-.879 0-1.393-.976-1.393-2.538v-.008c0-1.562.514-2.53 1.393-2.53.878 0 1.4.968 1.4 2.53v.008c0 1.562-.522 2.538-1.4 2.538zm6.193.522h.747v-1.269h.87v-.683h-.87V320.8h-1.108a96.24 96.24 0 0 0-2.623 4.159v.696h2.984zm-2.203-1.948v-.051a79.232 79.232 0 0 1 2.156-3.417h.051v3.468z"/><path stroke="#ebebeb" d="M533.118 290.5H261.881a5.5 5.5 0 0 0-5.5 5.5v38.707a5.5 5.5 0 0 0 5.5 5.5h271.237a5.5 5.5 0 0 0 5.5-5.5V296a5.5 5.5 0 0 0-5.5-5.5z"/><path fill="#fff" d="M533.118 349.207H261.881a5.5 5.5 0 0 0-5.5 5.5v38.707a5.5 5.5 0 0 0 5.5 5.5h271.237a5.5 5.5 0 0 0 5.5-5.5v-38.707a5.5 5.5 0 0 0-5.5-5.5z"/><path fill="url('#k')" d="M292.046 377.434v.001c-1.863 7.47-9.43 12.016-16.902 10.153-7.468-1.862-12.015-9.429-10.152-16.899 1.862-7.471 9.429-12.018 16.898-10.155 7.472 1.862 12.018 9.43 10.156 16.9z" style="fill:url(#k)"/><path fill="#fff" fill-rule="evenodd" d="M282.721 372.441c.188-1.259-.77-1.936-2.081-2.387l.425-1.705-1.038-.259-.414 1.66a40.41 40.41 0 0 0-.831-.195l.416-1.671-1.037-.259-.426 1.704a36.45 36.45 0 0 1-.662-.155l.001-.006-1.432-.357-.276 1.108s.77.177.754.188c.42.105.497.383.484.604l-.485 1.942a.733.733 0 0 1 .108.035l-.109-.028-.679 2.722c-.052.127-.182.319-.476.246.011.015-.754-.188-.754-.188l-.516 1.188 1.351.337c.153.038.304.077.452.116h.001l.287.075-.429 1.725 1.036.258.426-1.706c.283.077.558.148.827.215l-.424 1.698 1.038.259.43-1.722c1.77.335 3.101.2 3.661-1.4.451-1.289-.022-2.033-.954-2.518.679-.157 1.189-.603 1.326-1.524zm-2.372 3.325c-.295 1.183-2.147.694-2.994.47a9.226 9.226 0 0 0-.201-.052l.57-2.285.255.059c.876.196 2.671.599 2.37 1.808zm-2.194-2.868c.707.189 2.247.599 2.515-.475.274-1.1-1.223-1.431-1.955-1.593a8.044 8.044 0 0 1-.214-.049l-.516 2.072.17.045z" clip-rule="evenodd"/><path fill="#282828" d="M300.257 377.061h2.788c1.52 0 2.421-.748 2.421-2.001v-.009c0-.941-.619-1.61-1.594-1.734v-.079c.688-.124 1.233-.797 1.233-1.535v-.01c0-1.089-.802-1.778-2.115-1.778h-2.733zm2.545-6.358c.887 0 1.402.421 1.402 1.144v.01c0 .752-.55 1.138-1.63 1.138h-1.426v-2.292zm.025 3.06c1.139 0 1.723.421 1.723 1.243v.01c0 .822-.564 1.258-1.639 1.258h-1.763v-2.511zm4.355-3.07a.596.596 0 0 0 .594-.594.596.596 0 0 0-.594-.595.596.596 0 0 0-.594.595c0 .326.267.594.594.594zm-.436 6.368h.862v-5.338h-.862zm4.296.04c.168 0 .331-.02.5-.05v-.733c-.159.015-.243.02-.396.02-.555 0-.773-.253-.773-.881v-3.021h1.169v-.713h-1.169v-1.382h-.891v1.382h-.842v.713h.842v3.238c0 1.021.46 1.427 1.56 1.427zm3.805.054c1.282 0 2-.688 2.218-1.654l.01-.054-.852.005-.01.029c-.198.595-.653.911-1.371.911-.951 0-1.565-.787-1.565-2.015v-.01c0-1.203.604-1.976 1.565-1.976.767 0 1.243.426 1.376.951l.005.015h.857l-.005-.03c-.158-.951-.936-1.698-2.233-1.698-1.496 0-2.446 1.079-2.446 2.738v.01c0 1.694.955 2.778 2.451 2.778zm5.598 0c1.52 0 2.461-1.05 2.461-2.758v-.01c0-1.713-.941-2.758-2.461-2.758-1.521 0-2.461 1.045-2.461 2.758v.01c0 1.708.94 2.758 2.461 2.758zm0-.763c-1.011 0-1.58-.737-1.58-1.995v-.01c0-1.263.569-1.996 1.58-1.996 1.01 0 1.579.733 1.579 1.996v.01c0 1.258-.569 1.995-1.579 1.995zm4.166-5.699a.597.597 0 0 0 .595-.594.597.597 0 0 0-.595-.595.597.597 0 0 0-.594.595c0 .326.268.594.594.594zm-.435 6.368h.861v-5.338h-.861zm2.399 0h.861v-3.159c0-.936.54-1.511 1.392-1.511.851 0 1.247.461 1.247 1.422v3.248h.862v-3.456c0-1.268-.668-1.976-1.867-1.976-.787 0-1.287.332-1.555.896h-.079v-.802h-.861zm101.756-7.348c2.146 0 3.445-1.756 3.445-4.558v-.012c0-2.808-1.299-4.552-3.445-4.552-2.141 0-3.446 1.744-3.446 4.552v.012c0 2.802 1.305 4.558 3.446 4.558zm0-1.437c-1.023 0-1.606-1.161-1.606-3.121v-.012c0-1.966.583-3.115 1.606-3.115 1.028 0 1.611 1.149 1.611 3.115v.012c0 1.96-.583 3.121-1.611 3.121zm5.631 1.365c.619 0 1.058-.451 1.058-1.047 0-.595-.439-1.04-1.058-1.04-.613 0-1.058.445-1.058 1.04 0 .596.445 1.047 1.058 1.047zm2.811-.151h6.26v-1.461h-3.824v-.138l1.605-1.497c1.582-1.462 2.093-2.279 2.093-3.266v-.018c0-1.497-1.251-2.519-3.037-2.519-1.9 0-3.199 1.142-3.199 2.808l.006.024h1.678v-.03c0-.824.583-1.389 1.431-1.389.83 0 1.335.517 1.335 1.257v.018c0 .607-.331 1.046-1.552 2.231l-2.796 2.76zm11.128.223c1.948 0 3.295-1.245 3.295-3.073v-.012c0-1.654-1.167-2.844-2.784-2.844-.83 0-1.503.361-1.852.944h-.108l.216-2.471h4.011v-1.444h-5.424l-.403 5.136h1.557c.097-.187.241-.349.403-.481.289-.247.662-.373 1.101-.373.92 0 1.575.643 1.575 1.569v.012c0 .932-.649 1.588-1.581 1.588-.818 0-1.413-.512-1.54-1.149l-.012-.042h-1.647l.006.084c.102 1.449 1.329 2.556 3.187 2.556zm8.199-.03c2.086 0 3.523-1.041 3.523-2.544v-.012c0-1.13-.848-1.972-2.026-2.201v-.036c1.01-.252 1.708-.98 1.708-1.924v-.012c0-1.347-1.323-2.333-3.205-2.333-1.888 0-3.205.986-3.205 2.333v.012c0 .944.691 1.678 1.707 1.924v.036c-1.184.235-2.026 1.071-2.026 2.201v.012c0 1.503 1.437 2.544 3.524 2.544zm0-5.34c-.836 0-1.413-.493-1.413-1.202v-.013c0-.709.583-1.196 1.413-1.196.823 0 1.407.487 1.407 1.196v.013c0 .709-.578 1.202-1.407 1.202zm0 4.017c-.956 0-1.63-.559-1.63-1.341v-.012c0-.782.668-1.347 1.63-1.347.962 0 1.623.565 1.623 1.347v.012c0 .782-.673 1.341-1.623 1.341zm8.307 1.323c2.026 0 3.379-1.065 3.379-2.64v-.012c0-1.179-.842-1.924-2.134-2.045v-.036c1.016-.21 1.81-.914 1.81-1.996v-.012c0-1.383-1.203-2.321-3.067-2.321-1.822 0-3.043 1.01-3.169 2.562l-.006.072h1.672l.006-.054c.072-.722.643-1.185 1.497-1.185.854 0 1.353.445 1.353 1.167v.012c0 .703-.589 1.184-1.503 1.184h-.969v1.293h.993c1.052 0 1.671.457 1.671 1.287v.012c0 .733-.607 1.25-1.533 1.25-.938 0-1.557-.481-1.636-1.154l-.006-.066h-1.737l.006.078c.12 1.551 1.413 2.604 3.373 2.604zm8.307.03c1.954 0 3.325-1.305 3.325-3.079v-.012c0-1.642-1.142-2.844-2.832-2.844-1.196 0-1.924.595-2.237 1.269h-.12c0-.067 0-.133.006-.199.066-1.575.613-2.808 1.87-2.808.704 0 1.197.367 1.401.908l.024.054h1.774l-.012-.06c-.265-1.359-1.515-2.351-3.193-2.351-2.219 0-3.59 1.726-3.59 4.63v.012c0 3.055 1.57 4.48 3.584 4.48zm-1.593-3.055v-.006c0-.896.697-1.539 1.593-1.539.908 0 1.57.661 1.57 1.569v.012c0 .89-.704 1.582-1.582 1.582-.884 0-1.581-.704-1.581-1.618zm10.49 2.832h1.731v-1.593h1.131v-1.455h-1.131v-5.629h-2.549a106.653 106.653 0 0 0-3.434 5.659v1.425h4.252zm-2.616-3v-.096a75.16 75.16 0 0 1 2.556-4.204h.096v4.3zm10.37 3.193c2.086 0 3.523-1.041 3.523-2.544v-.012c0-1.13-.848-1.972-2.026-2.201v-.036c1.01-.252 1.708-.98 1.708-1.924v-.012c0-1.347-1.323-2.333-3.205-2.333-1.888 0-3.205.986-3.205 2.333v.012c0 .944.691 1.678 1.707 1.924v.036c-1.184.235-2.026 1.071-2.026 2.201v.012c0 1.503 1.437 2.544 3.524 2.544zm0-5.34c-.836 0-1.413-.493-1.413-1.202v-.013c0-.709.583-1.196 1.413-1.196.823 0 1.407.487 1.407 1.196v.013c0 .709-.578 1.202-1.407 1.202zm0 4.017c-.956 0-1.63-.559-1.63-1.341v-.012c0-.782.668-1.347 1.63-1.347.962 0 1.623.565 1.623 1.347v.012c0 .782-.673 1.341-1.623 1.341zm8.463 1.323c2.087 0 3.524-1.041 3.524-2.544v-.012c0-1.13-.848-1.972-2.027-2.201v-.036c1.011-.252 1.708-.98 1.708-1.924v-.012c0-1.347-1.323-2.333-3.205-2.333-1.888 0-3.205.986-3.205 2.333v.012c0 .944.692 1.678 1.708 1.924v.036c-1.185.235-2.026 1.071-2.026 2.201v.012c0 1.503 1.437 2.544 3.523 2.544zm0-5.34c-.836 0-1.413-.493-1.413-1.202v-.013c0-.709.583-1.196 1.413-1.196.824 0 1.407.487 1.407 1.196v.013c0 .709-.577 1.202-1.407 1.202zm0 4.017c-.956 0-1.629-.559-1.629-1.341v-.012c0-.782.667-1.347 1.629-1.347s1.624.565 1.624 1.347v.012c0 .782-.674 1.341-1.624 1.341zm8.329 1.13h3.896c1.852 0 3.001-.956 3.001-2.477v-.012c0-1.113-.836-1.972-1.985-2.063v-.108c.89-.132 1.57-.932 1.57-1.846v-.012c0-1.335-1.004-2.159-2.688-2.159h-3.794zm3.331-7.33c.866 0 1.365.421 1.365 1.125v.012c0 .715-.535 1.124-1.515 1.124h-1.365v-2.261zm.06 3.458c1.07 0 1.654.433 1.654 1.239v.012c0 .823-.566 1.268-1.612 1.268h-1.617v-2.519zm7.165 3.872h1.816v-7.179h2.603v-1.498h-7.023v1.498h2.604zm9.323.223c2.093 0 3.578-1.239 3.764-3.055l.006-.066h-1.767l-.012.048c-.193.926-.944 1.533-1.985 1.533-1.371 0-2.218-1.154-2.218-3.018v-.012c0-1.864.847-3.013 2.212-3.013 1.035 0 1.81.662 1.997 1.636v.042h1.767v-.072c-.168-1.834-1.707-3.145-3.764-3.145-2.519 0-4.071 1.738-4.071 4.552v.012c0 2.814 1.558 4.558 4.071 4.558z"/><path fill="#999" d="M492.844 386.247h.509v-.713c1.002-.081 1.834-.654 1.834-1.672v-.009c0-.887-.612-1.337-1.703-1.6l-.131-.03v-1.948c.573.072.98.425 1.036.993v.009l.738-.004v-.005c-.034-.933-.794-1.57-1.774-1.659v-.718h-.509v.718c-1.006.093-1.724.713-1.724 1.621v.009c0 .832.569 1.303 1.626 1.557l.098.026v2.041c-.739-.08-1.066-.5-1.142-1.027v-.008l-.739.004v.004c.034.985.87 1.6 1.881 1.694zm-.985-5.059v-.009c0-.407.339-.815.985-.904v1.825c-.73-.178-.985-.501-.985-.912zm1.519 1.761c.841.204 1.07.501 1.07.964v.008c0 .488-.306.887-1.095.951v-1.927zm5.268 2.827c1.236 0 2.144-.887 2.144-2.109v-.009c0-1.176-.857-2.05-2.008-2.05-.827 0-1.405.446-1.63.946h-.08c0-.046 0-.097.004-.144.047-1.277.501-2.364 1.613-2.364.62 0 1.048.318 1.235.832l.017.047h.768l-.012-.056c-.208-.904-.972-1.506-2-1.506-1.485 0-2.355 1.222-2.355 3.31v.009c0 2.305 1.184 3.094 2.304 3.094zm-1.392-2.118v-.004c0-.798.603-1.38 1.397-1.38.793 0 1.371.586 1.371 1.401v.009c0 .793-.616 1.417-1.384 1.417-.777 0-1.384-.637-1.384-1.443zm4.254 3.531h.548l.666-2.415h-.845zm4.445-1.413c1.354 0 2.169-1.235 2.169-3.205v-.008c0-1.969-.815-3.2-2.169-3.2s-2.161 1.231-2.161 3.2v.008c0 1.97.807 3.205 2.161 3.205zm0-.666c-.879 0-1.392-.977-1.392-2.539v-.008c0-1.562.513-2.53 1.392-2.53.878 0 1.4.968 1.4 2.53v.008c0 1.562-.522 2.539-1.4 2.539zm5.408.666c1.244 0 2.131-.862 2.131-2.097v-.008c0-1.184-.828-2.046-1.978-2.046-.556 0-1.036.225-1.308.637h-.068l.208-2.072h2.806v-.683h-3.408l-.323 3.519h.662c.077-.145.174-.264.28-.365.264-.251.612-.374 1.019-.374.794 0 1.363.582 1.363 1.397v.008c0 .828-.561 1.409-1.376 1.409-.717 0-1.247-.467-1.32-1.052l-.004-.034h-.734l.004.046c.089.981.904 1.715 2.046 1.715zm5.336-6.413c-1.235 0-2.144.887-2.144 2.109v.009c0 1.175.858 2.05 2.008 2.05.828 0 1.405-.446 1.63-.947h.081c0 .047 0 .098-.005.144-.046 1.278-.5 2.365-1.612 2.365-.62 0-1.049-.319-1.236-.832l-.017-.047h-.768l.013.055c.208.904.972 1.507 1.999 1.507 1.486 0 2.356-1.222 2.356-3.311v-.008c0-2.305-1.185-3.094-2.305-3.094zm-.004 3.501c-.794 0-1.371-.585-1.371-1.4v-.009c0-.794.615-1.418 1.383-1.418.777 0 1.384.637 1.384 1.444v.004c0 .798-.603 1.379-1.396 1.379zm3.774 2.81a.551.551 0 1 0 .002-1.104.551.551 0 0 0-.002 1.104zm3.188-.042h.764v-6.125h-.76l-1.63 1.171v.807l1.558-1.129h.068zm2.76 0h.802l2.725-5.416v-.709h-4.054v.683h3.277v.06z"/><path stroke="#ebebeb" d="M533.118 349.207H261.881a5.5 5.5 0 0 0-5.5 5.5v38.707a5.5 5.5 0 0 0 5.5 5.5h271.237a5.5 5.5 0 0 0 5.5-5.5v-38.707a5.5 5.5 0 0 0-5.5-5.5z"/><path fill="#fff" d="M533.118 407.915H261.881a5.5 5.5 0 0 0-5.5 5.5v38.707a5.5 5.5 0 0 0 5.5 5.5h271.237a5.5 5.5 0 0 0 5.5-5.5v-38.707a5.5 5.5 0 0 0-5.5-5.5z"/><path fill="url('#l')" d="M278.519 446.712c7.701 0 13.944-6.243 13.944-13.944 0-7.701-6.243-13.945-13.944-13.945-7.702 0-13.945 6.244-13.945 13.945 0 7.701 6.243 13.944 13.945 13.944z" style="fill:url(#l)"/><path fill="#fff" d="m274.893 429.809-2.488-2.404v8.045h-3.11l.848 2.682h4.75v-4.485l3.478 3.197 3.478-3.197v4.485h4.75l.849-2.682h-3.111v-8.045l-2.488 2.404-3.478 3.426z"/><path fill="#282828" d="M300.257 435.768h.832v-5.457h.054l2.258 5.457h.753l2.258-5.457h.055v5.457h.831v-7.145h-1.035l-2.446 5.962h-.079l-2.446-5.962h-1.035zm10.862.094c1.52 0 2.461-1.049 2.461-2.758v-.01c0-1.713-.941-2.758-2.461-2.758-1.521 0-2.462 1.045-2.462 2.758v.01c0 1.709.941 2.758 2.462 2.758zm0-.762c-1.011 0-1.58-.738-1.58-1.996v-.01c0-1.262.569-1.995 1.58-1.995 1.01 0 1.579.733 1.579 1.995v.01c0 1.258-.569 1.996-1.579 1.996zm3.711.668h.861v-3.159c0-.936.54-1.51 1.392-1.51.852 0 1.248.46 1.248 1.421v3.248h.861v-3.456c0-1.268-.668-1.976-1.867-1.976-.787 0-1.287.332-1.554.896h-.08v-.802h-.861zm8.014.094c1.258 0 2.02-.713 2.204-1.436l.01-.039h-.862l-.02.044c-.143.322-.589.664-1.312.664-.951 0-1.56-.644-1.585-1.748h3.843v-.337c0-1.594-.881-2.674-2.332-2.674-1.451 0-2.392 1.129-2.392 2.778v.005c0 1.674.921 2.743 2.446 2.743zm-.059-4.758c.787 0 1.371.5 1.46 1.554h-2.951c.094-1.015.698-1.554 1.491-1.554zm3.587 4.664h.862v-3.308c0-.782.584-1.302 1.406-1.302.188 0 .352.02.53.05v-.837a2.871 2.871 0 0 0-.431-.035c-.723 0-1.223.327-1.426.886h-.079v-.792h-.862zm5.821.094c1.52 0 2.461-1.049 2.461-2.758v-.01c0-1.713-.941-2.758-2.461-2.758-1.521 0-2.461 1.045-2.461 2.758v.01c0 1.709.94 2.758 2.461 2.758zm0-.762c-1.01 0-1.58-.738-1.58-1.996v-.01c0-1.262.57-1.995 1.58-1.995 1.01 0 1.579.733 1.579 1.995v.01c0 1.258-.569 1.996-1.579 1.996zm123.961-6.902h6.259v-1.462h-3.824v-.138l1.606-1.497c1.581-1.461 2.092-2.279 2.092-3.265v-.018c0-1.497-1.251-2.52-3.037-2.52-1.9 0-3.198 1.143-3.198 2.808l.006.024h1.677v-.03c0-.823.583-1.389 1.431-1.389.83 0 1.335.517 1.335 1.257v.018c0 .607-.331 1.046-1.551 2.231l-2.796 2.76zm11.295.222c1.955 0 3.326-1.305 3.326-3.079v-.012c0-1.641-1.143-2.844-2.832-2.844-1.197 0-1.925.595-2.237 1.269h-.121c0-.066 0-.132.006-.198.067-1.576.614-2.809 1.871-2.809.703 0 1.196.367 1.401.908l.024.055h1.773l-.012-.061c-.264-1.359-1.515-2.351-3.192-2.351-2.219 0-3.59 1.726-3.59 4.63v.012c0 3.055 1.569 4.48 3.583 4.48zm-1.593-3.055v-.006c0-.896.698-1.539 1.593-1.539.908 0 1.57.662 1.57 1.569v.012c0 .89-.704 1.582-1.582 1.582-.883 0-1.581-.704-1.581-1.618zm7.249 2.983c.619 0 1.058-.451 1.058-1.046 0-.596-.439-1.041-1.058-1.041-.613 0-1.058.445-1.058 1.041 0 .595.445 1.046 1.058 1.046zm6.774-.15h1.732v-1.594h1.13v-1.455h-1.13v-5.628h-2.55a107.02 107.02 0 0 0-3.433 5.658v1.425h4.251zm-2.616-3.001v-.096a75.13 75.13 0 0 1 2.556-4.203h.096v4.299zm10.262 3.223c1.948 0 3.295-1.245 3.295-3.073v-.012c0-1.653-1.167-2.844-2.784-2.844-.83 0-1.503.361-1.852.944h-.108l.216-2.471h4.011v-1.443h-5.424l-.403 5.135h1.557c.097-.187.241-.349.403-.481.289-.247.662-.373 1.101-.373.92 0 1.575.643 1.575 1.569v.012c0 .932-.649 1.588-1.581 1.588-.818 0-1.413-.511-1.54-1.149l-.012-.042h-1.647l.006.084c.102 1.45 1.329 2.556 3.187 2.556zm5.186-.222h1.9l3.626-7.216v-1.467h-6.205v1.449h4.377v.102zm9.712 0h1.96l1.894-3.043h.06l1.9 3.043h2.069l-2.802-4.336v-.024l2.844-4.317h-2.033l-1.828 3.127h-.072l-1.84-3.127h-2.14l2.742 4.287v.018zm9.419 0h1.618v-5.905h.12l2.225 5.905h1.136l2.225-5.905h.12v5.905h1.618v-8.677h-2.081l-2.393 6.35h-.108l-2.399-6.35h-2.081zm11.086 0h1.815v-3.175h1.486l1.617 3.175h2.057l-1.828-3.446c.992-.391 1.569-1.347 1.569-2.459v-.012c0-1.708-1.13-2.76-3.103-2.76h-3.613zm1.815-4.498v-2.76h1.576c.908 0 1.467.541 1.467 1.377v.012c0 .854-.535 1.371-1.443 1.371z"/><path fill="#999" d="M492.249 444.954h.51v-.713c1.001-.08 1.833-.653 1.833-1.672v-.008c0-.888-.611-1.337-1.702-1.601l-.131-.029v-1.949c.573.073.98.425 1.035.994v.008l.739-.004v-.004c-.034-.934-.794-1.571-1.774-1.66v-.717h-.51v.717c-1.006.093-1.723.713-1.723 1.621v.009c0 .832.569 1.303 1.626 1.558l.097.025v2.042c-.738-.081-1.065-.501-1.141-1.027v-.009l-.739.004v.005c.034.984.87 1.6 1.88 1.693zm-.984-5.059v-.008c0-.408.339-.815.984-.905v1.826c-.73-.179-.984-.501-.984-.913zm1.519 1.761c.841.204 1.07.501 1.07.964v.008c0 .489-.306.888-1.095.951v-1.927zm5.901 2.683h.747v-1.269h.87v-.683h-.87v-4.173h-1.108a96.9 96.9 0 0 0-2.623 4.16v.696h2.984zm-2.203-1.948v-.051a76.747 76.747 0 0 1 2.156-3.417h.051v3.468zm4.491 3.506h.548l.666-2.415h-.845zm4.445-1.414c1.354 0 2.169-1.235 2.169-3.204v-.009c0-1.969-.815-3.2-2.169-3.2s-2.161 1.231-2.161 3.2v.009c0 1.969.807 3.204 2.161 3.204zm0-.666c-.879 0-1.392-.976-1.392-2.538v-.009c0-1.562.513-2.529 1.392-2.529.879 0 1.401.967 1.401 2.529v.009c0 1.562-.522 2.538-1.401 2.538zm4.895.522h.764v-6.125h-.76l-1.63 1.172v.806l1.558-1.129h.068zm4.589.102c1.226 0 2.126-.756 2.126-1.779v-.008c0-.87-.607-1.426-1.498-1.503v-.017c.764-.161 1.299-.679 1.299-1.434v-.009c0-.929-.769-1.579-1.936-1.579-1.146 0-1.935.667-2.033 1.664l-.004.043h.734l.004-.043c.064-.62.577-1.002 1.299-1.002.747 0 1.167.37 1.167 1.011v.008c0 .611-.509 1.061-1.239 1.061h-.734v.645h.768c.857 0 1.396.421 1.396 1.172v.008c0 .65-.547 1.1-1.349 1.1-.815 0-1.371-.416-1.431-1.019l-.004-.042h-.734l.004.051c.08.967.9 1.672 2.165 1.672zm3.646-.06a.55.55 0 1 0 0-1.103.554.554 0 0 0-.552.552c0 .301.251.551.552.551zm3.774.06c1.227 0 2.127-.756 2.127-1.779v-.008c0-.87-.607-1.426-1.498-1.503v-.017c.764-.161 1.298-.679 1.298-1.434v-.009c0-.929-.768-1.579-1.935-1.579-1.146 0-1.936.667-2.033 1.664l-.004.043h.734l.004-.043c.064-.62.577-1.002 1.299-1.002.747 0 1.167.37 1.167 1.011v.008c0 .611-.509 1.061-1.239 1.061h-.735v.645h.769c.857 0 1.396.421 1.396 1.172v.008c0 .65-.547 1.1-1.35 1.1-.815 0-1.371-.416-1.43-1.019l-.004-.042h-.735l.005.051c.08.967.899 1.672 2.164 1.672zm5.421 0c1.227 0 2.127-.756 2.127-1.779v-.008c0-.87-.607-1.426-1.499-1.503v-.017c.764-.161 1.299-.679 1.299-1.434v-.009c0-.929-.768-1.579-1.935-1.579-1.146 0-1.936.667-2.033 1.664l-.005.043h.735l.004-.043c.064-.62.577-1.002 1.299-1.002.747 0 1.167.37 1.167 1.011v.008c0 .611-.509 1.061-1.239 1.061h-.735v.645h.769c.857 0 1.396.421 1.396 1.172v.008c0 .65-.548 1.1-1.35 1.1-.815 0-1.371-.416-1.43-1.019l-.004-.042h-.735l.005.051c.08.967.899 1.672 2.164 1.672z"/><path stroke="#ebebeb" d="M533.118 407.915H261.881a5.5 5.5 0 0 0-5.5 5.5v38.707a5.5 5.5 0 0 0 5.5 5.5h271.237a5.5 5.5 0 0 0 5.5-5.5v-38.707a5.5 5.5 0 0 0-5.5-5.5z"/><path fill="#fff" d="M533.118 466.622H261.881a5.5 5.5 0 0 0-5.5 5.5v38.707a5.5 5.5 0 0 0 5.5 5.5h271.237a5.5 5.5 0 0 0 5.5-5.5v-38.707a5.5 5.5 0 0 0-5.5-5.5z"/><path fill="url('#m')" d="M278.519 505.421c7.701 0 13.944-6.244 13.944-13.945 0-7.701-6.243-13.945-13.944-13.945-7.702 0-13.945 6.244-13.945 13.945 0 7.701 6.243 13.945 13.945 13.945z" style="fill:url(#m)"/><path fill="#fff" d="M282.035 495.446a3.444 3.444 0 0 1-.338.17c-.427.208-.945.312-1.555.312-1.18 0-2.072-.329-2.886-1.199a4.474 4.474 0 0 1-.765-1.107h3.196v-1.547h-3.622a5.783 5.783 0 0 1 .01-1.192h3.612v-1.547h-3.166c.193-.387.44-.744.733-1.062.808-.89 1.697-1.23 2.878-1.23.477.001.949.088 1.395.257l.694-1.528c-.699-.298-1.236-.449-1.97-.449-1.89 0-3.325.631-4.515 2.105a6.524 6.524 0 0 0-1.078 1.904h-1.482v1.547h1.143a7.126 7.126 0 0 0-.011 1.192h-1.132v1.547h1.436c.284.85.754 1.62 1.41 2.31 1.16 1.203 2.457 1.699 4.098 1.699.784 0 1.561-.156 2.284-.46z"/><path fill="#282828" d="M300.257 494.476h4.427v-.803h-3.536v-2.456h3.353v-.792h-3.353v-2.293h3.536v-.802h-4.427zm7.633.094c.782 0 1.322-.322 1.585-.892h.079v.798h.861v-5.339h-.861v3.16c0 .936-.5 1.51-1.441 1.51-.852 0-1.199-.46-1.199-1.421v-3.249h-.861v3.457c0 1.263.624 1.976 1.837 1.976zm4.048-.094h.861v-3.308c0-.783.585-1.303 1.407-1.303.188 0 .351.02.53.05v-.837a2.884 2.884 0 0 0-.431-.035c-.723 0-1.223.327-1.426.887h-.08v-.793h-.861zm5.82.094c1.521 0 2.462-1.05 2.462-2.758v-.01c0-1.714-.941-2.759-2.462-2.759-1.52 0-2.461 1.045-2.461 2.759v.01c0 1.708.941 2.758 2.461 2.758zm0-.763c-1.01 0-1.579-.738-1.579-1.995v-.01c0-1.263.569-1.996 1.579-1.996 1.011 0 1.58.733 1.58 1.996v.01c0 1.257-.569 1.995-1.58 1.995zm145.87-6.902h1.816v-8.677h-1.81l-2.243 1.557v1.636l2.129-1.479h.108zm4.477 0h1.9l3.626-7.216v-1.467h-6.206v1.449h4.378v.102zm5.427 2.333h1.172l1.095-3.722h-1.738zm8.199-2.333h1.732v-1.594h1.13v-1.455h-1.13v-5.628h-2.55a107.02 107.02 0 0 0-3.433 5.658v1.425h4.251zm-2.616-3.001v-.096a75.13 75.13 0 0 1 2.556-4.203h.096v4.299zm10.31 3.223c2.146 0 3.445-1.755 3.445-4.557v-.013c0-2.808-1.299-4.551-3.445-4.551-2.141 0-3.446 1.743-3.446 4.551v.013c0 2.802 1.305 4.557 3.446 4.557zm0-1.437c-1.022 0-1.606-1.16-1.606-3.12v-.013c0-1.966.584-3.114 1.606-3.114 1.028 0 1.611 1.148 1.611 3.114v.013c0 1.96-.583 3.12-1.611 3.12zm9.029 1.215h1.731v-1.594h1.131v-1.455h-1.131v-5.628h-2.549a107.024 107.024 0 0 0-3.434 5.658v1.425h4.252zm-2.616-3.001v-.096a75.724 75.724 0 0 1 2.555-4.203h.097v4.299zm10.235 3.001h5.748v-1.497h-3.932v-2.195h3.71v-1.395h-3.71v-2.093h3.932v-1.497h-5.748zm11.205.222c2.237 0 3.632-1.292 3.632-3.217v-5.682h-1.816v5.52c0 1.124-.649 1.84-1.816 1.84-1.166 0-1.822-.716-1.822-1.84v-5.52h-1.816v5.682c0 1.931 1.413 3.217 3.638 3.217zm5.65-.222h1.815v-3.175h1.486l1.617 3.175h2.057l-1.828-3.446c.992-.39 1.569-1.346 1.569-2.459v-.012c0-1.708-1.13-2.76-3.103-2.76h-3.613zm1.815-4.498v-2.76h1.576c.908 0 1.467.541 1.467 1.377v.012c0 .854-.535 1.371-1.443 1.371z"/><path fill="#999" d="M485.326 503.662h.509v-.713c1.002-.081 1.834-.654 1.834-1.673v-.008c0-.887-.611-1.337-1.702-1.6l-.132-.03v-1.948c.573.072.981.424 1.036.993v.008l.738-.004v-.004c-.034-.934-.793-1.57-1.774-1.66v-.717h-.509v.717c-1.006.094-1.723.713-1.723 1.622v.008c0 .832.568 1.303 1.625 1.558l.098.025v2.042c-.739-.081-1.065-.501-1.142-1.027v-.009l-.738.005v.004c.034.985.87 1.6 1.88 1.693zm-.985-5.06v-.008c0-.408.34-.815.985-.904v1.825c-.73-.178-.985-.501-.985-.913zm1.52 1.762c.84.204 1.069.501 1.069.963v.009c0 .488-.305.887-1.095.951v-1.927zm3.103 2.682h3.964v-.687h-2.903v-.068l1.392-1.439c1.108-1.142 1.41-1.651 1.41-2.352v-.008c0-.989-.82-1.715-1.889-1.715-1.172 0-2.012.781-2.016 1.868l.008.004.73.004.004-.008c0-.722.489-1.201 1.223-1.201.721 0 1.159.483 1.159 1.129v.008c0 .535-.23.853-1.011 1.698l-2.071 2.241zm7.267.145c1.354 0 2.169-1.236 2.169-3.205v-.008c0-1.97-.815-3.201-2.169-3.201s-2.16 1.231-2.16 3.201v.008c0 1.969.806 3.205 2.16 3.205zm0-.667c-.878 0-1.392-.976-1.392-2.538v-.008c0-1.562.514-2.53 1.392-2.53.879 0 1.401.968 1.401 2.53v.008c0 1.562-.522 2.538-1.401 2.538zm2.875 2.08h.547l.667-2.415h-.845zm4.529-1.456c1.299 0 2.224-.73 2.224-1.757v-.009c0-.755-.53-1.383-1.315-1.566v-.017c.67-.208 1.095-.717 1.095-1.362v-.009c0-.925-.845-1.608-2.004-1.608s-2.003.683-2.003 1.608v.009c0 .645.424 1.154 1.095 1.362v.017c-.785.183-1.316.811-1.316 1.566v.009c0 1.027.925 1.757 2.224 1.757zm0-3.633c-.738 0-1.243-.42-1.243-1.015v-.008c0-.594.505-1.014 1.243-1.014.739 0 1.244.42 1.244 1.014v.008c0 .595-.505 1.015-1.244 1.015zm0 2.967c-.844 0-1.447-.476-1.447-1.138v-.008c0-.671.598-1.15 1.447-1.15.849 0 1.448.479 1.448 1.15v.008c0 .662-.603 1.138-1.448 1.138zm5.523.666c1.299 0 2.224-.73 2.224-1.757v-.009c0-.755-.53-1.383-1.316-1.566v-.017c.671-.208 1.095-.717 1.095-1.362v-.009c0-.925-.844-1.608-2.003-1.608-1.159 0-2.003.683-2.003 1.608v.009c0 .645.424 1.154 1.095 1.362v.017c-.786.183-1.316.811-1.316 1.566v.009c0 1.027.925 1.757 2.224 1.757zm0-3.633c-.739 0-1.244-.42-1.244-1.015v-.008c0-.594.505-1.014 1.244-1.014s1.244.42 1.244 1.014v.008c0 .595-.505 1.015-1.244 1.015zm0 2.967c-.845 0-1.447-.476-1.447-1.138v-.008c0-.671.598-1.15 1.447-1.15.849 0 1.447.479 1.447 1.15v.008c0 .662-.602 1.138-1.447 1.138zm6.227.564h.747v-1.269h.871v-.683h-.871v-4.172h-1.107a94.335 94.335 0 0 0-2.623 4.159v.696h2.983zm-2.202-1.948v-.051a77.329 77.329 0 0 1 2.156-3.417h.051v3.468zm5.28 1.991a.554.554 0 0 0 .552-.552.55.55 0 1 0-1.103 0c0 .301.25.552.551.552zm3.741.059c1.298 0 2.224-.73 2.224-1.757v-.009c0-.755-.531-1.383-1.316-1.566v-.017c.67-.208 1.095-.717 1.095-1.362v-.009c0-.925-.845-1.608-2.003-1.608-1.159 0-2.004.683-2.004 1.608v.009c0 .645.425 1.154 1.095 1.362v.017c-.785.183-1.316.811-1.316 1.566v.009c0 1.027.926 1.757 2.225 1.757zm0-3.633c-.739 0-1.244-.42-1.244-1.015v-.008c0-.594.505-1.014 1.244-1.014.738 0 1.243.42 1.243 1.014v.008c0 .595-.505 1.015-1.243 1.015zm0 2.967c-.845 0-1.448-.476-1.448-1.138v-.008c0-.671.599-1.15 1.448-1.15.848 0 1.447.479 1.447 1.15v.008c0 .662-.603 1.138-1.447 1.138zm5.48.709c1.354 0 2.169-1.236 2.169-3.205v-.008c0-1.97-.815-3.201-2.169-3.201s-2.161 1.231-2.161 3.201v.008c0 1.969.807 3.205 2.161 3.205zm0-.667c-.879 0-1.392-.976-1.392-2.538v-.008c0-1.562.513-2.53 1.392-2.53.878 0 1.401.968 1.401 2.53v.008c0 1.562-.523 2.538-1.401 2.538z"/><path stroke="#ebebeb" d="M533.118 466.622H261.881a5.5 5.5 0 0 0-5.5 5.5v38.707a5.5 5.5 0 0 0 5.5 5.5h271.237a5.5 5.5 0 0 0 5.5-5.5v-38.707a5.5 5.5 0 0 0-5.5-5.5z"/><path fill="#fff" d="M533.118 525.329H261.881a5.5 5.5 0 0 0-5.5 5.5v38.707a5.5 5.5 0 0 0 5.5 5.5h271.237a5.5 5.5 0 0 0 5.5-5.5v-38.707a5.5 5.5 0 0 0-5.5-5.5z"/><path fill="#424242" d="M278.519 564.128c7.701 0 13.944-6.244 13.944-13.945 0-7.701-6.243-13.944-13.944-13.944-7.702 0-13.945 6.243-13.945 13.944 0 7.701 6.243 13.945 13.945 13.945z"/><path stroke="#999" stroke-opacity=".24" stroke-width=".362" d="M278.519 563.946c7.602 0 13.764-6.162 13.764-13.763s-6.162-13.763-13.764-13.763c-7.601 0-13.763 6.162-13.763 13.763s6.162 13.763 13.763 13.763z"/><path fill="#fff" fill-rule="evenodd" d="M285.147 544.851h-1.852l-2.932 2.899a2.278 2.278 0 0 1-3.201 0l-2.929-2.899h-1.855l3.858 3.818a3.603 3.603 0 0 0 5.056 0zm-12.792 10.614h1.855l2.954-2.924a2.28 2.28 0 0 1 3.202 0l2.951 2.924h1.855l-3.88-3.84a3.601 3.601 0 0 0-5.056 0z" clip-rule="evenodd"/><path fill="#282828" d="M299.786 553.183h1.011l1.926-2.852h.03l1.901 2.852h1.07l-2.417-3.546v-.019l2.471-3.581h-1.015l-1.931 2.877h-.03l-1.911-2.877h-1.075l2.407 3.536v.02zm7.267 0h.891v-2.828h1.758l1.53 2.828h1.045l-1.654-2.966c.897-.283 1.436-1.055 1.436-2.045v-.01c0-1.283-.901-2.125-2.277-2.125h-2.729zm.891-3.62v-2.733h1.719c.921 0 1.475.51 1.475 1.361v.01c0 .872-.52 1.362-1.436 1.362zm5.648 3.62h.891v-2.55h1.803c1.342 0 2.292-.946 2.292-2.303v-.01c0-1.357-.95-2.283-2.292-2.283h-2.694zm2.466-6.353c1.02 0 1.609.559 1.609 1.5v.01c0 .941-.589 1.5-1.609 1.5h-1.575v-3.01zm137.086-.995c1.948 0 3.295-1.245 3.295-3.073v-.012c0-1.654-1.166-2.844-2.784-2.844-.83 0-1.503.361-1.852.944h-.108l.216-2.471h4.011v-1.444h-5.424l-.403 5.136h1.558c.096-.187.24-.349.403-.482.288-.246.661-.372 1.1-.372.92 0 1.575.643 1.575 1.569v.012c0 .932-.649 1.588-1.581 1.588-.818 0-1.413-.512-1.539-1.149l-.012-.042h-1.648l.006.084c.102 1.449 1.329 2.556 3.187 2.556zm8.824-.223h1.732v-1.593h1.131v-1.455H463.7v-5.629h-2.549a106.653 106.653 0 0 0-3.434 5.659v1.425h4.251zm-2.615-3v-.097a74.53 74.53 0 0 1 2.555-4.203h.096v4.3zm10.995 3h1.732v-1.593h1.13v-1.455h-1.13v-5.629h-2.55a105.988 105.988 0 0 0-3.433 5.659v1.425h4.251zm-2.616-3v-.097a75.13 75.13 0 0 1 2.556-4.203h.096v4.3zm8.019 3.151c.619 0 1.058-.451 1.058-1.047 0-.595-.439-1.04-1.058-1.04-.614 0-1.059.445-1.059 1.04 0 .596.445 1.047 1.059 1.047zm5.812.042c2.086 0 3.523-1.041 3.523-2.544v-.012c0-1.13-.848-1.972-2.026-2.201v-.036c1.01-.252 1.707-.98 1.707-1.924v-.012c0-1.347-1.322-2.333-3.204-2.333-1.889 0-3.205.986-3.205 2.333v.012c0 .944.691 1.678 1.707 1.924v.036c-1.184.235-2.026 1.071-2.026 2.201v.012c0 1.503 1.437 2.544 3.524 2.544zm0-5.34c-.836 0-1.414-.493-1.414-1.203v-.012c0-.709.584-1.196 1.414-1.196.823 0 1.407.487 1.407 1.196v.012c0 .71-.578 1.203-1.407 1.203zm0 4.017c-.957 0-1.63-.559-1.63-1.341v-.012c0-.782.667-1.347 1.63-1.347.962 0 1.623.565 1.623 1.347v.012c0 .782-.673 1.341-1.623 1.341zm8.355 1.353c1.948 0 3.295-1.245 3.295-3.073v-.012c0-1.654-1.167-2.844-2.784-2.844-.83 0-1.503.361-1.852.944h-.108l.216-2.471h4.011v-1.444h-5.424l-.403 5.136h1.558c.096-.187.24-.349.403-.482.288-.246.661-.372 1.1-.372.92 0 1.575.643 1.575 1.569v.012c0 .932-.649 1.588-1.581 1.588-.818 0-1.413-.512-1.539-1.149l-.012-.042h-1.648l.006.084c.102 1.449 1.329 2.556 3.187 2.556zm4.802-.223h6.259v-1.461h-3.824v-.138l1.605-1.498c1.582-1.461 2.093-2.278 2.093-3.265v-.018c0-1.497-1.251-2.519-3.037-2.519-1.9 0-3.199 1.142-3.199 2.808l.006.024h1.678v-.03c0-.824.583-1.389 1.431-1.389.83 0 1.335.517 1.335 1.257v.018c0 .607-.331 1.046-1.551 2.231l-2.796 2.76zm10.577 0h1.96l1.894-3.042h.06l1.9 3.042h2.069l-2.802-4.335v-.024l2.844-4.318h-2.032l-1.828 3.127h-.072l-1.84-3.127h-2.141l2.742 4.288v.018zm9.42 0h1.815v-3.175h1.486l1.617 3.175h2.057l-1.828-3.445c.992-.391 1.569-1.347 1.569-2.46v-.012c0-1.707-1.13-2.76-3.103-2.76h-3.613zm1.815-4.498v-2.76h1.576c.908 0 1.467.542 1.467 1.377v.012c0 .854-.535 1.371-1.443 1.371zm6.648 4.498h1.816v-2.736h1.762c1.828 0 3.048-1.178 3.048-2.964v-.012c0-1.786-1.22-2.965-3.048-2.965h-3.578zm3.133-7.239c1.04 0 1.653.547 1.653 1.533v.012c0 .986-.613 1.539-1.653 1.539h-1.317v-3.084z"/><path fill="#999" d="M498.346 562.369h.509v-.713c1.002-.081 1.834-.654 1.834-1.672v-.009c0-.887-.611-1.337-1.702-1.6l-.132-.03v-1.948c.573.072.981.425 1.036.993v.009l.738-.004v-.005c-.034-.933-.793-1.57-1.774-1.659v-.718h-.509v.718c-1.006.093-1.723.713-1.723 1.621v.009c0 .832.568 1.303 1.625 1.557l.098.026v2.041c-.739-.08-1.065-.5-1.142-1.027v-.008l-.738.004v.004c.034.985.87 1.6 1.88 1.694zm-.985-5.059v-.009c0-.407.34-.815.985-.904v1.825c-.73-.178-.985-.501-.985-.912zm1.52 1.761c.84.204 1.069.501 1.069.964v.008c0 .488-.305.887-1.095.951v-1.927zm3.103 2.683h3.964v-.688h-2.903v-.068l1.392-1.439c1.108-1.141 1.41-1.651 1.41-2.351v-.009c0-.989-.82-1.714-1.889-1.714-1.172 0-2.012.781-2.016 1.867l.008.004.73.005.004-.009c0-.721.489-1.201 1.223-1.201.721 0 1.159.484 1.159 1.129v.008c0 .535-.23.854-1.011 1.698l-2.071 2.241zm7.267.144c1.354 0 2.169-1.235 2.169-3.205v-.008c0-1.97-.815-3.2-2.169-3.2s-2.16 1.23-2.16 3.2v.008c0 1.97.806 3.205 2.16 3.205zm0-.666c-.878 0-1.392-.977-1.392-2.539v-.008c0-1.562.514-2.53 1.392-2.53.879 0 1.401.968 1.401 2.53v.008c0 1.562-.522 2.539-1.401 2.539zm5.561.666c1.236 0 2.144-.887 2.144-2.11v-.008c0-1.176-.858-2.05-2.008-2.05-.827 0-1.405.446-1.63.946h-.08c0-.046 0-.097.004-.144.047-1.277.501-2.364 1.613-2.364.62 0 1.048.318 1.235.832l.017.047h.768l-.013-.056c-.207-.904-.972-1.506-1.999-1.506-1.485 0-2.355 1.222-2.355 3.31v.009c0 2.305 1.184 3.094 2.304 3.094zm-1.392-2.118v-.004c0-.798.603-1.38 1.397-1.38.793 0 1.371.586 1.371 1.401v.008c0 .794-.616 1.418-1.384 1.418-.777 0-1.384-.637-1.384-1.443zm5.043 2.016a.55.55 0 1 0 .003-1.105.55.55 0 0 0-.003 1.105zm3.774.06c1.227 0 2.127-.756 2.127-1.779v-.008c0-.871-.607-1.427-1.498-1.503v-.017c.764-.161 1.298-.679 1.298-1.435v-.008c0-.93-.768-1.579-1.935-1.579-1.146 0-1.936.666-2.033 1.664l-.004.042h.734l.004-.042c.064-.62.577-1.002 1.299-1.002.747 0 1.167.369 1.167 1.01v.009c0 .611-.509 1.061-1.239 1.061h-.734v.645h.768c.857 0 1.396.42 1.396 1.172v.008c0 .649-.547 1.099-1.35 1.099-.814 0-1.371-.416-1.43-1.018l-.004-.043h-.734l.004.051c.08.968.9 1.673 2.164 1.673zm5.341-6.371c-1.235 0-2.144.887-2.144 2.109v.009c0 1.175.858 2.05 2.008 2.05.828 0 1.405-.446 1.63-.947h.08c0 .047 0 .098-.004.144-.046 1.278-.501 2.365-1.613 2.365-.619 0-1.048-.319-1.235-.832l-.017-.047h-.768l.013.055c.208.904.972 1.507 1.999 1.507 1.485 0 2.355-1.222 2.355-3.311v-.008c0-2.305-1.184-3.094-2.304-3.094zm-.005 3.501c-.793 0-1.37-.585-1.37-1.4v-.009c0-.794.615-1.418 1.383-1.418.777 0 1.384.637 1.384 1.444v.004c0 .798-.603 1.379-1.397 1.379z"/><path stroke="#ebebeb" d="M533.118 525.329H261.881a5.5 5.5 0 0 0-5.5 5.5v38.707a5.5 5.5 0 0 0 5.5 5.5h271.237a5.5 5.5 0 0 0 5.5-5.5v-38.707a5.5 5.5 0 0 0-5.5-5.5z"/><path fill="#fff" d="M533.118 584.037H261.881a5.5 5.5 0 0 0-5.5 5.5v38.707a5.5 5.5 0 0 0 5.5 5.5h271.237a5.5 5.5 0 0 0 5.5-5.5v-38.707a5.5 5.5 0 0 0-5.5-5.5z"/><path fill="url('#n')" d="M278.519 622.834c7.701 0 13.944-6.243 13.944-13.944 0-7.701-6.243-13.945-13.944-13.945-7.702 0-13.945 6.244-13.945 13.945 0 7.701 6.243 13.944 13.945 13.944z" style="fill:url(#n)"/><path fill="#fff" d="M281.361 610.146c0-1.468-1.395-2.258-2.864-2.258-1.47 0-1.388-.964-1.388-.964 0-.308.113-1.009 1.388-1.009 1.274 0 1.327 1.152 1.327 1.152h1.26s.157-1.904-1.905-2.251v-1.34h-1.365v1.34c-2.092.331-2.077 2.153-2.077 2.153 0 1.596 1.372 2.229 2.76 2.229 1.387 0 1.424 1.024 1.424 1.024s.158 1.227-1.424 1.227c-1.583 0-1.545-1.378-1.545-1.378h-1.44c0 1.476 1.005 2.266 2.302 2.477v1.302h1.365v-1.295c1.305-.225 2.182-1.136 2.182-2.409z"/><path fill="#fff" d="M272.114 608.671a6.403 6.403 0 0 1 4.492-6.12v-1.453a7.801 7.801 0 0 0-5.879 7.566 7.809 7.809 0 0 0 5.887 7.573v-1.445a6.41 6.41 0 0 1-4.5-6.121zm8.271-7.573v1.445a6.406 6.406 0 0 1 4.492 6.121 6.403 6.403 0 0 1-4.492 6.12v1.446a7.803 7.803 0 0 0 5.879-7.566 7.794 7.794 0 0 0-5.879-7.566z"/><path fill="#282828" d="M303.089 612.059c1.773 0 2.833-1.07 2.833-2.625v-4.689h-.892v4.63c0 1.099-.703 1.862-1.941 1.862s-1.951-.763-1.951-1.862v-4.63h-.891v4.689c0 1.555 1.07 2.625 2.842 2.625zm6.901 0c1.594 0 2.639-.832 2.639-2.169v-.005c0-1.03-.589-1.629-2.08-1.961l-.792-.179c-.971-.212-1.362-.599-1.362-1.168v-.005c0-.748.688-1.169 1.58-1.174.931-.005 1.525.461 1.624 1.09l.01.064h.891l-.005-.069c-.074-1.065-1.069-1.907-2.496-1.907-1.475 0-2.51.837-2.515 2.021v.005c0 1.035.619 1.693 2.05 2.01l.792.173c.981.218 1.392.624 1.392 1.219v.005c0 .727-.708 1.228-1.679 1.228-1.03 0-1.773-.451-1.837-1.164l-.005-.055h-.891l.005.055c.104 1.164 1.114 1.986 2.679 1.986zm4.038-.169h2.451c2.124 0 3.372-1.322 3.372-3.57v-.01c0-2.243-1.253-3.565-3.372-3.565h-2.451zm.891-.802v-5.541h1.5c1.585 0 2.521 1.03 2.521 2.773v.01c0 1.738-.926 2.758-2.521 2.758zm12.032.971c1.521 0 2.65-.847 2.887-2.154v-.01h-.901l-.01.01c-.223.822-.98 1.332-1.976 1.332-1.376 0-2.238-1.124-2.238-2.912v-.01c0-1.788.862-2.917 2.233-2.917.986 0 1.748.58 1.986 1.496l.005.01h.896l.005-.01c-.213-1.372-1.386-2.318-2.892-2.318-1.941 0-3.149 1.436-3.149 3.739v.01c0 2.298 1.213 3.734 3.154 3.734zm6.381-.075c1.52 0 2.461-1.049 2.461-2.758v-.01c0-1.713-.941-2.758-2.461-2.758-1.521 0-2.461 1.045-2.461 2.758v.01c0 1.709.94 2.758 2.461 2.758zm0-.762c-1.011 0-1.58-.738-1.58-1.996v-.01c0-1.263.569-1.995 1.58-1.995 1.01 0 1.579.732 1.579 1.995v.01c0 1.258-.569 1.996-1.579 1.996zm4.166-5.7a.596.596 0 0 0 .595-.594.596.596 0 0 0-.595-.594.596.596 0 0 0-.594.594c0 .327.268.594.594.594zm-.435 6.368h.861v-5.338h-.861zm2.399 0h.861v-3.159c0-.936.54-1.51 1.392-1.51.851 0 1.248.46 1.248 1.421v3.248h.861v-3.456c0-1.268-.668-1.976-1.867-1.976-.787 0-1.287.332-1.555.896h-.079v-.802h-.861zm102.936-7.378c2.087 0 3.524-1.04 3.524-2.544v-.012c0-1.13-.848-1.972-2.026-2.2v-.036c1.01-.253 1.707-.981 1.707-1.925v-.012c0-1.347-1.323-2.333-3.205-2.333-1.888 0-3.205.986-3.205 2.333v.012c0 .944.692 1.678 1.708 1.925v.036c-1.185.234-2.026 1.07-2.026 2.2v.012c0 1.504 1.437 2.544 3.523 2.544zm0-5.34c-.836 0-1.413-.493-1.413-1.202v-.012c0-.71.583-1.197 1.413-1.197.824 0 1.407.487 1.407 1.197v.012c0 .709-.577 1.202-1.407 1.202zm0 4.017c-.956 0-1.629-.559-1.629-1.341v-.012c0-.782.667-1.347 1.629-1.347s1.624.565 1.624 1.347v.012c0 .782-.674 1.341-1.624 1.341zm4.423 3.464h1.173l1.094-3.723h-1.738zm7.273-2.111c1.948 0 3.295-1.245 3.295-3.073v-.012c0-1.653-1.166-2.844-2.784-2.844-.83 0-1.503.361-1.852.944h-.108l.216-2.471h4.011v-1.443h-5.424l-.403 5.135h1.558a1.53 1.53 0 0 1 .403-.481c.288-.247.661-.373 1.1-.373.92 0 1.576.643 1.576 1.569v.012c0 .932-.65 1.588-1.582 1.588-.818 0-1.413-.511-1.539-1.149l-.012-.042h-1.648l.006.084c.102 1.45 1.329 2.556 3.187 2.556zm6.804-.223h1.816v-8.676h-1.81l-2.243 1.557v1.636l2.129-1.48h.108zm7.429.223c2.147 0 3.446-1.756 3.446-4.558v-.012c0-2.808-1.299-4.552-3.446-4.552-2.14 0-3.445 1.744-3.445 4.552v.012c0 2.802 1.305 4.558 3.445 4.558zm0-1.437c-1.022 0-1.605-1.161-1.605-3.121v-.012c0-1.966.583-3.115 1.605-3.115 1.029 0 1.612 1.149 1.612 3.115v.012c0 1.96-.583 3.121-1.612 3.121zm5.632 1.365c.619 0 1.058-.451 1.058-1.046 0-.596-.439-1.041-1.058-1.041-.614 0-1.058.445-1.058 1.041 0 .595.444 1.046 1.058 1.046zm5.848.072c1.948 0 3.295-1.245 3.295-3.073v-.012c0-1.653-1.167-2.844-2.784-2.844-.83 0-1.503.361-1.852.944h-.108l.216-2.471h4.011v-1.443h-5.424l-.403 5.135h1.558a1.54 1.54 0 0 1 .402-.481c.289-.247.662-.373 1.101-.373.92 0 1.575.643 1.575 1.569v.012c0 .932-.649 1.588-1.581 1.588-.818 0-1.413-.511-1.54-1.149l-.012-.042h-1.647l.006.084c.102 1.45 1.329 2.556 3.187 2.556zm4.801-.223h6.26v-1.461h-3.824v-.138l1.605-1.497c1.582-1.461 2.093-2.279 2.093-3.265v-.018c0-1.498-1.251-2.52-3.037-2.52-1.9 0-3.199 1.143-3.199 2.808l.006.024h1.678v-.03c0-.823.583-1.389 1.431-1.389.83 0 1.335.517 1.335 1.257v.018c0 .607-.331 1.046-1.552 2.231l-2.796 2.76zm14.733.223c2.237 0 3.632-1.293 3.632-3.217v-5.682h-1.816v5.52c0 1.124-.65 1.84-1.816 1.84-1.167 0-1.822-.716-1.822-1.84v-5.52h-1.816v5.682c0 1.93 1.413 3.217 3.638 3.217zm8.752 0c2.165 0 3.5-1.088 3.5-2.808v-.006c0-1.353-.8-2.087-2.634-2.465l-.92-.187c-1.022-.21-1.443-.547-1.443-1.112v-.006c0-.65.595-1.059 1.491-1.065.914 0 1.515.433 1.617 1.053l.012.072h1.708l-.006-.078c-.114-1.449-1.305-2.52-3.331-2.52-1.924 0-3.307 1.065-3.307 2.676v.006c0 1.317.775 2.159 2.579 2.526l.914.186c1.077.222 1.504.541 1.504 1.112v.006c0 .668-.668 1.131-1.636 1.131-1.016 0-1.72-.439-1.786-1.089l-.006-.06h-1.75l.006.096c.103 1.54 1.413 2.532 3.488 2.532zm5.132-.223h3.416c2.597 0 4.071-1.587 4.071-4.389v-.012c0-2.718-1.492-4.275-4.071-4.275h-3.416zm1.816-1.497v-5.682h1.311c1.575 0 2.508 1.022 2.508 2.808v.012c0 1.852-.902 2.862-2.508 2.862zm10.995 1.72c2.093 0 3.578-1.239 3.764-3.055l.006-.066h-1.767l-.012.048c-.193.926-.944 1.534-1.985 1.534-1.371 0-2.219-1.155-2.219-3.019v-.012c0-1.864.848-3.012 2.213-3.012 1.035 0 1.81.661 1.997 1.635v.042h1.767v-.072c-.168-1.834-1.707-3.145-3.764-3.145-2.519 0-4.071 1.738-4.071 4.552v.012c0 2.814 1.558 4.558 4.071 4.558z"/><path fill="#999" d="M492.657 621.076h.509v-.713c1.002-.08 1.834-.653 1.834-1.672v-.008c0-.888-.611-1.338-1.702-1.601l-.132-.029v-1.949c.573.073.981.425 1.036.994v.008l.738-.004v-.004c-.034-.934-.793-1.571-1.774-1.66v-.717h-.509v.717c-1.006.093-1.723.713-1.723 1.621v.009c0 .832.568 1.303 1.625 1.558l.098.025v2.042c-.739-.081-1.066-.501-1.142-1.027v-.009l-.738.004v.005c.033.984.87 1.6 1.88 1.693zm-.985-5.059v-.009c0-.407.34-.814.985-.904v1.826c-.73-.179-.985-.501-.985-.913zm1.52 1.761c.84.204 1.069.501 1.069.964v.008c0 .489-.305.888-1.095.951v-1.927zm5.196 2.785c1.298 0 2.224-.73 2.224-1.757v-.009c0-.755-.531-1.384-1.316-1.566v-.017c.671-.208 1.095-.717 1.095-1.363v-.008c0-.925-.845-1.609-2.003-1.609-1.159 0-2.004.684-2.004 1.609v.008c0 .646.425 1.155 1.095 1.363v.017c-.785.182-1.316.811-1.316 1.566v.009c0 1.027.926 1.757 2.225 1.757zm0-3.633c-.739 0-1.244-.421-1.244-1.015v-.008c0-.595.505-1.015 1.244-1.015.738 0 1.243.42 1.243 1.015v.008c0 .594-.505 1.015-1.243 1.015zm0 2.966c-.845 0-1.448-.475-1.448-1.137v-.009c0-.67.599-1.15 1.448-1.15.848 0 1.447.48 1.447 1.15v.009c0 .662-.603 1.137-1.447 1.137zm2.95 2.123h.548l.666-2.415h-.844zm4.466-1.414c1.244 0 2.131-.861 2.131-2.097v-.008c0-1.184-.828-2.046-1.978-2.046-.556 0-1.036.225-1.307.637h-.068l.208-2.071h2.805v-.684h-3.408l-.323 3.519h.663c.076-.144.174-.263.28-.365.263-.251.611-.374 1.018-.374.794 0 1.363.582 1.363 1.397v.008c0 .828-.56 1.409-1.375 1.409-.718 0-1.248-.467-1.32-1.052l-.005-.034h-.734l.004.046c.089.981.904 1.715 2.046 1.715zm4.831-.144h.764v-6.125h-.76l-1.63 1.172v.806l1.558-1.129h.068zm4.555.144c1.354 0 2.169-1.235 2.169-3.204v-.009c0-1.969-.815-3.2-2.169-3.2s-2.16 1.231-2.16 3.2v.009c0 1.969.806 3.204 2.16 3.204zm0-.666c-.878 0-1.392-.976-1.392-2.538v-.009c0-1.562.514-2.53 1.392-2.53.879 0 1.401.968 1.401 2.53v.009c0 1.562-.522 2.538-1.401 2.538zm3.664.564a.551.551 0 1 0 .002-1.104.551.551 0 0 0-.002 1.104zm3.676.102c1.244 0 2.131-.861 2.131-2.097v-.008c0-1.184-.828-2.046-1.978-2.046-.556 0-1.036.225-1.307.637h-.068l.208-2.071h2.805v-.684h-3.408l-.322 3.519h.662c.076-.144.174-.263.28-.365.263-.251.611-.374 1.019-.374.793 0 1.362.582 1.362 1.397v.008c0 .828-.56 1.409-1.375 1.409-.718 0-1.248-.467-1.32-1.052l-.004-.034h-.735l.004.046c.09.981.905 1.715 2.046 1.715zm3.333-.144h3.964v-.688h-2.903v-.068l1.392-1.438c1.108-1.142 1.409-1.652 1.409-2.352v-.008c0-.989-.819-1.715-1.888-1.715-1.172 0-2.012.781-2.016 1.867l.008.005.73.004.004-.009c0-.721.488-1.201 1.223-1.201.721 0 1.158.484 1.158 1.129v.009c0 .535-.229.853-1.01 1.698l-2.071 2.241z"/><path stroke="#ebebeb" d="M533.118 584.037H261.881a5.5 5.5 0 0 0-5.5 5.5v38.707a5.5 5.5 0 0 0 5.5 5.5h271.237a5.5 5.5 0 0 0 5.5-5.5v-38.707a5.5 5.5 0 0 0-5.5-5.5z"/><path fill="#fff" d="M533.118 642.744H261.881a5.5 5.5 0 0 0-5.5 5.5v38.707a5.5 5.5 0 0 0 5.5 5.5h271.237a5.5 5.5 0 0 0 5.5-5.5v-38.707a5.5 5.5 0 0 0-5.5-5.5z"/><path fill="url('#o')" d="M278.519 681.542c7.701 0 13.944-6.243 13.944-13.944 0-7.701-6.243-13.944-13.944-13.944-7.702 0-13.945 6.243-13.945 13.944 0 7.701 6.243 13.944 13.945 13.944z" style="fill:url(#o)"/><path fill="#fff" d="m278.305 659.888-1.435.818-3.913 2.24-1.436.818v7.753l1.436.818 3.948 2.24 1.436.818 1.436-.818 3.877-2.24 1.435-.818v-7.753l-1.435-.818-3.913-2.24zm-3.912 9.993V665.4l3.912-2.241 3.913 2.241v4.481l-3.913 2.241z"/><path fill="#282828" d="M303.134 670.766c1.52 0 2.649-.847 2.887-2.154v-.01h-.901l-.01.01c-.223.822-.981 1.332-1.976 1.332-1.377 0-2.238-1.124-2.238-2.912v-.01c0-1.787.861-2.916 2.233-2.916.985 0 1.748.579 1.986 1.495l.005.01h.896l.005-.01c-.213-1.372-1.387-2.317-2.892-2.317-1.941 0-3.149 1.436-3.149 3.738v.01c0 2.298 1.213 3.734 3.154 3.734zm4.236-.168h.862v-3.16c0-.936.539-1.51 1.391-1.51s1.248.46 1.248 1.421v3.249h.862v-3.457c0-1.268-.669-1.976-1.867-1.976-.788 0-1.288.332-1.555.897h-.079v-2.922h-.862zm7.301.094c.718 0 1.278-.312 1.615-.882h.079v.788h.861v-3.655c0-1.109-.728-1.778-2.03-1.778-1.139 0-1.951.565-2.09 1.402l-.004.029h.861l.005-.014c.139-.416.56-.654 1.198-.654.798 0 1.199.356 1.199 1.015v.485l-1.53.094c-1.243.075-1.946.624-1.946 1.575v.01c0 .971.767 1.585 1.782 1.585zm-.901-1.605v-.01c0-.53.357-.817 1.169-.866l1.426-.089v.485c0 .762-.639 1.337-1.515 1.337-.619 0-1.08-.317-1.08-.857zm5.4-4.858a.595.595 0 0 0 .594-.594.595.595 0 0 0-.594-.594.595.595 0 0 0-.594.594c0 .327.267.594.594.594zm-.436 6.369h.862v-5.339h-.862zm2.399 0h.862v-3.16c0-.936.539-1.51 1.391-1.51s1.248.46 1.248 1.421v3.249h.862v-3.457c0-1.268-.669-1.976-1.867-1.976-.788 0-1.288.332-1.555.897h-.079v-.803h-.862zm5.885 0h.862v-7.458h-.862zm2.884-6.369a.595.595 0 0 0 .594-.594.595.595 0 0 0-.594-.594.595.595 0 0 0-.594.594c0 .327.267.594.594.594zm-.436 6.369h.862v-5.339h-.862zm2.399 0h.862v-3.16c0-.936.54-1.51 1.391-1.51.852 0 1.248.46 1.248 1.421v3.249h.862v-3.457c0-1.268-.669-1.976-1.867-1.976-.787 0-1.287.332-1.555.897h-.079v-.803h-.862zm5.885 0h.862v-2.026l.5-.485 2.001 2.511h1.084l-2.481-3.095 2.328-2.244h-1.045l-2.308 2.333h-.079v-4.452h-.862zm141.061-7.571h1.816v-8.677h-1.81l-2.243 1.557v1.636l2.129-1.479h.108zm4.092 0h6.26v-1.461h-3.824v-.139l1.605-1.497c1.582-1.461 2.093-2.279 2.093-3.265v-.018c0-1.497-1.251-2.519-3.037-2.519-1.9 0-3.199 1.142-3.199 2.808l.006.024h1.678v-.03c0-.824.583-1.389 1.431-1.389.83 0 1.335.517 1.335 1.256v.018c0 .608-.331 1.047-1.552 2.231l-2.796 2.76zm11.765 0h1.732v-1.594h1.13v-1.455h-1.13v-5.628h-2.55a107.02 107.02 0 0 0-3.433 5.658v1.425h4.251zm-2.616-3.001v-.096a75.13 75.13 0 0 1 2.556-4.203h.096v4.299zm10.235 3.001h5.676v-1.497h-3.86v-7.18h-1.816zm7.237 0h1.816v-8.677h-1.816zm3.834 0h1.737v-5.55h.097l4.016 5.55h1.504v-8.677h-1.738v5.526h-.096l-4.005-5.526h-1.515zm9.377 0h1.816v-2.652l.86-1.034 2.519 3.686h2.177l-3.385-4.877 3.163-3.8h-2.021l-3.205 3.896h-.108v-3.896h-1.816z"/><path stroke="#ebebeb" d="M533.118 642.744H261.881a5.5 5.5 0 0 0-5.5 5.5v38.707a5.5 5.5 0 0 0 5.5 5.5h271.237a5.5 5.5 0 0 0 5.5-5.5v-38.707a5.5 5.5 0 0 0-5.5-5.5z"/></g></g><defs><linearGradient id="c" x1="48.007" x2="33.433" y1="210.623" y2="166.696" gradientUnits="userSpaceOnUse"><stop stop-color="#FFC300"/><stop offset="1" stop-color="#FF541E"/></linearGradient><linearGradient id="j" x1="274.535" x2="288.602" y1="301.409" y2="333.16" gradientUnits="userSpaceOnUse"><stop stop-color="#2F80ED"/><stop offset="1" stop-color="#72A9F3"/></linearGradient><linearGradient id="k" x1="280.092" x2="261.685" y1="399.251" y2="343.768" gradientUnits="userSpaceOnUse"><stop stop-color="#FFC300"/><stop offset="1" stop-color="#FF541E"/></linearGradient><linearGradient id="l" x1="267.149" x2="288.173" y1="418.824" y2="441.564" gradientUnits="userSpaceOnUse"><stop offset="0" stop-color="#FF6F08"/><stop offset="1" stop-color="#FFA666"/></linearGradient><linearGradient id="m" x1="267.149" x2="292.463" y1="477.531" y2="512.803" gradientUnits="userSpaceOnUse"><stop stop-color="#2453A8"/><stop offset="1" stop-color="#2E67D1"/></linearGradient><linearGradient id="n" x1="274.535" x2="285.491" y1="594.946" y2="622.835" gradientUnits="userSpaceOnUse"><stop stop-color="#2D77C7"/><stop offset="1" stop-color="#5996D9"/></linearGradient><linearGradient id="o" x1="267.149" x2="285.69" y1="653.653" y2="681.542" gradientUnits="userSpaceOnUse"><stop offset="0" stop-color="#2A5ADA"/><stop offset="1" stop-color="#5078E2"/></linearGradient></defs></svg>