<svg xmlns="http://www.w3.org/2000/svg" width="555" height="363" fill="none"><g clip-path="url('#a')"><path fill="#fff" d="M545.816 52.819H48.102a9.184 9.184 0 0 0-9.184 9.184v290.813a9.184 9.184 0 0 0 9.184 9.185h497.714a9.184 9.184 0 0 0 9.184-9.185V62.003a9.184 9.184 0 0 0-9.184-9.184Z"/><path stroke="url('#b')" stroke-dasharray="2.84 2.84" stroke-linecap="round" stroke-linejoin="round" stroke-width=".804" d="M214.678 94.043v261.516" opacity=".1"/><path stroke="url('#c')" stroke-dasharray="2.84 2.84" stroke-linecap="round" stroke-linejoin="round" stroke-width=".804" d="M272.891 100.484V362" opacity=".1"/><path stroke="url('#d')" stroke-dasharray="2.84 2.84" stroke-linecap="round" stroke-linejoin="round" stroke-width=".804" d="M332.225 100.484V362" opacity=".1"/><path stroke="url('#e')" stroke-dasharray="2.84 2.84" stroke-linecap="round" stroke-linejoin="round" stroke-width=".804" d="M389.318 100.484V362" opacity=".1"/><path stroke="url('#f')" stroke-dasharray="2.84 2.84" stroke-linecap="round" stroke-linejoin="round" stroke-width=".804" d="M447.531 100.484V362" opacity=".1"/><path stroke="url('#g')" stroke-dasharray="2.84 2.84" stroke-linecap="round" stroke-linejoin="round" stroke-width=".804" d="M504.625 100.484V362" opacity=".1"/><path stroke="url('#h')" stroke-dasharray="2.84 2.84" stroke-linecap="round" stroke-linejoin="round" stroke-width=".804" d="M155.346 95.331V355.56" opacity=".1"/><path stroke="url('#i')" stroke-dasharray="2.84 2.84" stroke-linecap="round" stroke-linejoin="round" stroke-width=".804" d="M98.252 95.331V355.56" opacity=".1"/><path fill="#83EB93" d="M440 135h32v227h-32V135Z"/><path fill="#83EB93" d="M464 116h33v246h-33V116Zm33-39h58v275.816a9.184 9.184 0 0 1-9.184 9.184H497V77Zm-89.771 84.032h33.583V362h-33.583V161.032Zm-75.006 16.747h75.005V362h-75.005V177.779Zm-60.453 56.684h34.704V362H271.77V234.463Z"/><path fill="#83EB93" d="M297.518 219.004h34.704V362h-34.704V219.004Zm-81.721 30.918h55.974V362h-55.974V249.922Zm-60.453 36.071h60.452V362h-60.452v-76.007ZM38.918 298.875h116.426V362H48.102a9.184 9.184 0 0 1-9.184-9.184v-53.941Z"/><path fill="#fff" d="M0 149.437v59.611c0 5.692 4.614 10.306 10.306 10.306H193.59c5.692 0 10.306-4.614 10.306-10.306v-59.611c0-5.692-4.614-10.306-10.306-10.306H10.306C4.614 139.131 0 143.745 0 149.437Z"/><path fill="#FF8411" d="M67.605 186.65v.001c-3.786 14.793-19.166 23.795-34.353 20.107-15.18-3.688-24.42-18.673-20.634-33.466 3.784-14.795 19.164-23.799 34.346-20.111 15.186 3.688 24.426 18.674 20.64 33.469Z"/><path fill="#fff" fill-rule="evenodd" d="M48.65 176.761c.381-2.493-1.567-3.833-4.23-4.727l.864-3.376-2.11-.513-.842 3.288a80.613 80.613 0 0 0-1.69-.387l.847-3.31-2.108-.512-.865 3.375a65.08 65.08 0 0 1-1.347-.308l.002-.011-2.91-.707-.56 2.195s1.565.349 1.532.371c.854.208 1.01.759.983 1.196l-.984 3.846c.059.015.135.036.22.069l-.223-.054-1.38 5.389c-.105.253-.37.632-.967.488.02.03-1.534-.373-1.534-.373l-1.047 2.353 2.746.667c.31.076.616.154.919.231l.584.147-.873 3.416 2.108.513.865-3.379a88.51 88.51 0 0 0 1.68.425l-.861 3.363 2.11.512.873-3.409c3.597.663 6.303.396 7.44-2.774.918-2.552-.044-4.024-1.937-4.985 1.378-.311 2.417-1.194 2.694-3.019Zm-4.823 6.586c-.599 2.343-4.363 1.374-6.084.93-.154-.039-.292-.075-.41-.103l1.159-4.525c.144.034.32.073.518.116 1.78.39 5.429 1.187 4.817 3.582Zm-4.459-5.68c1.436.373 4.566 1.187 5.112-.942.557-2.177-2.487-2.833-3.973-3.154a19.749 19.749 0 0 1-.435-.097l-1.05 4.104c.1.024.216.055.346.089Z" clip-rule="evenodd"/><path fill="#4EB1FC" d="M108.83 186.65v.001c-3.786 14.793-19.167 23.795-34.353 20.107-15.18-3.688-24.42-18.673-20.634-33.466 3.784-14.795 19.163-23.799 34.346-20.111 15.185 3.688 24.427 18.674 20.641 33.469Z"/><path fill="#fff" d="m80.428 186.247 1.493-5.403 3.533-1.241.879-3.175-.03-.079-3.478 1.222 2.506-9.073h-7.107l-3.277 11.84-2.736.961-.904 3.274 2.734-.961-1.932 6.978h18.914l1.213-4.343H80.428Z"/><path fill="#2F8E1C" d="M150.054 186.65v.001c-3.786 14.793-19.166 23.795-34.352 20.107-15.18-3.688-24.421-18.673-20.635-33.466 3.784-14.795 19.164-23.799 34.346-20.111 15.186 3.688 24.426 18.674 20.641 33.469Z"/><path fill="#fff" fill-rule="evenodd" d="M129.955 179.509c-.642-.52-1.475-.782-2.5-.788 1.06-.936 1.317-2.156.77-3.659-.194-.546-.47-.993-.827-1.343a3.044 3.044 0 0 0-1.276-.744 5.782 5.782 0 0 0-1.543-.236 11.027 11.027 0 0 0-1.802.129l-.829-3.195-1.901.456.805 3.106a71.52 71.52 0 0 0-1.499.386l-.812-3.131-1.902.456.829 3.195c-.27.073-.668.173-1.194.299l-2.621.615.539 2.079 1.37-.328c.626-.15 1.067.049 1.323.598l.943 3.639c.083-.02.15-.032.201-.035l-.197.047 1.321 5.096c.046.447-.137.72-.548.818l-1.37.329.218 2.411 2.47-.591c.156-.038.383-.09.68-.157.298-.067.52-.118.669-.154l.838 3.233 1.902-.456-.829-3.195c.348-.074.851-.19 1.51-.348l.825 3.182 1.901-.456-.838-3.232a14.726 14.726 0 0 0 1.747-.621 7.25 7.25 0 0 0 1.386-.797 4.031 4.031 0 0 0 1.005-1.029c.245-.372.412-.812.504-1.319.092-.507.089-1.067-.01-1.681-.197-1.2-.617-2.06-1.258-2.579Zm-9.96-3.609 1.011 3.897.429-.095c.244-.055.436-.101.575-.138.139-.038.343-.096.612-.174.269-.078.489-.156.662-.233.173-.077.373-.175.601-.292.228-.118.407-.244.539-.379.131-.135.254-.286.369-.452.114-.167.183-.357.207-.569a1.863 1.863 0 0 0-.057-.675 1.78 1.78 0 0 0-.347-.705 1.871 1.871 0 0 0-.516-.443 1.931 1.931 0 0 0-.686-.213 4.354 4.354 0 0 0-.735-.047 6.798 6.798 0 0 0-.787.081 7.284 7.284 0 0 0-.726.14c-.176.047-.397.104-.664.173-.267.068-.429.111-.487.124Zm7.247 7.949a1.774 1.774 0 0 0 .121-1.257 1.824 1.824 0 0 0-.397-.769 2.013 2.013 0 0 0-.609-.474 2.457 2.457 0 0 0-.812-.217 6.166 6.166 0 0 0-.872-.041 7.367 7.367 0 0 0-.945.106c-.37.061-.658.117-.864.166-.206.05-.471.117-.795.204-.324.087-.519.138-.584.154l1.113 4.293c.066-.016.219-.05.46-.104.24-.053.439-.098.595-.136.157-.037.374-.096.651-.176.278-.08.514-.155.711-.224.197-.07.422-.162.678-.277.254-.115.468-.229.64-.343.172-.113.345-.249.519-.407.173-.159.303-.325.39-.498Z" clip-rule="evenodd"/><path fill="#F3F3F3" d="M191.277 186.1c-3.786 15.183-19.166 24.422-34.353 20.637-15.179-3.786-24.421-19.165-20.634-34.347 3.784-15.185 19.164-24.426 34.346-20.64 15.186 3.785 24.426 19.165 20.64 34.349l.001.001Z"/><path fill="#282828" d="M152.227 180.037h2.962v2.874h1.804v-2.874h2.97v-1.803h-2.97v-2.874h-1.804v2.874h-2.962v1.803Zm9.588 3.093h7.139v-1.666h-4.362v-.158l1.831-1.708c1.804-1.666 2.387-2.599 2.387-3.724v-.02c0-1.708-1.427-2.874-3.463-2.874-2.168 0-3.649 1.303-3.649 3.203l.007.027h1.913v-.034c0-.94.665-1.584 1.633-1.584.946 0 1.522.59 1.522 1.433v.021c0 .692-.377 1.193-1.769 2.544l-3.189 3.148v1.392Zm12.79.254c2.222 0 3.759-1.42 3.759-3.504v-.014c0-1.886-1.331-3.244-3.176-3.244-.946 0-1.714.411-2.112 1.077h-.124l.247-2.819h4.575v-1.646h-6.186l-.46 5.857h1.776c.11-.213.275-.398.46-.549.329-.281.754-.425 1.255-.425 1.049 0 1.797.734 1.797 1.79v.014c0 1.063-.741 1.81-1.804 1.81-.933 0-1.612-.583-1.756-1.31l-.013-.048h-1.88l.007.096c.117 1.653 1.516 2.915 3.635 2.915Z"/><path stroke="#282828" stroke-opacity=".15" stroke-width="1.219" d="M.61 149.438v59.611a9.695 9.695 0 0 0 9.696 9.696h183.283c5.355 0 9.696-4.341 9.696-9.696v-59.611c0-5.355-4.341-9.697-9.696-9.697H10.306c-5.355 0-9.697 4.342-9.697 9.697Z"/><path fill="#fff" d="M444.845 0H10.306C4.614 0 0 4.614 0 10.306v97.343c0 5.692 4.614 10.306 10.306 10.306h434.539c5.692 0 10.306-4.614 10.306-10.306V10.306C455.151 4.614 450.537 0 444.845 0Z"/><path stroke="#282828" stroke-opacity=".15" stroke-width=".883" d="M444.845.442H10.305C4.859.442.442 4.858.442 10.306v97.342c0 5.448 4.417 9.865 9.865 9.865h434.539c5.448 0 9.864-4.417 9.864-9.865V10.306c0-5.448-4.416-9.864-9.864-9.864Z"/><path fill="#000" fill-opacity=".6" d="M105.645 62.156h1.405l1.077-3.068h4.265l1.077 3.068h1.404l-3.952-10.721h-1.323l-3.953 10.721Zm4.555-8.99h.119l1.679 4.785h-3.477l1.679-4.785Zm6.296 8.99h1.293v-4.74c0-1.404.81-2.266 2.088-2.266 1.277 0 1.872.69 1.872 2.132v4.874h1.293V56.97c0-1.902-1.003-2.964-2.801-2.964-1.182 0-1.932.497-2.333 1.344h-.119v-1.203h-1.293v8.01Zm8.792 0h1.293v-4.74c0-1.404.81-2.266 2.088-2.266s1.872.69 1.872 2.132v4.874h1.293V56.97c0-1.902-1.003-2.964-2.801-2.964-1.181 0-1.932.497-2.333 1.344h-.119v-1.203h-1.293v8.01Zm11.475.141c1.174 0 1.984-.483 2.377-1.337h.119v1.196h1.293v-8.01h-1.293v4.741c0 1.404-.75 2.266-2.162 2.266-1.278 0-1.798-.69-1.798-2.132v-4.874h-1.293v5.186c0 1.894.937 2.964 2.757 2.964Zm8.309 0c1.078 0 1.917-.468 2.423-1.322h.118v1.181h1.293v-5.483c0-1.664-1.092-2.667-3.046-2.667-1.709 0-2.927.847-3.135 2.102l-.008.045h1.293l.007-.023c.208-.624.84-.98 1.798-.98 1.197 0 1.798.535 1.798 1.523v.728l-2.295.141c-1.865.112-2.92.936-2.92 2.363v.015c0 1.456 1.151 2.377 2.674 2.377Zm-1.352-2.407v-.015c0-.795.535-1.226 1.754-1.3l2.139-.134v.728c0 1.145-.958 2.006-2.273 2.006-.929 0-1.62-.475-1.62-1.285Zm7.53 2.266h1.292v-11.19h-1.292v11.19Zm8.03 0h1.337V51.435h-1.337v10.721Zm3.814 0h1.293v-4.74c0-1.404.81-2.266 2.088-2.266s1.872.69 1.872 2.132v4.874h1.293V56.97c0-1.902-1.003-2.964-2.801-2.964-1.182 0-1.932.497-2.333 1.344h-.119v-1.203h-1.293v8.01Zm11.638.06c.253 0 .498-.03.751-.075v-1.1c-.238.023-.365.03-.595.03-.832 0-1.159-.379-1.159-1.322v-4.532h1.754v-1.07h-1.754v-2.073h-1.337v2.073h-1.263v1.07h1.263v4.859c0 1.53.691 2.14 2.34 2.14Zm5.739.081c1.887 0 3.031-1.07 3.306-2.154l.015-.06h-1.293l-.029.067c-.216.483-.885.996-1.969.996-1.427 0-2.341-.966-2.378-2.623h5.766v-.505c0-2.393-1.323-4.012-3.5-4.012s-3.588 1.694-3.588 4.168v.007c0 2.511 1.382 4.116 3.67 4.116Zm-.089-7.14c1.181 0 2.058.75 2.192 2.333h-4.429c.142-1.523 1.048-2.333 2.237-2.333Zm5.419 7h1.293v-4.964c0-1.174.877-1.954 2.11-1.954.282 0 .527.03.795.074v-1.255a4.335 4.335 0 0 0-.647-.052c-1.084 0-1.835.49-2.139 1.33h-.119v-1.19h-1.293v8.01Zm8.748.14c1.887 0 3.031-1.07 3.306-2.154l.015-.06h-1.293l-.03.067c-.215.483-.884.996-1.968.996-1.427 0-2.341-.966-2.378-2.623h5.766v-.505c0-2.393-1.323-4.012-3.5-4.012s-3.588 1.694-3.588 4.168v.007c0 2.511 1.381 4.116 3.67 4.116Zm-.089-7.14c1.181 0 2.058.75 2.192 2.333h-4.429c.142-1.523 1.048-2.333 2.237-2.333Zm8.168 7.14c1.82 0 3.21-.988 3.21-2.414v-.015c0-1.145-.728-1.798-2.237-2.162l-1.233-.298c-.944-.23-1.345-.572-1.345-1.114v-.015c0-.706.699-1.196 1.65-1.196.965 0 1.59.438 1.76 1.07h1.271c-.178-1.308-1.345-2.147-3.024-2.147-1.701 0-2.979 1.003-2.979 2.333v.007c0 1.152.676 1.805 2.177 2.162l1.24.297c.989.238 1.397.617 1.397 1.16v.014c0 .728-.765 1.24-1.842 1.24-1.026 0-1.665-.437-1.88-1.106h-1.323c.149 1.322 1.375 2.184 3.158 2.184Zm7.893-.081c.253 0 .498-.03.751-.075v-1.1a5.4 5.4 0 0 1-.595.03c-.832 0-1.159-.379-1.159-1.322v-4.532h1.754v-1.07h-1.754v-2.073h-1.337v2.073h-1.263v1.07h1.263v4.859c0 1.53.691 2.14 2.34 2.14ZM106.5 31.386h4.183c2.281 0 3.633-1.122 3.633-3.002v-.015c0-1.412-.929-2.415-2.392-2.6v-.12c1.032-.185 1.85-1.195 1.85-2.303v-.014c0-1.635-1.204-2.668-3.173-2.668H106.5v10.722Zm3.819-9.54c1.33 0 2.102.631 2.102 1.716v.015c0 1.13-.824 1.709-2.444 1.709h-2.14v-3.44h2.482Zm.037 4.591c1.709 0 2.586.632 2.586 1.865v.015c0 1.233-.847 1.887-2.46 1.887h-2.645v-3.767h2.519Zm8.087 5.09c1.077 0 1.916-.468 2.422-1.323h.119v1.182h1.292v-5.484c0-1.664-1.092-2.667-3.046-2.667-1.709 0-2.927.847-3.135 2.103l-.008.044h1.293l.008-.022c.208-.624.839-.98 1.798-.98 1.196 0 1.798.534 1.798 1.522v.729l-2.296.14c-1.865.112-2.92.937-2.92 2.363v.015c0 1.456 1.151 2.378 2.675 2.378Zm-1.353-2.408v-.014c0-.795.535-1.226 1.754-1.3l2.14-.134v.728c0 1.144-.959 2.006-2.274 2.006-.929 0-1.62-.476-1.62-1.286Zm7.53 2.267h1.292v-11.19h-1.292v11.19Zm5.88.14c1.077 0 1.917-.467 2.422-1.322h.119v1.182h1.292v-5.484c0-1.664-1.092-2.667-3.046-2.667-1.709 0-2.927.847-3.135 2.103l-.008.044h1.293l.008-.022c.208-.624.839-.98 1.798-.98 1.196 0 1.798.534 1.798 1.522v.729l-2.296.14c-1.865.112-2.92.937-2.92 2.363v.015c0 1.456 1.152 2.378 2.675 2.378Zm-1.353-2.407v-.014c0-.795.535-1.226 1.754-1.3l2.14-.134v.728c0 1.144-.959 2.006-2.274 2.006-.929 0-1.62-.476-1.62-1.286Zm7.455 2.267h1.293v-4.74c0-1.405.81-2.267 2.088-2.267s1.872.691 1.872 2.133v4.874h1.293V26.2c0-1.902-1.003-2.965-2.801-2.965-1.181 0-1.932.498-2.333 1.345h-.119v-1.204h-1.293v8.01Zm12.069.14c1.925 0 3.002-1.032 3.329-2.48l.015-.082-1.278.007-.015.044c-.297.892-.981 1.368-2.058 1.368-1.427 0-2.348-1.182-2.348-3.024v-.015c0-1.806.907-2.965 2.348-2.965 1.152 0 1.865.64 2.065 1.427l.008.022h1.285l-.007-.044c-.238-1.427-1.404-2.549-3.351-2.549-2.244 0-3.67 1.62-3.67 4.109v.015c0 2.54 1.434 4.168 3.677 4.168Zm8.414 0c1.887 0 3.031-1.07 3.306-2.154l.015-.06h-1.293l-.029.067c-.216.483-.885.996-1.969.996-1.427 0-2.341-.966-2.378-2.623h5.766v-.505c0-2.392-1.323-4.012-3.5-4.012s-3.588 1.694-3.588 4.168v.008c0 2.51 1.382 4.116 3.67 4.116Zm-.089-7.14c1.181 0 2.058.751 2.192 2.334h-4.429c.142-1.523 1.048-2.333 2.237-2.333Zm-51.351 68.541h1.405l1.077-3.068h4.265l1.077 3.068h1.404l-3.952-10.721h-1.323l-3.953 10.721Zm4.555-8.99h.119l1.679 4.785h-3.477l1.679-4.785Zm9.127 9.131c1.924 0 3.001-1.032 3.328-2.481l.015-.082-1.278.007-.015.045c-.297.892-.98 1.367-2.058 1.367-1.426 0-2.348-1.181-2.348-3.024v-.015c0-1.805.907-2.964 2.348-2.964 1.152 0 1.865.639 2.066 1.426l.007.023h1.286l-.008-.045c-.238-1.427-1.404-2.548-3.351-2.548-2.244 0-3.67 1.62-3.67 4.108v.015c0 2.541 1.434 4.168 3.678 4.168Zm8.421 0c1.924 0 3.001-1.032 3.328-2.481l.015-.082-1.278.007-.015.045c-.297.892-.98 1.367-2.058 1.367-1.426 0-2.348-1.181-2.348-3.024v-.015c0-1.805.907-2.964 2.348-2.964 1.152 0 1.865.639 2.066 1.426l.007.023h1.285l-.007-.045c-.238-1.427-1.404-2.548-3.351-2.548-2.244 0-3.67 1.62-3.67 4.108v.015c0 2.541 1.434 4.168 3.678 4.168Zm5.144-.14h1.293v-4.964c0-1.174.877-1.954 2.11-1.954.282 0 .527.03.795.074V84.83a4.335 4.335 0 0 0-.647-.052c-1.084 0-1.835.49-2.139 1.33h-.119v-1.19h-1.293v8.01Zm8.384.14c1.174 0 1.984-.483 2.377-1.337h.119v1.196h1.293v-8.01h-1.293v4.741c0 1.404-.75 2.266-2.162 2.266-1.278 0-1.798-.69-1.798-2.132v-4.874h-1.293v5.186c0 1.894.936 2.964 2.757 2.964Zm9.379 0c1.887 0 3.032-1.07 3.306-2.154l.015-.06h-1.292l-.03.067c-.216.483-.884.996-1.969.996-1.427 0-2.34-.966-2.378-2.623h5.766v-.505c0-2.393-1.323-4.012-3.5-4.012-2.176 0-3.588 1.694-3.588 4.168v.007c0 2.511 1.382 4.116 3.67 4.116Zm-.089-7.14c1.181 0 2.058.75 2.192 2.333h-4.428c.141-1.523 1.047-2.333 2.236-2.333Zm8.376 7.14c1.115 0 2.006-.527 2.497-1.419h.119v1.278h1.292v-11.19h-1.292v4.444h-.119c-.439-.855-1.397-1.404-2.497-1.404-2.035 0-3.358 1.627-3.358 4.138v.015c0 2.496 1.33 4.138 3.358 4.138Zm.298-1.144c-1.464 0-2.333-1.13-2.333-2.994v-.015c0-1.865.869-2.994 2.333-2.994 1.456 0 2.347 1.144 2.347 2.994v.015c0 1.85-.891 2.994-2.347 2.994Zm10.348 1.003h1.337V82.206h-1.337v10.721Zm3.814 0h1.293v-4.74c0-1.404.81-2.266 2.088-2.266s1.872.69 1.872 2.132v4.874h1.293v-5.186c0-1.902-1.003-2.964-2.801-2.964-1.182 0-1.932.497-2.333 1.344h-.119v-1.203h-1.293v8.01Zm11.638.06c.253 0 .498-.03.751-.075v-1.1a5.4 5.4 0 0 1-.595.03c-.832 0-1.159-.379-1.159-1.322v-4.532h1.754v-1.07h-1.754v-2.073H182.7v2.073h-1.263v1.07h1.263v4.859c0 1.53.691 2.14 2.34 2.14Zm5.739.081c1.887 0 3.031-1.07 3.306-2.154l.015-.06h-1.293l-.029.067c-.216.483-.885.996-1.969.996-1.427 0-2.341-.966-2.378-2.623h5.766v-.505c0-2.393-1.323-4.012-3.5-4.012s-3.588 1.694-3.588 4.168v.007c0 2.511 1.382 4.116 3.67 4.116Zm-.089-7.14c1.181 0 2.058.75 2.192 2.333h-4.429c.142-1.523 1.048-2.333 2.237-2.333Zm5.419 7h1.293v-4.964c0-1.174.877-1.954 2.11-1.954.282 0 .528.03.795.074V84.83a4.332 4.332 0 0 0-.646-.052c-1.085 0-1.836.49-2.14 1.33h-.119v-1.19h-1.293v8.01Zm8.748.14c1.887 0 3.031-1.07 3.306-2.154l.015-.06h-1.293l-.029.067c-.216.483-.885.996-1.969.996-1.427 0-2.341-.966-2.378-2.623h5.766v-.505c0-2.393-1.323-4.012-3.5-4.012s-3.588 1.694-3.588 4.168v.007c0 2.511 1.382 4.116 3.67 4.116Zm-.089-7.14c1.181 0 2.058.75 2.192 2.333h-4.429c.142-1.523 1.048-2.333 2.237-2.333Zm8.168 7.14c1.82 0 3.21-.988 3.21-2.414v-.015c0-1.144-.728-1.798-2.237-2.162l-1.233-.298c-.943-.23-1.345-.572-1.345-1.114v-.015c0-.706.699-1.196 1.65-1.196.966 0 1.59.438 1.761 1.07h1.27c-.178-1.308-1.345-2.147-3.024-2.147-1.701 0-2.979 1.003-2.979 2.333v.007c0 1.152.676 1.805 2.177 2.162l1.241.297c.988.238 1.396.617 1.396 1.16v.014c0 .728-.765 1.24-1.842 1.24-1.026 0-1.665-.437-1.88-1.106h-1.323c.149 1.322 1.375 2.184 3.158 2.184Zm7.894-.081c.252 0 .497-.03.75-.075v-1.1c-.238.023-.364.03-.594.03-.833 0-1.159-.379-1.159-1.322v-4.532h1.753v-1.07h-1.753v-2.073h-1.338v2.073h-1.263v1.07h1.263v4.859c0 1.53.691 2.14 2.341 2.14Z"/><path fill="#282828" d="M324.396 33.386h2.589V21.015h-2.58l-3.198 2.22v2.332l3.035-2.109h.154v9.928Zm10.435.317c3.061 0 4.912-2.504 4.912-6.498v-.018c0-4.003-1.851-6.49-4.912-6.49-3.052 0-4.912 2.487-4.912 6.49v.018c0 3.995 1.86 6.498 4.912 6.498Zm0-2.05c-1.457 0-2.289-1.654-2.289-4.448v-.018c0-2.803.832-4.44 2.289-4.44 1.466 0 2.298 1.637 2.298 4.44v.018c0 2.794-.832 4.449-2.298 4.449Zm5.84 5.059h1.672l1.56-5.307h-2.477l-.755 5.307Zm9.99-3.01c3.06 0 4.912-2.502 4.912-6.497v-.018c0-4.003-1.852-6.49-4.912-6.49-3.052 0-4.913 2.487-4.913 6.49v.018c0 3.995 1.861 6.498 4.913 6.498Zm0-2.048c-1.458 0-2.289-1.655-2.289-4.45v-.017c0-2.803.831-4.44 2.289-4.44 1.466 0 2.297 1.637 2.297 4.44v.018c0 2.794-.831 4.449-2.297 4.449Zm11.738 2.049c3.06 0 4.912-2.504 4.912-6.498v-.018c0-4.003-1.852-6.49-4.912-6.49-3.052 0-4.912 2.487-4.912 6.49v.018c0 3.995 1.86 6.498 4.912 6.498Zm0-2.05c-1.458 0-2.289-1.654-2.289-4.448v-.018c0-2.803.831-4.44 2.289-4.44 1.466 0 2.297 1.637 2.297 4.44v.018c0 2.794-.831 4.449-2.297 4.449Zm11.738 2.05c3.061 0 4.912-2.504 4.912-6.498v-.018c0-4.003-1.851-6.49-4.912-6.49-3.052 0-4.912 2.487-4.912 6.49v.018c0 3.995 1.86 6.498 4.912 6.498Zm0-2.05c-1.457 0-2.289-1.654-2.289-4.448v-.018c0-2.803.832-4.44 2.289-4.44 1.466 0 2.298 1.637 2.298 4.44v.018c0 2.794-.832 4.449-2.298 4.449Zm16.653 2.05c3.189 0 5.178-1.843 5.178-4.587v-8.101h-2.589v7.87c0 1.603-.926 2.623-2.589 2.623-1.664 0-2.598-1.02-2.598-2.623v-7.87h-2.589v8.101c0 2.752 2.015 4.587 5.187 4.587Zm12.321 0c3.086 0 4.989-1.552 4.989-4.004v-.008c0-1.93-1.14-2.975-3.755-3.515l-1.311-.266c-1.458-.3-2.058-.78-2.058-1.586v-.009c0-.925.849-1.508 2.126-1.517 1.303 0 2.161.617 2.306 1.5l.017.103h2.435l-.008-.111c-.163-2.066-1.861-3.592-4.75-3.592-2.743 0-4.715 1.517-4.715 3.815v.008c0 1.878 1.106 3.078 3.678 3.6l1.303.267c1.535.317 2.143.771 2.143 1.586v.008c0 .952-.951 1.612-2.332 1.612-1.448 0-2.451-.626-2.546-1.552l-.008-.086h-2.495l.009.138c.145 2.194 2.014 3.609 4.972 3.609Zm7.16-.317h4.869c3.704 0 5.804-2.264 5.804-6.259v-.017c0-3.875-2.126-6.095-5.804-6.095h-4.869v12.37Zm2.589-2.135V23.15h1.869c2.246 0 3.575 1.457 3.575 4.003v.017c0 2.64-1.286 4.081-3.575 4.081h-1.869Zm15.519 2.452c2.983 0 5.101-1.766 5.367-4.355l.008-.095h-2.52l-.017.07c-.275 1.32-1.346 2.185-2.829 2.185-1.955 0-3.164-1.646-3.164-4.303v-.018c0-2.657 1.209-4.295 3.155-4.295 1.475 0 2.58.943 2.846 2.332v.06h2.521v-.103c-.24-2.614-2.435-4.483-5.367-4.483-3.592 0-5.804 2.477-5.804 6.49v.017c0 4.012 2.221 6.498 5.804 6.498Zm-56.041 57.224h7.14V89.26h-4.362v-.157l1.831-1.708c1.804-1.667 2.387-2.6 2.387-3.724v-.02c0-1.709-1.427-2.874-3.464-2.874-2.167 0-3.648 1.303-3.648 3.203l.007.027h1.913v-.034c0-.94.665-1.585 1.632-1.585.947 0 1.523.59 1.523 1.434v.02c0 .693-.377 1.194-1.77 2.545l-3.189 3.148v1.392Zm13.518 0h1.975v-1.818h1.29v-1.66h-1.29V81.03h-2.908a121.622 121.622 0 0 0-3.916 6.454v1.626h4.849v1.817Zm-2.983-3.422v-.11a85.27 85.27 0 0 1 2.914-4.794h.11v4.904h-3.024Zm16.014 3.676c2.551 0 4.142-1.475 4.142-3.67v-6.48h-2.071v6.295c0 1.283-.741 2.099-2.071 2.099-1.331 0-2.078-.816-2.078-2.099V81.03h-2.071v6.481c0 2.202 1.611 3.67 4.149 3.67Zm10.081 0c2.469 0 3.992-1.242 3.992-3.203v-.007c0-1.543-.912-2.38-3.004-2.812l-1.049-.213c-1.166-.24-1.646-.624-1.646-1.268v-.007c0-.74.679-1.207 1.701-1.214 1.042 0 1.728.494 1.844 1.2l.014.082h1.948l-.007-.089c-.13-1.653-1.488-2.873-3.799-2.873-2.195 0-3.772 1.213-3.772 3.052v.006c0 1.502.884 2.463 2.942 2.88l1.042.213c1.228.254 1.715.618 1.715 1.27v.006c0 .761-.761 1.29-1.866 1.29-1.159 0-1.961-.501-2.037-1.242l-.006-.068h-1.996l.007.11c.116 1.755 1.611 2.887 3.977 2.887Zm5.953-.254h3.896c2.963 0 4.643-1.81 4.643-5.007v-.013c0-3.1-1.701-4.877-4.643-4.877h-3.896v9.897Zm2.072-1.708v-6.48h1.495c1.797 0 2.86 1.165 2.86 3.202v.014c0 2.112-1.029 3.264-2.86 3.264h-1.495Zm12.639 1.962c2.387 0 4.081-1.413 4.294-3.484l.007-.076h-2.017l-.013.055c-.22 1.056-1.077 1.749-2.264 1.749-1.563 0-2.53-1.317-2.53-3.443v-.014c0-2.126.967-3.436 2.523-3.436 1.18 0 2.065.755 2.277 1.866v.048h2.017v-.082c-.192-2.092-1.948-3.587-4.294-3.587-2.873 0-4.643 1.982-4.643 5.191v.014c0 3.21 1.777 5.199 4.643 5.199Zm-27.659-30.806c2.38 0 4.019-1.186 4.019-2.9v-.014c0-1.29-.967-2.25-2.311-2.51v-.042c1.152-.288 1.947-1.118 1.947-2.194V52.7c0-1.536-1.508-2.661-3.655-2.661-2.154 0-3.655 1.125-3.655 2.66v.015c0 1.076.788 1.913 1.947 2.194v.041c-1.351.268-2.311 1.221-2.311 2.51v.014c0 1.715 1.639 2.901 4.019 2.901Zm0-6.09c-.953 0-1.612-.562-1.612-1.371V52.9c0-.81.666-1.365 1.612-1.365.94 0 1.605.556 1.605 1.365v.014c0 .809-.659 1.371-1.605 1.371Zm0 4.582c-1.09 0-1.859-.638-1.859-1.53v-.014c0-.891.762-1.536 1.859-1.536s1.852.645 1.852 1.536v.014c0 .892-.768 1.53-1.852 1.53Zm6.769 1.46c.707 0 1.207-.514 1.207-1.193s-.5-1.187-1.207-1.187c-.699 0-1.207.508-1.207 1.187s.508 1.193 1.207 1.193Zm3.306-.171h7.139v-1.667h-4.362v-.157l1.832-1.708c1.803-1.667 2.386-2.6 2.386-3.724v-.02c0-1.709-1.426-2.874-3.463-2.874-2.167 0-3.649 1.303-3.649 3.203l.007.027h1.914v-.034c0-.94.665-1.585 1.632-1.585.946 0 1.522.59 1.522 1.434v.02c0 .693-.377 1.194-1.769 2.545l-3.189 3.148v1.392Zm11.254-4.472c1.454 0 2.339-1.07 2.339-2.784v-.007c0-1.715-.885-2.778-2.339-2.778-1.447 0-2.338 1.063-2.338 2.778v.007c0 1.714.891 2.784 2.338 2.784Zm1.523 4.472 6.659-9.897H429.9l-6.659 9.897h1.584Zm-1.523-5.569c-.596 0-.932-.61-.932-1.687v-.007c0-1.084.336-1.68.932-1.68.604 0 .94.596.94 1.68v.007c0 1.077-.336 1.687-.94 1.687Zm8.114 5.713c1.454 0 2.338-1.07 2.338-2.784v-.007c0-1.715-.884-2.778-2.338-2.778-1.447 0-2.339 1.063-2.339 2.778v.007c0 1.714.892 2.784 2.339 2.784Zm0-1.097c-.597 0-.933-.61-.933-1.688v-.006c0-1.084.336-1.68.933-1.68.603 0 .939.596.939 1.68v.007c0 1.076-.336 1.687-.939 1.687Z"/><path fill="#2D77C7" d="M46.157 92.313c18.41 0 33.335-14.925 33.335-33.335S64.568 25.643 46.157 25.643c-18.41 0-33.335 14.924-33.335 33.335 0 18.41 14.925 33.335 33.335 33.335Z"/><path fill="#fff" d="M52.95 61.98c0-3.509-3.334-5.398-6.848-5.398s-3.316-2.304-3.316-2.304c0-.738.268-2.412 3.316-2.412s3.173 2.754 3.173 2.754h3.012s.377-4.553-4.553-5.381v-3.204H44.47v3.204c-5.002.792-4.966 5.147-4.966 5.147 0 3.815 3.28 5.327 6.597 5.327 3.317 0 3.407 2.448 3.407 2.448s.376 2.933-3.407 2.933-3.693-3.293-3.693-3.293h-3.442c0 3.527 2.402 5.417 5.504 5.92v3.114h3.263V67.74c3.12-.54 5.217-2.718 5.217-5.76Z"/><path fill="#fff" d="M30.846 58.455c0-6.875 4.518-12.706 10.739-14.632v-3.474c-8.068 2.034-14.056 9.359-14.056 18.088 0 8.728 5.988 16.071 14.074 18.105v-3.456c-6.24-1.944-10.757-7.757-10.757-14.631ZM50.62 40.35v3.455c6.22 1.925 10.738 7.757 10.738 14.632 0 6.874-4.518 12.706-10.739 14.631v3.456c8.068-2.034 14.056-9.359 14.056-18.087 0-8.73-5.97-16.054-14.056-18.088Z"/></g><defs><linearGradient id="b" x1="nan" x2="nan" y1="nan" y2="nan" gradientUnits="userSpaceOnUse"><stop stop-opacity="0"/><stop offset="1"/></linearGradient><linearGradient id="c" x1="nan" x2="nan" y1="nan" y2="nan" gradientUnits="userSpaceOnUse"><stop stop-opacity="0"/><stop offset="1"/></linearGradient><linearGradient id="d" x1="nan" x2="nan" y1="nan" y2="nan" gradientUnits="userSpaceOnUse"><stop stop-opacity="0"/><stop offset="1"/></linearGradient><linearGradient id="e" x1="nan" x2="nan" y1="nan" y2="nan" gradientUnits="userSpaceOnUse"><stop stop-opacity="0"/><stop offset="1"/></linearGradient><linearGradient id="f" x1="nan" x2="nan" y1="nan" y2="nan" gradientUnits="userSpaceOnUse"><stop stop-opacity="0"/><stop offset="1"/></linearGradient><linearGradient id="g" x1="nan" x2="nan" y1="nan" y2="nan" gradientUnits="userSpaceOnUse"><stop stop-opacity="0"/><stop offset="1"/></linearGradient><linearGradient id="h" x1="nan" x2="nan" y1="nan" y2="nan" gradientUnits="userSpaceOnUse"><stop stop-opacity="0"/><stop offset="1"/></linearGradient><linearGradient id="i" x1="nan" x2="nan" y1="nan" y2="nan" gradientUnits="userSpaceOnUse"><stop stop-opacity="0"/><stop offset="1"/></linearGradient><clipPath id="a"><path fill="#fff" d="M0 0h555v363H0z"/></clipPath></defs></svg>