<svg version="1.0" xmlns="http://www.w3.org/2000/svg" width="933.333" height="933.333" viewBox="0 0 700 700"><path d="M93.5 1.1C45.7 8 7.8 46.4 1.1 94.4c-1.5 10.8-1.5 500.4 0 511.2 6.3 45.3 39.9 81.5 85.4 92 7.7 1.8 18.2 1.9 263.5 1.9s255.8-.1 263.5-1.9c26.3-6.1 48.5-20.3 64.7-41.6 6.8-8.8 15.2-26.4 18.5-38.5l2.8-10v-514l-2.3-8.8C686.6 43 657.9 14.1 615.9 2.8L607.5.5l-254-.1C213.3.3 96.8.6 93.5 1.1zM383 67.6c117.7 13.5 215.2 99.9 243.4 215.6 5.9 24.1 7 34.8 7 66.8 0 25.7-.3 31.2-2.2 42.8-14.4 87.7-63.5 159.2-139.8 203.7C448.8 621.4 401.3 634 350 634c-33.5 0-61.1-4.5-92.3-15.1C162.9 586.8 91 504.5 71 405.4c-7-35-6.8-77.5.6-113.4 20.5-99.5 94.6-181.8 191.6-212.8 15.6-5 37.4-9.8 52.8-11.6 16.2-1.9 50.4-2 67 0z"/><path d="M332.1 110c-32.7 2.7-61.7 10.8-90.7 25.5-70.7 35.6-119.5 104.4-130 183.2-2.1 16.3-2.2 46.5-.1 61.8 10.2 73.9 51.1 136.7 114.2 175.3 61.5 37.6 139.2 45.1 207 20.1 27.7-10.3 52.8-25 74-43.4 3.9-3.4 8.1-7 9.4-8.1 4.3-3.5 20-21.5 26.9-30.8 33.9-45.4 51.1-103.1 47.2-158.4-.5-8.1-1.7-19-2.6-24.2-14.1-85.4-73.4-157-154.8-187-30.2-11.1-69.3-16.6-100.5-14zm30.6 72.6c2.9 1.4 6.8 4.3 8.7 6.6 5.8 6.7 6.6 10.7 6.6 31.8v18.6l7.3 2.3c3.9 1.3 11.6 4.6 17 7.3l9.8 5.1 13.3-13.1c15.3-15.2 19.3-17.6 29.6-17.6 15.7 0 28.1 12 28.1 27.3.1 11.8-2.8 16.6-20.5 34-6.4 6.3-11.6 11.8-11.6 12.3s1.1 3 2.4 5.6c1.3 2.6 3.4 7.9 4.6 11.9l2.3 7.2 20.6.3c20.4.3 20.7.3 25.2 3 20.7 12.2 18.3 43.7-3.9 51.2-3.5 1.2-9 1.6-23.2 1.6h-18.6l-2.3 7.2c-1.3 4-4.1 10.7-6.1 14.8l-3.8 7.5 12.9 13.2c15.1 15.4 17.3 19.1 17.3 29.8 0 8.4-3 15.1-9.3 20.8-5.8 5.2-10.4 7-18.6 7-10.7.1-14.4-2-29.8-17.2l-13.2-12.9-7.5 3.8c-4.1 2-10.8 4.8-14.7 6.1l-7.3 2.3V479c0 21.1-.8 25.1-6.6 31.8-10.9 12.7-31.9 12.7-42.8 0-5.8-6.7-6.6-10.7-6.6-31.8v-18.6l-5.7-1.8c-3.2-1-8.8-3.2-12.6-4.8l-6.7-3.1-12.9 12.7c-15.2 14.8-19 17-29.6 17-8.6 0-14.6-2.4-20.4-8.4-8.1-8.4-10.3-21.8-5.1-32 1.2-2.5 7.4-9.8 13.8-16.2l11.5-11.7-5.1-9.8c-2.7-5.4-6-13.1-7.3-17.1l-2.3-7.2H221c-21.1 0-25.1-.8-31.8-6.6-14.6-12.5-12.2-36.2 4.7-46.2 4.5-2.7 4.8-2.7 25.2-3l20.6-.3 2.3-7.2c1.2-4 4-10.6 6.1-14.8l3.8-7.6-13-12.9c-15.7-15.6-18.9-21-18.8-31.3.1-12 5-20.1 15.2-25.1 6-2.9 7.3-3.2 13.9-2.8 4.3.2 8.9 1.2 11.3 2.3 2.2 1 10.3 8.1 18 15.6l14 13.7 7.5-3.8c4.1-2 10.8-4.8 14.8-6.1l7.2-2.3v-19c.1-20.6.7-23.9 5.5-30.1 8.1-10.7 22.7-14 35.2-7.9z"/><path d="M337.5 276.6c-25.7 6.1-43.2 19-53.5 39.5-6.2 12.2-7.5 18.1-7.5 33.9 0 16.2 1.4 22.3 8.1 35 18.5 35.3 62.5 49.1 98.9 31.1 19.6-9.8 34.3-28.8 39.1-50.5 2.3-10.6 1.5-28.3-1.6-37.6-8.2-24.2-25.7-41.7-49.4-49.2-6-1.9-29.1-3.4-34.1-2.2z"/></svg>